<?xml version="1.0" encoding="utf-8"?>
<!-- Generator: Adobe Illustrator 16.0.0, SVG Export Plug-In . SVG Version: 6.00 Build 0)  -->
<!DOCTYPE svg PUBLIC "-//W3C//DTD SVG 1.0//EN" "http://www.w3.org/TR/2001/REC-SVG-20010904/DTD/svg10.dtd">
<svg version="1.0" id="Layer_1" xmlns="http://www.w3.org/2000/svg" xmlns:xlink="http://www.w3.org/1999/xlink" x="0px" y="0px"
	 width="512px" height="512px" viewBox="0 0 512 512" enable-background="new 0 0 512 512" xml:space="preserve">
<path d="M248.996,55c-83.76,0-145.629,55.828-145.629,139.596C103.363,278.359,203.688,455,248.996,455
	c45.309,0,145.637-176.641,145.637-260.404C394.629,110.828,332.762,55,248.996,55z M229.209,340.168
	c-3.668,3.672-34.854-5.5-59.732-30.387c-24.881-24.867-35.684-54.414-30.373-59.721c5.309-5.316,38.809,1.535,63.693,26.417
	C227.672,301.355,232.877,336.488,229.209,340.168z M268.777,340.168c-3.664-3.68,1.539-38.812,26.418-63.691
	c24.879-24.88,58.379-31.731,63.684-26.416c5.316,5.307-5.484,34.854-30.371,59.721C303.637,334.668,272.449,343.84,268.777,340.168
	z"/>
</svg>
