<svg xmlns="http://www.w3.org/2000/svg" xmlns:xlink="http://www.w3.org/1999/xlink" version="1.1" id="Layer_1" x="0px" y="0px" width="100px" height="100px" viewBox="0 0 100 100" enable-background="new 0 0 100 100" xml:space="preserve">
<path d="M50,0c-20.94,0-36.407,13.957-36.407,34.899C13.592,55.84,38.673,100,50,100c11.327,0,36.409-44.16,36.409-65.101  C86.408,13.957,70.941,0,50,0z M45.053,71.292c-0.917,0.918-8.713-1.375-14.933-7.596c-6.22-6.218-8.921-13.604-7.593-14.931  c1.327-1.329,9.702,0.384,15.923,6.604C44.669,61.589,45.97,70.372,45.053,71.292z M54.945,71.292  c-0.916-0.92,0.385-9.703,6.605-15.923c6.219-6.22,14.594-7.933,15.92-6.604c1.33,1.327-1.371,8.713-7.592,14.931  C63.66,69.917,55.863,72.21,54.945,71.292z"/>
</svg>