<?xml version="1.0" encoding="utf-8"?>

<!-- The icon can be used freely in both personal and commercial projects with no attribution required, but always appreciated. 
You may NOT sub-license, resell, rent, redistribute or otherwise transfer the icon without express written permission from iconmonstr.com -->

<!DOCTYPE svg PUBLIC "-//W3C//DTD SVG 1.1//EN" "http://www.w3.org/Graphics/SVG/1.1/DTD/svg11.dtd">
<svg version="1.1" xmlns="http://www.w3.org/2000/svg" xmlns:xlink="http://www.w3.org/1999/xlink" x="0px" y="0px"
	 width="512px" height="512px" viewBox="0 0 512 512" enable-background="new 0 0 512 512" xml:space="preserve">
<path id="video-add-icon" d="M377.603,266.184c-46.613,0-84.4,37.786-84.4,84.398c0,46.613,37.787,84.397,84.4,84.397
	c46.611,0,84.398-37.784,84.398-84.397C462.001,303.97,424.214,266.184,377.603,266.184z M429.472,365.917h-36.533v36.533h-28.215
	v-36.533H328.19v-28.213h36.533v-36.532h28.215v36.532h36.533V365.917z M294.907,433.276
	c-10.691-10.692-19.051-23.094-24.838-36.585H166.7V273.42h123.027c22.426-25.485,54.023-39.784,87.875-39.784
	c16.877,0,33.207,3.558,48.141,10.308V77.021H49.999v356.874h245.543C295.331,433.688,295.118,433.485,294.907,433.276z
	 M349.315,114.81h41.09v35.337h-41.09V114.81z M349.315,176.445h41.09v35.338h-41.09V176.445z M166.7,114.81h145.633v123.274H166.7
	V114.81z M129.718,396.691H88.626v-35.339h41.092V396.691z M129.718,335.054H88.626v-35.337h41.092V335.054z M129.718,273.124
	H88.626v-35.335h41.092V273.124z M129.718,211.783H88.626v-35.338h41.092V211.783z M129.718,150.146H88.626V114.81h41.092V150.146z"
	/>
</svg>
