<svg xmlns="http://www.w3.org/2000/svg" xmlns:xlink="http://www.w3.org/1999/xlink" version="1.1" id="Your_Icon" x="0px" y="0px" width="100px" height="100px" viewBox="0 0 100 100" enable-background="new 0 0 100 100" xml:space="preserve">
<polygon points="50,28.27 45.43,30.5 14,15.18 14,45.82 10,47.77 10,11 14.57,11 22.78,15 "/>
<path d="M14.57,11l8.21,4h54.44L50,28.27l-4.57,2.23L14,45.82l-4,1.95V50h80V11H14.57z M22.78,46L50,32.73L77.22,46H22.78z   M86,45.82L54.57,30.5L86,15.18V45.82z"/>
<path d="M10,54v20h4v-4h4v4h4V54H10z M18,66h-4v-8h4V66z"/>
<rect x="26" y="54" width="64" height="4"/>
<rect x="26" y="62" width="64" height="4"/>
<rect x="26" y="70" width="64" height="4"/>
<rect x="10" y="78" width="80" height="4"/>
<rect x="10" y="86" width="80" height="4"/>
</svg>