<svg xmlns="http://www.w3.org/2000/svg" xmlns:xlink="http://www.w3.org/1999/xlink" version="1.1" id="Layer_1" x="0px" y="0px" width="100px" height="100px" viewBox="0 0 100 100" enable-background="new 0 0 100 100" xml:space="preserve">
<path d="M96.302,24.577H41.233L31.43,13.202l-0.019,0.005c-0.681-0.696-1.628-1.13-2.678-1.13H3.802c-2.071,0-3.75,1.679-3.75,3.75  v67.387c0,2.071,1.679,3.75,3.75,3.75h16.875h16.875h58.75c2.072,0,3.75-1.679,3.75-3.75V28.326  C100.052,26.255,98.374,24.577,96.302,24.577z M50.333,79.499c-12.406,0-22.5-10.094-22.5-22.5s10.094-22.5,22.5-22.5  s22.5,10.094,22.5,22.5S62.739,79.499,50.333,79.499z"/>
<path d="M50.333,38.999c-9.925,0-18,8.075-18,18s8.075,18,18,18s18-8.075,18-18S60.258,38.999,50.333,38.999z M61.133,59.699h-8.55  v8.551h-4.5v-8.551h-8.55V55.2h8.55v-8.55h4.5v8.55h8.55V59.699z"/>
</svg>