<?xml version="1.0" encoding="utf-8"?>
<!-- Generator: Adobe Illustrator 14.0.0, SVG Export Plug-In . SVG Version: 6.00 Build 43363)  -->
<!DOCTYPE svg PUBLIC "-//W3C//DTD SVG 1.0//EN" "http://www.w3.org/TR/2001/REC-SVG-20010904/DTD/svg10.dtd">
<svg version="1.0" id="Layer_1" xmlns="http://www.w3.org/2000/svg" xmlns:xlink="http://www.w3.org/1999/xlink" x="0px" y="0px"
	 width="87.416px" height="100px" viewBox="0 0 87.416 100" enable-background="new 0 0 87.416 100" xml:space="preserve">
<circle cx="30.067" cy="39.517" r="11.807"/>
<circle cx="57.348" cy="39.517" r="11.807"/>
<path d="M82.836,36.395C82.836,16.326,66.509,0,46.441,0h-2.733h-2.734C20.906,0,4.579,16.326,4.579,36.395H0v9.304h4.579v3.607
	c0,12.587,6.423,21.436,18.111,25.661c0.002-0.013,0.005-0.025,0.007-0.038c-0.799,5.595,0.48,11.51,4.041,16.346
	c4.131,5.694,10.52,8.698,16.97,8.726c6.45-0.027,12.839-3.031,16.97-8.726c3.561-4.836,4.84-10.751,4.041-16.346
	c0.002,0.013,0.004,0.025,0.006,0.038c11.689-4.226,18.112-13.074,18.112-25.661v-3.607h4.579v-9.304H82.836z M29.028,78
	c0-1.998,1.587-3.643,3.584-3.643c1.938,0,3.583,1.645,3.583,3.643c0,2.055-1.645,3.7-3.583,3.7
	C30.615,81.7,29.028,80.055,29.028,78z M35.431,90.158c-1.997,0-3.583-1.645-3.583-3.641c0-2.057,1.586-3.703,3.583-3.703
	c1.938,0,3.583,1.646,3.583,3.703C39.015,88.514,37.37,90.158,35.431,90.158z M35.431,73.006c-1.997,0-3.583-1.645-3.583-3.701
	c0-1.996,1.586-3.641,3.583-3.641c1.938,0,3.583,1.645,3.583,3.641C39.015,71.361,37.37,73.006,35.431,73.006z M43.708,94.385
	c-1.966-0.035-3.519-1.662-3.519-3.639c0-2.033,1.553-3.661,3.519-3.697c1.966,0.036,3.519,1.664,3.519,3.697
	C47.226,92.723,45.673,94.35,43.708,94.385z M43.655,69.188c0.018,0,0.035-0.004,0.053-0.004c0.018,0,0.035,0.004,0.052,0.004
	c0,0,0,0,0,0c-0.018,0-0.034-0.004-0.052-0.004C43.689,69.185,43.673,69.188,43.655,69.188L43.655,69.188z M44.792,69.033h-1.085
	h-1.086c-1.484-0.453-2.55-1.861-2.55-3.546c0-1.997,1.586-3.642,3.583-3.642c0.018,0,0.035,0.002,0.053,0.002
	c0.018,0,0.034-0.002,0.052-0.002c1.998,0,3.584,1.645,3.584,3.642C47.343,67.172,46.277,68.58,44.792,69.033z M51.984,90.158
	c-1.938,0-3.584-1.645-3.584-3.641c0-2.057,1.646-3.703,3.584-3.703c1.996,0,3.583,1.646,3.583,3.703
	C55.567,88.514,53.98,90.158,51.984,90.158z M48.4,69.305c0-1.996,1.646-3.641,3.584-3.641c1.996,0,3.583,1.645,3.583,3.641
	c0,2.057-1.587,3.701-3.583,3.701C50.045,73.006,48.4,71.361,48.4,69.305z M54.803,81.7c-1.938,0-3.583-1.646-3.583-3.7
	c0-1.998,1.645-3.643,3.583-3.643c1.997,0,3.583,1.645,3.583,3.643C58.386,80.055,56.8,81.7,54.803,81.7z M74.085,49.306
	c0,6.83-2.424,11.746-7.409,15.028c-1.407,0.927-3.03,1.719-4.839,2.377c0.002,0.002,0.002,0.004,0.004,0.006
	c-1.342-2.266-3.104-4.31-5.277-5.986c-3.828-2.963-8.357-4.383-12.856-4.37c-4.499-0.013-9.029,1.407-12.858,4.37
	c-2.172,1.677-3.934,3.721-5.276,5.986c0.001-0.002,0.002-0.004,0.003-0.006c-1.81-0.658-3.431-1.45-4.838-2.377
	c-4.986-3.282-7.409-8.198-7.409-15.028V36.395C13.33,21.151,25.73,8.75,40.974,8.75h2.734h2.733
	c15.243,0,27.645,12.401,27.645,27.645V49.306z"/>
</svg>
