<?xml version="1.0" encoding="utf-8"?>


<!-- The icon can be used freely in both personal and commercial projects with no attribution required, but always appreciated. 
You may NOT sub-license, resell, rent, redistribute or otherwise transfer the icon without express written permission from iconmonstr.com -->


<!DOCTYPE svg PUBLIC "-//W3C//DTD SVG 1.1//EN" "http://www.w3.org/Graphics/SVG/1.1/DTD/svg11.dtd">

<svg version="1.1" xmlns="http://www.w3.org/2000/svg" xmlns:xlink="http://www.w3.org/1999/xlink" x="0px" y="0px"

	 width="512px" height="512px" viewBox="0 0 512 512" enable-background="new 0 0 512 512" xml:space="preserve">

<path id="google-plus-circle-outline-icon" d="M256.417,91c44.34,0,86.026,17.267,117.38,48.62

	c31.354,31.354,48.62,73.04,48.62,117.38c0,44.34-17.267,86.026-48.62,117.38c-31.354,31.353-73.04,48.62-117.38,48.62

	s-86.026-17.268-117.38-48.62c-31.354-31.354-48.62-73.04-48.62-117.38c0-44.34,17.267-86.026,48.62-117.38

	C170.391,108.267,212.077,91,256.417,91 M256.417,51c-113.771,0-206,92.229-206,206s92.229,206,206,206s206-92.229,206-206

	S370.188,51,256.417,51L256.417,51z M262.128,281.021c-19.275-14.057-23.985-21.998-5.587-36.223

	c10.366-8.016,17.632-18.7,17.632-31.893c0-14.372-5.878-27.411-16.928-33.743h15.663l13.335-13.996c0,0-50.268,0-59.672,0

	c-37.251,0-55.517,22.328-55.517,46.888c0,25.1,17.219,44.868,50.843,44.868c-5.213,10.524-3.119,20.245,5.41,27.195

	c-57.426,0-69.715,25.198-69.715,44.609c0,25.151,28.91,40.104,63.578,40.104c47.401,0,66.243-25.121,66.243-45.758

	C287.414,306.252,281.134,295.262,262.128,281.021z M193.495,211.683c-2.778-21.125,8.008-37.288,24.09-36.809

	c16.077,0.483,29.836,17.811,32.611,38.93c2.773,21.123-6.479,34.716-22.556,34.237

	C211.556,247.557,196.271,232.803,193.495,211.683z M221.341,357.652c-23.963,0-41.267-15.168-41.267-33.391

	c0-17.855,20.306-33.261,44.267-32.997c26.586,0,42.433,16.558,42.433,33.929C266.773,343.416,251.975,357.652,221.341,357.652z

	 M365.24,195.45v13.765h-27.53v27.53h-13.764v-27.53h-27.529V195.45h27.529v-27.529h13.764v27.529H365.24z"/>

</svg>

