<svg xmlns="http://www.w3.org/2000/svg" xmlns:xlink="http://www.w3.org/1999/xlink" version="1.2" baseProfile="tiny" id="Layer_1" x="0px" y="0px" width="100.0px" height="100px" viewBox="0 0 120 120" xml:space="preserve">
<g>
	<path d="M109.539,48.585L61.022,14.622c-0.512-0.359-1.195-0.359-1.708,0L10.809,48.585c-0.323,0.227-0.543,0.573-0.612,0.961   c-0.068,0.389,0.021,0.789,0.247,1.112l6.606,9.434c0.291,0.415,0.752,0.636,1.222,0.636c0.294,0,0.592-0.087,0.852-0.27   l41.051-28.747l41.05,28.747c0.676,0.472,1.603,0.307,2.074-0.366l6.607-9.434c0.225-0.323,0.315-0.724,0.245-1.112   C110.084,49.158,109.863,48.812,109.539,48.585z"/>
	<path d="M97.485,63.682L61.028,38.153c-0.512-0.359-1.195-0.359-1.707,0L22.67,63.818c-0.398,0.278-0.635,0.733-0.635,1.22v39.453   c0,0.821,0.667,1.489,1.489,1.489h25.502c0.822,0,1.489-0.668,1.489-1.489V70.11h19.32v34.381c0,0.821,0.666,1.489,1.489,1.489   h25.308c0.823,0,1.487-0.668,1.487-1.489V64.9C98.119,64.415,97.885,63.962,97.485,63.682z"/>
	<path d="M84.241,25.783l11.413,7.99c0.254,0.178,0.552,0.269,0.853,0.269c0.236,0,0.472-0.056,0.688-0.168   c0.491-0.256,0.801-0.765,0.801-1.321v-16.86c0-0.822-0.667-1.488-1.489-1.488H85.094c-0.823,0-1.488,0.667-1.488,1.488v8.871   C83.605,25.048,83.842,25.504,84.241,25.783z"/>
</g>
</svg>