<?xml version="1.0" encoding="utf-8"?>

<!-- The icon can be used freely in both personal and commercial projects with no attribution required, but always appreciated. 
You may NOT sub-license, resell, rent, redistribute or otherwise transfer the icon without express written permission from iconmonstr.com -->

<!DOCTYPE svg PUBLIC "-//W3C//DTD SVG 1.1//EN" "http://www.w3.org/Graphics/SVG/1.1/DTD/svg11.dtd">
<svg version="1.1" xmlns="http://www.w3.org/2000/svg" xmlns:xlink="http://www.w3.org/1999/xlink" x="0px" y="0px"
	 width="512px" height="512px" viewBox="0 0 512 512" enable-background="new 0 0 512 512" xml:space="preserve">
<path id="laptop-4-icon" d="M462,360v13c0,11.046-8.954,20-20,20H70c-11.046,0-20-8.954-20-20v-13h167.088
	c1.371,6.149,6.85,9.75,13.412,9.75h51c6.562,0,12.042-3.601,13.412-9.75H462z M399.834,146H112.166v172h287.668V146 M426.835,345
	H85.168V139c0-11.046,8.954-20,20-20h301.667c11.046,0,20,8.954,20,20V345z"/>
</svg>
