<?xml version="1.0" encoding="utf-8"?>
<!-- Generator: Adobe Illustrator 15.1.0, SVG Export Plug-In . SVG Version: 6.00 Build 0)  -->
<!DOCTYPE svg PUBLIC "-//W3C//DTD SVG 1.1//EN" "http://www.w3.org/Graphics/SVG/1.1/DTD/svg11.dtd">
<svg version="1.1" id="Layer_1" xmlns="http://www.w3.org/2000/svg" xmlns:xlink="http://www.w3.org/1999/xlink" x="0px" y="0px"
	 width="84.428px" height="100px" viewBox="0 0 84.428 100" enable-background="new 0 0 84.428 100" xml:space="preserve">
<path d="M4.944,81h14.031l-4.81-40.825l-0.033-0.239c-0.619-4.021,0.938-10.622,5.812-16.303C23.715,19.238,30.639,14,42.214,14
	s18.499,5.238,22.27,9.633c4.874,5.681,6.431,12.281,5.812,16.303l-0.032,0.239L65.453,81h14.031l4.668-39.065
	c1.316-8.879-2.141-19.372-9.043-27.418C67.078,5.155,55.395,0,42.214,0C29.033,0,17.35,5.155,9.319,14.517
	c-6.902,8.046-10.36,18.539-9.043,27.418L4.944,81z"/>
<polygon points="5.661,87 7.214,100 21.214,100 19.682,87 "/>
<polygon points="64.746,87 63.214,100 77.214,100 78.768,87 "/>
</svg>
