<?xml version="1.0" encoding="utf-8"?>
<!-- Generator: Adobe Illustrator 16.0.0, SVG Export Plug-In . SVG Version: 6.00 Build 0)  -->
<!DOCTYPE svg PUBLIC "-//W3C//DTD SVG 1.1//EN" "http://www.w3.org/Graphics/SVG/1.1/DTD/svg11.dtd">
<svg version="1.1" id="Layer_1" xmlns="http://www.w3.org/2000/svg" xmlns:xlink="http://www.w3.org/1999/xlink" x="0px" y="0px"
	 width="235.239px" height="307.263px" viewBox="-67.619 -103.631 235.239 307.263"
	 enable-background="new -67.619 -103.631 235.239 307.263" xml:space="preserve">
<path d="M-60.494,36.075C-81.2-16.681-55.24-76.217-2.529-96.904c41.381-16.242,91.304-1.599,115.209,28.128L-59.536,38.317
	C-59.851,37.562-60.192,36.836-60.494,36.075z"/>
<path d="M139.901,1.546c0.538,1.719,1.034,3.441,1.435,5.175c2.012,8.559,4.229,30.913,4.229,30.913L167,91.607
	c0.412,0.972,0.62,2.06,0.62,3.212c0,4.554-3.729,8.269-8.298,8.269H145.57v28.676c0,22.357-18.109,40.467-40.445,40.467H89.052
	v31.401H-20.402v-87.075c-23.279-18.306-38.391-46.51-39.134-78.239L139.901,1.546z"/>
<path d="M159.12-47.419c-0.403-0.031-9.901-0.702-23.749,1.925c-13.86,2.633-27.064,7.744-38.746,14.86L84.01-44.876L67.859,3.521
	l49.979-10.205l-11.022-12.446c11.718-6.697,23.135-9.992,31.371-11.553c11.643-2.215,19.728-1.692,19.803-1.686l5.986,0.411
	l0.48-5.972l0.692-9.036L159.12-47.419z"/>
</svg>
