<svg xmlns="http://www.w3.org/2000/svg" xmlns:xlink="http://www.w3.org/1999/xlink" version="1.1" id="Layer_1" x="0px" y="0px" width="100px" height="100px" viewBox="0 0 100 100" style="enable-background:new 0 0 100 100;" xml:space="preserve">
<path style="fill:#010101;" d="M50,0C22.388,0,0,22.388,0,50s22.388,50,50,50s50-22.388,50-50S77.612,0,50,0z M50,12.5  c8.094,0,15.539,2.637,21.668,7.007L19.494,71.655C15.125,65.527,12.5,58.081,12.5,50C12.5,29.321,29.321,12.5,50,12.5z M50,87.5  c-8.094,0-15.539-2.637-21.668-7.007l52.174-52.148C84.875,34.473,87.5,41.919,87.5,50C87.5,70.679,70.679,87.5,50,87.5z"/>
</svg>