<?xml version="1.0" encoding="utf-8"?>

<!-- The icon can be used freely in both personal and commercial projects with no attribution required, but always appreciated. 
You may NOT sub-license, resell, rent, redistribute or otherwise transfer the icon without express written permission from iconmonstr.com -->

<!DOCTYPE svg PUBLIC "-//W3C//DTD SVG 1.1//EN" "http://www.w3.org/Graphics/SVG/1.1/DTD/svg11.dtd">
<svg version="1.1" xmlns="http://www.w3.org/2000/svg" xmlns:xlink="http://www.w3.org/1999/xlink" x="0px" y="0px"
	 width="512px" height="512px" viewBox="0 0 512 512" enable-background="new 0 0 512 512" xml:space="preserve">
<path id="smartphone-5-icon" d="M333.841,74.991c9.788,0,17.75,7.962,17.75,17.75v326.517c0,9.788-7.962,17.75-17.75,17.75H178.159
	c-9.786,0-17.75-7.962-17.75-17.75V92.741c0-9.788,7.964-17.75,17.75-17.75H333.841 M333.841,50H178.159
	c-23.605,0-42.741,19.136-42.741,42.741v326.517c0,23.605,19.136,42.742,42.741,42.742h155.682
	c23.605,0,42.741-19.137,42.741-42.742V92.741C376.582,69.136,357.446,50,333.841,50z M257.002,423.88
	c-9.276,0-16.792-7.516-16.792-16.788s7.516-16.789,16.792-16.789c9.268,0,16.787,7.517,16.787,16.789S266.27,423.88,257.002,423.88
	z M330.199,377.237H181.801V134.901h148.398V377.237z M275.502,99.467H238.5c-2.753,0-4.985,2.231-4.985,4.983
	c0,2.753,2.232,4.983,4.985,4.983h37.002c2.753,0,4.982-2.23,4.982-4.983C280.484,101.698,278.255,99.467,275.502,99.467z"/>
</svg>
