<?xml version="1.0" encoding="utf-8"?>


<!-- The icon can be used freely in both personal and commercial projects with no attribution required, but always appreciated. 
You may NOT sub-license, resell, rent, redistribute or otherwise transfer the icon without express written permission from iconmonstr.com -->


<!DOCTYPE svg PUBLIC "-//W3C//DTD SVG 1.1//EN" "http://www.w3.org/Graphics/SVG/1.1/DTD/svg11.dtd">

<svg version="1.1" xmlns="http://www.w3.org/2000/svg" xmlns:xlink="http://www.w3.org/1999/xlink" x="0px" y="0px"

	 width="512px" height="512px" viewBox="0 0 512 512" enable-background="new 0 0 512 512" xml:space="preserve">

<path id="sharethis-icon" d="M387.278,311.731c-21.947,0-41.686,9.463-55.354,24.531l-133.708-66.014

	c0.79-4.357,1.226-8.837,1.226-13.423c0-0.923-0.036-1.839-0.069-2.755l138.324-72.643c13.191,11.714,30.55,18.84,49.581,18.84

	c41.27,0,74.722-33.455,74.722-74.722c0-41.268-33.452-74.722-74.722-74.722s-74.722,33.454-74.722,74.722

	c0,3.082,0.21,6.113,0.571,9.099l-134.394,70.577c-13.605-14.236-32.765-23.119-54.012-23.119C83.453,182.104,50,215.558,50,256.826

	c0,41.266,33.453,74.721,74.722,74.721c17.384,0,33.366-5.953,46.061-15.91l141.794,70.007c-0.003,0.271-0.02,0.538-0.02,0.81

	c0,41.267,33.452,74.722,74.722,74.722S462,427.72,462,386.453C462,345.184,428.548,311.731,387.278,311.731z"/>

</svg>

