<svg xmlns="http://www.w3.org/2000/svg" xmlns:xlink="http://www.w3.org/1999/xlink" version="1.1" id="Layer_1" x="0px" y="0px" width="66.668px" height="100px" viewBox="0 0 66.668 100" style="enable-background:new 0 0 66.668 100;" xml:space="preserve">
<polygon style="fill:#231F20;" points="22.226,8.889 22.226,14.583 31.112,7.467 31.112,22.221 35.556,22.221 35.556,7.469   44.442,14.583 44.442,8.889 33.33,0 "/>
<g>
	<path style="fill:#231F20;" d="M2.222,68.89C0.993,68.89,0,67.893,0,66.668c0-18.38,14.95-33.334,33.334-33.334   c18.384,0,33.334,14.954,33.334,33.33c0,1.227-0.993,2.224-2.222,2.224s-2.222-0.997-2.222-2.224   c0-15.929-12.964-28.887-28.891-28.887c-15.926,0-28.891,12.958-28.891,28.891C4.443,67.893,3.451,68.89,2.222,68.89"/>
	<path style="fill:#231F20;" d="M33.293,77.754c-13.375,0-11.393-16.245-11.393-16.245s2.279-5.146,11.393-5.146   c9.115,0,11.487,5.146,11.487,5.146S46.656,77.754,33.293,77.754 M33.334,51.112c-13.965,0-18.03,12.618-18.03,42.232v1.333   C20.504,98.032,26.681,100,33.334,100c6.648,0,12.83-1.968,18.03-5.322v-1.333C51.364,63.73,47.299,51.112,33.334,51.112"/>
</g>
</svg>