<?xml version="1.0" encoding="utf-8"?>

<!-- The icon can be used freely in both personal and commercial projects with no attribution required, but always appreciated. 
You may NOT sub-license, resell, rent, redistribute or otherwise transfer the icon without express written permission from iconmonstr.com -->

<!DOCTYPE svg PUBLIC "-//W3C//DTD SVG 1.1//EN" "http://www.w3.org/Graphics/SVG/1.1/DTD/svg11.dtd">
<svg version="1.1" xmlns="http://www.w3.org/2000/svg" xmlns:xlink="http://www.w3.org/1999/xlink" x="0px" y="0px"
	 width="512px" height="512px" viewBox="0 0 512 512" enable-background="new 0 0 512 512" xml:space="preserve">
<path id="smartphone-3-icon" d="M403.006,270.109c29.213,40.959,21.113,69.802,50.52,111.033
	C416.5,407.55,379.148,434.191,340.156,462c-61.184-45.586-114.008-60.207-131.068-65.938c-16.254-5.463-26.756-15.89-23.141-28.976
	c3.66-13.239,17.496-17.178,28.906-16.659c17.215,0.783,31.176,5.94,31.176,5.94l-79.068-110.856
	c-7.057-9.894-4.754-23.633,5.137-30.688c9.895-7.057,23.633-4.759,30.688,5.135l53.545,74.958c2.582,3.621,7.609,4.46,11.227,1.88
	c3.621-2.584,4.461-7.608,1.881-11.228l-13.201-18.508c5.969-1.516,13.221-3.33,21.244-5.289c5.562-1.361,11.4,0.808,14.725,5.472
	l10.803,15.142c2.58,3.621,7.607,4.462,11.225,1.883c3.619-2.582,4.463-7.609,1.881-11.229l-12.477-17.492
	c6.891-1.59,13.922-3.172,20.867-4.674c5.467-1.184,11.121,1.006,14.367,5.558l9.176,12.865c2.58,3.619,7.607,4.459,11.229,1.88
	c3.617-2.582,4.459-7.608,1.877-11.228l-10.281-14.417c2.086-0.388,4.135-0.759,6.133-1.105
	C378.402,240.698,389.98,251.849,403.006,270.109z M159.305,197.083c13.723-9.79,31.453-10.099,44.666,0.047
	c-7.52-25.2-37.652-35.596-59.105-20.294c-21.498,15.334-21.398,47.215-0.062,62.494
	C139.514,223.533,145.582,206.87,159.305,197.083z M172.645,399.309c-9.438-11.052-12.555-24.663-8.779-38.327
	c4.121-14.9,15.65-26.753,32.807-31.402H91.057V102.652h158.018v142.59c10.564-2.537,24.211-5.166,32.582-6.998
	c0-80.093,0-166.098,0-166.098c0-12.231-9.914-22.146-22.145-22.146H80.619c-12.23,0-22.145,9.915-22.145,22.146
	c0,0,0.006,292.587,0,303.964c-0.029,47.084,69.559,50.761,111.439,50.788c14.549,0.009,32.477-0.423,49.678-2.968
	C198.441,416.658,183.535,412.066,172.645,399.309z"/>
</svg>
