<?xml version="1.0" encoding="utf-8"?>
<!-- Generator: Adobe Illustrator 16.0.0, SVG Export Plug-In . SVG Version: 6.00 Build 0)  -->
<!DOCTYPE svg PUBLIC "-//W3C//DTD SVG 1.1//EN" "http://www.w3.org/Graphics/SVG/1.1/DTD/svg11.dtd">
<svg version="1.1" id="Layer_1" xmlns="http://www.w3.org/2000/svg" xmlns:xlink="http://www.w3.org/1999/xlink" x="0px" y="0px"
	 width="506.985px" height="771.804px" viewBox="0 0 506.985 771.804" enable-background="new 0 0 506.985 771.804"
	 xml:space="preserve">
<g>
	<defs>
		<path id="SVGID_1_" d="M204.813,324.562c62.245,12.903,155.049,52.733,207.283,88.963c52.233,36.23,44.117,55.14-18.128,42.236
			c-62.246-12.903-155.049-52.732-207.282-88.963C134.452,330.569,142.568,311.659,204.813,324.562"/>
	</defs>
	<clipPath id="SVGID_2_">
		<use xlink:href="#SVGID_1_"  overflow="visible"/>
	</clipPath>
	<g clip-path="url(#SVGID_2_)">
		<defs>
			
				<rect id="SVGID_3_" x="265.589" y="229.203" transform="matrix(-0.3944 0.9189 -0.9189 -0.3944 775.8578 268.093)" width="68" height="321"/>
		</defs>
		<clipPath id="SVGID_4_">
			<use xlink:href="#SVGID_3_"  overflow="visible"/>
		</clipPath>
		<g clip-path="url(#SVGID_4_)">
			
				<image overflow="visible" width="68" height="321" xlink:href="639C62C8118C067E.png"  transform="matrix(0.3944 -0.9189 -0.9189 -0.3944 433.6689 484.248)">
			</image>
		</g>
	</g>
</g>
<g>
	<defs>
		<path id="SVGID_5_" d="M501.096,133.508C614.28,336.848,558.1,618.762,375.613,763.18s-422.175,96.652-535.359-106.688
			S-216.75,171.238-34.264,26.82C148.223-117.598,387.911-69.832,501.096,133.508"/>
	</defs>
	<clipPath id="SVGID_6_">
		<use xlink:href="#SVGID_5_"  overflow="visible"/>
	</clipPath>
	<g clip-path="url(#SVGID_6_)">
		<defs>
			
				<rect id="SVGID_7_" x="-216.227" y="-60.99" transform="matrix(-0.9807 -0.1954 0.1954 -0.9807 261.1494 814.7885)" width="774" height="911"/>
		</defs>
		<clipPath id="SVGID_8_">
			<use xlink:href="#SVGID_7_"  overflow="visible"/>
		</clipPath>
		<g clip-path="url(#SVGID_8_)">
			
				<image overflow="visible" width="774" height="911" xlink:href="639C62C8118C0682.png"  transform="matrix(0.9807 0.1954 0.1954 -0.9807 -297.7871 765.5918)">
			</image>
		</g>
	</g>
</g>
<g>
	<defs>
		<path id="SVGID_9_" d="M292.289,266.369c52.301,21.396,125.228,72.893,162.886,115.024c37.658,42.13,25.788,58.939-26.513,37.544
			c-52.301-21.396-125.227-72.894-162.885-115.024S239.989,244.974,292.289,266.369"/>
	</defs>
	<clipPath id="SVGID_10_">
		<use xlink:href="#SVGID_9_"  overflow="visible"/>
	</clipPath>
	<g clip-path="url(#SVGID_10_)">
		<defs>
			
				<rect id="SVGID_11_" x="325.976" y="200.653" transform="matrix(-0.5768 0.8169 -0.8169 -0.5768 848.3116 245.8503)" width="69" height="284.001"/>
		</defs>
		<clipPath id="SVGID_12_">
			<use xlink:href="#SVGID_11_"  overflow="visible"/>
		</clipPath>
		<g transform="matrix(1 0 0 1 -3.051758e-05 -3.051758e-05)" clip-path="url(#SVGID_12_)">
			
				<image overflow="visible" width="69" height="284" xlink:href="639C62C8118C0685.png"  transform="matrix(0.5768 -0.8169 -0.8169 -0.5768 456.5693 452.7461)">
			</image>
		</g>
	</g>
</g>
<g>
	<defs>
		<path id="SVGID_13_" d="M209.882,607.807c66.695-17.568,176.283-25.208,244.771-17.064c68.488,8.145,69.941,28.988,3.246,46.557
			c-66.696,17.568-176.284,25.208-244.772,17.064C144.639,646.219,143.186,625.375,209.882,607.807"/>
	</defs>
	<clipPath id="SVGID_14_">
		<use xlink:href="#SVGID_13_"  overflow="visible"/>
	</clipPath>
	<g clip-path="url(#SVGID_14_)">
		<defs>
			
				<rect id="SVGID_15_" x="299.854" y="447.019" transform="matrix(0.0695 0.9976 -0.9976 0.0695 931.6136 245.2139)" width="69" height="350"/>
		</defs>
		<clipPath id="SVGID_16_">
			<use xlink:href="#SVGID_15_"  overflow="visible"/>
		</clipPath>
		<g clip-path="url(#SVGID_16_)">
			
				<image overflow="visible" width="69" height="350" xlink:href="639C62C8118C0686.png"  transform="matrix(-0.0695 -0.9976 -0.9976 0.0695 511.3301 644.2646)">
			</image>
		</g>
	</g>
</g>
<g>
	<defs>
		<path id="SVGID_17_" d="M59.411,599.164c69.723,22.277,173.001,76.869,230.679,121.934s47.913,63.537-21.81,41.26
			S95.279,685.488,37.603,640.424C-20.075,595.358-10.312,576.886,59.411,599.164"/>
	</defs>
	<clipPath id="SVGID_18_">
		<use xlink:href="#SVGID_17_"  overflow="visible"/>
	</clipPath>
	<g clip-path="url(#SVGID_18_)">
		<defs>
			
				<rect id="SVGID_19_" x="128.67" y="494.969" transform="matrix(-0.4673 0.8841 -0.8841 -0.4673 841.4598 854.9437)" width="69" height="372"/>
		</defs>
		<clipPath id="SVGID_20_">
			<use xlink:href="#SVGID_19_"  overflow="visible"/>
		</clipPath>
		<g transform="matrix(1 0 0 1 6.103516e-05 0)" clip-path="url(#SVGID_20_)">
			
				<image overflow="visible" width="69" height="372" xlink:href="639C62C8118C0684.png"  transform="matrix(0.4673 -0.8841 -0.8841 -0.4673 311.4883 798.3916)">
			</image>
		</g>
	</g>
</g>
<g>
	<defs>
		<path id="SVGID_21_" d="M301.096,85.249c5.539,57.41-34.928,116.798-90.385,132.646c-55.456,15.849-104.902-17.844-110.441-75.254
			C94.731,85.23,135.198,25.843,190.654,9.994C246.111-5.854,295.558,27.838,301.096,85.249"/>
	</defs>
	<clipPath id="SVGID_22_">
		<use xlink:href="#SVGID_21_"  overflow="visible"/>
	</clipPath>
	<g clip-path="url(#SVGID_22_)">
		<defs>
			
				<rect id="SVGID_23_" x="104.551" y="-1.75" transform="matrix(-0.8264 -0.5631 0.5631 -0.8264 302.5137 319.7689)" width="192" height="230"/>
		</defs>
		<clipPath id="SVGID_24_">
			<use xlink:href="#SVGID_23_"  overflow="visible"/>
		</clipPath>
		<g clip-path="url(#SVGID_24_)">
			
				<image overflow="visible" width="192" height="230" xlink:href="639C62C8118C0683.png"  transform="matrix(0.8264 0.5631 0.5631 -0.8264 56.4619 154.2275)">
			</image>
		</g>
	</g>
</g>
<g>
	<defs>
		<path id="SVGID_25_" d="M142.683,202.242c44.538,30.928,95.994,97.189,114.931,147.999c18.937,50.809-1.816,66.926-46.354,35.997
			c-44.538-30.929-95.994-97.19-114.931-147.999C77.393,187.43,98.146,171.313,142.683,202.242"/>
	</defs>
	<clipPath id="SVGID_26_">
		<use xlink:href="#SVGID_25_"  overflow="visible"/>
	</clipPath>
	<g clip-path="url(#SVGID_26_)">
		<defs>
			
				<rect id="SVGID_27_" x="133.269" y="160.151" transform="matrix(-0.7898 0.6133 -0.6133 -0.7898 495.9052 418.364)" width="86" height="268"/>
		</defs>
		<clipPath id="SVGID_28_">
			<use xlink:href="#SVGID_27_"  overflow="visible"/>
		</clipPath>
		<g transform="matrix(1 -2.980232e-08 2.980232e-08 1 -1.525879e-05 0)" clip-path="url(#SVGID_28_)">
			
				<image overflow="visible" width="86" height="268" xlink:href="639C62C8118C068D.png"  transform="matrix(0.7898 -0.6133 -0.6133 -0.7898 224.4951 426.3604)">
			</image>
		</g>
	</g>
</g>
<g>
	<defs>
		<path id="SVGID_29_" d="M144.188,174.732c61.979,17.356,149.236,68.199,194.896,113.562c45.659,45.362,32.43,68.065-29.548,50.709
			c-61.979-17.356-149.236-68.199-194.896-113.561C68.981,180.08,82.21,157.376,144.188,174.732"/>
	</defs>
	<clipPath id="SVGID_30_">
		<use xlink:href="#SVGID_29_"  overflow="visible"/>
	</clipPath>
	<g clip-path="url(#SVGID_30_)">
		<defs>
			
				<rect id="SVGID_31_" x="183.179" y="96.048" transform="matrix(-0.5035 0.864 -0.864 -0.5035 562.145 191.0351)" width="86" height="322"/>
		</defs>
		<clipPath id="SVGID_32_">
			<use xlink:href="#SVGID_31_"  overflow="visible"/>
		</clipPath>
		<g transform="matrix(1 0 0 1 -3.051758e-05 -3.051758e-05)" clip-path="url(#SVGID_32_)">
			
				<image overflow="visible" width="86" height="322" xlink:href="639C62C8118C068E.png"  transform="matrix(0.5034 -0.864 -0.864 -0.5034 343.6387 375.2563)">
			</image>
		</g>
	</g>
</g>
<g>
	<defs>
		<path id="SVGID_33_" d="M193.974,177.829c16.47,96.291-7.75,244.062-54.097,330.058c-46.347,85.994-97.271,77.648-113.741-18.643
			c-16.47-96.291,7.75-244.063,54.097-330.058C126.579,73.191,177.503,81.538,193.974,177.829"/>
	</defs>
	<clipPath id="SVGID_34_">
		<use xlink:href="#SVGID_33_"  overflow="visible"/>
	</clipPath>
	<g clip-path="url(#SVGID_34_)">
		<defs>
			
				<rect id="SVGID_35_" x="27.548" y="96.117" transform="matrix(-0.9868 -0.1617 0.1617 -0.9868 165.6814 680.7215)" width="166" height="474.999"/>
		</defs>
		<clipPath id="SVGID_36_">
			<use xlink:href="#SVGID_35_"  overflow="visible"/>
		</clipPath>
		<g clip-path="url(#SVGID_36_)">
			
				<image overflow="visible" width="166" height="475" xlink:href="639C62C8118C068C.png"  transform="matrix(0.9868 0.1617 0.1617 -0.9868 -9.7725 554.5654)">
			</image>
		</g>
	</g>
</g>
<g>
	<defs>
		<path id="SVGID_37_" d="M136.576,466.989c52.972,35.888,119.09,111.386,147.678,168.628c28.589,57.244,8.821,74.555-44.151,38.667
			S121.012,562.898,92.424,505.656C63.836,448.413,83.604,431.102,136.576,466.989"/>
	</defs>
	<clipPath id="SVGID_38_">
		<use xlink:href="#SVGID_37_"  overflow="visible"/>
	</clipPath>
	<g clip-path="url(#SVGID_38_)">
		<defs>
			
				<rect id="SVGID_39_" x="146.044" y="410.684" transform="matrix(-0.7523 0.6588 -0.6588 -0.7523 707.2436 875.4576)" width="86" height="320"/>
		</defs>
		<clipPath id="SVGID_40_">
			<use xlink:href="#SVGID_39_"  overflow="visible"/>
		</clipPath>
		<g transform="matrix(1 -2.980232e-08 2.980232e-08 1 0 6.103516e-05)" clip-path="url(#SVGID_40_)">
			
				<image overflow="visible" width="86" height="320" xlink:href="659A46EA893CF081.png"  transform="matrix(0.7523 -0.6588 -0.6588 -0.7523 262.1084 719.3799)">
			</image>
		</g>
	</g>
</g>
<g>
	<defs>
		<path id="SVGID_41_" d="M83.368,403.23c17.312,63.363,19.105,166.555,4.008,230.482s-41.37,64.384-58.681,1.02
			C11.384,571.368,9.59,468.178,24.688,404.25C39.785,340.323,66.058,339.866,83.368,403.23"/>
	</defs>
	<clipPath id="SVGID_42_">
		<use xlink:href="#SVGID_41_"  overflow="visible"/>
	</clipPath>
	<g clip-path="url(#SVGID_42_)">
		<defs>
			
				<rect id="SVGID_43_" x="12.532" y="354.99" transform="matrix(-0.9998 0.0174 -0.0174 -0.9998 120.0787 1036.9365)" width="86" height="328"/>
		</defs>
		<clipPath id="SVGID_44_">
			<use xlink:href="#SVGID_43_"  overflow="visible"/>
		</clipPath>
		<g transform="matrix(1 0 0 1 -1.907349e-06 -6.103516e-05)" clip-path="url(#SVGID_44_)">
			
				<image overflow="visible" width="86" height="328" xlink:href="659A46EA893CF087.png"  transform="matrix(0.9998 -0.0174 -0.0174 -0.9998 15.3896 683.7129)">
			</image>
		</g>
	</g>
</g>
<g>
	<defs>
		<path id="SVGID_45_" d="M185.982,98.253c11.5,17.224,6.86,40.51-10.364,52.01c-17.225,11.5-40.511,6.859-52.011-10.365
			c-11.5-17.225-6.859-40.51,10.365-52.011C151.197,76.388,174.482,81.028,185.982,98.253"/>
	</defs>
	<clipPath id="SVGID_46_">
		<use xlink:href="#SVGID_45_"  overflow="visible"/>
	</clipPath>
	<g clip-path="url(#SVGID_46_)">
		<defs>
			
				<rect id="SVGID_47_" x="116.286" y="80.673" transform="matrix(-0.9807 -0.1954 0.1954 -0.9807 284.2856 266.397)" width="77.999" height="77"/>
		</defs>
		<clipPath id="SVGID_48_">
			<use xlink:href="#SVGID_47_"  overflow="visible"/>
		</clipPath>
		<g clip-path="url(#SVGID_48_)">
			
				<image overflow="visible" width="78" height="77" xlink:href="659A46EA893CF080.png"  transform="matrix(0.9807 0.1954 0.1954 -0.9807 109.5137 149.3086)">
			</image>
		</g>
	</g>
</g>
<g>
	<defs>
		<rect id="SVGID_49_" x="91.675" y="58" width="126" height="125"/>
	</defs>
	<clipPath id="SVGID_50_">
		<use xlink:href="#SVGID_49_"  overflow="visible"/>
	</clipPath>
	<g opacity="0.61" clip-path="url(#SVGID_50_)" enable-background="new    ">
		<g>
			<defs>
				<rect id="SVGID_51_" x="105.675" y="71" width="99" height="99"/>
			</defs>
			<clipPath id="SVGID_52_">
				<use xlink:href="#SVGID_51_"  overflow="visible"/>
			</clipPath>
			<g clip-path="url(#SVGID_52_)">
				<defs>
					<rect id="SVGID_53_" x="91.675" y="58" width="126" height="125"/>
				</defs>
				<clipPath id="SVGID_54_">
					<use xlink:href="#SVGID_53_"  overflow="visible"/>
				</clipPath>
				<polygon clip-path="url(#SVGID_54_)" fill="#FFFFFF" points="164.765,71.608 163.31,115.092 204.028,130.417 160.545,128.961 
					145.221,169.68 146.676,126.197 105.957,110.872 149.439,112.328 				"/>
			</g>
		</g>
	</g>
</g>
<g>
	<defs>
		<path id="SVGID_55_" d="M228.812,123.357c4.83,7.234,2.881,17.014-4.353,21.844c-7.234,4.83-17.015,2.881-21.845-4.353
			c-4.83-7.234-2.881-17.014,4.354-21.844C214.202,114.174,223.982,116.123,228.812,123.357"/>
	</defs>
	<clipPath id="SVGID_56_">
		<use xlink:href="#SVGID_55_"  overflow="visible"/>
	</clipPath>
	<g clip-path="url(#SVGID_56_)">
		<defs>
			
				<rect id="SVGID_57_" x="197.92" y="115.299" transform="matrix(-0.9807 -0.1954 0.1954 -0.9807 400.8296 304.148)" width="35" height="34"/>
		</defs>
		<clipPath id="SVGID_58_">
			<use xlink:href="#SVGID_57_"  overflow="visible"/>
		</clipPath>
		<g transform="matrix(1 0 0 1 -1.525879e-05 -1.525879e-05)" clip-path="url(#SVGID_58_)">
			
				<image overflow="visible" width="35" height="34" xlink:href="659A46EA893CF083.png"  transform="matrix(0.9807 0.1954 0.1954 -0.9807 194.9346 145.5508)">
			</image>
		</g>
	</g>
</g>
<g>
	<defs>
		<rect id="SVGID_59_" x="186.675" y="104" width="58" height="57"/>
	</defs>
	<clipPath id="SVGID_60_">
		<use xlink:href="#SVGID_59_"  overflow="visible"/>
	</clipPath>
	<g opacity="0.5" clip-path="url(#SVGID_60_)" enable-background="new    ">
		<g>
			<defs>
				<rect id="SVGID_61_" x="194.675" y="112" width="42" height="42"/>
			</defs>
			<clipPath id="SVGID_62_">
				<use xlink:href="#SVGID_61_"  overflow="visible"/>
			</clipPath>
			<g clip-path="url(#SVGID_62_)">
				<defs>
					<rect id="SVGID_63_" x="186.675" y="104" width="58" height="57"/>
				</defs>
				<clipPath id="SVGID_64_">
					<use xlink:href="#SVGID_63_"  overflow="visible"/>
				</clipPath>
				<polygon clip-path="url(#SVGID_64_)" fill="#FFFFFF" points="219.901,112.167 219.29,130.429 236.392,136.866 218.129,136.254 
					211.692,153.356 212.304,135.094 195.202,128.657 213.465,129.269 				"/>
			</g>
		</g>
	</g>
</g>
<g>
	<defs>
		<path id="SVGID_65_" d="M239.835,52.367c15.41,23.081,9.191,54.284-13.889,69.694c-23.081,15.41-54.284,9.192-69.694-13.889
			c-15.41-23.081-9.191-54.283,13.889-69.693C193.222,23.068,224.425,29.286,239.835,52.367"/>
	</defs>
	<clipPath id="SVGID_66_">
		<use xlink:href="#SVGID_65_"  overflow="visible"/>
	</clipPath>
	<g clip-path="url(#SVGID_66_)">
		<defs>
			
				<rect id="SVGID_67_" x="146.837" y="28.073" transform="matrix(-0.9807 -0.1954 0.1954 -0.9807 377.2004 197.3655)" width="103" height="104"/>
		</defs>
		<clipPath id="SVGID_68_">
			<use xlink:href="#SVGID_67_"  overflow="visible"/>
		</clipPath>
		<g transform="matrix(1 0 1.490116e-08 1 0 0)" clip-path="url(#SVGID_68_)">
			
				<image overflow="visible" width="103" height="104" xlink:href="659A46EA893CF09F.png"  transform="matrix(0.9807 0.1954 0.1954 -0.9807 137.668 121.0054)">
			</image>
		</g>
	</g>
</g>
<g>
	<defs>
		<rect id="SVGID_69_" x="115.675" width="165" height="165"/>
	</defs>
	<clipPath id="SVGID_70_">
		<use xlink:href="#SVGID_69_"  overflow="visible"/>
	</clipPath>
	<g opacity="0.24" clip-path="url(#SVGID_70_)" enable-background="new    ">
		<g>
			<defs>
				<rect id="SVGID_71_" x="131.675" y="16" width="133" height="133"/>
			</defs>
			<clipPath id="SVGID_72_">
				<use xlink:href="#SVGID_71_"  overflow="visible"/>
			</clipPath>
			<g clip-path="url(#SVGID_72_)">
				<defs>
					<rect id="SVGID_73_" x="115.675" width="165" height="165"/>
				</defs>
				<clipPath id="SVGID_74_">
					<use xlink:href="#SVGID_73_"  overflow="visible"/>
				</clipPath>
				<polygon clip-path="url(#SVGID_74_)" fill="#FFFFFF" points="211.402,16.664 209.452,74.931 264.016,95.466 205.748,93.516 
					185.213,148.08 187.163,89.812 132.6,69.277 190.867,71.228 				"/>
			</g>
		</g>
	</g>
</g>
<g>
	<defs>
		<path id="SVGID_75_" d="M166.923,340.013c9.314,13.952,5.556,32.813-8.396,42.129c-13.952,9.315-32.813,5.556-42.129-8.396
			c-9.314-13.952-5.556-32.813,8.396-42.128C138.746,322.302,157.607,326.061,166.923,340.013"/>
	</defs>
	<clipPath id="SVGID_76_">
		<use xlink:href="#SVGID_75_"  overflow="visible"/>
	</clipPath>
	<g clip-path="url(#SVGID_76_)">
		<defs>
			
				<rect id="SVGID_77_" x="109.366" y="324.438" transform="matrix(-0.9807 -0.1954 0.1954 -0.9807 210.343 733.6316)" width="64" height="64"/>
		</defs>
		<clipPath id="SVGID_78_">
			<use xlink:href="#SVGID_77_"  overflow="visible"/>
		</clipPath>
		<g transform="matrix(1 0 0 1 7.629395e-06 0)" clip-path="url(#SVGID_78_)">
			
				<image overflow="visible" width="64" height="64" xlink:href="659A46EA893CF082.png"  transform="matrix(0.9807 0.1954 0.1954 -0.9807 103.7295 381.5669)">
			</image>
		</g>
	</g>
</g>
<g>
	<defs>
		<rect id="SVGID_79_" x="89.675" y="306" width="104" height="104"/>
	</defs>
	<clipPath id="SVGID_80_">
		<use xlink:href="#SVGID_79_"  overflow="visible"/>
	</clipPath>
	<g opacity="0.5" clip-path="url(#SVGID_80_)" enable-background="new    ">
		<g>
			<defs>
				<rect id="SVGID_81_" x="101.675" y="318" width="80" height="80"/>
			</defs>
			<clipPath id="SVGID_82_">
				<use xlink:href="#SVGID_81_"  overflow="visible"/>
			</clipPath>
			<g clip-path="url(#SVGID_82_)">
				<defs>
					<rect id="SVGID_83_" x="89.675" y="306" width="104" height="104"/>
				</defs>
				<clipPath id="SVGID_84_">
					<use xlink:href="#SVGID_83_"  overflow="visible"/>
				</clipPath>
				<polygon clip-path="url(#SVGID_84_)" fill="#FFFFFF" points="149.735,318.431 148.557,353.652 181.539,366.065 146.318,364.887 
					133.905,397.869 135.084,362.648 102.102,350.235 137.322,351.414 				"/>
			</g>
		</g>
	</g>
</g>
<g>
	<defs>
		<path id="SVGID_85_" d="M136.178,394.227c11.5,17.225,6.859,40.51-10.365,52.01s-40.51,6.859-52.011-10.364
			c-11.5-17.225-6.859-40.51,10.365-52.011C101.392,372.361,124.677,377.002,136.178,394.227"/>
	</defs>
	<clipPath id="SVGID_86_">
		<use xlink:href="#SVGID_85_"  overflow="visible"/>
	</clipPath>
	<g clip-path="url(#SVGID_86_)">
		<defs>
			
				<rect id="SVGID_87_" x="66.383" y="376.637" transform="matrix(-0.9807 -0.1954 0.1954 -0.9807 127.4978 843.8557)" width="77.999" height="78"/>
		</defs>
		<clipPath id="SVGID_88_">
			<use xlink:href="#SVGID_87_"  overflow="visible"/>
		</clipPath>
		<g transform="matrix(1 0 0 1 -7.629395e-06 -3.051758e-05)" clip-path="url(#SVGID_88_)">
			
				<image overflow="visible" width="78" height="78" xlink:href="659A46EA893CF085.png"  transform="matrix(0.9807 0.1954 0.1954 -0.9807 59.5127 446.2637)">
			</image>
		</g>
	</g>
</g>
<g>
	<defs>
		<rect id="SVGID_89_" x="42.675" y="354" width="125" height="125"/>
	</defs>
	<clipPath id="SVGID_90_">
		<use xlink:href="#SVGID_89_"  overflow="visible"/>
	</clipPath>
	<g opacity="0.91" clip-path="url(#SVGID_90_)" enable-background="new    ">
		<g>
			<defs>
				<rect id="SVGID_91_" x="55.675" y="367" width="99" height="99"/>
			</defs>
			<clipPath id="SVGID_92_">
				<use xlink:href="#SVGID_91_"  overflow="visible"/>
			</clipPath>
			<g clip-path="url(#SVGID_92_)">
				<defs>
					<rect id="SVGID_93_" x="42.675" y="354" width="125" height="125"/>
				</defs>
				<clipPath id="SVGID_94_">
					<use xlink:href="#SVGID_93_"  overflow="visible"/>
				</clipPath>
				<polygon clip-path="url(#SVGID_94_)" fill="#FFFFFF" points="114.959,367.582 113.504,411.065 154.223,426.391 110.739,424.935 
					95.415,465.654 96.87,422.171 56.151,406.846 99.634,408.301 				"/>
			</g>
		</g>
	</g>
</g>
<g>
	<defs>
		<path id="SVGID_95_" d="M357.229,384.223c6.785,10.162,4.047,23.9-6.115,30.686s-23.901,4.047-30.687-6.115
			s-4.047-23.901,6.115-30.686C336.705,371.322,350.443,374.06,357.229,384.223"/>
	</defs>
	<clipPath id="SVGID_96_">
		<use xlink:href="#SVGID_95_"  overflow="visible"/>
	</clipPath>
	<g clip-path="url(#SVGID_96_)">
		<defs>
			
				<rect id="SVGID_97_" x="315.622" y="373.449" transform="matrix(-0.9807 -0.1954 0.1954 -0.9807 594.1261 852.5208)" width="47" height="47"/>
		</defs>
		<clipPath id="SVGID_98_">
			<use xlink:href="#SVGID_97_"  overflow="visible"/>
		</clipPath>
		<g transform="matrix(1 0 0 1 -3.051758e-05 0)" clip-path="url(#SVGID_98_)">
			
				<image overflow="visible" width="47" height="47" xlink:href="659A46EA893CF086.png"  transform="matrix(0.9807 0.1954 0.1954 -0.9807 311.4824 415.4023)">
			</image>
		</g>
	</g>
</g>
<g>
	<defs>
		<rect id="SVGID_99_" x="300.675" y="359" width="77" height="77"/>
	</defs>
	<clipPath id="SVGID_100_">
		<use xlink:href="#SVGID_99_"  overflow="visible"/>
	</clipPath>
	<g opacity="0.5" clip-path="url(#SVGID_100_)" enable-background="new    ">
		<g>
			<defs>
				<rect id="SVGID_101_" x="309.675" y="368" width="59" height="59"/>
			</defs>
			<clipPath id="SVGID_102_">
				<use xlink:href="#SVGID_101_"  overflow="visible"/>
			</clipPath>
			<g clip-path="url(#SVGID_102_)">
				<defs>
					<rect id="SVGID_103_" x="300.675" y="359" width="77" height="77"/>
				</defs>
				<clipPath id="SVGID_104_">
					<use xlink:href="#SVGID_103_"  overflow="visible"/>
				</clipPath>
				<polygon clip-path="url(#SVGID_104_)" fill="#FFFFFF" points="344.71,368.502 343.851,394.157 367.875,403.199 342.221,402.34 
					333.179,426.364 334.037,400.709 310.013,391.668 335.668,392.526 				"/>
			</g>
		</g>
	</g>
</g>
<g>
	<defs>
		<path id="SVGID_105_" d="M194.568,233.794c4.83,7.234,2.881,17.015-4.353,21.845c-7.234,4.83-17.015,2.881-21.845-4.354
			s-2.881-17.014,4.354-21.844C179.958,224.611,189.738,226.56,194.568,233.794"/>
	</defs>
	<clipPath id="SVGID_106_">
		<use xlink:href="#SVGID_105_"  overflow="visible"/>
	</clipPath>
	<g clip-path="url(#SVGID_106_)">
		<defs>
			
				<rect id="SVGID_107_" x="163.773" y="224.746" transform="matrix(-0.9807 -0.1954 0.1954 -0.9807 311.7074 515.2474)" width="35" height="35"/>
		</defs>
		<clipPath id="SVGID_108_">
			<use xlink:href="#SVGID_107_"  overflow="visible"/>
		</clipPath>
		<g transform="matrix(1 0 0 1 -1.525879e-05 0)" clip-path="url(#SVGID_108_)">
			
				<image overflow="visible" width="35" height="35" xlink:href="659A46EA893CF084.png"  transform="matrix(0.9807 0.1954 0.1954 -0.9807 160.6904 255.9878)">
			</image>
		</g>
	</g>
</g>
<g>
	<defs>
		<rect id="SVGID_109_" x="152.675" y="214" width="58" height="58"/>
	</defs>
	<clipPath id="SVGID_110_">
		<use xlink:href="#SVGID_109_"  overflow="visible"/>
	</clipPath>
	<g opacity="0.78" clip-path="url(#SVGID_110_)" enable-background="new    ">
		<g>
			<defs>
				<rect id="SVGID_111_" x="160.675" y="222" width="42" height="42"/>
			</defs>
			<clipPath id="SVGID_112_">
				<use xlink:href="#SVGID_111_"  overflow="visible"/>
			</clipPath>
			<g clip-path="url(#SVGID_112_)">
				<defs>
					<rect id="SVGID_113_" x="152.675" y="214" width="58" height="58"/>
				</defs>
				<clipPath id="SVGID_114_">
					<use xlink:href="#SVGID_113_"  overflow="visible"/>
				</clipPath>
				<polygon clip-path="url(#SVGID_114_)" fill="#FFFFFF" points="185.657,222.604 185.046,240.866 202.147,247.303 
					183.885,246.691 177.448,263.793 178.06,245.531 160.958,239.094 179.221,239.706 				"/>
			</g>
		</g>
	</g>
</g>
<g>
	<defs>
		<path id="SVGID_115_" d="M325.718,292.045c7.705,11.541,4.596,27.142-6.945,34.847c-11.54,7.705-27.142,4.596-34.847-6.944
			c-7.705-11.54-4.596-27.142,6.944-34.847C302.411,277.396,318.013,280.504,325.718,292.045"/>
	</defs>
	<clipPath id="SVGID_116_">
		<use xlink:href="#SVGID_115_"  overflow="visible"/>
	</clipPath>
	<g clip-path="url(#SVGID_116_)">
		<defs>
			
				<rect id="SVGID_117_" x="278.616" y="279.937" transform="matrix(-0.9807 -0.1954 0.1954 -0.9807 544.4573 666.5977)" width="53" height="53"/>
		</defs>
		<clipPath id="SVGID_118_">
			<use xlink:href="#SVGID_117_"  overflow="visible"/>
		</clipPath>
		<g transform="matrix(1 0 0 1 0 -3.051758e-05)" clip-path="url(#SVGID_118_)">
			
				<image overflow="visible" width="53" height="53" xlink:href="659A46EA893CF08C.png"  transform="matrix(0.9807 0.1954 0.1954 -0.9807 273.9482 327.2471)">
			</image>
		</g>
	</g>
</g>
<g>
	<defs>
		<rect id="SVGID_119_" x="261.675" y="264" width="87" height="86"/>
	</defs>
	<clipPath id="SVGID_120_">
		<use xlink:href="#SVGID_119_"  overflow="visible"/>
	</clipPath>
	<g opacity="0.3" clip-path="url(#SVGID_120_)" enable-background="new    ">
		<g>
			<defs>
				<rect id="SVGID_121_" x="271.675" y="274" width="67" height="66"/>
			</defs>
			<clipPath id="SVGID_122_">
				<use xlink:href="#SVGID_121_"  overflow="visible"/>
			</clipPath>
			<g clip-path="url(#SVGID_122_)">
				<defs>
					<rect id="SVGID_123_" x="261.675" y="264" width="87" height="86"/>
				</defs>
				<clipPath id="SVGID_124_">
					<use xlink:href="#SVGID_123_"  overflow="visible"/>
				</clipPath>
				<polygon clip-path="url(#SVGID_124_)" fill="#FFFFFF" points="311.501,274.193 310.526,303.327 337.808,313.595 308.674,312.62 
					298.406,339.901 299.382,310.768 272.1,300.5 301.233,301.475 				"/>
			</g>
		</g>
	</g>
</g>
<g>
	<defs>
		<path id="SVGID_125_" d="M57.819,551.02c7.245,10.852,4.321,25.521-6.53,32.768c-10.852,7.244-25.521,4.321-32.767-6.53
			s-4.321-25.521,6.53-32.767S50.574,540.169,57.819,551.02"/>
	</defs>
	<clipPath id="SVGID_126_">
		<use xlink:href="#SVGID_125_"  overflow="visible"/>
	</clipPath>
	<g clip-path="url(#SVGID_126_)">
		<defs>
			
				<rect id="SVGID_127_" x="12.573" y="538.492" transform="matrix(-0.9807 -0.1954 0.1954 -0.9807 -34.8081 1124.5491)" width="51" height="51"/>
		</defs>
		<clipPath id="SVGID_128_">
			<use xlink:href="#SVGID_127_"  overflow="visible"/>
		</clipPath>
		<g clip-path="url(#SVGID_128_)">
			
				<image overflow="visible" width="51" height="51" xlink:href="659A46EA893CF0A4.png"  transform="matrix(0.9807 0.1954 0.1954 -0.9807 8.0811 584.0156)">
			</image>
		</g>
	</g>
</g>
<polygon fill="#FFFFFF" points="44.451,534.234 43.534,561.629 69.188,571.283 41.793,570.366 32.139,596.02 33.056,568.625 
	7.402,558.971 34.797,559.887 "/>
<g>
	<defs>
		<path id="SVGID_129_" d="M267.995,614.016c5.636,8.439,3.361,19.85-5.078,25.485c-8.44,5.635-19.851,3.361-25.485-5.079
			c-5.636-8.439-3.361-19.85,5.078-25.484C250.95,603.302,262.36,605.576,267.995,614.016"/>
	</defs>
	<clipPath id="SVGID_130_">
		<use xlink:href="#SVGID_129_"  overflow="visible"/>
	</clipPath>
	<g clip-path="url(#SVGID_130_)">
		<defs>
			
				<rect id="SVGID_131_" x="233.409" y="603.875" transform="matrix(-0.9807 -0.1954 0.1954 -0.9807 379.0129 1285.1482)" width="39" height="40"/>
		</defs>
		<clipPath id="SVGID_132_">
			<use xlink:href="#SVGID_131_"  overflow="visible"/>
		</clipPath>
		<g clip-path="url(#SVGID_132_)">
			
				<image overflow="visible" width="39" height="40" xlink:href="659A46EA893CF0A7.png"  transform="matrix(0.9807 0.1954 0.1954 -0.9807 229.877 639.6787)">
			</image>
		</g>
	</g>
</g>
<g>
	<defs>
		<rect id="SVGID_133_" x="219.675" y="592" width="66" height="66"/>
	</defs>
	<clipPath id="SVGID_134_">
		<use xlink:href="#SVGID_133_"  overflow="visible"/>
	</clipPath>
	<g opacity="0.5" clip-path="url(#SVGID_134_)" enable-background="new    ">
		<g>
			<defs>
				<rect id="SVGID_135_" x="228.675" y="600" width="49" height="50"/>
			</defs>
			<clipPath id="SVGID_136_">
				<use xlink:href="#SVGID_135_"  overflow="visible"/>
			</clipPath>
			<g clip-path="url(#SVGID_136_)">
				<defs>
					<rect id="SVGID_137_" x="219.675" y="592" width="66" height="66"/>
				</defs>
				<clipPath id="SVGID_138_">
					<use xlink:href="#SVGID_137_"  overflow="visible"/>
				</clipPath>
				<polygon clip-path="url(#SVGID_138_)" fill="#FFFFFF" points="257.599,600.96 256.885,622.267 276.838,629.775 255.531,629.062 
					248.021,649.016 248.735,627.709 228.782,620.199 250.089,620.912 				"/>
			</g>
		</g>
	</g>
</g>
<g>
	<defs>
		<path id="SVGID_139_" d="M197.104,570.441c5.176,7.75,3.087,18.229-4.664,23.404c-7.751,5.176-18.229,3.087-23.404-4.664
			s-3.087-18.229,4.664-23.404C181.45,560.602,191.929,562.689,197.104,570.441"/>
	</defs>
	<clipPath id="SVGID_140_">
		<use xlink:href="#SVGID_139_"  overflow="visible"/>
	</clipPath>
	<g clip-path="url(#SVGID_140_)">
		<defs>
			
				<rect id="SVGID_141_" x="165.266" y="560.968" transform="matrix(-0.9807 -0.1954 0.1954 -0.9807 249.7408 1183.5789)" width="36" height="37"/>
		</defs>
		<clipPath id="SVGID_142_">
			<use xlink:href="#SVGID_141_"  overflow="visible"/>
		</clipPath>
		<g transform="matrix(1 0 0 1 -1.525879e-05 -6.103516e-05)" clip-path="url(#SVGID_142_)">
			
				<image overflow="visible" width="36" height="37" xlink:href="659A46EA893CF0A5.png"  transform="matrix(0.9807 0.1954 0.1954 -0.9807 161.9971 594.0938)">
			</image>
		</g>
	</g>
</g>
<g>
	<defs>
		<rect id="SVGID_143_" x="152.675" y="550" width="61" height="61"/>
	</defs>
	<clipPath id="SVGID_144_">
		<use xlink:href="#SVGID_143_"  overflow="visible"/>
	</clipPath>
	<g opacity="0.5" clip-path="url(#SVGID_144_)" enable-background="new    ">
		<g>
			<defs>
				<rect id="SVGID_145_" x="160.675" y="558" width="45" height="45"/>
			</defs>
			<clipPath id="SVGID_146_">
				<use xlink:href="#SVGID_145_"  overflow="visible"/>
			</clipPath>
			<g clip-path="url(#SVGID_146_)">
				<defs>
					<rect id="SVGID_147_" x="152.675" y="550" width="61" height="61"/>
				</defs>
				<clipPath id="SVGID_148_">
					<use xlink:href="#SVGID_147_"  overflow="visible"/>
				</clipPath>
				<polygon clip-path="url(#SVGID_148_)" fill="#FFFFFF" points="187.556,558.451 186.9,578.019 205.225,584.914 185.657,584.26 
					178.761,602.584 179.416,583.016 161.092,576.12 180.659,576.775 				"/>
			</g>
		</g>
	</g>
</g>
<g>
	<defs>
		<path id="SVGID_149_" d="M83.467,588.719c9.43,14.123,5.624,33.218-8.499,42.648c-14.124,9.43-33.219,5.625-42.648-8.5
			c-9.431-14.123-5.625-33.218,8.499-42.648C54.942,570.789,74.036,574.594,83.467,588.719"/>
	</defs>
	<clipPath id="SVGID_150_">
		<use xlink:href="#SVGID_149_"  overflow="visible"/>
	</clipPath>
	<g clip-path="url(#SVGID_150_)">
		<defs>
			
				<rect id="SVGID_151_" x="25.196" y="572.999" transform="matrix(-0.9807 -0.1954 0.1954 -0.9807 -4.0622 1210.5962)" width="65.001" height="65"/>
		</defs>
		<clipPath id="SVGID_152_">
			<use xlink:href="#SVGID_151_"  overflow="visible"/>
		</clipPath>
		<g transform="matrix(1 0 0 1 -7.629395e-06 0)" clip-path="url(#SVGID_152_)">
			
				<image overflow="visible" width="65" height="65" xlink:href="659A46EA893CF0AB.png"  transform="matrix(0.9807 0.1954 0.1954 -0.9807 19.4717 631.0205)">
			</image>
		</g>
	</g>
</g>
<g>
	<defs>
		<rect id="SVGID_153_" x="5.675" y="555" width="105" height="104"/>
	</defs>
	<clipPath id="SVGID_154_">
		<use xlink:href="#SVGID_153_"  overflow="visible"/>
	</clipPath>
	<g opacity="0.5" clip-path="url(#SVGID_154_)" enable-background="new    ">
		<g>
			<defs>
				<rect id="SVGID_155_" x="17.675" y="566" width="81" height="82"/>
			</defs>
			<clipPath id="SVGID_156_">
				<use xlink:href="#SVGID_155_"  overflow="visible"/>
			</clipPath>
			<g clip-path="url(#SVGID_156_)">
				<defs>
					<rect id="SVGID_157_" x="5.675" y="555" width="105" height="104"/>
				</defs>
				<clipPath id="SVGID_158_">
					<use xlink:href="#SVGID_157_"  overflow="visible"/>
				</clipPath>
				<polygon clip-path="url(#SVGID_158_)" fill="#FFFFFF" points="66.067,566.87 64.874,602.525 98.264,615.092 62.607,613.898 
					50.041,647.289 51.234,611.633 17.845,599.066 53.501,600.26 				"/>
			</g>
		</g>
	</g>
</g>
<g>
	<defs>
		<path id="SVGID_159_" d="M165.088,674.502c5.635,8.439,3.361,19.85-5.079,25.484c-8.439,5.635-19.85,3.361-25.484-5.078
			c-5.636-8.44-3.361-19.851,5.078-25.485C148.043,663.787,159.453,666.062,165.088,674.502"/>
	</defs>
	<clipPath id="SVGID_160_">
		<use xlink:href="#SVGID_159_"  overflow="visible"/>
	</clipPath>
	<g clip-path="url(#SVGID_160_)">
		<defs>
			
				<rect id="SVGID_161_" x="129.414" y="665.254" transform="matrix(-0.9807 -0.1955 0.1955 -0.9807 162.104 1385.5044)" width="40" height="39"/>
		</defs>
		<clipPath id="SVGID_162_">
			<use xlink:href="#SVGID_161_"  overflow="visible"/>
		</clipPath>
		<g transform="matrix(1 0 0 1 1.525879e-05 -6.103516e-05)" clip-path="url(#SVGID_162_)">
			
				<image overflow="visible" width="40" height="39" xlink:href="659A46EA893CF0AC.png"  transform="matrix(0.9807 0.1954 0.1954 -0.9807 125.9883 699.9688)">
			</image>
		</g>
	</g>
</g>
<g>
	<defs>
		<rect id="SVGID_163_" x="116.675" y="653" width="66" height="65"/>
	</defs>
	<clipPath id="SVGID_164_">
		<use xlink:href="#SVGID_163_"  overflow="visible"/>
	</clipPath>
	<g opacity="0.5" clip-path="url(#SVGID_164_)" enable-background="new    ">
		<g>
			<defs>
				<rect id="SVGID_165_" x="125.675" y="661" width="49" height="49"/>
			</defs>
			<clipPath id="SVGID_166_">
				<use xlink:href="#SVGID_165_"  overflow="visible"/>
			</clipPath>
			<g clip-path="url(#SVGID_166_)">
				<defs>
					<rect id="SVGID_167_" x="116.675" y="653" width="66" height="65"/>
				</defs>
				<clipPath id="SVGID_168_">
					<use xlink:href="#SVGID_167_"  overflow="visible"/>
				</clipPath>
				<polygon clip-path="url(#SVGID_168_)" fill="#FFFFFF" points="154.69,661.445 153.978,682.752 173.93,690.262 152.623,689.549 
					145.114,709.5 145.827,688.193 125.875,680.686 147.182,681.398 				"/>
			</g>
		</g>
	</g>
</g>
<g>
	<defs>
		<path id="SVGID_169_" d="M376,619.99c12.306,18.43,7.34,43.346-11.09,55.65c-18.431,12.305-43.346,7.34-55.651-11.09
			c-12.305-18.43-7.34-43.346,11.09-55.651C338.779,596.594,363.695,601.56,376,619.99"/>
	</defs>
	<clipPath id="SVGID_170_">
		<use xlink:href="#SVGID_169_"  overflow="visible"/>
	</clipPath>
	<g clip-path="url(#SVGID_170_)">
		<defs>
			
				<rect id="SVGID_171_" x="300.531" y="600.123" transform="matrix(-0.9807 -0.1954 0.1954 -0.9807 552.9599 1338.8076)" width="84" height="84"/>
		</defs>
		<clipPath id="SVGID_172_">
			<use xlink:href="#SVGID_171_"  overflow="visible"/>
		</clipPath>
		<g clip-path="url(#SVGID_172_)">
			
				<image overflow="visible" width="84" height="84" xlink:href="659A46EA893CF0AF.png"  transform="matrix(0.9807 0.1954 0.1954 -0.9807 293.1328 675.1045)">
			</image>
		</g>
	</g>
</g>
<g>
	<defs>
		<rect id="SVGID_173_" x="275.675" y="577" width="134" height="134"/>
	</defs>
	<clipPath id="SVGID_174_">
		<use xlink:href="#SVGID_173_"  overflow="visible"/>
	</clipPath>
	<g opacity="0.73" clip-path="url(#SVGID_174_)" enable-background="new    ">
		<g>
			<defs>
				<rect id="SVGID_175_" x="289.675" y="591" width="106" height="106"/>
			</defs>
			<clipPath id="SVGID_176_">
				<use xlink:href="#SVGID_175_"  overflow="visible"/>
			</clipPath>
			<g clip-path="url(#SVGID_176_)">
				<defs>
					<rect id="SVGID_177_" x="275.675" y="577" width="134" height="134"/>
				</defs>
				<clipPath id="SVGID_178_">
					<use xlink:href="#SVGID_177_"  overflow="visible"/>
				</clipPath>
				<polygon clip-path="url(#SVGID_178_)" fill="#FFFFFF" points="353.297,591.48 351.739,638.008 395.309,654.404 348.782,652.848 
					332.385,696.417 333.941,649.891 290.372,633.492 336.899,635.05 				"/>
			</g>
		</g>
	</g>
</g>
<g>
	<defs>
		<path id="SVGID_179_" d="M317.196,387.382c5.176,7.751,3.088,18.229-4.664,23.405c-7.751,5.174-18.229,3.086-23.404-4.665
			s-3.087-18.229,4.664-23.404C301.543,377.542,312.021,379.631,317.196,387.382"/>
	</defs>
	<clipPath id="SVGID_180_">
		<use xlink:href="#SVGID_179_"  overflow="visible"/>
	</clipPath>
	<g clip-path="url(#SVGID_180_)">
		<defs>
			
				<rect id="SVGID_181_" x="285.261" y="378.899" transform="matrix(-0.9807 -0.1954 0.1954 -0.9807 523.1055 845.4131)" width="36" height="36"/>
		</defs>
		<clipPath id="SVGID_182_">
			<use xlink:href="#SVGID_181_"  overflow="visible"/>
		</clipPath>
		<g transform="matrix(1 0 0 1 3.051758e-05 -3.051758e-05)" clip-path="url(#SVGID_182_)">
			
				<image overflow="visible" width="36" height="36" xlink:href="659A46EA893CF0AD.png"  transform="matrix(0.9807 0.1954 0.1954 -0.9807 282.0898 411.0342)">
			</image>
		</g>
	</g>
</g>
<g>
	<defs>
		<rect id="SVGID_183_" x="272.675" y="367" width="61" height="61"/>
	</defs>
	<clipPath id="SVGID_184_">
		<use xlink:href="#SVGID_183_"  overflow="visible"/>
	</clipPath>
	<g opacity="0.5" clip-path="url(#SVGID_184_)" enable-background="new    ">
		<g>
			<defs>
				<rect id="SVGID_185_" x="280.675" y="375" width="45" height="45"/>
			</defs>
			<clipPath id="SVGID_186_">
				<use xlink:href="#SVGID_185_"  overflow="visible"/>
			</clipPath>
			<g clip-path="url(#SVGID_186_)">
				<defs>
					<rect id="SVGID_187_" x="272.675" y="367" width="61" height="61"/>
				</defs>
				<clipPath id="SVGID_188_">
					<use xlink:href="#SVGID_187_"  overflow="visible"/>
				</clipPath>
				<polygon clip-path="url(#SVGID_188_)" fill="#FFFFFF" points="307.648,375.392 306.993,394.959 325.317,401.855 305.75,401.201 
					298.854,419.523 299.509,399.957 281.186,393.061 300.752,393.715 				"/>
			</g>
		</g>
	</g>
</g>
<g>
	<defs>
		<path id="SVGID_189_" d="M93.192,291.838c6.785,10.162,4.047,23.901-6.115,30.686c-10.162,6.785-23.901,4.047-30.687-6.115
			c-6.784-10.163-4.047-23.901,6.115-30.686C72.669,278.938,86.407,281.675,93.192,291.838"/>
	</defs>
	<clipPath id="SVGID_190_">
		<use xlink:href="#SVGID_189_"  overflow="visible"/>
	</clipPath>
	<g clip-path="url(#SVGID_190_)">
		<defs>
			
				<rect id="SVGID_191_" x="51.684" y="280.074" transform="matrix(-0.9807 -0.1954 0.1954 -0.9807 89.4902 616.9774)" width="47" height="48"/>
		</defs>
		<clipPath id="SVGID_192_">
			<use xlink:href="#SVGID_191_"  overflow="visible"/>
		</clipPath>
		<g clip-path="url(#SVGID_192_)">
			
				<image overflow="visible" width="47" height="48" xlink:href="659A46EA893CF0AA.png"  transform="matrix(0.9807 0.1954 0.1954 -0.9807 47.4463 323.0181)">
			</image>
		</g>
	</g>
</g>
<g>
	<defs>
		<rect id="SVGID_193_" x="36.675" y="266" width="77" height="78"/>
	</defs>
	<clipPath id="SVGID_194_">
		<use xlink:href="#SVGID_193_"  overflow="visible"/>
	</clipPath>
	<g opacity="0.5" clip-path="url(#SVGID_194_)" enable-background="new    ">
		<g>
			<defs>
				<rect id="SVGID_195_" x="45.675" y="276" width="59" height="58"/>
			</defs>
			<clipPath id="SVGID_196_">
				<use xlink:href="#SVGID_195_"  overflow="visible"/>
			</clipPath>
			<g clip-path="url(#SVGID_196_)">
				<defs>
					<rect id="SVGID_197_" x="36.675" y="266" width="77" height="78"/>
				</defs>
				<clipPath id="SVGID_198_">
					<use xlink:href="#SVGID_197_"  overflow="visible"/>
				</clipPath>
				<polygon clip-path="url(#SVGID_198_)" fill="#FFFFFF" points="80.674,276.118 79.814,301.772 103.839,310.814 78.185,309.956 
					69.143,333.98 70.001,308.325 45.977,299.283 71.632,300.142 				"/>
			</g>
		</g>
	</g>
</g>
<g>
</g>
<g>
</g>
<g>
</g>
<g>
</g>
<g>
</g>
<g>
</g>
<g>
</g>
<g>
</g>
<g>
</g>
<g>
</g>
<g>
</g>
<g>
</g>
<g>
</g>
<g>
</g>
<g>
</g>
</svg>
