<svg xmlns="http://www.w3.org/2000/svg" xmlns:xlink="http://www.w3.org/1999/xlink" version="1.1" id="Layer_1" x="0px" y="0px" width="100px" height="100px" viewBox="0 0 100 100" enable-background="new 0 0 100 100" xml:space="preserve">
<g>
	<path d="M43.166,80.007c2.049,0,3.505-0.603,3.505-1.19c0-0.587-1.457-1.191-3.505-1.191c-2.05,0-3.506,0.604-3.506,1.191   C39.66,79.404,41.116,80.007,43.166,80.007z"/>
	<path d="M46.416,87.858h-2.372c-0.439,0-0.797,0.356-0.797,0.798v2.956c0,0.44,0.357,0.798,0.797,0.798h2.372   c0.44,0,0.798-0.357,0.798-0.798v-2.956C47.213,88.215,46.855,87.858,46.416,87.858z"/>
	<path d="M56.02,88.611h-2.372c-0.441,0-0.798,0.358-0.798,0.796v2.205c0,0.44,0.356,0.798,0.798,0.798h2.372   c0.439,0,0.797-0.357,0.797-0.798v-2.205C56.816,88.97,56.459,88.611,56.02,88.611z"/>
	<path d="M41.614,89.378h-2.372c-0.44,0-0.797,0.357-0.797,0.798v1.437c0,0.44,0.356,0.798,0.797,0.798h2.372   c0.441,0,0.797-0.357,0.797-0.798v-1.437C42.411,89.735,42.055,89.378,41.614,89.378z"/>
	<path d="M51.217,86.286h-2.372c-0.44,0-0.797,0.357-0.797,0.798v4.528c0,0.44,0.356,0.798,0.797,0.798h2.372   c0.439,0,0.797-0.357,0.797-0.798v-4.528C52.014,86.644,51.656,86.286,51.217,86.286z"/>
	<path d="M62.463,72.854c-0.033-0.963-0.315-1.861-0.782-2.632V70.22c-0.959-1.592-2.705-2.655-4.698-2.655h-0.147   c-1.996,0-3.743,1.066-4.702,2.658v0.002c-0.496,0.826-0.782,1.791-0.782,2.823v6.087c0,3.028,2.456,5.483,5.484,5.483h0.147   c2.775,0,5.068-2.061,5.434-4.736c1.356-1.023,2.182-2.286,1.673-3.435L62.463,72.854z M59.975,80.102   c-2.123,0.946-4.147,1.032-4.52,0.192l-2.47-5.561c-0.697-1.568-0.335-3.339,0.777-4.511h0.001c0.359-0.379,0.799-0.694,1.307-0.92   l0.135-0.061c1.657-0.738,3.542-0.291,4.704,0.98h0.003c0.291,0.319,0.537,0.688,0.724,1.104l2.507,5.546   C63.515,77.711,62.098,79.156,59.975,80.102z"/>
	<path d="M58.7,77.199c-1.871,0.833-2.955,1.977-2.717,2.514c0.237,0.536,1.813,0.496,3.688-0.339   c1.872-0.833,2.956-1.976,2.718-2.513C62.149,76.324,60.573,76.364,58.7,77.199z"/>
	<path d="M60.819,89.378h-2.373c-0.44,0-0.796,0.357-0.796,0.798v1.437c0,0.44,0.355,0.798,0.796,0.798h2.373   c0.441,0,0.797-0.357,0.797-0.798v-1.437C61.616,89.735,61.261,89.378,60.819,89.378z"/>
	<path d="M96.383,53.096c-0.021-0.452-0.313-0.885-0.722-1.081c2.386-27.597-9.789-46.323-39.259-48.622v0.125   c0,0.309-0.25,0.558-0.559,0.558H44.291c-0.308,0-0.557-0.249-0.557-0.558V3.393C14.262,5.69,2.048,24.425,4.427,52.036   c-0.375,0.199-0.64,0.599-0.677,1.021c-6.039,4.907-2.713,9.167,2.277,11.956c0.037,1.798,0.094,3.534,0.145,5.21l0,0   c0,0.011,0.001,0.024,0.001,0.035c0,6.41,3.103,8.465,4.828,9.147c7.05,2.789,14.837,4.88,23.125,6.128l1.167,7.775   c0.494,2.297,2.659,3.917,5.026,3.917h19.495c2.229,0,3.982-1.242,4.803-3.226c0.159-0.385,0.224-0.691,0.224-0.691   s0.54-3.612,1.173-7.791c8.252-1.249,16.004-3.334,23.03-6.112c1.723-0.683,4.824-2.737,4.824-9.147   c0.001-0.011,0.001-0.022,0.001-0.035c0.053-1.668,0.107-3.396,0.146-5.184C99.014,62.257,102.375,58.002,96.383,53.096z    M9.612,70.221c-0.504-0.887-0.913-2.149-1.02-3.951c3.991,1.73,8.885,3.057,12.964,3.953h0.012   c2.484,0.544,4.665,0.929,6.155,1.147c0.399,0.046,4.315,0.653,4.658,2.71c0.142,0.898,0.356,2.291,0.606,3.928   c-7.56-1.242-14.658-3.2-21.107-5.75c-0.498-0.198-1.498-0.68-2.269-2.035V70.221z M11.881,77.181   c-0.693-0.273-2.356-1.103-3.027-4.069c0.756,0.716,1.538,1.128,2.147,1.37c6.834,2.703,14.36,4.752,22.363,6.01l0.388,2.564   C25.907,81.822,18.547,79.818,11.881,77.181z M88.159,77.181c-6.637,2.626-13.964,4.625-21.771,5.858l0.392-2.563   c7.965-1.262,15.455-3.302,22.262-5.994c0.606-0.242,1.388-0.654,2.146-1.37C90.517,76.078,88.853,76.907,88.159,77.181z    M90.429,70.221L90.429,70.221c-0.772,1.357-1.771,1.839-2.27,2.037c-6.417,2.537-13.477,4.489-20.996,5.732   c0.254-1.626,0.472-3.011,0.621-3.904c0.343-2.062,4.191-2.672,4.581-2.716c1.486-0.219,3.663-0.602,6.144-1.146h0.004   c4.066-0.89,8.945-2.212,12.936-3.936C91.338,68.078,90.933,69.336,90.429,70.221z M91.2,63.779   c-6.16,2.829-15.143,4.632-19.164,5.224c-1.237,0.153-2.667,0.542-3.881,1.22v0.002c-1.369,0.763-2.469,1.893-2.73,3.467   c-0.674,4.047-2.77,18.062-2.934,19.149c-0.365,1.213-1.349,1.992-2.679,1.992H40.318c-1.33,0-2.312-0.779-2.679-1.992   c-0.163-1.087-2.257-15.101-2.896-19.145c-0.265-1.583-1.376-2.712-2.755-3.474h-0.001c-1.236-0.681-2.687-1.067-3.937-1.22   c-4.021-0.592-13.004-2.395-19.163-5.224c-5.632-2.584-8.089-5.103-3.462-8.948c1.362,0.801,2.927,1.523,4.581,2.174   c1.484,0.583,2.359-1.644,0.875-2.227c-1.475-0.579-2.824-1.201-3.983-1.859c-0.116-2.944-0.475-5.56-0.421-8.688   C6.887,20.264,20.782,7.462,44.405,5.746v0.535l11.532,0.007V5.761c23.495,1.777,37.293,14.574,37.682,38.469   c0.053,3.136-0.313,5.76-0.428,8.715c-1.15,0.649-2.483,1.263-3.938,1.834c-1.484,0.583-0.61,2.81,0.875,2.227   c1.644-0.646,3.198-1.363,4.555-2.158C99.282,58.685,96.824,61.199,91.2,63.779z"/>
	<polygon points="55.937,11.422 55.844,11.431 44.405,11.431 44.405,13.633 55.937,13.633  "/>
	<path d="M58.54,41.746c-2.587,0.892-1.582,0.599-3.914,1.37c-1.777,0.587-2.978-0.13-2.978-0.13s0.896,1.824,3.237,1.658   c-0.461,0.287-0.672,0.605-0.771,0.718l6.663-0.131c0,0-0.374-0.654-2.592-1.02c-0.4-0.057-0.762-0.083-1.09-0.085   c2.046-0.639,2.661-1.115,4.466-0.532c1.159,0.375,1.848,1.304,1.848,1.304S61.431,40.749,58.54,41.746z"/>
	<path d="M52.881,57.603c-1.706-0.266-2.487,0.088-2.799,0.493c-0.312-0.405-1.093-0.759-2.798-0.493   c-1.542,0.242-2.993,1.193-3.208,1.705c1.74-0.469,3.781-0.738,5.965-0.738c2.221,0,4.295,0.278,6.054,0.762   C55.92,58.826,54.446,57.849,52.881,57.603z"/>
	<polygon points="55.937,7.745 55.844,7.753 44.405,7.753 44.405,9.958 55.937,9.965  "/>
	<path d="M45.144,44.644c2.341,0.167,3.237-1.658,3.237-1.658s-1.2,0.717-2.979,0.13c-2.332-0.771-1.326-0.478-3.913-1.37   c-2.892-0.997-4.869,3.152-4.869,3.152s0.688-0.929,1.848-1.304c1.805-0.583,2.419-0.107,4.465,0.532   c-0.327,0.002-0.689,0.029-1.091,0.085c-2.216,0.366-2.591,1.02-2.591,1.02l6.664,0.131C45.815,45.249,45.606,44.93,45.144,44.644z   "/>
	<path d="M49.188,18.417h1.965c2.128,0,3.932-1.389,4.551-3.309H44.636C45.257,17.028,47.061,18.417,49.188,18.417z"/>
	<path d="M45.749,60.312c0.622,1.083,2.333,1.862,4.346,1.862c2.028,0,3.75-0.79,4.359-1.888c-1.104,0.411-2.661,0.668-4.387,0.668   C48.376,60.954,46.848,60.709,45.749,60.312z"/>
	<path d="M67.444,13.562c-6.78-2.588-8.719,2.446-8.719,5.437c0.235,3.221-2.527,4.737-5.583,4.737h-6.154   c-2.848,0-5.216-1.075-5.557-3.996C41.383,19.317,41.406,19,41.406,19c0-2.989-1.937-8.021-8.708-5.441   C18.3,18.803,12.277,30.662,12.277,41.446c0,15.41,11.824,22.915,37.789,22.915c25.892,0,37.789-7.504,37.789-22.915   C87.854,30.665,81.834,18.809,67.444,13.562z M31.958,47.086c0,0.466-0.378,0.844-0.843,0.844c-0.467,0-0.844-0.378-0.844-0.844   c0-0.467,0.377-0.844,0.844-0.844C31.581,46.242,31.958,46.619,31.958,47.086z M31.958,49.618c0,0.465-0.378,0.843-0.843,0.843   c-0.467,0-0.844-0.378-0.844-0.843c0-0.467,0.377-0.845,0.844-0.845C31.581,48.773,31.958,49.151,31.958,49.618z M16.446,33.512   h2.474c-0.339,1.542-0.585,3.099-0.74,4.651h-2.814C15.579,36.609,15.935,35.049,16.446,33.512z M15.124,41.701   c0-0.819,0.039-1.647,0.119-2.476h2.844c-0.078,1.04-0.116,2.077-0.116,3.103c0,0.524,0.01,1.04,0.03,1.548h-2.779   C15.156,43.17,15.124,42.444,15.124,41.701z M15.347,44.938h2.71c0.113,1.631,0.339,3.184,0.691,4.652H16.72   C16.038,48.151,15.591,46.597,15.347,44.938z M17.28,50.65h1.75c0.404,1.388,0.931,2.693,1.595,3.915   C19.221,53.396,18.118,52.087,17.28,50.65z M19.168,32.451h-2.344c0.608-1.593,1.386-3.154,2.347-4.651h1.486   C20.057,29.316,19.562,30.875,19.168,32.451z M21.098,26.739h-1.207c0.853-1.192,1.828-2.335,2.931-3.415   C22.18,24.429,21.606,25.569,21.098,26.739z M32.165,56.09c-0.02,0.575-0.025,1.145-0.017,1.707   c-3.485-0.762-7.016,1.98-5.675-10.571c0.545-5.091,2.47-7.384,5.185-10.474c-0.128,1.038-0.203,2.404-0.202,4.191l0.022,0.712   c-0.531,0.433-0.993,1.098-1.232,2.111c-0.819,3.46-2.788,7.399,0.728,8.944C32.653,53.448,32.1,56.087,32.165,56.09z    M66.696,45.242l-0.045,0.368c-0.216,1.483-0.896,2.937-1.762,4.164c-1.061,1.421-2.322,2.653-3.741,3.641   c1.367-0.359,2.64-0.947,3.78-1.717c-0.013,1.36,0.027,3.1,0.027,4.015c0,0.508-0.058,1.021-0.166,1.535   c-5.01,0.806-9.086,3.062-9.935,5.425c-1.534,0.061-3.131,0.092-4.79,0.092c-1.76,0-3.447-0.035-5.065-0.102   c-0.845-2.324-4.805-4.541-9.703-5.377c-0.113-0.527-0.174-1.052-0.174-1.573c0-0.915,0.04-2.654,0.028-4.015   c1.14,0.77,2.414,1.357,3.78,1.717c-1.419-0.988-2.681-2.22-3.74-3.641c-0.866-1.228-1.547-2.681-1.763-4.164l-0.044-0.368   c-0.277-3.008,1.445-6.071,7.464-7.558c0.431-0.107,0.187-0.61,1.579-0.984c1.283-0.2,1.057,0.471,1.755,0.385   c1.703-0.21,3.647-0.324,5.86-0.324c0.605,0,1.193,0.008,1.761,0.025c1.388,0.041,1.369-1.502,3.9-1.055   c1.106,0.127,2.033,1.615,2.949,1.816c0.752,0.166,0.956-0.997,1.776-0.699c1.297,0.596,1.742,1.801,2.344,2.11   C65.947,40.595,66.906,42.934,66.696,45.242z M67.982,57.797c0.008-0.562,0.003-1.132-0.016-1.707   c0.065-0.003-0.487-2.642,1.189-3.38c3.517-1.545,1.547-5.484,0.729-8.944c-0.24-1.014-0.7-1.678-1.234-2.111   c-0.598-0.358-3.145-3.503-5.149-4.113c-0.139-0.157-0.254-0.36-0.418-0.557c-0.404-0.479-1.082-1.167-2.049-1.611   c-1.58-0.63-2.438,0.515-3.685-0.687c-0.305-0.291-0.833-0.457-1.407-0.534c-1.66-0.284-2.197-0.936-2.455-1.648   c-0.695-1.922-1.396-3.826-1.905-5.461h1.56c3.464,0,5.562-1.272,6.73-2.91c6.358,3.486,7.807,10.839,8.736,12.773   c2.642,3.013,4.514,5.314,5.048,10.319C74.999,59.777,71.468,57.035,67.982,57.797z M69.017,48.773   c0.465,0,0.844,0.378,0.844,0.845c0,0.465-0.379,0.843-0.844,0.843c-0.466,0-0.844-0.378-0.844-0.843   C68.173,49.151,68.551,48.773,69.017,48.773z M68.173,47.086c0-0.467,0.378-0.844,0.844-0.844c0.465,0,0.844,0.377,0.844,0.844   c0,0.466-0.379,0.844-0.844,0.844C68.551,47.93,68.173,47.552,68.173,47.086z M77.021,41.014c-2.406-1.26-3.822-4.42-3.167-7.06   c0.197-0.783,0.554-1.434,1.021-1.927c-2.252-0.304-4.979-1.814-7.261-4.222c-3.595-3.792-4.722-8.375-2.52-10.237   c2.203-1.862,6.901-0.297,10.496,3.494c3.448,3.638,4.626,8.004,2.771,9.997c0.343,0.086,0.692,0.218,1.039,0.399   c2.405,1.259,3.823,4.42,3.166,7.059C81.908,41.157,79.427,42.274,77.021,41.014z M79.498,54.549   c0.663-1.215,1.191-2.518,1.597-3.898h1.743C82,52.081,80.897,53.385,79.498,54.549z M83.399,49.59h-2.023   c0.355-1.469,0.581-3.021,0.695-4.652h2.709C84.536,46.597,84.086,48.151,83.399,49.59z M85.006,41.701   c0,0.743-0.033,1.469-0.098,2.175H82.13c0.02-0.508,0.03-1.024,0.03-1.548c0-0.506-0.011-1.016-0.028-1.528   c0.372-0.44,0.676-0.969,0.887-1.575h1.869C84.967,40.054,85.006,40.882,85.006,41.701z M84.765,38.164h-1.482   c0.242-1.57-0.114-3.241-0.909-4.651h1.311C84.194,35.049,84.551,36.609,84.765,38.164z M83.306,32.451l-1.652,0.001   c-0.285-0.35-0.602-0.673-0.945-0.959c-0.23-0.833-0.489-1.658-0.778-2.474c0.034-0.393,0.023-0.801-0.029-1.219h1.059   C81.919,29.296,82.697,30.857,83.306,32.451z M79.692,26.739c-0.116-0.429-0.267-0.865-0.451-1.303   c0.35,0.428,0.683,0.862,0.997,1.303H79.692z"/>
</g>
<path d="M47.91,70.223h-0.001c-0.96-1.592-2.706-2.658-4.701-2.658H43.06c-1.996,0-3.743,1.066-4.702,2.658v0.002  c-0.496,0.826-0.782,1.791-0.782,2.823v6.087c0,3.028,2.455,5.483,5.484,5.483h0.147c3.029,0,5.484-2.455,5.484-5.483v-6.087  C48.692,72.016,48.406,71.051,47.91,70.223z M43.148,80.795c-2.325,0-4.208-0.743-4.208-1.66l0.007-6.087  c0-1.095,0.429-2.092,1.128-2.825V70.22c0.749-0.792,1.81-1.283,2.985-1.283h0.147c1.176,0,2.236,0.491,2.986,1.286h0.002  c0.697,0.737,1.125,1.732,1.125,2.825l0.035,6.087C47.356,80.052,45.473,80.795,43.148,80.795z"/>
</svg>