<svg xmlns="http://www.w3.org/2000/svg" xmlns:xlink="http://www.w3.org/1999/xlink" version="1.1" x="0px" y="0px" width="100px" height="100px" viewBox="0 0 100 100" enable-background="new 0 0 100 100" xml:space="preserve">
<g id="Layer_1">
</g>
<g id="Layer_2">
	<path d="M52.666,68.047c0.596,0.268,1.358,0.633,2.246,1.112c1.766,0.955,3.429,2.05,5.004,3.249   c4.878-4.48,9.706-11.632,9.706-22.407c0-21.298-18.872-28.462-19.657-28.751c-0.388-0.146-6.476-2.548-10.624-8.584h18.477   c-1.576,2.294-3.433,4.066-5.154,5.381c1.541,0.698,4.261,2.094,7.248,4.364c4.879-4.481,9.71-11.635,9.71-22.411h-8   c0,0.731-0.041,1.433-0.101,2.12H35.638C35.58,1.428,35.521,0.736,35.521,0h-8c0,11.85,5.841,19.319,11.159,23.669   c3.286,2.688,6.367,4.183,7.752,4.778l2.688,1.217c0.771,0.409,1.705,0.959,2.732,1.683c1.957,1.38,4.192,3.371,6.033,6.084H39.255   c1.591-2.342,3.477-4.142,5.222-5.478c-1.539-0.697-4.259-2.092-7.247-4.362c-4.878,4.479-9.709,11.634-9.709,22.411   c0,10.782,4.834,17.934,9.712,22.415c2.5,2.297,5.006,3.887,6.883,4.901c0.008,0.003,0.014,0.006,0.021,0.009   c1.683,0.908,2.858,1.356,3.041,1.424c0.241,0.091,2.68,1.058,5.483,3.201c1.748,1.336,3.635,3.138,5.228,5.48H39.254   c1.591-2.343,3.476-4.143,5.221-5.477c-0.548-0.247-1.237-0.575-2.041-1.002l-0.22-0.117c-1.312-0.709-3.084-1.783-4.997-3.234   c-4.874,4.479-9.697,11.631-9.697,22.398h8c0-0.697,0.036-1.367,0.088-2.025h25.924c0.051,0.658,0.089,1.328,0.089,2.025h8   c0-10.779-4.835-17.935-9.713-22.414c-2.497-2.292-5-3.881-6.879-4.898c-0.007-0.003-0.013-0.006-0.019-0.01   c-1.692-0.914-2.876-1.365-3.064-1.434c-0.06-0.022-2.553-0.984-5.447-3.205c-1.717-1.317-3.572-3.088-5.15-5.373h18.47   C56.244,64.959,54.388,66.731,52.666,68.047z M61.029,5.32c-0.344,1.505-0.823,2.884-1.399,4.146H37.522   C36.942,8.2,36.45,6.83,36.105,5.32H61.029z M36.09,94.775c0.336-1.505,0.808-2.883,1.377-4.145h22.208   c0.569,1.262,1.041,2.64,1.378,4.145H36.09z M35.521,50.001c0-0.698,0.036-1.369,0.089-2.026h25.924   c0.054,0.658,0.088,1.33,0.088,2.026c0,0.731-0.041,1.431-0.099,2.119H35.62C35.562,51.433,35.521,50.733,35.521,50.001z    M59.683,40.631c0.569,1.262,1.041,2.641,1.377,4.144H36.09c0.336-1.504,0.808-2.883,1.378-4.144H59.683z M37.528,59.466   c-0.581-1.263-1.063-2.641-1.409-4.146h24.911c-0.344,1.505-0.821,2.885-1.398,4.146H37.528z"/>
</g>
<g id="Layer_3" display="none">
	<g display="inline">
		<path fill="#000000" d="M363.499,100.72l-0.142,0.05c0.91-0.307,4.174-1.514,7.491-4.026l-0.648,0.46    C367.265,99.289,364.536,100.357,363.499,100.72z"/>
		<path d="M372,81c0,9.585-10.501,13.018-10.936,13.154c-0.648,0.2-15.877,5.056-15.877,19.846c0,7.544,3.962,12.499,7.929,15.573    c0.608-0.435,1.229-0.854,1.868-1.236c1.861-1.118,3.517-1.836,4.578-2.241c0.254-0.097,0.461-0.171,0.632-0.23    c-3.247-1.749-8.007-5.41-8.007-11.865c0-6.674,5.088-10.362,8.327-12.035c0.806-0.416,1.496-0.708,1.966-0.889l0.877-0.307    l0.142-0.05c1.037-0.362,3.766-1.431,6.701-3.517l0.648-0.46C374.89,93.682,379,88.685,379,81H372z"/>
		<path d="M371.072,131.428c-0.61,0.435-1.23,0.854-1.868,1.236c-1.864,1.118-3.519,1.836-4.578,2.241    c-0.254,0.097-0.461,0.171-0.633,0.23c3.247,1.749,8.007,5.411,8.007,11.865c0,6.671-5.085,10.359-8.324,12.032    c-0.811,0.419-1.504,0.712-1.975,0.894l-0.877,0.306l-0.125,0.044c-0.006,0.002-0.016,0.006-0.022,0.008    c-1.061,0.368-4.169,1.57-7.347,3.979c-4.038,3.062-8.143,8.058-8.143,15.736h7c0-9.585,10.501-13.018,10.936-13.154    c0.648-0.2,15.877-5.055,15.877-19.845C379,139.457,375.038,134.502,371.072,131.428z"/>
	</g>
	
		<line display="inline" fill="none" stroke="#000000" stroke-width="7" stroke-miterlimit="10" x1="373.088" y1="141.917" x2="351.42" y2="141.917"/>
	
		<line display="inline" fill="none" stroke="#000000" stroke-width="7" stroke-miterlimit="10" x1="373.088" y1="151.334" x2="351.42" y2="151.334"/>
	
		<line display="inline" fill="none" stroke="#000000" stroke-width="7" stroke-miterlimit="10" x1="373.088" y1="109.084" x2="351.42" y2="109.084"/>
	
		<line display="inline" fill="none" stroke="#000000" stroke-width="7" stroke-miterlimit="10" x1="373.088" y1="118.501" x2="351.42" y2="118.501"/>
	<g display="inline">
		<path d="M466.188,96c0,9.602,3.962,15.908,7.929,19.82c0.608-0.553,1.229-1.086,1.868-1.573c1.861-1.423,3.517-2.337,4.578-2.853    c0.254-0.123,0.461-0.218,0.632-0.293c-3.247-2.227-8.007-6.886-8.007-15.102"/>
		<path d="M492.072,118.181c-0.61,0.553-1.23,1.088-1.868,1.573c-1.864,1.424-3.519,2.337-4.578,2.853    c-0.254,0.123-0.461,0.218-0.633,0.294c3.247,2.226,8.007,6.887,8.007,15.101c0,8.49-5.085,13.185-8.324,15.314    c-0.811,0.533-1.504,0.905-1.975,1.137l-0.877,0.389l-0.125,0.057c-0.006,0.002-0.016,0.007-0.022,0.01    c-1.061,0.469-4.169,1.998-7.347,5.064c-4.038,3.896-8.143,10.256-8.143,20.028h7c0-12.199,10.501-16.567,10.936-16.742    c0.648-0.255,15.877-6.433,15.877-25.257C500,128.399,496.038,122.094,492.072,118.181z"/>
	</g>
	
		<line display="inline" fill="none" stroke="#000000" stroke-width="5" stroke-miterlimit="10" x1="494.088" y1="131.53" x2="472.42" y2="131.53"/>
	
		<line display="inline" fill="none" stroke="#000000" stroke-width="5" stroke-miterlimit="10" x1="494.088" y1="143.516" x2="472.42" y2="143.516"/>
	
		<line display="inline" fill="none" stroke="#000000" stroke-width="5" stroke-miterlimit="10" x1="494.088" y1="102.365" x2="472.42" y2="102.365"/>
	
		<line display="inline" fill="none" stroke="#000000" stroke-width="5" stroke-miterlimit="10" x1="494.088" y1="173.001" x2="472.42" y2="173.001"/>
</g>
</svg>