<?xml version="1.0" encoding="utf-8"?>
<!-- Generator: Adobe Illustrator 16.0.0, SVG Export Plug-In . SVG Version: 6.00 Build 0)  -->
<!DOCTYPE svg PUBLIC "-//W3C//DTD SVG 1.1//EN" "http://www.w3.org/Graphics/SVG/1.1/DTD/svg11.dtd">
<svg version="1.1" id="Layer_1" xmlns="http://www.w3.org/2000/svg" xmlns:xlink="http://www.w3.org/1999/xlink" x="0px" y="0px"
	 width="67.118px" height="100px" viewBox="0 0 67.118 100" enable-background="new 0 0 67.118 100" xml:space="preserve">
<path fill="#333333" d="M27.089,7.913c0,4.353-3.529,7.881-7.884,7.881c-4.356,0-7.882-3.528-7.882-7.881
	c0-4.355,3.526-7.885,7.882-7.885C23.56,0.028,27.089,3.558,27.089,7.913z"/>
<path fill="#333333" d="M23.596,17.743c0-0.989-0.367-1.419-0.367-1.419l-2.914,0.729c-0.222-0.354-0.598-0.601-1.045-0.601
	c-0.442,0-0.812,0.242-1.036,0.586l-2.856-0.714c0,0-0.367,0.43-0.367,1.419c0,1.012,0.367,1.448,0.367,1.448l2.918-0.719
	c0.23,0.293,0.572,0.493,0.973,0.493c0.408,0,0.752-0.207,0.982-0.507l2.978,0.733C23.229,19.191,23.596,18.755,23.596,17.743z"/>
<path fill="#333333" d="M53.463,22.509L53.463,22.509c0.412-0.958,0.328-2.101-0.34-2.996c-0.998-1.336-2.888-1.61-4.226-0.613
	c-0.296,0.222-0.53,0.492-0.722,0.786l-0.006-0.003l-0.039,0.065c-0.02,0.033-0.039,0.067-0.059,0.102l-4.843,8.392l-6.812-8.568
	c-0.519-0.776-1.393-1.288-2.39-1.32l-0.102-0.05H25.02L20.446,35.71h1.406h0.525v20.187h-12.5V35.709H9.692h8.753l-4.574-17.406
	H3.118c-0.03,0-0.059-0.004-0.087-0.004c-1.635,0-2.962,1.302-3.021,2.924L0,21.235v20.108c0,1.798,1.457,3.255,3.255,3.255h2.033
	l1.53,15.666H8.13l2.533,36.209c-1.644,0.694-2.76,2.014-2.76,3.526h21.672c0-1.679-1.362-3.12-3.316-3.737l2.878-35.998h1.272
	l4.083-27.271l6.166,4.755c1.252,1.406,3.383,1.659,4.918,0.511c0.526-0.394,0.902-0.908,1.149-1.471l0.008,0.004l6.567-13.94
	c0.045-0.077,0.074-0.16,0.113-0.239L53.463,22.509z"/>
<path fill="#FF6666" d="M65.854,13.853h-0.725C64.724,7.238,59.538,1.919,52.98,1.318c0-0.022,0.015-0.042,0.015-0.062
	C52.995,0.561,52.434,0,51.737,0c-0.691,0-1.253,0.561-1.253,1.256c0,0.021,0.011,0.04,0.011,0.062
	c-6.56,0.601-11.74,5.921-12.146,12.534h-0.787c-0.699,0-1.265,0.566-1.265,1.265c0,0.699,0.565,1.266,1.265,1.266h28.292
	c0.697,0,1.266-0.566,1.266-1.266C67.118,14.419,66.551,13.853,65.854,13.853z"/>
</svg>
