<svg xmlns="http://www.w3.org/2000/svg" xmlns:xlink="http://www.w3.org/1999/xlink" version="1.1" id="Layer_1" x="0px" y="0px" width="100px" height="100px" viewBox="0 0 100 100" enable-background="new 0 0 100 100" xml:space="preserve">
<path fill="#000000" d="M77.477,5.364L23.369,5.393c-6.16,0-11.15,4.985-11.15,11.15v57.272v10.346  c0,6.153,4.991,11.146,11.15,11.146l54.108-0.029c6.161,0,11.15-4.992,11.15-11.146V73.815V16.515  C88.627,10.354,83.638,5.364,77.477,5.364z M31.741,83.757c0,1.529-1.239,2.777-2.767,2.777h-6.257  c-1.529,0-2.767-1.248-2.767-2.777v-2.771c0-1.522,1.237-2.764,2.767-2.764h6.257c1.528,0,2.767,1.241,2.767,2.764V83.757z   M31.741,72.228c0,1.522-1.239,2.771-2.767,2.771h-6.257c-1.529,0-2.767-1.241-2.767-2.771v-2.771c0-1.529,1.237-2.771,2.767-2.771  h6.257c1.528,0,2.767,1.241,2.767,2.771V72.228z M31.741,60.691c0,1.522-1.239,2.771-2.767,2.771h-6.257  c-1.529,0-2.767-1.241-2.767-2.771v-2.771c0-1.529,1.237-2.763,2.767-2.763h6.257c1.528,0,2.767,1.233,2.767,2.763V60.691z   M31.741,44.46c0,1.529-1.239,2.774-2.767,2.774h-6.257c-1.529,0-2.767-1.241-2.767-2.774v-2.763c0-1.529,1.237-2.771,2.767-2.771  h6.257c1.528,0,2.767,1.241,2.767,2.771V44.46z M47.787,83.757c0,1.529-1.245,2.777-2.771,2.777h-6.251  c-1.533,0-2.772-1.248-2.772-2.777v-2.771c0-1.522,1.239-2.764,2.772-2.764h6.251c1.526,0,2.771,1.241,2.771,2.764V83.757z   M47.787,72.228c0,1.522-1.245,2.771-2.771,2.771h-6.251c-1.533,0-2.772-1.241-2.772-2.771v-2.771c0-1.529,1.239-2.771,2.772-2.771  h6.251c1.526,0,2.771,1.241,2.771,2.771V72.228z M47.787,60.691c0,1.522-1.245,2.771-2.771,2.771h-6.251  c-1.533,0-2.772-1.241-2.772-2.771v-2.771c0-1.529,1.239-2.763,2.772-2.763h6.251c1.526,0,2.771,1.233,2.771,2.763V60.691z   M47.787,44.46c0,1.529-1.245,2.774-2.771,2.774h-6.251c-1.533,0-2.772-1.241-2.772-2.774v-2.763c0-1.529,1.239-2.771,2.772-2.771  h6.251c1.526,0,2.771,1.241,2.771,2.771V44.46z M63.822,83.757c0,1.529-1.24,2.777-2.77,2.777h-6.248  c-1.529,0-2.771-1.248-2.771-2.777v-2.771c0-1.522,1.241-2.764,2.771-2.764h6.248c1.529,0,2.77,1.241,2.77,2.764V83.757z   M63.822,72.228c0,1.522-1.24,2.771-2.77,2.771h-6.248c-1.529,0-2.771-1.241-2.771-2.771v-2.771c0-1.529,1.241-2.771,2.771-2.771  h6.248c1.529,0,2.77,1.241,2.77,2.771V72.228z M63.822,60.691c0,1.522-1.24,2.771-2.77,2.771h-6.248  c-1.529,0-2.771-1.241-2.771-2.771v-2.771c0-1.529,1.241-2.763,2.771-2.763h6.248c1.529,0,2.77,1.233,2.77,2.763V60.691z   M63.822,44.46c0,1.529-1.24,2.774-2.77,2.774h-6.248c-1.529,0-2.771-1.241-2.771-2.774v-2.763c0-1.529,1.241-2.771,2.771-2.771  h6.248c1.529,0,2.77,1.241,2.77,2.771V44.46z M79.86,83.757c0,1.529-1.24,2.777-2.767,2.777h-6.251  c-1.529,0-2.771-1.248-2.771-2.777v-14.3c0-1.529,1.241-2.771,2.771-2.771h6.251c1.526,0,2.767,1.241,2.767,2.771V83.757z   M79.86,60.691c0,1.522-1.24,2.771-2.767,2.771h-6.251c-1.529,0-2.771-1.241-2.771-2.771v-2.771c0-1.529,1.241-2.763,2.771-2.763  h6.251c1.526,0,2.767,1.233,2.767,2.763V60.691z M79.86,44.46c0,1.529-1.24,2.774-2.767,2.774h-6.251  c-1.529,0-2.771-1.241-2.771-2.774v-2.763c0-1.529,1.241-2.771,2.771-2.771h6.251c1.526,0,2.767,1.241,2.767,2.771V44.46z   M79.86,29.465c0,1.529-1.24,2.771-2.767,2.771H22.717c-1.529,0-2.767-1.241-2.767-2.771V17.24c0-1.53,1.237-2.767,2.767-2.767  h54.376c1.526,0,2.767,1.237,2.767,2.767V29.465z"/>
</svg>