<svg xmlns="http://www.w3.org/2000/svg" xmlns:xlink="http://www.w3.org/1999/xlink" version="1.1" id="Layer_1" x="0px" y="0px" width="100px" height="100px" viewBox="0 0 100 100" enable-background="new 0 0 100 100" xml:space="preserve">
<ellipse cx="197.327" cy="15.819" rx="19.364" ry="19.577"/>
<polyline points="187.566,50.479 197.148,40.792 207.458,50.327 197.986,79.801 187.566,50.479 "/>
<polyline points="186.063,45.872 187.203,48.787 196.223,39.792 "/>
<polyline points="208.591,45.872 207.637,48.677 198.186,39.683 "/>
<path d="M193.361,89.152l-16.805-50.5c0,0-17.102-2.909-19.086,6.916v36.636"/>
<path d="M237.195,82.203V45.567c-1.985-9.825-19.088-6.916-19.088-6.916l-16.803,50.501 M229.542,70.7H218.25l-1-10.563h13.292  L229.542,70.7z"/>
<rect x="219.25" y="61.875" width="9.48" height="1.042"/>
<path d="M177.899-125.765c0.884-2.593,17.318-47.773,39.391-2.641c0,0,2.203,17.909,12.652,16.124l-25.783,4.729l1.256,10.626  h-14.058l1.117-10.078c-5.704-2.423-20.04-6.296-26.046-4.494L177.899-125.765z"/>
<polygon points="191.166,-95.966 181.533,-90.6 214.841,-90.6 205.846,-95.966 "/>
<path d="M-139.569,138.422c0,1.332-1.08,2.411-2.411,2.411h-4.196c-1.331,0-2.411-1.079-2.411-2.411l0,0  c0-1.332,1.08-2.411,2.411-2.411h4.196C-140.649,136.011-139.569,137.09-139.569,138.422L-139.569,138.422z"/>
<path d="M-91.5,125.875c0,0,3.009,9.75,14.004,9.25"/>
<path d="M177.69-88.438c-16.44,6.478-5.729,34.149-5.729,34.149l28.013,0.011l-1.44-23.579L177.69-88.438z"/>
<path d="M219.195-88.445c16.44,6.478,5.729,34.149,5.729,34.149l-26.527,0.01l0.136-23.57L219.195-88.445z"/>
<path d="M-54.454,124.383l-2.687-0.73c0,0,4.284-1.814,4.792-2.396c0.508-0.581,0.726-10.528,0.726-10.528s6.752-10.455,15.174,0  v7.986c0,0,2.687,4.938,4.356,5.083c1.669,0.146-1.815,0.585-1.815,0.585s1.705,0.794,2.268,0.794s-3.134,5.519-6.041,3.776  l-1.6-2.979l-0.726-2.031l-2.033-1.309c0,0-2.323-1.017-2.904-1.017s-1.888,0-1.888,0h-1.943l-1.542,0.728l-0.581,0.58l-0.073,0.436  l1.307,1.889c0,0-1.67,4.021-3.267,4.043c0,0-5.308-0.938-3.558-3.825C-54.737,122.579-54.454,124.383-54.454,124.383z"/>
<circle cx="55.13" cy="146.365" r="16.251"/>
<circle cx="92.68" cy="146.365" r="16.251"/>
<polygon points="129.053,174.05 129.053,203.505 110.77,196.396 110.77,181.837 "/>
<path d="M105.574,165.869H43.283c-3.421,0-6.195,2.773-6.195,6.196v33.424c0,3.423,2.774,6.196,6.195,6.196h62.291  c3.422,0,6.195-2.773,6.195-6.196v-25.268v-8.156C111.77,168.643,108.996,165.869,105.574,165.869z M92.55,201.478H56.308v-25.4  H92.55V201.478z M102.152,178.325c-1.882,0-3.407-1.526-3.407-3.408s1.525-3.407,3.407-3.407s3.407,1.525,3.407,3.407  S104.034,178.325,102.152,178.325z"/>
<ellipse cx="59.917" cy="17.188" rx="14.969" ry="14.818"/>
<ellipse cx="29.978" cy="17.188" rx="14.969" ry="14.818"/>
<polygon points="84.077,28.064 84.077,53.09 64.117,46.702 64.117,35.21 "/>
<rect x="38.234" y="52.09" width="15.193" height="16.229"/>
<rect x="42.728" y="67.319" width="6.419" height="26.965"/>
<path d="M30.316,95.428"/>
<polygon points="27.759,90.576 39.267,62.757 42.728,68.319 31.349,93.144 "/>
<polygon points="64.116,90.576 52.608,62.757 49.147,68.319 60.526,93.144 "/>
<path d="M22.694,30.636V53.09h44.151V36.155v-5.519H22.694z M64.117,50h-3.075V33.178h3.075V50z"/>
</svg>