<svg xmlns="http://www.w3.org/2000/svg" xmlns:xlink="http://www.w3.org/1999/xlink" version="1.1" x="0px" y="0px" width="100px" height="100px" viewBox="0 0 100 100" enable-background="new 0 0 100 100" xml:space="preserve">
<g id="Captions">
</g>
<g id="Your_Icon">
	<circle cx="50" cy="50" r="6"/>
	<path d="M52,17c0,0.267-0.054,0.513-0.146,0.747C51.56,18.48,50.84,19,50,19s-1.56-0.52-1.854-1.253C48.054,17.513,48,17.267,48,17   c0-0.207,0.033-0.4,0.093-0.586C48.34,15.593,49.101,15,50,15s1.66,0.593,1.907,1.414C51.967,16.6,52,16.793,52,17z"/>
	<path d="M52,83c0,0.206-0.033,0.399-0.093,0.587C51.66,84.407,50.899,85,50,85s-1.66-0.593-1.907-1.413   C48.033,83.399,48,83.206,48,83c0-0.267,0.054-0.513,0.146-0.747C48.44,81.521,49.16,81,50,81s1.56,0.521,1.854,1.253   C51.946,82.487,52,82.733,52,83z"/>
	<path d="M70.187,32.565c-0.074,0.126-0.167,0.24-0.273,0.346c-0.22,0.22-0.486,0.38-0.767,0.473   c-0.699,0.24-1.505,0.08-2.058-0.473c-0.554-0.553-0.713-1.359-0.474-2.058c0.094-0.28,0.254-0.546,0.474-0.766   c0.106-0.106,0.22-0.2,0.347-0.273c0.771-0.493,1.805-0.4,2.478,0.273S70.679,31.792,70.187,32.565z"/>
	<path d="M33.385,69.146c-0.094,0.28-0.254,0.547-0.474,0.767c-0.106,0.106-0.22,0.199-0.347,0.273   c-0.771,0.492-1.805,0.399-2.478-0.273s-0.766-1.706-0.273-2.478c0.074-0.127,0.167-0.24,0.273-0.347   c0.22-0.22,0.486-0.38,0.767-0.474c0.699-0.239,1.505-0.079,2.058,0.474C33.465,67.642,33.624,68.447,33.385,69.146z"/>
	<path d="M71,50c0,0.926-0.62,1.7-1.474,1.927C69.36,51.974,69.18,52,69,52c-0.286,0-0.56-0.06-0.807-0.173   C67.487,51.521,67,50.82,67,50c0-0.82,0.487-1.52,1.193-1.827C68.44,48.06,68.714,48,69,48c0.18,0,0.36,0.027,0.526,0.073   C70.38,48.3,71,49.073,71,50z"/>
	<path d="M33,50c0,0.82-0.487,1.521-1.193,1.827C31.56,51.94,31.286,52,31,52c-0.18,0-0.36-0.026-0.526-0.073   C29.62,51.7,29,50.926,29,50c0-0.927,0.62-1.7,1.474-1.927C30.64,48.027,30.82,48,31,48c0.286,0,0.56,0.06,0.807,0.173   C32.513,48.48,33,49.18,33,50z"/>
	<path d="M59.912,59.912c-0.673,0.673-1.719,0.766-2.491,0.267c-0.12-0.073-0.233-0.167-0.333-0.267   c-0.227-0.227-0.394-0.499-0.479-0.786c-0.233-0.692-0.074-1.485,0.479-2.038c0.553-0.554,1.346-0.713,2.038-0.479   c0.287,0.086,0.56,0.253,0.786,0.479c0.1,0.1,0.193,0.213,0.267,0.333C60.678,58.193,60.585,59.239,59.912,59.912z"/>
	<path d="M42.912,42.913c-0.553,0.553-1.346,0.712-2.039,0.479c-0.286-0.087-0.559-0.253-0.785-0.479   c-0.1-0.1-0.193-0.213-0.267-0.333c-0.499-0.772-0.406-1.818,0.267-2.492c0.673-0.672,1.719-0.766,2.491-0.266   c0.12,0.073,0.233,0.167,0.333,0.266c0.227,0.227,0.394,0.5,0.479,0.787C43.625,41.567,43.466,42.359,42.912,42.913z"/>
	<path d="M50,37c-1.75,0-3.42,0.35-4.95,0.98c0.49,0.5,0.87,1.08,1.11,1.71C47.35,39.24,48.65,39,50,39c6.07,0,11,4.93,11,11   c0,1.35-0.24,2.65-0.69,3.84c0.631,0.24,1.21,0.61,1.71,1.101C62.65,53.41,63,51.75,63,50C63,42.83,57.17,37,50,37z M53.84,60.31   C52.65,60.76,51.35,61,50,61c-6.07,0-11-4.93-11-11c0-1.35,0.24-2.65,0.69-3.84c-0.631-0.24-1.21-0.61-1.71-1.1   C37.35,46.59,37,48.25,37,50c0,7.17,5.83,13,13,13c1.75,0,3.41-0.35,4.94-0.98C54.45,61.52,54.08,60.94,53.84,60.31z"/>
	<path d="M50,30c-9.31,0-17.16,6.4-19.38,15.02C30.74,45,30.87,45,31,45c0.57,0,1.12,0.09,1.64,0.28C34.71,37.63,41.71,32,50,32   c8.28,0,15.28,5.63,17.36,13.27C67.87,45.1,68.43,45,69,45c0.13,0,0.26,0,0.38,0.02C67.16,36.4,59.31,30,50,30z M69,55   c-0.57,0-1.13-0.1-1.64-0.27C65.28,62.37,58.28,68,50,68s-15.28-5.63-17.36-13.27C32.13,54.9,31.57,55,31,55   c-0.13,0-0.26,0-0.38-0.02C32.84,63.6,40.69,70,50,70s17.16-6.4,19.38-15.02C69.26,55,69.13,55,69,55z"/>
	<path d="M72.28,34.77c-0.07,0.09-0.15,0.18-0.24,0.27c-0.4,0.4-0.85,0.72-1.34,0.95c2.71,4,4.3,8.82,4.3,14.01   c0,13.79-11.21,25-25,25c-5.19,0-10.01-1.59-14.01-4.3c-0.23,0.479-0.55,0.939-0.95,1.34c-0.09,0.09-0.18,0.17-0.271,0.24   C39.11,75.26,44.36,77,50,77c14.89,0,27-12.11,27-27C77,44.36,75.26,39.11,72.28,34.77z M50,23c-14.89,0-27,12.11-27,27   c0,5.64,1.74,10.89,4.72,15.23c0.07-0.091,0.15-0.181,0.24-0.271c0.4-0.4,0.85-0.72,1.34-0.95C26.59,60.01,25,55.19,25,50   c0-13.79,11.21-25,25-25c5.19,0,10.01,1.59,14.01,4.3c0.23-0.48,0.55-0.94,0.95-1.34c0.09-0.09,0.18-0.17,0.271-0.24   C60.89,24.74,55.64,23,50,23z"/>
	<path d="M54.95,16.36C54.99,16.57,55,16.78,55,17c0,0.47-0.07,0.93-0.19,1.36C70.18,20.69,82,33.98,82,50   c0,16.01-11.82,29.31-27.19,31.64C54.93,82.07,55,82.53,55,83c0,0.22-0.01,0.43-0.05,0.64C71.36,81.24,84,67.07,84,50   C84,32.93,71.36,18.76,54.95,16.36z M18,50c0-16.02,11.82-29.31,27.19-31.64C45.07,17.93,45,17.47,45,17   c0-0.22,0.01-0.43,0.05-0.64C28.64,18.76,16,32.93,16,50c0,17.07,12.64,31.24,29.05,33.64C45.01,83.43,45,83.22,45,83   c0-0.47,0.07-0.93,0.19-1.36C29.82,79.31,18,66.01,18,50z"/>
</g>
</svg>