<?xml version="1.0" encoding="utf-8"?>
<!-- Generator: Adobe Illustrator 16.0.0, SVG Export Plug-In . SVG Version: 6.00 Build 0)  -->
<!DOCTYPE svg PUBLIC "-//W3C//DTD SVG 1.1//EN" "http://www.w3.org/Graphics/SVG/1.1/DTD/svg11.dtd">
<svg version="1.1" id="Layer_1" xmlns="http://www.w3.org/2000/svg" xmlns:xlink="http://www.w3.org/1999/xlink" x="0px" y="0px"
	 width="524.087px" height="514.968px" viewBox="0 0 524.087 514.968" enable-background="new 0 0 524.087 514.968"
	 xml:space="preserve">
<g>
	<path fill="#D19C00" d="M510.088,221.773c19.275-25.725,18.557-66.874-1.604-91.91c-15.325-19.031-37.47-23.256-55.68-12.898
		c-8.888-25.396-25.367-49.347-49.457-69.37c-76.348-63.46-200.131-63.46-276.479,0c-40.621,33.764-59.626,78.689-57.023,122.899
		c-22.839-14.1-49.514-6.577-62.561,19.202c-14.516,28.681-6.663,69.08,17.54,90.235c8.039,7.026,16.869,11.027,25.611,12.212
		c-23.427,69.212,4.375,143.255,79.164,187.358c102.437,60.408,254.206,41.773,338.986-41.623
		c62.995-61.966,71.264-142.246,29.338-204.197C502.323,230.617,506.434,226.65,510.088,221.773z"/>
</g>
<g>
	<path fill="#FFF1D4" d="M423.358,223.919c12.318-40.607,6.404-89.1-17.768-122.115c-30.603-41.799-79.374-43.648-111.588-5.558
		c-33.59-38.091-84.443-36.241-116.352,5.558c-29.191,38.238-32.86,97.245-11.011,140.708
		c-65.095,58.271-58.623,143.917,14.904,192.029c74.05,48.454,188.059,40.482,254.644-17.807
		C502.565,358.628,496.751,272.46,423.358,223.919z"/>
</g>
<g>
	<path d="M467.89,113.671l-18.297-8.077l-23.256,52.68c-35.667-25.823-87.857-24.15-121.254,5.395
		c-6.571,5.813-11.946,12.309-16.151,19.233c-5.116-7.398-11.633-14.163-19.563-19.933c-38.905-28.307-96.522-22.251-128.691,13.526
		c-3.152,3.506-5.931,7.171-8.364,10.95l-70.544-41.461l-10.134,17.242l71.979,42.304c-10.327,31.085,0.014,65.721,29.258,86.998
		c38.905,28.307,96.522,22.251,128.692-13.526c3.785-4.21,7.03-8.649,9.78-13.242c3.531,5.162,7.727,10.063,12.638,14.576
		c35.427,32.554,93.359,33.1,129.395,1.221c33.311-29.469,36.225-76.319,8.495-108.951L467.89,113.671z"/>
</g>
<g>
	<defs>
		<rect id="SVGID_1_" x="204.608" y="152" width="11" height="19"/>
	</defs>
	<clipPath id="SVGID_2_">
		<use xlink:href="#SVGID_1_"  overflow="visible"/>
	</clipPath>
	<g clip-path="url(#SVGID_2_)">
		<image overflow="visible" width="11" height="19" xlink:href="5C4CD6906DB64CD.png"  transform="matrix(1 0 0 1 204.6079 152)">
		</image>
	</g>
</g>
<g>
	<path fill="#77BA41" d="M212.562,164.691c0,0.574-0.36,0.861-1.081,0.861c-0.703,0-1.055-0.281-1.055-0.845
		c0-0.34,0.132-0.58,0.396-0.721c0.117-0.082,0.176-0.135,0.176-0.159c-0.018-0.029-0.059-0.062-0.123-0.097
		c-0.299-0.141-0.448-0.393-0.448-0.756c0-0.357,0.155-0.61,0.466-0.757c0.064-0.029,0.1-0.059,0.105-0.088
		c0-0.041-0.041-0.082-0.123-0.123c-0.299-0.158-0.448-0.41-0.448-0.757c0-0.328,0.126-0.562,0.378-0.703
		c0.117-0.07,0.176-0.12,0.176-0.149c0-0.041-0.042-0.082-0.127-0.124c-0.285-0.129-0.427-0.375-0.427-0.738
		c0-0.376,0.13-0.616,0.39-0.722c0.109-0.059,0.164-0.105,0.164-0.141c0-0.041-0.047-0.085-0.141-0.132
		c-0.275-0.129-0.413-0.372-0.413-0.73c0-0.311,0.105-0.533,0.316-0.668l0.202-0.132c0.029-0.012,0.047-0.035,0.053-0.07
		c0-0.012-0.003-0.021-0.009-0.026s-0.009-0.015-0.009-0.027l-0.22-0.123c-0.223-0.135-0.334-0.363-0.334-0.686
		c0-0.252,0.094-0.464,0.281-0.634c0.088-0.07,0.132-0.123,0.132-0.158c0-0.059-0.021-0.088-0.062-0.088h-1.055
		c-0.674,0-1.011-0.282-1.011-0.848c0-0.239,0.088-0.442,0.264-0.608s0.393-0.249,0.65-0.249h2.074c0.252,0,0.458,0.084,0.62,0.25
		c0.161,0.168,0.242,0.377,0.242,0.629c0,0.34-0.155,0.592-0.466,0.756c-0.059,0.041-0.088,0.073-0.088,0.097
		c0,0.029,0.047,0.07,0.141,0.123c0.275,0.146,0.413,0.393,0.413,0.738c0,0.334-0.114,0.568-0.343,0.703
		c-0.129,0.076-0.193,0.129-0.193,0.158c0,0.023,0.012,0.047,0.035,0.07l0.193,0.132c0.205,0.129,0.308,0.352,0.308,0.668
		c0,0.334-0.108,0.554-0.325,0.659l-0.193,0.132c-0.023,0.023-0.035,0.047-0.035,0.07c0,0.012,0.012,0.029,0.035,0.053l0.255,0.158
		c0.176,0.117,0.264,0.334,0.264,0.65c0,0.322-0.114,0.551-0.343,0.686l-0.176,0.105c-0.012,0.012-0.018,0.029-0.018,0.053
		c0,0.041,0.064,0.103,0.193,0.185c0.229,0.141,0.343,0.375,0.343,0.703c0,0.346-0.149,0.598-0.448,0.756
		c-0.064,0.035-0.1,0.064-0.105,0.088c0,0.041,0.047,0.082,0.141,0.123c0.275,0.17,0.413,0.416,0.413,0.738
		c0,0.299-0.088,0.51-0.264,0.633l-0.272,0.176c-0.012,0.012-0.018,0.026-0.018,0.044c0,0.029,0.047,0.076,0.141,0.141
		C212.424,164.146,212.562,164.387,212.562,164.691z"/>
</g>
<g>
	<defs>
		<rect id="SVGID_3_" x="204.608" y="166" width="11" height="19"/>
	</defs>
	<clipPath id="SVGID_4_">
		<use xlink:href="#SVGID_3_"  overflow="visible"/>
	</clipPath>
	<g clip-path="url(#SVGID_4_)">
		<image overflow="visible" width="11" height="19" xlink:href="5C4CD6906DB64CF.png"  transform="matrix(1 0 0 1 204.6079 166)">
		</image>
	</g>
</g>
<g>
	<path fill="#77BA41" d="M212.562,178.691c0,0.574-0.36,0.861-1.081,0.861c-0.703,0-1.055-0.281-1.055-0.845
		c0-0.34,0.132-0.58,0.396-0.721c0.117-0.082,0.176-0.135,0.176-0.159c-0.018-0.029-0.059-0.062-0.123-0.097
		c-0.299-0.141-0.448-0.393-0.448-0.756c0-0.357,0.155-0.61,0.466-0.757c0.064-0.029,0.1-0.059,0.105-0.088
		c0-0.041-0.041-0.082-0.123-0.123c-0.299-0.158-0.448-0.41-0.448-0.757c0-0.328,0.126-0.562,0.378-0.703
		c0.117-0.07,0.176-0.12,0.176-0.149c0-0.041-0.042-0.082-0.127-0.124c-0.285-0.129-0.427-0.375-0.427-0.738
		c0-0.376,0.13-0.616,0.39-0.722c0.109-0.059,0.164-0.105,0.164-0.141c0-0.041-0.047-0.085-0.141-0.132
		c-0.275-0.129-0.413-0.372-0.413-0.73c0-0.311,0.105-0.533,0.316-0.668l0.202-0.132c0.029-0.012,0.047-0.035,0.053-0.07
		c0-0.012-0.003-0.021-0.009-0.026s-0.009-0.015-0.009-0.027l-0.22-0.123c-0.223-0.135-0.334-0.363-0.334-0.686
		c0-0.252,0.094-0.464,0.281-0.634c0.088-0.07,0.132-0.123,0.132-0.158c0-0.059-0.021-0.088-0.062-0.088h-1.055
		c-0.674,0-1.011-0.282-1.011-0.848c0-0.239,0.088-0.442,0.264-0.608s0.393-0.249,0.65-0.249h2.074c0.252,0,0.458,0.084,0.62,0.25
		c0.161,0.168,0.242,0.377,0.242,0.629c0,0.34-0.155,0.592-0.466,0.756c-0.059,0.041-0.088,0.073-0.088,0.097
		c0,0.029,0.047,0.07,0.141,0.123c0.275,0.146,0.413,0.393,0.413,0.738c0,0.334-0.114,0.568-0.343,0.703
		c-0.129,0.076-0.193,0.129-0.193,0.158c0,0.023,0.012,0.047,0.035,0.07l0.193,0.132c0.205,0.129,0.308,0.352,0.308,0.668
		c0,0.334-0.108,0.554-0.325,0.659l-0.193,0.132c-0.023,0.023-0.035,0.047-0.035,0.07c0,0.012,0.012,0.029,0.035,0.053l0.255,0.158
		c0.176,0.117,0.264,0.334,0.264,0.65c0,0.322-0.114,0.551-0.343,0.686l-0.176,0.105c-0.012,0.012-0.018,0.029-0.018,0.053
		c0,0.041,0.064,0.103,0.193,0.185c0.229,0.141,0.343,0.375,0.343,0.703c0,0.346-0.149,0.598-0.448,0.756
		c-0.064,0.035-0.1,0.064-0.105,0.088c0,0.041,0.047,0.082,0.141,0.123c0.275,0.17,0.413,0.416,0.413,0.738
		c0,0.299-0.088,0.51-0.264,0.633l-0.272,0.176c-0.012,0.012-0.018,0.026-0.018,0.044c0,0.029,0.047,0.076,0.141,0.141
		C212.424,178.146,212.562,178.387,212.562,178.691z"/>
</g>
<g>
	<defs>
		<rect id="SVGID_5_" x="204.608" y="179" width="11" height="19"/>
	</defs>
	<clipPath id="SVGID_6_">
		<use xlink:href="#SVGID_5_"  overflow="visible"/>
	</clipPath>
	<g clip-path="url(#SVGID_6_)">
		<image overflow="visible" width="11" height="19" xlink:href="5C4CD6906DB64CA.png"  transform="matrix(1 0 0 1 204.6079 179)">
		</image>
	</g>
</g>
<g>
	<path fill="#77BA41" d="M212.562,191.691c0,0.574-0.36,0.861-1.081,0.861c-0.703,0-1.055-0.281-1.055-0.844
		c0-0.34,0.132-0.581,0.396-0.722c0.117-0.082,0.176-0.135,0.176-0.158c-0.018-0.029-0.059-0.062-0.123-0.097
		c-0.299-0.141-0.448-0.393-0.448-0.756c0-0.358,0.155-0.61,0.466-0.757c0.064-0.029,0.1-0.059,0.105-0.088
		c0-0.041-0.041-0.082-0.123-0.123c-0.299-0.158-0.448-0.411-0.448-0.757c0-0.328,0.126-0.562,0.378-0.704
		c0.117-0.07,0.176-0.12,0.176-0.149c0-0.041-0.042-0.082-0.127-0.123c-0.285-0.129-0.427-0.375-0.427-0.739
		c0-0.375,0.13-0.616,0.39-0.722c0.109-0.059,0.164-0.105,0.164-0.141c0-0.041-0.047-0.085-0.141-0.132
		c-0.275-0.129-0.413-0.373-0.413-0.73c0-0.311,0.105-0.533,0.316-0.668l0.202-0.132c0.029-0.012,0.047-0.035,0.053-0.07
		c0-0.012-0.003-0.021-0.009-0.026s-0.009-0.015-0.009-0.026l-0.22-0.123c-0.223-0.135-0.334-0.364-0.334-0.687
		c0-0.252,0.094-0.463,0.281-0.633c0.088-0.07,0.132-0.124,0.132-0.159c0-0.059-0.021-0.088-0.062-0.088h-1.055
		c-0.674,0-1.011-0.283-1.011-0.848c0-0.239,0.088-0.441,0.264-0.608c0.176-0.166,0.393-0.249,0.65-0.249h2.074
		c0.252,0,0.458,0.083,0.62,0.25s0.242,0.376,0.242,0.628c0,0.34-0.155,0.592-0.466,0.756c-0.059,0.041-0.088,0.073-0.088,0.097
		c0,0.029,0.047,0.07,0.141,0.123c0.275,0.146,0.413,0.393,0.413,0.738c0,0.334-0.114,0.568-0.343,0.703
		c-0.129,0.076-0.193,0.129-0.193,0.158c0,0.023,0.012,0.047,0.035,0.07l0.193,0.132c0.205,0.129,0.308,0.352,0.308,0.668
		c0,0.334-0.108,0.554-0.325,0.659l-0.193,0.132c-0.023,0.023-0.035,0.047-0.035,0.07c0,0.012,0.012,0.029,0.035,0.053l0.255,0.158
		c0.176,0.117,0.264,0.334,0.264,0.65c0,0.322-0.114,0.551-0.343,0.686l-0.176,0.105c-0.012,0.012-0.018,0.029-0.018,0.053
		c0,0.041,0.064,0.103,0.193,0.185c0.229,0.141,0.343,0.375,0.343,0.703c0,0.346-0.149,0.598-0.448,0.756
		c-0.064,0.035-0.1,0.064-0.105,0.088c0,0.041,0.047,0.082,0.141,0.123c0.275,0.17,0.413,0.416,0.413,0.738
		c0,0.299-0.088,0.51-0.264,0.633l-0.272,0.176c-0.012,0.012-0.018,0.026-0.018,0.044c0,0.029,0.047,0.076,0.141,0.141
		C212.424,191.146,212.562,191.387,212.562,191.691z"/>
</g>
<g>
	<defs>
		<rect id="SVGID_7_" x="202.608" y="193" width="16" height="18"/>
	</defs>
	<clipPath id="SVGID_8_">
		<use xlink:href="#SVGID_7_"  overflow="visible"/>
	</clipPath>
	<g clip-path="url(#SVGID_8_)">
		<image overflow="visible" width="16" height="18" xlink:href="5C4CD6906DB64CB.png"  transform="matrix(1 0 0 1 202.6079 193)">
		</image>
	</g>
</g>
<g>
	<path fill="#77BA41" d="M210.413,202.202c0,0.229-0.085,0.432-0.255,0.611s-0.366,0.268-0.589,0.268h-1.248
		c-0.035,0.006-0.053,0.023-0.053,0.053c0,0.023,0.042,0.076,0.128,0.158c0.202,0.135,0.302,0.34,0.302,0.615
		c0,0.574-0.352,0.861-1.055,0.861c-0.732,0-1.099-0.281-1.099-0.844c0-0.334,0.12-0.568,0.36-0.703
		c0.129-0.07,0.193-0.123,0.193-0.158c-0.006-0.035-0.018-0.053-0.036-0.053l-0.227-0.149c-0.194-0.129-0.291-0.349-0.291-0.659
		c0-0.352,0.16-0.604,0.481-0.756c0.042-0.018,0.067-0.044,0.073-0.079c0-0.041-0.037-0.082-0.109-0.123
		c-0.297-0.158-0.445-0.41-0.445-0.756c0-0.334,0.154-0.58,0.462-0.738c0.073-0.035,0.109-0.07,0.109-0.105s-0.03-0.073-0.091-0.114
		c-0.32-0.188-0.48-0.439-0.48-0.756s0.13-0.557,0.39-0.721c0.133-0.059,0.199-0.105,0.199-0.141
		c-0.006-0.035-0.018-0.053-0.035-0.053l-0.237-0.141c-0.188-0.123-0.281-0.34-0.281-0.65c0-0.574,0.36-0.861,1.081-0.861
		c0.691,0,1.037,0.299,1.037,0.896c0,0.334-0.144,0.574-0.431,0.721c-0.07,0.035-0.105,0.07-0.105,0.105
		c0,0.041,0.029,0.076,0.088,0.105c0.299,0.152,0.448,0.404,0.448,0.756c0,0.328-0.138,0.568-0.413,0.721
		c-0.082,0.047-0.123,0.091-0.123,0.132c0,0.029,0.053,0.076,0.158,0.141c0.252,0.146,0.378,0.387,0.378,0.721
		c0,0.217-0.064,0.39-0.193,0.519l-0.202,0.202c0,0.012-0.001,0.021-0.004,0.026s-0.007,0.015-0.013,0.026
		c0,0.059,0.023,0.088,0.07,0.088h1.23c0.223,0,0.416,0.081,0.58,0.242S210.413,201.968,210.413,202.202z M213.814,205.639
		c0,0.574-0.308,0.861-0.923,0.861h-3.797c-0.223,0-0.419-0.085-0.589-0.255s-0.255-0.366-0.255-0.589
		c0-0.398,0.17-0.656,0.51-0.773c0.105-0.035,0.29-0.053,0.554-0.053h3.656c0.234,0,0.434,0.078,0.598,0.233
		S213.814,205.41,213.814,205.639z M213.867,195.351c0,0.565-0.325,0.848-0.976,0.848h-3.7c-0.246,0-0.456-0.082-0.628-0.245
		c-0.173-0.164-0.259-0.365-0.259-0.604c0-0.571,0.331-0.857,0.993-0.857h3.656c0.258,0,0.475,0.083,0.65,0.249
		C213.779,194.91,213.867,195.112,213.867,195.351z M212.118,200.51c0,0.4-0.179,0.668-0.536,0.804
		c-0.117,0.042-0.305,0.062-0.562,0.062c-0.68,0-1.02-0.271-1.02-0.812c0-0.601,0.349-0.901,1.046-0.901
		C211.761,199.662,212.118,199.945,212.118,200.51z M215.555,198.836c0,0.311-0.107,0.53-0.32,0.659l-0.182,0.114
		c-0.023,0.012-0.035,0.035-0.035,0.07c0,0.041,0.051,0.088,0.152,0.141c0.256,0.146,0.384,0.387,0.384,0.721
		c0,0.328-0.146,0.577-0.438,0.747c-0.072,0.047-0.11,0.079-0.116,0.097c0,0.053,0.057,0.108,0.17,0.167
		c0.256,0.129,0.384,0.363,0.384,0.703c0,0.311-0.11,0.53-0.331,0.659c-0.149,0.094-0.223,0.155-0.223,0.185
		c0,0.035,0.012,0.064,0.036,0.088l0.206,0.132c0.208,0.129,0.312,0.337,0.312,0.624c0,0.357-0.153,0.609-0.459,0.756
		c-0.141,0.07-0.368,0.105-0.68,0.105c-0.676,0-1.015-0.287-1.015-0.861c0-0.334,0.132-0.574,0.396-0.721
		c0.105-0.041,0.158-0.076,0.158-0.105c0-0.035-0.092-0.114-0.277-0.237s-0.277-0.331-0.277-0.624c0-0.352,0.118-0.586,0.354-0.703
		c0.139-0.07,0.212-0.12,0.218-0.149c0-0.018-0.091-0.088-0.272-0.211c-0.2-0.17-0.299-0.393-0.299-0.668
		c0-0.299,0.107-0.516,0.321-0.65c0.073-0.047,0.11-0.088,0.11-0.123c0-0.059-0.018-0.088-0.053-0.088h-1.239
		c-0.223,0-0.417-0.082-0.584-0.245c-0.167-0.164-0.25-0.356-0.25-0.577c0-0.344,0.144-0.595,0.431-0.752
		c0.152-0.087,0.398-0.131,0.738-0.131h0.721c-0.006,0,0.038,0,0.132,0c0.082,0,0.123-0.023,0.123-0.07
		c-0.006-0.012-0.012-0.023-0.018-0.035l-0.22-0.219c-0.117-0.116-0.176-0.294-0.176-0.533c0-0.571,0.347-0.857,1.042-0.857
		c0.718,0,1.077,0.293,1.077,0.879c0,0.322-0.15,0.568-0.45,0.738c-0.046,0.029-0.075,0.064-0.086,0.105
		c0,0.029,0.083,0.103,0.251,0.22C215.459,198.291,215.555,198.508,215.555,198.836z"/>
</g>
<g>
	<defs>
		<rect id="SVGID_9_" x="204.608" y="207" width="11" height="19"/>
	</defs>
	<clipPath id="SVGID_10_">
		<use xlink:href="#SVGID_9_"  overflow="visible"/>
	</clipPath>
	<g clip-path="url(#SVGID_10_)">
		<image overflow="visible" width="11" height="19" xlink:href="5C4CD6906DB64D5.png"  transform="matrix(1 0 0 1 204.6079 207)">
		</image>
	</g>
</g>
<g>
	<path fill="#77BA41" d="M212.562,219.691c0,0.574-0.36,0.861-1.081,0.861c-0.703,0-1.055-0.281-1.055-0.844
		c0-0.34,0.132-0.581,0.396-0.722c0.117-0.082,0.176-0.135,0.176-0.158c-0.018-0.029-0.059-0.062-0.123-0.097
		c-0.299-0.141-0.448-0.393-0.448-0.756c0-0.358,0.155-0.61,0.466-0.757c0.064-0.029,0.1-0.059,0.105-0.088
		c0-0.041-0.041-0.082-0.123-0.123c-0.299-0.158-0.448-0.411-0.448-0.757c0-0.328,0.126-0.562,0.378-0.704
		c0.117-0.07,0.176-0.12,0.176-0.149c0-0.041-0.042-0.082-0.127-0.123c-0.285-0.129-0.427-0.375-0.427-0.739
		c0-0.375,0.13-0.616,0.39-0.722c0.109-0.059,0.164-0.105,0.164-0.141c0-0.041-0.047-0.085-0.141-0.132
		c-0.275-0.129-0.413-0.373-0.413-0.73c0-0.311,0.105-0.533,0.316-0.668l0.202-0.132c0.029-0.012,0.047-0.035,0.053-0.07
		c0-0.012-0.003-0.021-0.009-0.026s-0.009-0.015-0.009-0.026l-0.22-0.123c-0.223-0.135-0.334-0.364-0.334-0.687
		c0-0.252,0.094-0.463,0.281-0.633c0.088-0.07,0.132-0.124,0.132-0.159c0-0.059-0.021-0.088-0.062-0.088h-1.055
		c-0.674,0-1.011-0.283-1.011-0.848c0-0.239,0.088-0.441,0.264-0.608c0.176-0.166,0.393-0.249,0.65-0.249h2.074
		c0.252,0,0.458,0.083,0.62,0.25s0.242,0.376,0.242,0.628c0,0.34-0.155,0.592-0.466,0.756c-0.059,0.041-0.088,0.073-0.088,0.097
		c0,0.029,0.047,0.07,0.141,0.123c0.275,0.146,0.413,0.393,0.413,0.738c0,0.334-0.114,0.568-0.343,0.703
		c-0.129,0.076-0.193,0.129-0.193,0.158c0,0.023,0.012,0.047,0.035,0.07l0.193,0.132c0.205,0.129,0.308,0.352,0.308,0.668
		c0,0.334-0.108,0.554-0.325,0.659l-0.193,0.132c-0.023,0.023-0.035,0.047-0.035,0.07c0,0.012,0.012,0.029,0.035,0.053l0.255,0.158
		c0.176,0.117,0.264,0.334,0.264,0.65c0,0.322-0.114,0.551-0.343,0.686l-0.176,0.105c-0.012,0.012-0.018,0.029-0.018,0.053
		c0,0.041,0.064,0.103,0.193,0.185c0.229,0.141,0.343,0.375,0.343,0.703c0,0.346-0.149,0.598-0.448,0.756
		c-0.064,0.035-0.1,0.064-0.105,0.088c0,0.041,0.047,0.082,0.141,0.123c0.275,0.17,0.413,0.416,0.413,0.738
		c0,0.299-0.088,0.51-0.264,0.633l-0.272,0.176c-0.012,0.012-0.018,0.026-0.018,0.044c0,0.029,0.047,0.076,0.141,0.141
		C212.424,219.146,212.562,219.387,212.562,219.691z"/>
</g>
<g>
	<defs>
		<rect id="SVGID_11_" x="202.608" y="221" width="16" height="18"/>
	</defs>
	<clipPath id="SVGID_12_">
		<use xlink:href="#SVGID_11_"  overflow="visible"/>
	</clipPath>
	<g clip-path="url(#SVGID_12_)">
		<image overflow="visible" width="16" height="18" xlink:href="5C4CD6906DB64D7.png"  transform="matrix(1 0 0 1 202.6079 221)">
		</image>
	</g>
</g>
<g>
	<path fill="#77BA41" d="M210.413,230.202c0,0.229-0.085,0.432-0.255,0.611s-0.366,0.268-0.589,0.268h-1.248
		c-0.035,0.006-0.053,0.023-0.053,0.053c0,0.023,0.042,0.076,0.128,0.158c0.202,0.135,0.302,0.34,0.302,0.615
		c0,0.574-0.352,0.861-1.055,0.861c-0.732,0-1.099-0.281-1.099-0.844c0-0.334,0.12-0.568,0.36-0.703
		c0.129-0.07,0.193-0.123,0.193-0.158c-0.006-0.035-0.018-0.053-0.036-0.053l-0.227-0.149c-0.194-0.129-0.291-0.349-0.291-0.659
		c0-0.352,0.16-0.604,0.481-0.756c0.042-0.018,0.067-0.044,0.073-0.079c0-0.041-0.037-0.082-0.109-0.123
		c-0.297-0.158-0.445-0.41-0.445-0.756c0-0.334,0.154-0.58,0.462-0.738c0.073-0.035,0.109-0.07,0.109-0.105s-0.03-0.073-0.091-0.114
		c-0.32-0.188-0.48-0.439-0.48-0.756s0.13-0.557,0.39-0.721c0.133-0.059,0.199-0.105,0.199-0.141
		c-0.006-0.035-0.018-0.053-0.035-0.053l-0.237-0.141c-0.188-0.123-0.281-0.34-0.281-0.65c0-0.574,0.36-0.861,1.081-0.861
		c0.691,0,1.037,0.299,1.037,0.896c0,0.334-0.144,0.574-0.431,0.721c-0.07,0.035-0.105,0.07-0.105,0.105
		c0,0.041,0.029,0.076,0.088,0.105c0.299,0.152,0.448,0.404,0.448,0.756c0,0.328-0.138,0.568-0.413,0.721
		c-0.082,0.047-0.123,0.091-0.123,0.132c0,0.029,0.053,0.076,0.158,0.141c0.252,0.146,0.378,0.387,0.378,0.721
		c0,0.217-0.064,0.39-0.193,0.519l-0.202,0.202c0,0.012-0.001,0.021-0.004,0.026s-0.007,0.015-0.013,0.026
		c0,0.059,0.023,0.088,0.07,0.088h1.23c0.223,0,0.416,0.081,0.58,0.242S210.413,229.968,210.413,230.202z M213.814,233.639
		c0,0.574-0.308,0.861-0.923,0.861h-3.797c-0.223,0-0.419-0.085-0.589-0.255s-0.255-0.366-0.255-0.589
		c0-0.398,0.17-0.656,0.51-0.773c0.105-0.035,0.29-0.053,0.554-0.053h3.656c0.234,0,0.434,0.078,0.598,0.233
		S213.814,233.41,213.814,233.639z M213.867,223.351c0,0.565-0.325,0.848-0.976,0.848h-3.7c-0.246,0-0.456-0.082-0.628-0.245
		c-0.173-0.164-0.259-0.365-0.259-0.604c0-0.571,0.331-0.857,0.993-0.857h3.656c0.258,0,0.475,0.083,0.65,0.249
		C213.779,222.91,213.867,223.112,213.867,223.351z M212.118,228.51c0,0.4-0.179,0.668-0.536,0.804
		c-0.117,0.042-0.305,0.062-0.562,0.062c-0.68,0-1.02-0.271-1.02-0.812c0-0.601,0.349-0.901,1.046-0.901
		C211.761,227.662,212.118,227.945,212.118,228.51z M215.555,226.836c0,0.311-0.107,0.53-0.32,0.659l-0.182,0.114
		c-0.023,0.012-0.035,0.035-0.035,0.07c0,0.041,0.051,0.088,0.152,0.141c0.256,0.146,0.384,0.387,0.384,0.721
		c0,0.328-0.146,0.577-0.438,0.747c-0.072,0.047-0.11,0.079-0.116,0.097c0,0.053,0.057,0.108,0.17,0.167
		c0.256,0.129,0.384,0.363,0.384,0.703c0,0.311-0.11,0.53-0.331,0.659c-0.149,0.094-0.223,0.155-0.223,0.185
		c0,0.035,0.012,0.064,0.036,0.088l0.206,0.132c0.208,0.129,0.312,0.337,0.312,0.624c0,0.357-0.153,0.609-0.459,0.756
		c-0.141,0.07-0.368,0.105-0.68,0.105c-0.676,0-1.015-0.287-1.015-0.861c0-0.334,0.132-0.574,0.396-0.721
		c0.105-0.041,0.158-0.076,0.158-0.105c0-0.035-0.092-0.114-0.277-0.237s-0.277-0.331-0.277-0.624c0-0.352,0.118-0.586,0.354-0.703
		c0.139-0.07,0.212-0.12,0.218-0.149c0-0.018-0.091-0.088-0.272-0.211c-0.2-0.17-0.299-0.393-0.299-0.668
		c0-0.299,0.107-0.516,0.321-0.65c0.073-0.047,0.11-0.088,0.11-0.123c0-0.059-0.018-0.088-0.053-0.088h-1.239
		c-0.223,0-0.417-0.082-0.584-0.245c-0.167-0.164-0.25-0.356-0.25-0.577c0-0.344,0.144-0.595,0.431-0.752
		c0.152-0.087,0.398-0.131,0.738-0.131h0.721c-0.006,0,0.038,0,0.132,0c0.082,0,0.123-0.023,0.123-0.07
		c-0.006-0.012-0.012-0.023-0.018-0.035l-0.22-0.219c-0.117-0.116-0.176-0.294-0.176-0.533c0-0.571,0.347-0.857,1.042-0.857
		c0.718,0,1.077,0.293,1.077,0.879c0,0.322-0.15,0.568-0.45,0.738c-0.046,0.029-0.075,0.064-0.086,0.105
		c0,0.029,0.083,0.103,0.251,0.22C215.459,226.291,215.555,226.508,215.555,226.836z"/>
</g>
<g>
	<defs>
		<rect id="SVGID_13_" x="206.608" y="245" width="9" height="8"/>
	</defs>
	<clipPath id="SVGID_14_">
		<use xlink:href="#SVGID_13_"  overflow="visible"/>
	</clipPath>
	<g clip-path="url(#SVGID_14_)">
		<image overflow="visible" width="9" height="8" xlink:href="5C4CD6906DB64DA.png"  transform="matrix(1 0 0 1 206.6079 245)">
		</image>
	</g>
</g>
<g>
	<path fill="#77BA41" d="M212.123,247.656c0,0.562-0.343,0.844-1.028,0.844c-0.316,0-0.539-0.035-0.668-0.105
		c-0.287-0.164-0.431-0.416-0.431-0.756c0-0.568,0.349-0.853,1.046-0.853C211.762,246.786,212.123,247.076,212.123,247.656z"/>
</g>
<g>
	<defs>
		<rect id="SVGID_15_" x="206.608" y="258" width="9" height="8"/>
	</defs>
	<clipPath id="SVGID_16_">
		<use xlink:href="#SVGID_15_"  overflow="visible"/>
	</clipPath>
	<g clip-path="url(#SVGID_16_)">
		<image overflow="visible" width="9" height="8" xlink:href="5C4CD6906DB64DB.png"  transform="matrix(1 0 0 1 206.6079 258)">
		</image>
	</g>
</g>
<g>
	<path fill="#77BA41" d="M212.123,260.656c0,0.562-0.343,0.844-1.028,0.844c-0.316,0-0.539-0.035-0.668-0.105
		c-0.287-0.164-0.431-0.416-0.431-0.756c0-0.568,0.349-0.853,1.046-0.853C211.762,259.786,212.123,260.076,212.123,260.656z"/>
</g>
<g>
	<defs>
		<rect id="SVGID_17_" x="206.608" y="272" width="9" height="8"/>
	</defs>
	<clipPath id="SVGID_18_">
		<use xlink:href="#SVGID_17_"  overflow="visible"/>
	</clipPath>
	<g clip-path="url(#SVGID_18_)">
		<image overflow="visible" width="9" height="8" xlink:href="5C4CD6906DB64DD.png"  transform="matrix(1 0 0 1 206.6079 272)">
		</image>
	</g>
</g>
<g>
	<path fill="#77BA41" d="M212.123,274.656c0,0.562-0.343,0.844-1.028,0.844c-0.316,0-0.539-0.035-0.668-0.105
		c-0.287-0.164-0.431-0.416-0.431-0.756c0-0.568,0.349-0.853,1.046-0.853C211.762,273.786,212.123,274.076,212.123,274.656z"/>
</g>
<g>
	<defs>
		<rect id="SVGID_19_" x="204.608" y="276" width="11" height="19"/>
	</defs>
	<clipPath id="SVGID_20_">
		<use xlink:href="#SVGID_19_"  overflow="visible"/>
	</clipPath>
	<g clip-path="url(#SVGID_20_)">
		<image overflow="visible" width="11" height="19" xlink:href="D571B02DFDB591A6.png"  transform="matrix(1 0 0 1 204.6079 276)">
		</image>
	</g>
</g>
<g>
	<path fill="#77BA41" d="M212.562,288.691c0,0.574-0.36,0.861-1.081,0.861c-0.703,0-1.055-0.281-1.055-0.844
		c0-0.341,0.132-0.581,0.396-0.723c0.117-0.082,0.176-0.135,0.176-0.158c-0.018-0.029-0.059-0.061-0.123-0.096
		c-0.299-0.141-0.448-0.394-0.448-0.757c0-0.358,0.155-0.61,0.466-0.757c0.064-0.029,0.1-0.059,0.105-0.088
		c0-0.041-0.041-0.082-0.123-0.123c-0.299-0.158-0.448-0.41-0.448-0.757c0-0.328,0.126-0.562,0.378-0.704
		c0.117-0.07,0.176-0.119,0.176-0.148c0-0.041-0.042-0.082-0.127-0.123c-0.285-0.129-0.427-0.376-0.427-0.739
		c0-0.376,0.13-0.616,0.39-0.722c0.109-0.059,0.164-0.105,0.164-0.141c0-0.041-0.047-0.085-0.141-0.132
		c-0.275-0.129-0.413-0.372-0.413-0.73c0-0.311,0.105-0.533,0.316-0.669l0.202-0.131c0.029-0.012,0.047-0.035,0.053-0.07
		c0-0.012-0.003-0.021-0.009-0.027s-0.009-0.014-0.009-0.025l-0.22-0.123c-0.223-0.135-0.334-0.364-0.334-0.688
		c0-0.252,0.094-0.463,0.281-0.633c0.088-0.07,0.132-0.123,0.132-0.158c0-0.059-0.021-0.088-0.062-0.088h-1.055
		c-0.674,0-1.011-0.283-1.011-0.848c0-0.239,0.088-0.441,0.264-0.608c0.176-0.166,0.393-0.249,0.65-0.249h2.074
		c0.252,0,0.458,0.084,0.62,0.25c0.161,0.168,0.242,0.377,0.242,0.629c0,0.34-0.155,0.592-0.466,0.756
		c-0.059,0.041-0.088,0.073-0.088,0.097c0,0.029,0.047,0.07,0.141,0.123c0.275,0.146,0.413,0.393,0.413,0.738
		c0,0.334-0.114,0.568-0.343,0.703c-0.129,0.076-0.193,0.129-0.193,0.158c0,0.023,0.012,0.047,0.035,0.07l0.193,0.132
		c0.205,0.129,0.308,0.352,0.308,0.668c0,0.334-0.108,0.554-0.325,0.659l-0.193,0.132c-0.023,0.023-0.035,0.047-0.035,0.07
		c0,0.012,0.012,0.029,0.035,0.053l0.255,0.158c0.176,0.117,0.264,0.334,0.264,0.65c0,0.322-0.114,0.551-0.343,0.686l-0.176,0.105
		c-0.012,0.012-0.018,0.029-0.018,0.053c0,0.041,0.064,0.103,0.193,0.185c0.229,0.141,0.343,0.375,0.343,0.703
		c0,0.346-0.149,0.598-0.448,0.756c-0.064,0.035-0.1,0.064-0.105,0.088c0,0.041,0.047,0.082,0.141,0.123
		c0.275,0.17,0.413,0.416,0.413,0.738c0,0.299-0.088,0.51-0.264,0.633l-0.272,0.176c-0.012,0.012-0.018,0.026-0.018,0.044
		c0,0.029,0.047,0.076,0.141,0.141C212.424,288.146,212.562,288.387,212.562,288.691z"/>
</g>
<g>
	<defs>
		<rect id="SVGID_21_" x="202.608" y="290" width="16" height="18"/>
	</defs>
	<clipPath id="SVGID_22_">
		<use xlink:href="#SVGID_21_"  overflow="visible"/>
	</clipPath>
	<g clip-path="url(#SVGID_22_)">
		<image overflow="visible" width="16" height="18" xlink:href="D571B02DFDB591A1.png"  transform="matrix(1 0 0 1 202.6079 290)">
		</image>
	</g>
</g>
<g>
	<path fill="#77BA41" d="M210.413,299.202c0,0.229-0.085,0.433-0.255,0.61c-0.17,0.18-0.366,0.269-0.589,0.269h-1.248
		c-0.035,0.006-0.053,0.023-0.053,0.053c0,0.023,0.042,0.076,0.128,0.158c0.202,0.135,0.302,0.34,0.302,0.615
		c0,0.574-0.352,0.861-1.055,0.861c-0.732,0-1.099-0.281-1.099-0.844c0-0.334,0.12-0.568,0.36-0.703
		c0.129-0.07,0.193-0.123,0.193-0.158c-0.006-0.035-0.018-0.053-0.036-0.053l-0.227-0.149c-0.194-0.129-0.291-0.349-0.291-0.659
		c0-0.352,0.16-0.604,0.481-0.756c0.042-0.018,0.067-0.044,0.073-0.079c0-0.041-0.037-0.082-0.109-0.123
		c-0.297-0.158-0.445-0.41-0.445-0.756c0-0.334,0.154-0.58,0.462-0.738c0.073-0.035,0.109-0.07,0.109-0.105s-0.03-0.073-0.091-0.114
		c-0.32-0.188-0.48-0.439-0.48-0.756s0.13-0.557,0.39-0.721c0.133-0.059,0.199-0.105,0.199-0.141
		c-0.006-0.035-0.018-0.053-0.035-0.053l-0.237-0.141c-0.188-0.123-0.281-0.34-0.281-0.65c0-0.574,0.36-0.861,1.081-0.861
		c0.691,0,1.037,0.299,1.037,0.896c0,0.334-0.144,0.574-0.431,0.721c-0.07,0.035-0.105,0.07-0.105,0.105
		c0,0.041,0.029,0.076,0.088,0.105c0.299,0.152,0.448,0.404,0.448,0.756c0,0.328-0.138,0.568-0.413,0.721
		c-0.082,0.047-0.123,0.091-0.123,0.132c0,0.029,0.053,0.076,0.158,0.141c0.252,0.146,0.378,0.387,0.378,0.721
		c0,0.217-0.064,0.39-0.193,0.519l-0.202,0.202c0,0.012-0.001,0.021-0.004,0.026s-0.007,0.015-0.013,0.026
		c0,0.059,0.023,0.088,0.07,0.088h1.23c0.223,0,0.416,0.08,0.58,0.242C210.331,298.77,210.413,298.968,210.413,299.202z
		 M213.814,302.639c0,0.574-0.308,0.861-0.923,0.861h-3.797c-0.223,0-0.419-0.085-0.589-0.255s-0.255-0.366-0.255-0.589
		c0-0.398,0.17-0.656,0.51-0.773c0.105-0.035,0.29-0.053,0.554-0.053h3.656c0.234,0,0.434,0.078,0.598,0.232
		C213.732,302.219,213.814,302.41,213.814,302.639z M213.867,292.352c0,0.564-0.325,0.848-0.976,0.848h-3.7
		c-0.246,0-0.456-0.082-0.628-0.244c-0.173-0.164-0.259-0.365-0.259-0.604c0-0.572,0.331-0.857,0.993-0.857h3.656
		c0.258,0,0.475,0.083,0.65,0.249C213.779,291.91,213.867,292.112,213.867,292.352z M212.118,297.51c0,0.4-0.179,0.669-0.536,0.805
		c-0.117,0.041-0.305,0.062-0.562,0.062c-0.68,0-1.02-0.271-1.02-0.812c0-0.601,0.349-0.901,1.046-0.901
		C211.761,296.662,212.118,296.945,212.118,297.51z M215.555,295.836c0,0.311-0.107,0.53-0.32,0.659l-0.182,0.114
		c-0.023,0.012-0.035,0.035-0.035,0.07c0,0.041,0.051,0.088,0.152,0.141c0.256,0.146,0.384,0.387,0.384,0.721
		c0,0.328-0.146,0.577-0.438,0.747c-0.072,0.047-0.11,0.079-0.116,0.097c0,0.053,0.057,0.108,0.17,0.167
		c0.256,0.129,0.384,0.363,0.384,0.703c0,0.311-0.11,0.53-0.331,0.659c-0.149,0.094-0.223,0.155-0.223,0.185
		c0,0.035,0.012,0.064,0.036,0.088l0.206,0.132c0.208,0.129,0.312,0.337,0.312,0.624c0,0.357-0.153,0.609-0.459,0.756
		c-0.141,0.07-0.368,0.105-0.68,0.105c-0.676,0-1.015-0.287-1.015-0.861c0-0.334,0.132-0.574,0.396-0.721
		c0.105-0.041,0.158-0.076,0.158-0.105c0-0.035-0.092-0.114-0.277-0.237s-0.277-0.331-0.277-0.624c0-0.352,0.118-0.586,0.354-0.703
		c0.139-0.07,0.212-0.12,0.218-0.149c0-0.018-0.091-0.088-0.272-0.211c-0.2-0.17-0.299-0.393-0.299-0.668
		c0-0.299,0.107-0.516,0.321-0.65c0.073-0.047,0.11-0.088,0.11-0.123c0-0.059-0.018-0.088-0.053-0.088h-1.239
		c-0.223,0-0.417-0.082-0.584-0.244c-0.167-0.164-0.25-0.356-0.25-0.578c0-0.344,0.144-0.594,0.431-0.752
		c0.152-0.087,0.398-0.131,0.738-0.131h0.721c-0.006,0,0.038,0,0.132,0c0.082,0,0.123-0.023,0.123-0.07
		c-0.006-0.012-0.012-0.023-0.018-0.035l-0.22-0.219c-0.117-0.115-0.176-0.293-0.176-0.533c0-0.57,0.347-0.856,1.042-0.856
		c0.718,0,1.077,0.293,1.077,0.879c0,0.322-0.15,0.568-0.45,0.738c-0.046,0.029-0.075,0.064-0.086,0.105
		c0,0.029,0.083,0.103,0.251,0.22C215.459,295.291,215.555,295.508,215.555,295.836z"/>
</g>
<g>
	<defs>
		<rect id="SVGID_23_" x="192.608" y="152" width="16" height="18"/>
	</defs>
	<clipPath id="SVGID_24_">
		<use xlink:href="#SVGID_23_"  overflow="visible"/>
	</clipPath>
	<g clip-path="url(#SVGID_24_)">
		<image overflow="visible" width="16" height="18" xlink:href="D571B02DFDB591A2.png"  transform="matrix(1 0 0 1 192.6079 152)">
		</image>
	</g>
</g>
<g>
	<path fill="#77BA41" d="M199.942,161.702c0,0.229-0.085,0.433-0.255,0.61c-0.17,0.18-0.366,0.269-0.589,0.269h-1.248
		c-0.035,0.006-0.053,0.023-0.053,0.053c0,0.023,0.042,0.076,0.128,0.158c0.202,0.135,0.302,0.34,0.302,0.615
		c0,0.574-0.352,0.861-1.055,0.861c-0.732,0-1.099-0.281-1.099-0.844c0-0.334,0.12-0.568,0.36-0.703
		c0.129-0.07,0.193-0.123,0.193-0.158c-0.006-0.035-0.018-0.053-0.036-0.053l-0.227-0.149c-0.194-0.129-0.291-0.349-0.291-0.659
		c0-0.352,0.16-0.604,0.481-0.756c0.042-0.018,0.067-0.044,0.073-0.079c0-0.041-0.037-0.082-0.109-0.123
		c-0.297-0.158-0.445-0.41-0.445-0.756c0-0.334,0.154-0.58,0.462-0.738c0.073-0.035,0.109-0.07,0.109-0.105s-0.03-0.073-0.091-0.114
		c-0.32-0.188-0.48-0.439-0.48-0.756s0.13-0.557,0.39-0.721c0.133-0.059,0.199-0.105,0.199-0.141
		c-0.006-0.035-0.018-0.053-0.035-0.053l-0.237-0.141c-0.188-0.123-0.281-0.34-0.281-0.65c0-0.574,0.36-0.861,1.081-0.861
		c0.691,0,1.037,0.299,1.037,0.896c0,0.334-0.144,0.574-0.431,0.721c-0.07,0.035-0.105,0.07-0.105,0.105
		c0,0.041,0.029,0.076,0.088,0.105c0.299,0.152,0.448,0.404,0.448,0.756c0,0.328-0.138,0.568-0.413,0.721
		c-0.082,0.047-0.123,0.091-0.123,0.132c0,0.029,0.053,0.076,0.158,0.141c0.252,0.146,0.378,0.387,0.378,0.721
		c0,0.217-0.064,0.39-0.193,0.519l-0.202,0.202c0,0.012-0.001,0.021-0.004,0.026s-0.007,0.015-0.013,0.026
		c0,0.059,0.023,0.088,0.07,0.088h1.23c0.223,0,0.416,0.081,0.58,0.242S199.942,161.468,199.942,161.702z M203.343,165.139
		c0,0.574-0.308,0.861-0.923,0.861h-3.797c-0.223,0-0.419-0.085-0.589-0.255s-0.255-0.366-0.255-0.589
		c0-0.398,0.17-0.656,0.51-0.773c0.105-0.035,0.29-0.053,0.554-0.053h3.656c0.234,0,0.434,0.078,0.598,0.232
		C203.261,164.719,203.343,164.91,203.343,165.139z M203.396,154.852c0,0.565-0.325,0.848-0.976,0.848h-3.7
		c-0.246,0-0.456-0.082-0.628-0.245s-0.259-0.364-0.259-0.603c0-0.572,0.331-0.857,0.993-0.857h3.656
		c0.258,0,0.475,0.083,0.65,0.249S203.396,154.612,203.396,154.852z M201.647,160.01c0,0.401-0.179,0.669-0.536,0.805
		c-0.117,0.041-0.305,0.062-0.562,0.062c-0.68,0-1.02-0.271-1.02-0.812c0-0.601,0.349-0.901,1.046-0.901
		C201.29,159.162,201.647,159.445,201.647,160.01z M205.083,158.336c0,0.311-0.107,0.53-0.32,0.659l-0.182,0.114
		c-0.023,0.012-0.035,0.035-0.035,0.07c0,0.041,0.051,0.088,0.152,0.141c0.256,0.146,0.384,0.387,0.384,0.721
		c0,0.328-0.146,0.577-0.438,0.747c-0.072,0.047-0.11,0.079-0.116,0.097c0,0.053,0.057,0.108,0.17,0.167
		c0.256,0.129,0.384,0.363,0.384,0.703c0,0.311-0.11,0.53-0.331,0.659c-0.149,0.094-0.223,0.155-0.223,0.185
		c0,0.035,0.012,0.064,0.036,0.088l0.206,0.132c0.208,0.129,0.312,0.337,0.312,0.624c0,0.357-0.153,0.609-0.459,0.756
		c-0.141,0.07-0.368,0.105-0.68,0.105c-0.676,0-1.015-0.287-1.015-0.861c0-0.334,0.132-0.574,0.396-0.721
		c0.105-0.041,0.158-0.076,0.158-0.105c0-0.035-0.092-0.114-0.277-0.237s-0.277-0.331-0.277-0.624c0-0.352,0.118-0.586,0.354-0.703
		c0.139-0.07,0.212-0.12,0.218-0.149c0-0.018-0.091-0.088-0.272-0.211c-0.2-0.17-0.299-0.393-0.299-0.668
		c0-0.299,0.107-0.516,0.321-0.65c0.073-0.047,0.11-0.088,0.11-0.123c0-0.059-0.018-0.088-0.053-0.088h-1.239
		c-0.223,0-0.417-0.082-0.584-0.245s-0.25-0.355-0.25-0.577c0-0.344,0.144-0.595,0.431-0.752c0.152-0.087,0.398-0.131,0.738-0.131
		h0.721c-0.006,0,0.038,0,0.132,0c0.082,0,0.123-0.023,0.123-0.07c-0.006-0.012-0.012-0.022-0.018-0.034l-0.22-0.219
		c-0.117-0.117-0.176-0.295-0.176-0.534c0-0.57,0.347-0.856,1.042-0.856c0.718,0,1.077,0.293,1.077,0.879
		c0,0.322-0.15,0.568-0.45,0.738c-0.046,0.029-0.075,0.064-0.086,0.105c0,0.029,0.083,0.103,0.251,0.22
		C204.988,157.791,205.083,158.008,205.083,158.336z"/>
</g>
<g>
	<defs>
		<rect id="SVGID_25_" x="195.608" y="176" width="9" height="8"/>
	</defs>
	<clipPath id="SVGID_26_">
		<use xlink:href="#SVGID_25_"  overflow="visible"/>
	</clipPath>
	<g clip-path="url(#SVGID_26_)">
		<image overflow="visible" width="9" height="8" xlink:href="D571B02DFDB591A0.png"  transform="matrix(1 0 0 1 195.6079 176)">
		</image>
	</g>
</g>
<g>
	<path fill="#77BA41" d="M201.651,179.156c0,0.562-0.343,0.844-1.028,0.844c-0.316,0-0.539-0.035-0.668-0.105
		c-0.287-0.164-0.431-0.416-0.431-0.756c0-0.568,0.349-0.853,1.046-0.853C201.291,178.286,201.651,178.576,201.651,179.156z"/>
</g>
<g>
	<defs>
		<rect id="SVGID_27_" x="195.608" y="189" width="9" height="8"/>
	</defs>
	<clipPath id="SVGID_28_">
		<use xlink:href="#SVGID_27_"  overflow="visible"/>
	</clipPath>
	<g clip-path="url(#SVGID_28_)">
		<image overflow="visible" width="9" height="8" xlink:href="D571B02DFDB591BE.png"  transform="matrix(1 0 0 1 195.6079 189)">
		</image>
	</g>
</g>
<g>
	<path fill="#77BA41" d="M201.651,192.156c0,0.562-0.343,0.844-1.028,0.844c-0.316,0-0.539-0.035-0.668-0.105
		c-0.287-0.164-0.431-0.416-0.431-0.756c0-0.568,0.349-0.853,1.046-0.853C201.291,191.286,201.651,191.576,201.651,192.156z"/>
</g>
<g>
	<defs>
		<rect id="SVGID_29_" x="195.608" y="203" width="9" height="8"/>
	</defs>
	<clipPath id="SVGID_30_">
		<use xlink:href="#SVGID_29_"  overflow="visible"/>
	</clipPath>
	<g clip-path="url(#SVGID_30_)">
		<image overflow="visible" width="9" height="8" xlink:href="D571B02DFDB591A3.png"  transform="matrix(1 0 0 1 195.6079 203)">
		</image>
	</g>
</g>
<g>
	<path fill="#77BA41" d="M201.651,206.156c0,0.562-0.343,0.844-1.028,0.844c-0.316,0-0.539-0.035-0.668-0.105
		c-0.287-0.164-0.431-0.416-0.431-0.756c0-0.568,0.349-0.853,1.046-0.853C201.291,205.286,201.651,205.576,201.651,206.156z"/>
</g>
<g>
	<defs>
		<rect id="SVGID_31_" x="195.608" y="217" width="9" height="8"/>
	</defs>
	<clipPath id="SVGID_32_">
		<use xlink:href="#SVGID_31_"  overflow="visible"/>
	</clipPath>
	<g clip-path="url(#SVGID_32_)">
		<image overflow="visible" width="9" height="8" xlink:href="D571B02DFDB591A7.png"  transform="matrix(1 0 0 1 195.6079 217)">
		</image>
	</g>
</g>
<g>
	<path fill="#77BA41" d="M201.651,220.156c0,0.562-0.343,0.844-1.028,0.844c-0.316,0-0.539-0.035-0.668-0.105
		c-0.287-0.164-0.431-0.416-0.431-0.756c0-0.568,0.349-0.853,1.046-0.853C201.291,219.286,201.651,219.576,201.651,220.156z"/>
</g>
<g>
	<defs>
		<rect id="SVGID_33_" x="195.608" y="231" width="9" height="8"/>
	</defs>
	<clipPath id="SVGID_34_">
		<use xlink:href="#SVGID_33_"  overflow="visible"/>
	</clipPath>
	<g clip-path="url(#SVGID_34_)">
		<image overflow="visible" width="9" height="8" xlink:href="D571B02DFDB591A5.png"  transform="matrix(1 0 0 1 195.6079 231)">
		</image>
	</g>
</g>
<g>
	<path fill="#77BA41" d="M201.651,234.156c0,0.562-0.343,0.844-1.028,0.844c-0.316,0-0.539-0.035-0.668-0.105
		c-0.287-0.164-0.431-0.416-0.431-0.756c0-0.568,0.349-0.853,1.046-0.853C201.291,233.286,201.651,233.576,201.651,234.156z"/>
</g>
<g>
	<defs>
		<rect id="SVGID_35_" x="195.608" y="245" width="9" height="8"/>
	</defs>
	<clipPath id="SVGID_36_">
		<use xlink:href="#SVGID_35_"  overflow="visible"/>
	</clipPath>
	<g clip-path="url(#SVGID_36_)">
		<image overflow="visible" width="9" height="8" xlink:href="D571B02DFDB591AC.png"  transform="matrix(1 0 0 1 195.6079 245)">
		</image>
	</g>
</g>
<g>
	<path fill="#77BA41" d="M201.651,248.156c0,0.562-0.343,0.844-1.028,0.844c-0.316,0-0.539-0.035-0.668-0.105
		c-0.287-0.164-0.431-0.416-0.431-0.756c0-0.568,0.349-0.853,1.046-0.853C201.291,247.286,201.651,247.576,201.651,248.156z"/>
</g>
<g>
	<defs>
		<rect id="SVGID_37_" x="195.608" y="258" width="9" height="8"/>
	</defs>
	<clipPath id="SVGID_38_">
		<use xlink:href="#SVGID_37_"  overflow="visible"/>
	</clipPath>
	<g clip-path="url(#SVGID_38_)">
		<image overflow="visible" width="9" height="8" xlink:href="D571B02DFDB591AD.png"  transform="matrix(1 0 0 1 195.6079 258)">
		</image>
	</g>
</g>
<g>
	<path fill="#77BA41" d="M201.651,261.156c0,0.562-0.343,0.844-1.028,0.844c-0.316,0-0.539-0.035-0.668-0.105
		c-0.287-0.164-0.431-0.416-0.431-0.756c0-0.568,0.349-0.853,1.046-0.853C201.291,260.286,201.651,260.576,201.651,261.156z"/>
</g>
<g>
	<defs>
		<rect id="SVGID_39_" x="192.608" y="262" width="16" height="18"/>
	</defs>
	<clipPath id="SVGID_40_">
		<use xlink:href="#SVGID_39_"  overflow="visible"/>
	</clipPath>
	<g clip-path="url(#SVGID_40_)">
		<image overflow="visible" width="16" height="18" xlink:href="D571B02DFDB591C5.png"  transform="matrix(1 0 0 1 192.6079 262)">
		</image>
	</g>
</g>
<g>
	<path fill="#77BA41" d="M199.942,271.702c0,0.229-0.085,0.433-0.255,0.61c-0.17,0.18-0.366,0.269-0.589,0.269h-1.248
		c-0.035,0.006-0.053,0.023-0.053,0.053c0,0.023,0.042,0.076,0.128,0.158c0.202,0.135,0.302,0.34,0.302,0.615
		c0,0.574-0.352,0.861-1.055,0.861c-0.732,0-1.099-0.281-1.099-0.844c0-0.334,0.12-0.568,0.36-0.703
		c0.129-0.07,0.193-0.123,0.193-0.158c-0.006-0.035-0.018-0.053-0.036-0.053l-0.227-0.149c-0.194-0.129-0.291-0.349-0.291-0.659
		c0-0.352,0.16-0.604,0.481-0.756c0.042-0.018,0.067-0.044,0.073-0.079c0-0.041-0.037-0.082-0.109-0.123
		c-0.297-0.158-0.445-0.41-0.445-0.756c0-0.334,0.154-0.58,0.462-0.738c0.073-0.035,0.109-0.07,0.109-0.105s-0.03-0.073-0.091-0.114
		c-0.32-0.188-0.48-0.439-0.48-0.756s0.13-0.557,0.39-0.721c0.133-0.059,0.199-0.105,0.199-0.141
		c-0.006-0.035-0.018-0.053-0.035-0.053l-0.237-0.141c-0.188-0.123-0.281-0.34-0.281-0.65c0-0.574,0.36-0.861,1.081-0.861
		c0.691,0,1.037,0.299,1.037,0.896c0,0.334-0.144,0.574-0.431,0.721c-0.07,0.035-0.105,0.07-0.105,0.105
		c0,0.041,0.029,0.076,0.088,0.105c0.299,0.152,0.448,0.404,0.448,0.756c0,0.328-0.138,0.568-0.413,0.721
		c-0.082,0.047-0.123,0.091-0.123,0.132c0,0.029,0.053,0.076,0.158,0.141c0.252,0.146,0.378,0.387,0.378,0.721
		c0,0.217-0.064,0.39-0.193,0.519l-0.202,0.202c0,0.012-0.001,0.021-0.004,0.026s-0.007,0.015-0.013,0.026
		c0,0.059,0.023,0.088,0.07,0.088h1.23c0.223,0,0.416,0.08,0.58,0.242C199.86,271.27,199.942,271.468,199.942,271.702z
		 M203.343,275.139c0,0.574-0.308,0.861-0.923,0.861h-3.797c-0.223,0-0.419-0.085-0.589-0.255s-0.255-0.366-0.255-0.589
		c0-0.398,0.17-0.656,0.51-0.773c0.105-0.035,0.29-0.053,0.554-0.053h3.656c0.234,0,0.434,0.078,0.598,0.232
		C203.261,274.719,203.343,274.91,203.343,275.139z M203.396,264.851c0,0.565-0.325,0.848-0.976,0.848h-3.7
		c-0.246,0-0.456-0.082-0.628-0.245c-0.173-0.164-0.259-0.365-0.259-0.604c0-0.571,0.331-0.857,0.993-0.857h3.656
		c0.258,0,0.475,0.083,0.65,0.249C203.308,264.41,203.396,264.612,203.396,264.851z M201.647,270.01c0,0.4-0.179,0.669-0.536,0.805
		c-0.117,0.041-0.305,0.062-0.562,0.062c-0.68,0-1.02-0.271-1.02-0.812c0-0.601,0.349-0.901,1.046-0.901
		C201.29,269.162,201.647,269.445,201.647,270.01z M205.083,268.336c0,0.311-0.107,0.53-0.32,0.659l-0.182,0.114
		c-0.023,0.012-0.035,0.035-0.035,0.07c0,0.041,0.051,0.088,0.152,0.141c0.256,0.146,0.384,0.387,0.384,0.721
		c0,0.328-0.146,0.577-0.438,0.747c-0.072,0.047-0.11,0.079-0.116,0.097c0,0.053,0.057,0.108,0.17,0.167
		c0.256,0.129,0.384,0.363,0.384,0.703c0,0.311-0.11,0.53-0.331,0.659c-0.149,0.094-0.223,0.155-0.223,0.185
		c0,0.035,0.012,0.064,0.036,0.088l0.206,0.132c0.208,0.129,0.312,0.337,0.312,0.624c0,0.357-0.153,0.609-0.459,0.756
		c-0.141,0.07-0.368,0.105-0.68,0.105c-0.676,0-1.015-0.287-1.015-0.861c0-0.334,0.132-0.574,0.396-0.721
		c0.105-0.041,0.158-0.076,0.158-0.105c0-0.035-0.092-0.114-0.277-0.237s-0.277-0.331-0.277-0.624c0-0.352,0.118-0.586,0.354-0.703
		c0.139-0.07,0.212-0.12,0.218-0.149c0-0.018-0.091-0.088-0.272-0.211c-0.2-0.17-0.299-0.393-0.299-0.668
		c0-0.299,0.107-0.516,0.321-0.65c0.073-0.047,0.11-0.088,0.11-0.123c0-0.059-0.018-0.088-0.053-0.088h-1.239
		c-0.223,0-0.417-0.082-0.584-0.244c-0.167-0.164-0.25-0.356-0.25-0.578c0-0.344,0.144-0.594,0.431-0.752
		c0.152-0.087,0.398-0.131,0.738-0.131h0.721c-0.006,0,0.038,0,0.132,0c0.082,0,0.123-0.023,0.123-0.07
		c-0.006-0.012-0.012-0.023-0.018-0.035l-0.22-0.219c-0.117-0.115-0.176-0.293-0.176-0.533c0-0.57,0.347-0.856,1.042-0.856
		c0.718,0,1.077,0.293,1.077,0.879c0,0.322-0.15,0.568-0.45,0.738c-0.046,0.029-0.075,0.064-0.086,0.105
		c0,0.029,0.083,0.103,0.251,0.22C204.988,267.791,205.083,268.008,205.083,268.336z"/>
</g>
<g>
	<defs>
		<rect id="SVGID_41_" x="194.608" y="276" width="11" height="19"/>
	</defs>
	<clipPath id="SVGID_42_">
		<use xlink:href="#SVGID_41_"  overflow="visible"/>
	</clipPath>
	<g clip-path="url(#SVGID_42_)">
		<image overflow="visible" width="11" height="19" xlink:href="D571B02DFDB591C7.png"  transform="matrix(1 0 0 1 194.6079 276)">
		</image>
	</g>
</g>
<g>
	<path fill="#77BA41" d="M202.091,289.191c0,0.574-0.36,0.861-1.081,0.861c-0.703,0-1.055-0.281-1.055-0.844
		c0-0.341,0.132-0.581,0.396-0.723c0.117-0.082,0.176-0.135,0.176-0.158c-0.018-0.029-0.059-0.061-0.123-0.096
		c-0.299-0.141-0.448-0.394-0.448-0.757c0-0.358,0.155-0.61,0.466-0.757c0.064-0.029,0.1-0.059,0.105-0.088
		c0-0.041-0.041-0.082-0.123-0.123c-0.299-0.158-0.448-0.41-0.448-0.757c0-0.328,0.126-0.562,0.378-0.704
		c0.117-0.07,0.176-0.119,0.176-0.148c0-0.041-0.042-0.082-0.127-0.123c-0.285-0.129-0.427-0.376-0.427-0.739
		c0-0.376,0.13-0.616,0.39-0.722c0.109-0.059,0.164-0.105,0.164-0.141c0-0.041-0.047-0.085-0.141-0.132
		c-0.275-0.129-0.413-0.372-0.413-0.73c0-0.311,0.105-0.533,0.316-0.669l0.202-0.131c0.029-0.012,0.047-0.035,0.053-0.07
		c0-0.012-0.003-0.021-0.009-0.027s-0.009-0.014-0.009-0.025l-0.22-0.123c-0.223-0.135-0.334-0.364-0.334-0.688
		c0-0.252,0.094-0.463,0.281-0.633c0.088-0.07,0.132-0.123,0.132-0.158c0-0.059-0.021-0.088-0.062-0.088h-1.055
		c-0.674,0-1.011-0.283-1.011-0.848c0-0.239,0.088-0.441,0.264-0.608c0.176-0.166,0.393-0.249,0.65-0.249h2.074
		c0.252,0,0.458,0.084,0.62,0.25c0.161,0.168,0.242,0.377,0.242,0.629c0,0.34-0.155,0.592-0.466,0.756
		c-0.059,0.041-0.088,0.073-0.088,0.097c0,0.029,0.047,0.07,0.141,0.123c0.275,0.146,0.413,0.393,0.413,0.738
		c0,0.334-0.114,0.568-0.343,0.703c-0.129,0.076-0.193,0.129-0.193,0.158c0,0.023,0.012,0.047,0.035,0.07l0.193,0.132
		c0.205,0.129,0.308,0.352,0.308,0.668c0,0.334-0.108,0.554-0.325,0.659l-0.193,0.132c-0.023,0.023-0.035,0.047-0.035,0.07
		c0,0.012,0.012,0.029,0.035,0.053l0.255,0.158c0.176,0.117,0.264,0.334,0.264,0.65c0,0.322-0.114,0.551-0.343,0.686l-0.176,0.105
		c-0.012,0.012-0.018,0.029-0.018,0.053c0,0.041,0.064,0.103,0.193,0.185c0.229,0.141,0.343,0.375,0.343,0.703
		c0,0.346-0.149,0.598-0.448,0.756c-0.064,0.035-0.1,0.064-0.105,0.088c0,0.041,0.047,0.082,0.141,0.123
		c0.275,0.17,0.413,0.416,0.413,0.738c0,0.299-0.088,0.51-0.264,0.633l-0.272,0.176c-0.012,0.012-0.018,0.026-0.018,0.044
		c0,0.029,0.047,0.076,0.141,0.141C201.953,288.646,202.091,288.887,202.091,289.191z"/>
</g>
<g>
	<defs>
		<rect id="SVGID_43_" x="194.608" y="290" width="11" height="19"/>
	</defs>
	<clipPath id="SVGID_44_">
		<use xlink:href="#SVGID_43_"  overflow="visible"/>
	</clipPath>
	<g clip-path="url(#SVGID_44_)">
		<image overflow="visible" width="11" height="19" xlink:href="D571B02DFDB591C4.png"  transform="matrix(1 0 0 1 194.6079 290)">
		</image>
	</g>
</g>
<g>
	<path fill="#77BA41" d="M202.091,303.191c0,0.574-0.36,0.861-1.081,0.861c-0.703,0-1.055-0.281-1.055-0.844
		c0-0.341,0.132-0.581,0.396-0.723c0.117-0.082,0.176-0.135,0.176-0.158c-0.018-0.029-0.059-0.061-0.123-0.096
		c-0.299-0.141-0.448-0.394-0.448-0.757c0-0.358,0.155-0.61,0.466-0.757c0.064-0.029,0.1-0.059,0.105-0.088
		c0-0.041-0.041-0.082-0.123-0.123c-0.299-0.158-0.448-0.41-0.448-0.757c0-0.328,0.126-0.562,0.378-0.704
		c0.117-0.07,0.176-0.119,0.176-0.148c0-0.041-0.042-0.082-0.127-0.123c-0.285-0.129-0.427-0.376-0.427-0.739
		c0-0.376,0.13-0.616,0.39-0.722c0.109-0.059,0.164-0.105,0.164-0.141c0-0.041-0.047-0.085-0.141-0.132
		c-0.275-0.129-0.413-0.372-0.413-0.73c0-0.311,0.105-0.533,0.316-0.669l0.202-0.131c0.029-0.012,0.047-0.035,0.053-0.07
		c0-0.012-0.003-0.021-0.009-0.027s-0.009-0.014-0.009-0.025l-0.22-0.123c-0.223-0.135-0.334-0.364-0.334-0.688
		c0-0.252,0.094-0.463,0.281-0.633c0.088-0.07,0.132-0.123,0.132-0.158c0-0.059-0.021-0.088-0.062-0.088h-1.055
		c-0.674,0-1.011-0.283-1.011-0.848c0-0.239,0.088-0.441,0.264-0.608c0.176-0.166,0.393-0.249,0.65-0.249h2.074
		c0.252,0,0.458,0.084,0.62,0.25c0.161,0.168,0.242,0.377,0.242,0.629c0,0.34-0.155,0.592-0.466,0.756
		c-0.059,0.041-0.088,0.073-0.088,0.097c0,0.029,0.047,0.07,0.141,0.123c0.275,0.146,0.413,0.393,0.413,0.738
		c0,0.334-0.114,0.568-0.343,0.703c-0.129,0.076-0.193,0.129-0.193,0.158c0,0.023,0.012,0.047,0.035,0.07l0.193,0.132
		c0.205,0.129,0.308,0.352,0.308,0.668c0,0.334-0.108,0.554-0.325,0.659l-0.193,0.132c-0.023,0.023-0.035,0.047-0.035,0.07
		c0,0.012,0.012,0.029,0.035,0.053l0.255,0.158c0.176,0.117,0.264,0.334,0.264,0.65c0,0.322-0.114,0.551-0.343,0.686l-0.176,0.105
		c-0.012,0.012-0.018,0.029-0.018,0.053c0,0.041,0.064,0.103,0.193,0.185c0.229,0.141,0.343,0.375,0.343,0.703
		c0,0.346-0.149,0.598-0.448,0.756c-0.064,0.035-0.1,0.064-0.105,0.088c0,0.041,0.047,0.082,0.141,0.123
		c0.275,0.17,0.413,0.416,0.413,0.738c0,0.299-0.088,0.51-0.264,0.633l-0.272,0.176c-0.012,0.012-0.018,0.026-0.018,0.044
		c0,0.029,0.047,0.076,0.141,0.141C201.953,302.646,202.091,302.887,202.091,303.191z"/>
</g>
<g>
	<defs>
		<rect id="SVGID_45_" x="185.608" y="156" width="9" height="8"/>
	</defs>
	<clipPath id="SVGID_46_">
		<use xlink:href="#SVGID_45_"  overflow="visible"/>
	</clipPath>
	<g clip-path="url(#SVGID_46_)">
		<image overflow="visible" width="9" height="8" xlink:href="D571B02DFDB591C3.png"  transform="matrix(1 0 0 1 185.6079 156)">
		</image>
	</g>
</g>
<g>
	<path fill="#77BA41" d="M191.68,158.656c0,0.562-0.343,0.844-1.028,0.844c-0.316,0-0.539-0.035-0.668-0.105
		c-0.287-0.164-0.431-0.416-0.431-0.756c0-0.568,0.349-0.853,1.046-0.853C191.32,157.786,191.68,158.076,191.68,158.656z"/>
</g>
<g>
	<defs>
		<rect id="SVGID_47_" x="185.608" y="170" width="9" height="8"/>
	</defs>
	<clipPath id="SVGID_48_">
		<use xlink:href="#SVGID_47_"  overflow="visible"/>
	</clipPath>
	<g clip-path="url(#SVGID_48_)">
		<image overflow="visible" width="9" height="8" xlink:href="D571B02DFDB591CD.png"  transform="matrix(1 0 0 1 185.6079 170)">
		</image>
	</g>
</g>
<g>
	<path fill="#77BA41" d="M191.68,172.656c0,0.562-0.343,0.844-1.028,0.844c-0.316,0-0.539-0.035-0.668-0.105
		c-0.287-0.164-0.431-0.416-0.431-0.756c0-0.568,0.349-0.853,1.046-0.853C191.32,171.786,191.68,172.076,191.68,172.656z"/>
</g>
<g>
	<defs>
		<rect id="SVGID_49_" x="185.608" y="183" width="9" height="8"/>
	</defs>
	<clipPath id="SVGID_50_">
		<use xlink:href="#SVGID_49_"  overflow="visible"/>
	</clipPath>
	<g clip-path="url(#SVGID_50_)">
		<image overflow="visible" width="9" height="8" xlink:href="D571B02DFDB591CF.png"  transform="matrix(1 0 0 1 185.6079 183)">
		</image>
	</g>
</g>
<g>
	<path fill="#77BA41" d="M191.68,185.656c0,0.562-0.343,0.844-1.028,0.844c-0.316,0-0.539-0.035-0.668-0.105
		c-0.287-0.164-0.431-0.416-0.431-0.756c0-0.568,0.349-0.853,1.046-0.853C191.32,184.786,191.68,185.076,191.68,185.656z"/>
</g>
<g>
	<defs>
		<rect id="SVGID_51_" x="185.608" y="197" width="9" height="8"/>
	</defs>
	<clipPath id="SVGID_52_">
		<use xlink:href="#SVGID_51_"  overflow="visible"/>
	</clipPath>
	<g clip-path="url(#SVGID_52_)">
		<image overflow="visible" width="9" height="8" xlink:href="D571B02DFDB591CC.png"  transform="matrix(1 0 0 1 185.6079 197)">
		</image>
	</g>
</g>
<g>
	<path fill="#77BA41" d="M191.68,199.656c0,0.562-0.343,0.844-1.028,0.844c-0.316,0-0.539-0.035-0.668-0.105
		c-0.287-0.164-0.431-0.416-0.431-0.756c0-0.568,0.349-0.853,1.046-0.853C191.32,198.786,191.68,199.076,191.68,199.656z"/>
</g>
<g>
	<defs>
		<rect id="SVGID_53_" x="184.608" y="215" width="11" height="19"/>
	</defs>
	<clipPath id="SVGID_54_">
		<use xlink:href="#SVGID_53_"  overflow="visible"/>
	</clipPath>
	<g clip-path="url(#SVGID_54_)">
		<image overflow="visible" width="11" height="19" xlink:href="D571B02DFDB591C6.png"  transform="matrix(1 0 0 1 184.6079 215)">
		</image>
	</g>
</g>
<g>
	<path fill="#77BA41" d="M192.12,227.691c0,0.574-0.36,0.861-1.081,0.861c-0.703,0-1.055-0.281-1.055-0.844
		c0-0.34,0.132-0.581,0.396-0.722c0.117-0.082,0.176-0.135,0.176-0.158c-0.018-0.029-0.059-0.062-0.123-0.097
		c-0.299-0.141-0.448-0.393-0.448-0.756c0-0.358,0.155-0.61,0.466-0.757c0.064-0.029,0.1-0.059,0.105-0.088
		c0-0.041-0.041-0.082-0.123-0.123c-0.299-0.158-0.448-0.411-0.448-0.757c0-0.328,0.126-0.562,0.378-0.704
		c0.117-0.07,0.176-0.12,0.176-0.149c0-0.041-0.042-0.082-0.127-0.123c-0.285-0.129-0.427-0.375-0.427-0.739
		c0-0.375,0.13-0.616,0.39-0.722c0.109-0.059,0.164-0.105,0.164-0.141c0-0.041-0.047-0.085-0.141-0.132
		c-0.275-0.129-0.413-0.373-0.413-0.73c0-0.311,0.105-0.533,0.316-0.668l0.202-0.132c0.029-0.012,0.047-0.035,0.053-0.07
		c0-0.012-0.003-0.021-0.009-0.026s-0.009-0.015-0.009-0.026l-0.22-0.123c-0.223-0.135-0.334-0.364-0.334-0.687
		c0-0.252,0.094-0.463,0.281-0.633c0.088-0.07,0.132-0.124,0.132-0.159c0-0.059-0.021-0.088-0.062-0.088h-1.055
		c-0.674,0-1.011-0.283-1.011-0.848c0-0.239,0.088-0.441,0.264-0.608c0.176-0.166,0.393-0.249,0.65-0.249h2.074
		c0.252,0,0.458,0.083,0.62,0.25s0.242,0.376,0.242,0.628c0,0.34-0.155,0.592-0.466,0.756c-0.059,0.041-0.088,0.073-0.088,0.097
		c0,0.029,0.047,0.07,0.141,0.123c0.275,0.146,0.413,0.393,0.413,0.738c0,0.334-0.114,0.568-0.343,0.703
		c-0.129,0.076-0.193,0.129-0.193,0.158c0,0.023,0.012,0.047,0.035,0.07l0.193,0.132c0.205,0.129,0.308,0.352,0.308,0.668
		c0,0.334-0.108,0.554-0.325,0.659l-0.193,0.132c-0.023,0.023-0.035,0.047-0.035,0.07c0,0.012,0.012,0.029,0.035,0.053l0.255,0.158
		c0.176,0.117,0.264,0.334,0.264,0.65c0,0.322-0.114,0.551-0.343,0.686l-0.176,0.105c-0.012,0.012-0.018,0.029-0.018,0.053
		c0,0.041,0.064,0.103,0.193,0.185c0.229,0.141,0.343,0.375,0.343,0.703c0,0.346-0.149,0.598-0.448,0.756
		c-0.064,0.035-0.1,0.064-0.105,0.088c0,0.041,0.047,0.082,0.141,0.123c0.275,0.17,0.413,0.416,0.413,0.738
		c0,0.299-0.088,0.51-0.264,0.633l-0.272,0.176c-0.012,0.012-0.018,0.026-0.018,0.044c0,0.029,0.047,0.076,0.141,0.141
		C191.982,227.146,192.12,227.387,192.12,227.691z"/>
</g>
<g>
	<defs>
		<rect id="SVGID_55_" x="184.608" y="229" width="11" height="19"/>
	</defs>
	<clipPath id="SVGID_56_">
		<use xlink:href="#SVGID_55_"  overflow="visible"/>
	</clipPath>
	<g clip-path="url(#SVGID_56_)">
		<image overflow="visible" width="11" height="19" xlink:href="D571B02DFDB591F9.png"  transform="matrix(1 0 0 1 184.6079 229)">
		</image>
	</g>
</g>
<g>
	<path fill="#77BA41" d="M192.12,241.691c0,0.574-0.36,0.861-1.081,0.861c-0.703,0-1.055-0.281-1.055-0.844
		c0-0.34,0.132-0.581,0.396-0.722c0.117-0.082,0.176-0.135,0.176-0.158c-0.018-0.029-0.059-0.062-0.123-0.097
		c-0.299-0.141-0.448-0.393-0.448-0.756c0-0.358,0.155-0.61,0.466-0.757c0.064-0.029,0.1-0.059,0.105-0.088
		c0-0.041-0.041-0.082-0.123-0.123c-0.299-0.158-0.448-0.411-0.448-0.757c0-0.328,0.126-0.562,0.378-0.704
		c0.117-0.07,0.176-0.12,0.176-0.149c0-0.041-0.042-0.082-0.127-0.123c-0.285-0.129-0.427-0.375-0.427-0.739
		c0-0.375,0.13-0.616,0.39-0.722c0.109-0.059,0.164-0.105,0.164-0.141c0-0.041-0.047-0.085-0.141-0.132
		c-0.275-0.129-0.413-0.373-0.413-0.73c0-0.311,0.105-0.533,0.316-0.668l0.202-0.132c0.029-0.012,0.047-0.035,0.053-0.07
		c0-0.012-0.003-0.021-0.009-0.026s-0.009-0.015-0.009-0.026l-0.22-0.123c-0.223-0.135-0.334-0.364-0.334-0.687
		c0-0.252,0.094-0.463,0.281-0.633c0.088-0.07,0.132-0.124,0.132-0.159c0-0.059-0.021-0.088-0.062-0.088h-1.055
		c-0.674,0-1.011-0.283-1.011-0.848c0-0.239,0.088-0.441,0.264-0.608c0.176-0.166,0.393-0.249,0.65-0.249h2.074
		c0.252,0,0.458,0.083,0.62,0.25s0.242,0.376,0.242,0.628c0,0.34-0.155,0.592-0.466,0.756c-0.059,0.041-0.088,0.073-0.088,0.097
		c0,0.029,0.047,0.07,0.141,0.123c0.275,0.146,0.413,0.393,0.413,0.738c0,0.334-0.114,0.568-0.343,0.703
		c-0.129,0.076-0.193,0.129-0.193,0.158c0,0.023,0.012,0.047,0.035,0.07l0.193,0.132c0.205,0.129,0.308,0.352,0.308,0.668
		c0,0.334-0.108,0.554-0.325,0.659l-0.193,0.132c-0.023,0.023-0.035,0.047-0.035,0.07c0,0.012,0.012,0.029,0.035,0.053l0.255,0.158
		c0.176,0.117,0.264,0.334,0.264,0.65c0,0.322-0.114,0.551-0.343,0.686l-0.176,0.105c-0.012,0.012-0.018,0.029-0.018,0.053
		c0,0.041,0.064,0.103,0.193,0.185c0.229,0.141,0.343,0.375,0.343,0.703c0,0.346-0.149,0.598-0.448,0.756
		c-0.064,0.035-0.1,0.064-0.105,0.088c0,0.041,0.047,0.082,0.141,0.123c0.275,0.17,0.413,0.416,0.413,0.738
		c0,0.299-0.088,0.51-0.264,0.633l-0.272,0.176c-0.012,0.012-0.018,0.026-0.018,0.044c0,0.029,0.047,0.076,0.141,0.141
		C191.982,241.146,192.12,241.387,192.12,241.691z"/>
</g>
<g>
	<defs>
		<rect id="SVGID_57_" x="184.608" y="242" width="11" height="19"/>
	</defs>
	<clipPath id="SVGID_58_">
		<use xlink:href="#SVGID_57_"  overflow="visible"/>
	</clipPath>
	<g clip-path="url(#SVGID_58_)">
		<image overflow="visible" width="11" height="19" xlink:href="D571B02DFDB591FA.png"  transform="matrix(1 0 0 1 184.6079 242)">
		</image>
	</g>
</g>
<g>
	<path fill="#77BA41" d="M192.12,254.691c0,0.574-0.36,0.861-1.081,0.861c-0.703,0-1.055-0.281-1.055-0.844
		c0-0.34,0.132-0.581,0.396-0.722c0.117-0.082,0.176-0.135,0.176-0.158c-0.018-0.029-0.059-0.062-0.123-0.097
		c-0.299-0.141-0.448-0.393-0.448-0.756c0-0.358,0.155-0.61,0.466-0.757c0.064-0.029,0.1-0.059,0.105-0.088
		c0-0.041-0.041-0.082-0.123-0.123c-0.299-0.158-0.448-0.411-0.448-0.757c0-0.328,0.126-0.562,0.378-0.704
		c0.117-0.07,0.176-0.12,0.176-0.149c0-0.041-0.042-0.082-0.127-0.123c-0.285-0.129-0.427-0.375-0.427-0.739
		c0-0.375,0.13-0.616,0.39-0.722c0.109-0.059,0.164-0.105,0.164-0.141c0-0.041-0.047-0.085-0.141-0.132
		c-0.275-0.129-0.413-0.373-0.413-0.73c0-0.311,0.105-0.533,0.316-0.668l0.202-0.132c0.029-0.012,0.047-0.035,0.053-0.07
		c0-0.012-0.003-0.021-0.009-0.026s-0.009-0.015-0.009-0.026l-0.22-0.123c-0.223-0.135-0.334-0.364-0.334-0.687
		c0-0.252,0.094-0.463,0.281-0.633c0.088-0.07,0.132-0.124,0.132-0.159c0-0.059-0.021-0.088-0.062-0.088h-1.055
		c-0.674,0-1.011-0.283-1.011-0.848c0-0.239,0.088-0.441,0.264-0.608c0.176-0.166,0.393-0.249,0.65-0.249h2.074
		c0.252,0,0.458,0.083,0.62,0.25s0.242,0.376,0.242,0.628c0,0.34-0.155,0.592-0.466,0.756c-0.059,0.041-0.088,0.073-0.088,0.097
		c0,0.029,0.047,0.07,0.141,0.123c0.275,0.146,0.413,0.393,0.413,0.738c0,0.334-0.114,0.568-0.343,0.703
		c-0.129,0.076-0.193,0.129-0.193,0.158c0,0.023,0.012,0.047,0.035,0.07l0.193,0.132c0.205,0.129,0.308,0.352,0.308,0.668
		c0,0.334-0.108,0.554-0.325,0.659l-0.193,0.132c-0.023,0.023-0.035,0.047-0.035,0.07c0,0.012,0.012,0.029,0.035,0.053l0.255,0.158
		c0.176,0.117,0.264,0.334,0.264,0.65c0,0.322-0.114,0.551-0.343,0.686l-0.176,0.105c-0.012,0.012-0.018,0.029-0.018,0.053
		c0,0.041,0.064,0.103,0.193,0.185c0.229,0.141,0.343,0.375,0.343,0.703c0,0.346-0.149,0.598-0.448,0.756
		c-0.064,0.035-0.1,0.064-0.105,0.088c0,0.041,0.047,0.082,0.141,0.123c0.275,0.17,0.413,0.416,0.413,0.738
		c0,0.299-0.088,0.51-0.264,0.633l-0.272,0.176c-0.012,0.012-0.018,0.026-0.018,0.044c0,0.029,0.047,0.076,0.141,0.141
		C191.982,254.146,192.12,254.387,192.12,254.691z"/>
</g>
<g>
	<defs>
		<rect id="SVGID_59_" x="182.608" y="256" width="16" height="18"/>
	</defs>
	<clipPath id="SVGID_60_">
		<use xlink:href="#SVGID_59_"  overflow="visible"/>
	</clipPath>
	<g clip-path="url(#SVGID_60_)">
		<image overflow="visible" width="16" height="18" xlink:href="D571B02DFDB591E8.png"  transform="matrix(1 0 0 1 182.6079 256)">
		</image>
	</g>
</g>
<g>
	<path fill="#77BA41" d="M189.971,265.202c0,0.229-0.085,0.432-0.255,0.611s-0.366,0.268-0.589,0.268h-1.248
		c-0.035,0.006-0.053,0.023-0.053,0.053c0,0.023,0.042,0.076,0.128,0.158c0.202,0.135,0.302,0.34,0.302,0.615
		c0,0.574-0.352,0.861-1.055,0.861c-0.732,0-1.099-0.281-1.099-0.844c0-0.334,0.12-0.568,0.36-0.703
		c0.129-0.07,0.193-0.123,0.193-0.158c-0.006-0.035-0.018-0.053-0.036-0.053l-0.227-0.149c-0.194-0.129-0.291-0.349-0.291-0.659
		c0-0.352,0.16-0.604,0.481-0.756c0.042-0.018,0.067-0.044,0.073-0.079c0-0.041-0.037-0.082-0.109-0.123
		c-0.297-0.158-0.445-0.41-0.445-0.756c0-0.334,0.154-0.58,0.462-0.738c0.073-0.035,0.109-0.07,0.109-0.105s-0.03-0.073-0.091-0.114
		c-0.32-0.188-0.48-0.439-0.48-0.756s0.13-0.557,0.39-0.721c0.133-0.059,0.199-0.105,0.199-0.141
		c-0.006-0.035-0.018-0.053-0.035-0.053l-0.237-0.141c-0.188-0.123-0.281-0.34-0.281-0.65c0-0.574,0.36-0.861,1.081-0.861
		c0.691,0,1.037,0.299,1.037,0.896c0,0.334-0.144,0.574-0.431,0.721c-0.07,0.035-0.105,0.07-0.105,0.105
		c0,0.041,0.029,0.076,0.088,0.105c0.299,0.152,0.448,0.404,0.448,0.756c0,0.328-0.138,0.568-0.413,0.721
		c-0.082,0.047-0.123,0.091-0.123,0.132c0,0.029,0.053,0.076,0.158,0.141c0.252,0.146,0.378,0.387,0.378,0.721
		c0,0.217-0.064,0.39-0.193,0.519l-0.202,0.202c0,0.012-0.001,0.021-0.004,0.026s-0.007,0.015-0.013,0.026
		c0,0.059,0.023,0.088,0.07,0.088h1.23c0.223,0,0.416,0.081,0.58,0.242S189.971,264.968,189.971,265.202z M193.372,268.639
		c0,0.574-0.308,0.861-0.923,0.861h-3.797c-0.223,0-0.419-0.085-0.589-0.255s-0.255-0.366-0.255-0.589
		c0-0.398,0.17-0.656,0.51-0.773c0.105-0.035,0.29-0.053,0.554-0.053h3.656c0.234,0,0.434,0.078,0.598,0.232
		C193.29,268.219,193.372,268.41,193.372,268.639z M193.425,258.351c0,0.565-0.325,0.848-0.976,0.848h-3.7
		c-0.246,0-0.456-0.082-0.628-0.245c-0.173-0.164-0.259-0.365-0.259-0.604c0-0.571,0.331-0.857,0.993-0.857h3.656
		c0.258,0,0.475,0.083,0.65,0.249C193.337,257.91,193.425,258.112,193.425,258.351z M191.676,263.51c0,0.4-0.179,0.668-0.536,0.804
		c-0.117,0.042-0.305,0.062-0.562,0.062c-0.68,0-1.02-0.271-1.02-0.812c0-0.601,0.349-0.901,1.046-0.901
		C191.318,262.662,191.676,262.945,191.676,263.51z M195.112,261.836c0,0.311-0.107,0.53-0.32,0.659l-0.182,0.114
		c-0.023,0.012-0.035,0.035-0.035,0.07c0,0.041,0.051,0.088,0.152,0.141c0.256,0.146,0.384,0.387,0.384,0.721
		c0,0.328-0.146,0.577-0.438,0.747c-0.072,0.047-0.11,0.079-0.116,0.097c0,0.053,0.057,0.108,0.17,0.167
		c0.256,0.129,0.384,0.363,0.384,0.703c0,0.311-0.11,0.53-0.331,0.659c-0.149,0.094-0.223,0.155-0.223,0.185
		c0,0.035,0.012,0.064,0.036,0.088l0.206,0.132c0.208,0.129,0.312,0.337,0.312,0.624c0,0.357-0.153,0.609-0.459,0.756
		c-0.141,0.07-0.368,0.105-0.68,0.105c-0.676,0-1.015-0.287-1.015-0.861c0-0.334,0.132-0.574,0.396-0.721
		c0.105-0.041,0.158-0.076,0.158-0.105c0-0.035-0.092-0.114-0.277-0.237s-0.277-0.331-0.277-0.624c0-0.352,0.118-0.586,0.354-0.703
		c0.139-0.07,0.212-0.12,0.218-0.149c0-0.018-0.091-0.088-0.272-0.211c-0.2-0.17-0.299-0.393-0.299-0.668
		c0-0.299,0.107-0.516,0.321-0.65c0.073-0.047,0.11-0.088,0.11-0.123c0-0.059-0.018-0.088-0.053-0.088h-1.239
		c-0.223,0-0.417-0.082-0.584-0.245c-0.167-0.164-0.25-0.356-0.25-0.577c0-0.344,0.144-0.595,0.431-0.752
		c0.152-0.087,0.398-0.131,0.738-0.131h0.721c-0.006,0,0.038,0,0.132,0c0.082,0,0.123-0.023,0.123-0.07
		c-0.006-0.012-0.012-0.023-0.018-0.035l-0.22-0.219c-0.117-0.116-0.176-0.294-0.176-0.533c0-0.571,0.347-0.857,1.042-0.857
		c0.718,0,1.077,0.293,1.077,0.879c0,0.322-0.15,0.568-0.45,0.738c-0.046,0.029-0.075,0.064-0.086,0.105
		c0,0.029,0.083,0.103,0.251,0.22C195.017,261.291,195.112,261.508,195.112,261.836z"/>
</g>
<g>
	<defs>
		<rect id="SVGID_61_" x="185.608" y="280" width="9" height="8"/>
	</defs>
	<clipPath id="SVGID_62_">
		<use xlink:href="#SVGID_61_"  overflow="visible"/>
	</clipPath>
	<g clip-path="url(#SVGID_62_)">
		<image overflow="visible" width="9" height="8" xlink:href="D571B02DFDB591D7.png"  transform="matrix(1 0 0 1 185.6079 280)">
		</image>
	</g>
</g>
<g>
	<path fill="#77BA41" d="M191.68,282.656c0,0.562-0.343,0.844-1.028,0.844c-0.316,0-0.539-0.035-0.668-0.105
		c-0.287-0.164-0.431-0.416-0.431-0.756c0-0.568,0.349-0.853,1.046-0.853C191.32,281.786,191.68,282.076,191.68,282.656z"/>
</g>
<g>
	<defs>
		<rect id="SVGID_63_" x="185.608" y="294" width="9" height="8"/>
	</defs>
	<clipPath id="SVGID_64_">
		<use xlink:href="#SVGID_63_"  overflow="visible"/>
	</clipPath>
	<g clip-path="url(#SVGID_64_)">
		<image overflow="visible" width="9" height="8" xlink:href="D571B02DFDB591D8.png"  transform="matrix(1 0 0 1 185.6079 294)">
		</image>
	</g>
</g>
<g>
	<path fill="#77BA41" d="M191.68,296.656c0,0.562-0.343,0.844-1.028,0.844c-0.316,0-0.539-0.035-0.668-0.105
		c-0.287-0.164-0.431-0.416-0.431-0.756c0-0.568,0.349-0.853,1.046-0.853C191.32,295.786,191.68,296.076,191.68,296.656z"/>
</g>
<g>
	<defs>
		<rect id="SVGID_65_" x="172.608" y="160" width="16" height="18"/>
	</defs>
	<clipPath id="SVGID_66_">
		<use xlink:href="#SVGID_65_"  overflow="visible"/>
	</clipPath>
	<g clip-path="url(#SVGID_66_)">
		<image overflow="visible" width="16" height="18" xlink:href="D571B02DFDB591DB.png"  transform="matrix(1 0 0 1 172.6079 160)">
		</image>
	</g>
</g>
<g>
	<path fill="#77BA41" d="M179.971,169.202c0,0.229-0.085,0.433-0.255,0.61c-0.17,0.18-0.366,0.269-0.589,0.269h-1.248
		c-0.035,0.006-0.053,0.023-0.053,0.053c0,0.023,0.042,0.076,0.128,0.158c0.202,0.135,0.302,0.34,0.302,0.615
		c0,0.574-0.352,0.861-1.055,0.861c-0.732,0-1.099-0.281-1.099-0.844c0-0.334,0.12-0.568,0.36-0.703
		c0.129-0.07,0.193-0.123,0.193-0.158c-0.006-0.035-0.018-0.053-0.036-0.053l-0.227-0.149c-0.194-0.129-0.291-0.349-0.291-0.659
		c0-0.352,0.16-0.604,0.481-0.756c0.042-0.018,0.067-0.044,0.073-0.079c0-0.041-0.037-0.082-0.109-0.123
		c-0.297-0.158-0.445-0.41-0.445-0.756c0-0.334,0.154-0.58,0.462-0.738c0.073-0.035,0.109-0.07,0.109-0.105s-0.03-0.073-0.091-0.114
		c-0.32-0.188-0.48-0.439-0.48-0.756s0.13-0.557,0.39-0.721c0.133-0.059,0.199-0.105,0.199-0.141
		c-0.006-0.035-0.018-0.053-0.035-0.053l-0.237-0.141c-0.188-0.123-0.281-0.34-0.281-0.65c0-0.574,0.36-0.861,1.081-0.861
		c0.691,0,1.037,0.299,1.037,0.896c0,0.334-0.144,0.574-0.431,0.721c-0.07,0.035-0.105,0.07-0.105,0.105
		c0,0.041,0.029,0.076,0.088,0.105c0.299,0.152,0.448,0.404,0.448,0.756c0,0.328-0.138,0.568-0.413,0.721
		c-0.082,0.047-0.123,0.091-0.123,0.132c0,0.029,0.053,0.076,0.158,0.141c0.252,0.146,0.378,0.387,0.378,0.721
		c0,0.217-0.064,0.39-0.193,0.519l-0.202,0.202c0,0.012-0.001,0.021-0.004,0.026s-0.007,0.015-0.013,0.026
		c0,0.059,0.023,0.088,0.07,0.088h1.23c0.223,0,0.416,0.081,0.58,0.242S179.971,168.968,179.971,169.202z M183.372,172.639
		c0,0.574-0.308,0.861-0.923,0.861h-3.797c-0.223,0-0.419-0.085-0.589-0.255s-0.255-0.366-0.255-0.589
		c0-0.398,0.17-0.656,0.51-0.773c0.105-0.035,0.29-0.053,0.554-0.053h3.656c0.234,0,0.434,0.078,0.598,0.232
		C183.29,172.219,183.372,172.41,183.372,172.639z M183.425,162.352c0,0.565-0.325,0.848-0.976,0.848h-3.7
		c-0.246,0-0.456-0.082-0.628-0.245s-0.259-0.364-0.259-0.603c0-0.572,0.331-0.857,0.993-0.857h3.656
		c0.258,0,0.475,0.083,0.65,0.249S183.425,162.112,183.425,162.352z M181.676,167.51c0,0.401-0.179,0.669-0.536,0.805
		c-0.117,0.041-0.305,0.062-0.562,0.062c-0.68,0-1.02-0.271-1.02-0.812c0-0.601,0.349-0.901,1.046-0.901
		C181.318,166.662,181.676,166.945,181.676,167.51z M185.112,165.836c0,0.311-0.107,0.53-0.32,0.659l-0.182,0.114
		c-0.023,0.012-0.035,0.035-0.035,0.07c0,0.041,0.051,0.088,0.152,0.141c0.256,0.146,0.384,0.387,0.384,0.721
		c0,0.328-0.146,0.577-0.438,0.747c-0.072,0.047-0.11,0.079-0.116,0.097c0,0.053,0.057,0.108,0.17,0.167
		c0.256,0.129,0.384,0.363,0.384,0.703c0,0.311-0.11,0.53-0.331,0.659c-0.149,0.094-0.223,0.155-0.223,0.185
		c0,0.035,0.012,0.064,0.036,0.088l0.206,0.132c0.208,0.129,0.312,0.337,0.312,0.624c0,0.357-0.153,0.609-0.459,0.756
		c-0.141,0.07-0.368,0.105-0.68,0.105c-0.676,0-1.015-0.287-1.015-0.861c0-0.334,0.132-0.574,0.396-0.721
		c0.105-0.041,0.158-0.076,0.158-0.105c0-0.035-0.092-0.114-0.277-0.237s-0.277-0.331-0.277-0.624c0-0.352,0.118-0.586,0.354-0.703
		c0.139-0.07,0.212-0.12,0.218-0.149c0-0.018-0.091-0.088-0.272-0.211c-0.2-0.17-0.299-0.393-0.299-0.668
		c0-0.299,0.107-0.516,0.321-0.65c0.073-0.047,0.11-0.088,0.11-0.123c0-0.059-0.018-0.088-0.053-0.088h-1.239
		c-0.223,0-0.417-0.082-0.584-0.245s-0.25-0.355-0.25-0.577c0-0.344,0.144-0.595,0.431-0.752c0.152-0.087,0.398-0.131,0.738-0.131
		h0.721c-0.006,0,0.038,0,0.132,0c0.082,0,0.123-0.023,0.123-0.07c-0.006-0.012-0.012-0.022-0.018-0.034l-0.22-0.219
		c-0.117-0.117-0.176-0.295-0.176-0.534c0-0.57,0.347-0.856,1.042-0.856c0.718,0,1.077,0.293,1.077,0.879
		c0,0.322-0.15,0.568-0.45,0.738c-0.046,0.029-0.075,0.064-0.086,0.105c0,0.029,0.083,0.103,0.251,0.22
		C185.017,165.291,185.112,165.508,185.112,165.836z"/>
</g>
<g>
	<defs>
		<rect id="SVGID_67_" x="174.608" y="174" width="11" height="19"/>
	</defs>
	<clipPath id="SVGID_68_">
		<use xlink:href="#SVGID_67_"  overflow="visible"/>
	</clipPath>
	<g clip-path="url(#SVGID_68_)">
		<image overflow="visible" width="11" height="19" xlink:href="D571B02DFDB591D9.png"  transform="matrix(1 0 0 1 174.6079 174)">
		</image>
	</g>
</g>
<g>
	<path fill="#77BA41" d="M182.12,186.691c0,0.574-0.36,0.861-1.081,0.861c-0.703,0-1.055-0.281-1.055-0.845
		c0-0.34,0.132-0.58,0.396-0.721c0.117-0.082,0.176-0.135,0.176-0.159c-0.018-0.029-0.059-0.062-0.123-0.097
		c-0.299-0.141-0.448-0.393-0.448-0.756c0-0.357,0.155-0.61,0.466-0.757c0.064-0.029,0.1-0.059,0.105-0.088
		c0-0.041-0.041-0.082-0.123-0.123c-0.299-0.158-0.448-0.41-0.448-0.757c0-0.328,0.126-0.562,0.378-0.703
		c0.117-0.07,0.176-0.12,0.176-0.149c0-0.041-0.042-0.082-0.127-0.124c-0.285-0.129-0.427-0.375-0.427-0.738
		c0-0.376,0.13-0.616,0.39-0.722c0.109-0.059,0.164-0.105,0.164-0.141c0-0.041-0.047-0.085-0.141-0.132
		c-0.275-0.129-0.413-0.372-0.413-0.73c0-0.311,0.105-0.533,0.316-0.668l0.202-0.132c0.029-0.012,0.047-0.035,0.053-0.07
		c0-0.012-0.003-0.021-0.009-0.026s-0.009-0.015-0.009-0.027l-0.22-0.123c-0.223-0.135-0.334-0.363-0.334-0.686
		c0-0.252,0.094-0.464,0.281-0.634c0.088-0.07,0.132-0.123,0.132-0.158c0-0.059-0.021-0.088-0.062-0.088h-1.055
		c-0.674,0-1.011-0.282-1.011-0.848c0-0.239,0.088-0.442,0.264-0.608s0.393-0.249,0.65-0.249h2.074c0.252,0,0.458,0.084,0.62,0.25
		c0.161,0.168,0.242,0.377,0.242,0.629c0,0.34-0.155,0.592-0.466,0.756c-0.059,0.041-0.088,0.073-0.088,0.097
		c0,0.029,0.047,0.07,0.141,0.123c0.275,0.146,0.413,0.393,0.413,0.738c0,0.334-0.114,0.568-0.343,0.703
		c-0.129,0.076-0.193,0.129-0.193,0.158c0,0.023,0.012,0.047,0.035,0.07l0.193,0.132c0.205,0.129,0.308,0.352,0.308,0.668
		c0,0.334-0.108,0.554-0.325,0.659l-0.193,0.132c-0.023,0.023-0.035,0.047-0.035,0.07c0,0.012,0.012,0.029,0.035,0.053l0.255,0.158
		c0.176,0.117,0.264,0.334,0.264,0.65c0,0.322-0.114,0.551-0.343,0.686l-0.176,0.105c-0.012,0.012-0.018,0.029-0.018,0.053
		c0,0.041,0.064,0.103,0.193,0.185c0.229,0.141,0.343,0.375,0.343,0.703c0,0.346-0.149,0.598-0.448,0.756
		c-0.064,0.035-0.1,0.064-0.105,0.088c0,0.041,0.047,0.082,0.141,0.123c0.275,0.17,0.413,0.416,0.413,0.738
		c0,0.299-0.088,0.51-0.264,0.633l-0.272,0.176c-0.012,0.012-0.018,0.026-0.018,0.044c0,0.029,0.047,0.076,0.141,0.141
		C181.982,186.146,182.12,186.387,182.12,186.691z"/>
</g>
<g>
	<defs>
		<rect id="SVGID_69_" x="174.608" y="187" width="11" height="19"/>
	</defs>
	<clipPath id="SVGID_70_">
		<use xlink:href="#SVGID_69_"  overflow="visible"/>
	</clipPath>
	<g clip-path="url(#SVGID_70_)">
		<image overflow="visible" width="11" height="19" xlink:href="D571B02DFDB591DF.png"  transform="matrix(1 0 0 1 174.6079 187)">
		</image>
	</g>
</g>
<g>
	<path fill="#77BA41" d="M182.12,199.691c0,0.574-0.36,0.861-1.081,0.861c-0.703,0-1.055-0.281-1.055-0.844
		c0-0.34,0.132-0.581,0.396-0.722c0.117-0.082,0.176-0.135,0.176-0.158c-0.018-0.029-0.059-0.062-0.123-0.097
		c-0.299-0.141-0.448-0.393-0.448-0.756c0-0.358,0.155-0.61,0.466-0.757c0.064-0.029,0.1-0.059,0.105-0.088
		c0-0.041-0.041-0.082-0.123-0.123c-0.299-0.158-0.448-0.411-0.448-0.757c0-0.328,0.126-0.562,0.378-0.704
		c0.117-0.07,0.176-0.12,0.176-0.149c0-0.041-0.042-0.082-0.127-0.123c-0.285-0.129-0.427-0.375-0.427-0.739
		c0-0.375,0.13-0.616,0.39-0.722c0.109-0.059,0.164-0.105,0.164-0.141c0-0.041-0.047-0.085-0.141-0.132
		c-0.275-0.129-0.413-0.373-0.413-0.73c0-0.311,0.105-0.533,0.316-0.668l0.202-0.132c0.029-0.012,0.047-0.035,0.053-0.07
		c0-0.012-0.003-0.021-0.009-0.026s-0.009-0.015-0.009-0.026l-0.22-0.123c-0.223-0.135-0.334-0.364-0.334-0.687
		c0-0.252,0.094-0.463,0.281-0.633c0.088-0.07,0.132-0.124,0.132-0.159c0-0.059-0.021-0.088-0.062-0.088h-1.055
		c-0.674,0-1.011-0.283-1.011-0.848c0-0.239,0.088-0.441,0.264-0.608c0.176-0.166,0.393-0.249,0.65-0.249h2.074
		c0.252,0,0.458,0.083,0.62,0.25s0.242,0.376,0.242,0.628c0,0.34-0.155,0.592-0.466,0.756c-0.059,0.041-0.088,0.073-0.088,0.097
		c0,0.029,0.047,0.07,0.141,0.123c0.275,0.146,0.413,0.393,0.413,0.738c0,0.334-0.114,0.568-0.343,0.703
		c-0.129,0.076-0.193,0.129-0.193,0.158c0,0.023,0.012,0.047,0.035,0.07l0.193,0.132c0.205,0.129,0.308,0.352,0.308,0.668
		c0,0.334-0.108,0.554-0.325,0.659l-0.193,0.132c-0.023,0.023-0.035,0.047-0.035,0.07c0,0.012,0.012,0.029,0.035,0.053l0.255,0.158
		c0.176,0.117,0.264,0.334,0.264,0.65c0,0.322-0.114,0.551-0.343,0.686l-0.176,0.105c-0.012,0.012-0.018,0.029-0.018,0.053
		c0,0.041,0.064,0.103,0.193,0.185c0.229,0.141,0.343,0.375,0.343,0.703c0,0.346-0.149,0.598-0.448,0.756
		c-0.064,0.035-0.1,0.064-0.105,0.088c0,0.041,0.047,0.082,0.141,0.123c0.275,0.17,0.413,0.416,0.413,0.738
		c0,0.299-0.088,0.51-0.264,0.633l-0.272,0.176c-0.012,0.012-0.018,0.026-0.018,0.044c0,0.029,0.047,0.076,0.141,0.141
		C181.982,199.146,182.12,199.387,182.12,199.691z"/>
</g>
<g>
	<defs>
		<rect id="SVGID_71_" x="172.608" y="201" width="16" height="18"/>
	</defs>
	<clipPath id="SVGID_72_">
		<use xlink:href="#SVGID_71_"  overflow="visible"/>
	</clipPath>
	<g clip-path="url(#SVGID_72_)">
		<image overflow="visible" width="16" height="18" xlink:href="D571B02DFDB591DA.png"  transform="matrix(1 0 0 1 172.6079 201)">
		</image>
	</g>
</g>
<g>
	<path fill="#77BA41" d="M179.971,210.202c0,0.229-0.085,0.432-0.255,0.611s-0.366,0.268-0.589,0.268h-1.248
		c-0.035,0.006-0.053,0.023-0.053,0.053c0,0.023,0.042,0.076,0.128,0.158c0.202,0.135,0.302,0.34,0.302,0.615
		c0,0.574-0.352,0.861-1.055,0.861c-0.732,0-1.099-0.281-1.099-0.844c0-0.334,0.12-0.568,0.36-0.703
		c0.129-0.07,0.193-0.123,0.193-0.158c-0.006-0.035-0.018-0.053-0.036-0.053l-0.227-0.149c-0.194-0.129-0.291-0.349-0.291-0.659
		c0-0.352,0.16-0.604,0.481-0.756c0.042-0.018,0.067-0.044,0.073-0.079c0-0.041-0.037-0.082-0.109-0.123
		c-0.297-0.158-0.445-0.41-0.445-0.756c0-0.334,0.154-0.58,0.462-0.738c0.073-0.035,0.109-0.07,0.109-0.105s-0.03-0.073-0.091-0.114
		c-0.32-0.188-0.48-0.439-0.48-0.756s0.13-0.557,0.39-0.721c0.133-0.059,0.199-0.105,0.199-0.141
		c-0.006-0.035-0.018-0.053-0.035-0.053l-0.237-0.141c-0.188-0.123-0.281-0.34-0.281-0.65c0-0.574,0.36-0.861,1.081-0.861
		c0.691,0,1.037,0.299,1.037,0.896c0,0.334-0.144,0.574-0.431,0.721c-0.07,0.035-0.105,0.07-0.105,0.105
		c0,0.041,0.029,0.076,0.088,0.105c0.299,0.152,0.448,0.404,0.448,0.756c0,0.328-0.138,0.568-0.413,0.721
		c-0.082,0.047-0.123,0.091-0.123,0.132c0,0.029,0.053,0.076,0.158,0.141c0.252,0.146,0.378,0.387,0.378,0.721
		c0,0.217-0.064,0.39-0.193,0.519l-0.202,0.202c0,0.012-0.001,0.021-0.004,0.026s-0.007,0.015-0.013,0.026
		c0,0.059,0.023,0.088,0.07,0.088h1.23c0.223,0,0.416,0.081,0.58,0.242S179.971,209.968,179.971,210.202z M183.372,213.639
		c0,0.574-0.308,0.861-0.923,0.861h-3.797c-0.223,0-0.419-0.085-0.589-0.255s-0.255-0.366-0.255-0.589
		c0-0.398,0.17-0.656,0.51-0.773c0.105-0.035,0.29-0.053,0.554-0.053h3.656c0.234,0,0.434,0.078,0.598,0.233
		S183.372,213.41,183.372,213.639z M183.425,203.351c0,0.565-0.325,0.848-0.976,0.848h-3.7c-0.246,0-0.456-0.082-0.628-0.245
		c-0.173-0.164-0.259-0.365-0.259-0.604c0-0.571,0.331-0.857,0.993-0.857h3.656c0.258,0,0.475,0.083,0.65,0.249
		C183.337,202.91,183.425,203.112,183.425,203.351z M181.676,208.51c0,0.4-0.179,0.668-0.536,0.804
		c-0.117,0.042-0.305,0.062-0.562,0.062c-0.68,0-1.02-0.271-1.02-0.812c0-0.601,0.349-0.901,1.046-0.901
		C181.318,207.662,181.676,207.945,181.676,208.51z M185.112,206.836c0,0.311-0.107,0.53-0.32,0.659l-0.182,0.114
		c-0.023,0.012-0.035,0.035-0.035,0.07c0,0.041,0.051,0.088,0.152,0.141c0.256,0.146,0.384,0.387,0.384,0.721
		c0,0.328-0.146,0.577-0.438,0.747c-0.072,0.047-0.11,0.079-0.116,0.097c0,0.053,0.057,0.108,0.17,0.167
		c0.256,0.129,0.384,0.363,0.384,0.703c0,0.311-0.11,0.53-0.331,0.659c-0.149,0.094-0.223,0.155-0.223,0.185
		c0,0.035,0.012,0.064,0.036,0.088l0.206,0.132c0.208,0.129,0.312,0.337,0.312,0.624c0,0.357-0.153,0.609-0.459,0.756
		c-0.141,0.07-0.368,0.105-0.68,0.105c-0.676,0-1.015-0.287-1.015-0.861c0-0.334,0.132-0.574,0.396-0.721
		c0.105-0.041,0.158-0.076,0.158-0.105c0-0.035-0.092-0.114-0.277-0.237s-0.277-0.331-0.277-0.624c0-0.352,0.118-0.586,0.354-0.703
		c0.139-0.07,0.212-0.12,0.218-0.149c0-0.018-0.091-0.088-0.272-0.211c-0.2-0.17-0.299-0.393-0.299-0.668
		c0-0.299,0.107-0.516,0.321-0.65c0.073-0.047,0.11-0.088,0.11-0.123c0-0.059-0.018-0.088-0.053-0.088h-1.239
		c-0.223,0-0.417-0.082-0.584-0.245c-0.167-0.164-0.25-0.356-0.25-0.577c0-0.344,0.144-0.595,0.431-0.752
		c0.152-0.087,0.398-0.131,0.738-0.131h0.721c-0.006,0,0.038,0,0.132,0c0.082,0,0.123-0.023,0.123-0.07
		c-0.006-0.012-0.012-0.023-0.018-0.035l-0.22-0.219c-0.117-0.116-0.176-0.294-0.176-0.533c0-0.571,0.347-0.857,1.042-0.857
		c0.718,0,1.077,0.293,1.077,0.879c0,0.322-0.15,0.568-0.45,0.738c-0.046,0.029-0.075,0.064-0.086,0.105
		c0,0.029,0.083,0.103,0.251,0.22C185.017,206.291,185.112,206.508,185.112,206.836z"/>
</g>
<g>
	<defs>
		<rect id="SVGID_73_" x="172.608" y="215" width="16" height="18"/>
	</defs>
	<clipPath id="SVGID_74_">
		<use xlink:href="#SVGID_73_"  overflow="visible"/>
	</clipPath>
	<g clip-path="url(#SVGID_74_)">
		<image overflow="visible" width="16" height="18" xlink:href="D571B02DFDB591D5.png"  transform="matrix(1 0 0 1 172.6079 215)">
		</image>
	</g>
</g>
<g>
	<path fill="#77BA41" d="M179.971,224.202c0,0.229-0.085,0.432-0.255,0.611s-0.366,0.268-0.589,0.268h-1.248
		c-0.035,0.006-0.053,0.023-0.053,0.053c0,0.023,0.042,0.076,0.128,0.158c0.202,0.135,0.302,0.34,0.302,0.615
		c0,0.574-0.352,0.861-1.055,0.861c-0.732,0-1.099-0.281-1.099-0.844c0-0.334,0.12-0.568,0.36-0.703
		c0.129-0.07,0.193-0.123,0.193-0.158c-0.006-0.035-0.018-0.053-0.036-0.053l-0.227-0.149c-0.194-0.129-0.291-0.349-0.291-0.659
		c0-0.352,0.16-0.604,0.481-0.756c0.042-0.018,0.067-0.044,0.073-0.079c0-0.041-0.037-0.082-0.109-0.123
		c-0.297-0.158-0.445-0.41-0.445-0.756c0-0.334,0.154-0.58,0.462-0.738c0.073-0.035,0.109-0.07,0.109-0.105s-0.03-0.073-0.091-0.114
		c-0.32-0.188-0.48-0.439-0.48-0.756s0.13-0.557,0.39-0.721c0.133-0.059,0.199-0.105,0.199-0.141
		c-0.006-0.035-0.018-0.053-0.035-0.053l-0.237-0.141c-0.188-0.123-0.281-0.34-0.281-0.65c0-0.574,0.36-0.861,1.081-0.861
		c0.691,0,1.037,0.299,1.037,0.896c0,0.334-0.144,0.574-0.431,0.721c-0.07,0.035-0.105,0.07-0.105,0.105
		c0,0.041,0.029,0.076,0.088,0.105c0.299,0.152,0.448,0.404,0.448,0.756c0,0.328-0.138,0.568-0.413,0.721
		c-0.082,0.047-0.123,0.091-0.123,0.132c0,0.029,0.053,0.076,0.158,0.141c0.252,0.146,0.378,0.387,0.378,0.721
		c0,0.217-0.064,0.39-0.193,0.519l-0.202,0.202c0,0.012-0.001,0.021-0.004,0.026s-0.007,0.015-0.013,0.026
		c0,0.059,0.023,0.088,0.07,0.088h1.23c0.223,0,0.416,0.081,0.58,0.242S179.971,223.968,179.971,224.202z M183.372,227.639
		c0,0.574-0.308,0.861-0.923,0.861h-3.797c-0.223,0-0.419-0.085-0.589-0.255s-0.255-0.366-0.255-0.589
		c0-0.398,0.17-0.656,0.51-0.773c0.105-0.035,0.29-0.053,0.554-0.053h3.656c0.234,0,0.434,0.078,0.598,0.233
		S183.372,227.41,183.372,227.639z M183.425,217.351c0,0.565-0.325,0.848-0.976,0.848h-3.7c-0.246,0-0.456-0.082-0.628-0.245
		c-0.173-0.164-0.259-0.365-0.259-0.604c0-0.571,0.331-0.857,0.993-0.857h3.656c0.258,0,0.475,0.083,0.65,0.249
		C183.337,216.91,183.425,217.112,183.425,217.351z M181.676,222.51c0,0.4-0.179,0.668-0.536,0.804
		c-0.117,0.042-0.305,0.062-0.562,0.062c-0.68,0-1.02-0.271-1.02-0.812c0-0.601,0.349-0.901,1.046-0.901
		C181.318,221.662,181.676,221.945,181.676,222.51z M185.112,220.836c0,0.311-0.107,0.53-0.32,0.659l-0.182,0.114
		c-0.023,0.012-0.035,0.035-0.035,0.07c0,0.041,0.051,0.088,0.152,0.141c0.256,0.146,0.384,0.387,0.384,0.721
		c0,0.328-0.146,0.577-0.438,0.747c-0.072,0.047-0.11,0.079-0.116,0.097c0,0.053,0.057,0.108,0.17,0.167
		c0.256,0.129,0.384,0.363,0.384,0.703c0,0.311-0.11,0.53-0.331,0.659c-0.149,0.094-0.223,0.155-0.223,0.185
		c0,0.035,0.012,0.064,0.036,0.088l0.206,0.132c0.208,0.129,0.312,0.337,0.312,0.624c0,0.357-0.153,0.609-0.459,0.756
		c-0.141,0.07-0.368,0.105-0.68,0.105c-0.676,0-1.015-0.287-1.015-0.861c0-0.334,0.132-0.574,0.396-0.721
		c0.105-0.041,0.158-0.076,0.158-0.105c0-0.035-0.092-0.114-0.277-0.237s-0.277-0.331-0.277-0.624c0-0.352,0.118-0.586,0.354-0.703
		c0.139-0.07,0.212-0.12,0.218-0.149c0-0.018-0.091-0.088-0.272-0.211c-0.2-0.17-0.299-0.393-0.299-0.668
		c0-0.299,0.107-0.516,0.321-0.65c0.073-0.047,0.11-0.088,0.11-0.123c0-0.059-0.018-0.088-0.053-0.088h-1.239
		c-0.223,0-0.417-0.082-0.584-0.245c-0.167-0.164-0.25-0.356-0.25-0.577c0-0.344,0.144-0.595,0.431-0.752
		c0.152-0.087,0.398-0.131,0.738-0.131h0.721c-0.006,0,0.038,0,0.132,0c0.082,0,0.123-0.023,0.123-0.07
		c-0.006-0.012-0.012-0.023-0.018-0.035l-0.22-0.219c-0.117-0.116-0.176-0.294-0.176-0.533c0-0.571,0.347-0.857,1.042-0.857
		c0.718,0,1.077,0.293,1.077,0.879c0,0.322-0.15,0.568-0.45,0.738c-0.046,0.029-0.075,0.064-0.086,0.105
		c0,0.029,0.083,0.103,0.251,0.22C185.017,220.291,185.112,220.508,185.112,220.836z"/>
</g>
<g>
	<defs>
		<rect id="SVGID_75_" x="172.608" y="229" width="16" height="18"/>
	</defs>
	<clipPath id="SVGID_76_">
		<use xlink:href="#SVGID_75_"  overflow="visible"/>
	</clipPath>
	<g clip-path="url(#SVGID_76_)">
		<image overflow="visible" width="16" height="18" xlink:href="D571B02DFDB591D6.png"  transform="matrix(1 0 0 1 172.6079 229)">
		</image>
	</g>
</g>
<g>
	<path fill="#77BA41" d="M179.971,238.202c0,0.229-0.085,0.432-0.255,0.611s-0.366,0.268-0.589,0.268h-1.248
		c-0.035,0.006-0.053,0.023-0.053,0.053c0,0.023,0.042,0.076,0.128,0.158c0.202,0.135,0.302,0.34,0.302,0.615
		c0,0.574-0.352,0.861-1.055,0.861c-0.732,0-1.099-0.281-1.099-0.844c0-0.334,0.12-0.568,0.36-0.703
		c0.129-0.07,0.193-0.123,0.193-0.158c-0.006-0.035-0.018-0.053-0.036-0.053l-0.227-0.149c-0.194-0.129-0.291-0.349-0.291-0.659
		c0-0.352,0.16-0.604,0.481-0.756c0.042-0.018,0.067-0.044,0.073-0.079c0-0.041-0.037-0.082-0.109-0.123
		c-0.297-0.158-0.445-0.41-0.445-0.756c0-0.334,0.154-0.58,0.462-0.738c0.073-0.035,0.109-0.07,0.109-0.105s-0.03-0.073-0.091-0.114
		c-0.32-0.188-0.48-0.439-0.48-0.756s0.13-0.557,0.39-0.721c0.133-0.059,0.199-0.105,0.199-0.141
		c-0.006-0.035-0.018-0.053-0.035-0.053l-0.237-0.141c-0.188-0.123-0.281-0.34-0.281-0.65c0-0.574,0.36-0.861,1.081-0.861
		c0.691,0,1.037,0.299,1.037,0.896c0,0.334-0.144,0.574-0.431,0.721c-0.07,0.035-0.105,0.07-0.105,0.105
		c0,0.041,0.029,0.076,0.088,0.105c0.299,0.152,0.448,0.404,0.448,0.756c0,0.328-0.138,0.568-0.413,0.721
		c-0.082,0.047-0.123,0.091-0.123,0.132c0,0.029,0.053,0.076,0.158,0.141c0.252,0.146,0.378,0.387,0.378,0.721
		c0,0.217-0.064,0.39-0.193,0.519l-0.202,0.202c0,0.012-0.001,0.021-0.004,0.026s-0.007,0.015-0.013,0.026
		c0,0.059,0.023,0.088,0.07,0.088h1.23c0.223,0,0.416,0.081,0.58,0.242S179.971,237.968,179.971,238.202z M183.372,241.639
		c0,0.574-0.308,0.861-0.923,0.861h-3.797c-0.223,0-0.419-0.085-0.589-0.255s-0.255-0.366-0.255-0.589
		c0-0.398,0.17-0.656,0.51-0.773c0.105-0.035,0.29-0.053,0.554-0.053h3.656c0.234,0,0.434,0.078,0.598,0.233
		S183.372,241.41,183.372,241.639z M183.425,231.351c0,0.565-0.325,0.848-0.976,0.848h-3.7c-0.246,0-0.456-0.082-0.628-0.245
		c-0.173-0.164-0.259-0.365-0.259-0.604c0-0.571,0.331-0.857,0.993-0.857h3.656c0.258,0,0.475,0.083,0.65,0.249
		C183.337,230.91,183.425,231.112,183.425,231.351z M181.676,236.51c0,0.4-0.179,0.668-0.536,0.804
		c-0.117,0.042-0.305,0.062-0.562,0.062c-0.68,0-1.02-0.271-1.02-0.812c0-0.601,0.349-0.901,1.046-0.901
		C181.318,235.662,181.676,235.945,181.676,236.51z M185.112,234.836c0,0.311-0.107,0.53-0.32,0.659l-0.182,0.114
		c-0.023,0.012-0.035,0.035-0.035,0.07c0,0.041,0.051,0.088,0.152,0.141c0.256,0.146,0.384,0.387,0.384,0.721
		c0,0.328-0.146,0.577-0.438,0.747c-0.072,0.047-0.11,0.079-0.116,0.097c0,0.053,0.057,0.108,0.17,0.167
		c0.256,0.129,0.384,0.363,0.384,0.703c0,0.311-0.11,0.53-0.331,0.659c-0.149,0.094-0.223,0.155-0.223,0.185
		c0,0.035,0.012,0.064,0.036,0.088l0.206,0.132c0.208,0.129,0.312,0.337,0.312,0.624c0,0.357-0.153,0.609-0.459,0.756
		c-0.141,0.07-0.368,0.105-0.68,0.105c-0.676,0-1.015-0.287-1.015-0.861c0-0.334,0.132-0.574,0.396-0.721
		c0.105-0.041,0.158-0.076,0.158-0.105c0-0.035-0.092-0.114-0.277-0.237s-0.277-0.331-0.277-0.624c0-0.352,0.118-0.586,0.354-0.703
		c0.139-0.07,0.212-0.12,0.218-0.149c0-0.018-0.091-0.088-0.272-0.211c-0.2-0.17-0.299-0.393-0.299-0.668
		c0-0.299,0.107-0.516,0.321-0.65c0.073-0.047,0.11-0.088,0.11-0.123c0-0.059-0.018-0.088-0.053-0.088h-1.239
		c-0.223,0-0.417-0.082-0.584-0.245c-0.167-0.164-0.25-0.356-0.25-0.577c0-0.344,0.144-0.595,0.431-0.752
		c0.152-0.087,0.398-0.131,0.738-0.131h0.721c-0.006,0,0.038,0,0.132,0c0.082,0,0.123-0.023,0.123-0.07
		c-0.006-0.012-0.012-0.023-0.018-0.035l-0.22-0.219c-0.117-0.116-0.176-0.294-0.176-0.533c0-0.571,0.347-0.857,1.042-0.857
		c0.718,0,1.077,0.293,1.077,0.879c0,0.322-0.15,0.568-0.45,0.738c-0.046,0.029-0.075,0.064-0.086,0.105
		c0,0.029,0.083,0.103,0.251,0.22C185.017,234.291,185.112,234.508,185.112,234.836z"/>
</g>
<g>
	<defs>
		<rect id="SVGID_77_" x="175.608" y="253" width="9" height="8"/>
	</defs>
	<clipPath id="SVGID_78_">
		<use xlink:href="#SVGID_77_"  overflow="visible"/>
	</clipPath>
	<g clip-path="url(#SVGID_78_)">
		<image overflow="visible" width="9" height="8" xlink:href="D571B02DFDB591D4.png"  transform="matrix(1 0 0 1 175.6079 253)">
		</image>
	</g>
</g>
<g>
	<path fill="#77BA41" d="M181.68,255.656c0,0.562-0.343,0.844-1.028,0.844c-0.316,0-0.539-0.035-0.668-0.105
		c-0.287-0.164-0.431-0.416-0.431-0.756c0-0.568,0.349-0.853,1.046-0.853C181.32,254.786,181.68,255.076,181.68,255.656z"/>
</g>
<g>
	<defs>
		<rect id="SVGID_79_" x="175.608" y="266" width="9" height="8"/>
	</defs>
	<clipPath id="SVGID_80_">
		<use xlink:href="#SVGID_79_"  overflow="visible"/>
	</clipPath>
	<g clip-path="url(#SVGID_80_)">
		<image overflow="visible" width="9" height="8" xlink:href="D571B02DFDB59233.png"  transform="matrix(1 0 0 1 175.6079 266)">
		</image>
	</g>
</g>
<g>
	<path fill="#77BA41" d="M181.68,268.656c0,0.562-0.343,0.844-1.028,0.844c-0.316,0-0.539-0.035-0.668-0.105
		c-0.287-0.164-0.431-0.416-0.431-0.756c0-0.568,0.349-0.853,1.046-0.853C181.32,267.786,181.68,268.076,181.68,268.656z"/>
</g>
<g>
	<defs>
		<rect id="SVGID_81_" x="172.608" y="270" width="16" height="18"/>
	</defs>
	<clipPath id="SVGID_82_">
		<use xlink:href="#SVGID_81_"  overflow="visible"/>
	</clipPath>
	<g clip-path="url(#SVGID_82_)">
		<image overflow="visible" width="16" height="18" xlink:href="D571B02DFDB59235.png"  transform="matrix(1 0 0 1 172.6079 270)">
		</image>
	</g>
</g>
<g>
	<path fill="#77BA41" d="M179.971,279.202c0,0.229-0.085,0.433-0.255,0.61c-0.17,0.18-0.366,0.269-0.589,0.269h-1.248
		c-0.035,0.006-0.053,0.023-0.053,0.053c0,0.023,0.042,0.076,0.128,0.158c0.202,0.135,0.302,0.34,0.302,0.615
		c0,0.574-0.352,0.861-1.055,0.861c-0.732,0-1.099-0.281-1.099-0.844c0-0.334,0.12-0.568,0.36-0.703
		c0.129-0.07,0.193-0.123,0.193-0.158c-0.006-0.035-0.018-0.053-0.036-0.053l-0.227-0.149c-0.194-0.129-0.291-0.349-0.291-0.659
		c0-0.352,0.16-0.604,0.481-0.756c0.042-0.018,0.067-0.044,0.073-0.079c0-0.041-0.037-0.082-0.109-0.123
		c-0.297-0.158-0.445-0.41-0.445-0.756c0-0.334,0.154-0.58,0.462-0.738c0.073-0.035,0.109-0.07,0.109-0.105s-0.03-0.073-0.091-0.114
		c-0.32-0.188-0.48-0.439-0.48-0.756s0.13-0.557,0.39-0.721c0.133-0.059,0.199-0.105,0.199-0.141
		c-0.006-0.035-0.018-0.053-0.035-0.053l-0.237-0.141c-0.188-0.123-0.281-0.34-0.281-0.65c0-0.574,0.36-0.861,1.081-0.861
		c0.691,0,1.037,0.299,1.037,0.896c0,0.334-0.144,0.574-0.431,0.721c-0.07,0.035-0.105,0.07-0.105,0.105
		c0,0.041,0.029,0.076,0.088,0.105c0.299,0.152,0.448,0.404,0.448,0.756c0,0.328-0.138,0.568-0.413,0.721
		c-0.082,0.047-0.123,0.091-0.123,0.132c0,0.029,0.053,0.076,0.158,0.141c0.252,0.146,0.378,0.387,0.378,0.721
		c0,0.217-0.064,0.39-0.193,0.519l-0.202,0.202c0,0.012-0.001,0.021-0.004,0.026s-0.007,0.015-0.013,0.026
		c0,0.059,0.023,0.088,0.07,0.088h1.23c0.223,0,0.416,0.08,0.58,0.242C179.889,278.77,179.971,278.968,179.971,279.202z
		 M183.372,282.639c0,0.574-0.308,0.861-0.923,0.861h-3.797c-0.223,0-0.419-0.085-0.589-0.255s-0.255-0.366-0.255-0.589
		c0-0.398,0.17-0.656,0.51-0.773c0.105-0.035,0.29-0.053,0.554-0.053h3.656c0.234,0,0.434,0.078,0.598,0.232
		C183.29,282.219,183.372,282.41,183.372,282.639z M183.425,272.352c0,0.564-0.325,0.848-0.976,0.848h-3.7
		c-0.246,0-0.456-0.082-0.628-0.244c-0.173-0.164-0.259-0.365-0.259-0.604c0-0.572,0.331-0.857,0.993-0.857h3.656
		c0.258,0,0.475,0.083,0.65,0.249C183.337,271.91,183.425,272.112,183.425,272.352z M181.676,277.51c0,0.4-0.179,0.669-0.536,0.805
		c-0.117,0.041-0.305,0.062-0.562,0.062c-0.68,0-1.02-0.271-1.02-0.812c0-0.601,0.349-0.901,1.046-0.901
		C181.318,276.662,181.676,276.945,181.676,277.51z M185.112,275.836c0,0.311-0.107,0.53-0.32,0.659l-0.182,0.114
		c-0.023,0.012-0.035,0.035-0.035,0.07c0,0.041,0.051,0.088,0.152,0.141c0.256,0.146,0.384,0.387,0.384,0.721
		c0,0.328-0.146,0.577-0.438,0.747c-0.072,0.047-0.11,0.079-0.116,0.097c0,0.053,0.057,0.108,0.17,0.167
		c0.256,0.129,0.384,0.363,0.384,0.703c0,0.311-0.11,0.53-0.331,0.659c-0.149,0.094-0.223,0.155-0.223,0.185
		c0,0.035,0.012,0.064,0.036,0.088l0.206,0.132c0.208,0.129,0.312,0.337,0.312,0.624c0,0.357-0.153,0.609-0.459,0.756
		c-0.141,0.07-0.368,0.105-0.68,0.105c-0.676,0-1.015-0.287-1.015-0.861c0-0.334,0.132-0.574,0.396-0.721
		c0.105-0.041,0.158-0.076,0.158-0.105c0-0.035-0.092-0.114-0.277-0.237s-0.277-0.331-0.277-0.624c0-0.352,0.118-0.586,0.354-0.703
		c0.139-0.07,0.212-0.12,0.218-0.149c0-0.018-0.091-0.088-0.272-0.211c-0.2-0.17-0.299-0.393-0.299-0.668
		c0-0.299,0.107-0.516,0.321-0.65c0.073-0.047,0.11-0.088,0.11-0.123c0-0.059-0.018-0.088-0.053-0.088h-1.239
		c-0.223,0-0.417-0.082-0.584-0.244c-0.167-0.164-0.25-0.356-0.25-0.578c0-0.344,0.144-0.594,0.431-0.752
		c0.152-0.087,0.398-0.131,0.738-0.131h0.721c-0.006,0,0.038,0,0.132,0c0.082,0,0.123-0.023,0.123-0.07
		c-0.006-0.012-0.012-0.023-0.018-0.035l-0.22-0.219c-0.117-0.115-0.176-0.293-0.176-0.533c0-0.57,0.347-0.856,1.042-0.856
		c0.718,0,1.077,0.293,1.077,0.879c0,0.322-0.15,0.568-0.45,0.738c-0.046,0.029-0.075,0.064-0.086,0.105
		c0,0.029,0.083,0.103,0.251,0.22C185.017,275.291,185.112,275.508,185.112,275.836z"/>
</g>
<path fill="none" stroke="#D19C00" stroke-width="8" d="M347.608,342c18.953,29.422,48.164,23.781,50.992,29.357
	c1.486,2.931-21.458,9.566-28.992,7.236c-15.155-4.688,3.995,13.07,17,11.406c15.599-1.996-28.734,22.984-50,14"/>
<g>
</g>
<g>
</g>
<g>
</g>
<g>
</g>
<g>
</g>
<g>
</g>
<g>
</g>
<g>
</g>
<g>
</g>
<g>
</g>
<g>
</g>
<g>
</g>
<g>
</g>
<g>
</g>
<g>
</g>
</svg>
