<?xml version="1.0" encoding="utf-8"?>


<!-- The icon can be used freely in both personal and commercial projects with no attribution required, but always appreciated. 
You may NOT sub-license, resell, rent, redistribute or otherwise transfer the icon without express written permission from iconmonstr.com -->


<!DOCTYPE svg PUBLIC "-//W3C//DTD SVG 1.1//EN" "http://www.w3.org/Graphics/SVG/1.1/DTD/svg11.dtd">

<svg version="1.1" xmlns="http://www.w3.org/2000/svg" xmlns:xlink="http://www.w3.org/1999/xlink" x="0px" y="0px"

	 width="512px" height="512px" viewBox="0 0 512 512" enable-background="new 0 0 512 512" xml:space="preserve">

<path id="danger-5-icon" d="M256,295.07c35.244,0,66.173,18.826,83.261,46.951c35.796-57.627,63.583-101.746,63.583-150.699

	c0-77.924-68.92-141.093-146.844-141.093c-77.925,0-146.844,63.169-146.844,141.093c0,48.962,28.372,94.744,63.138,151.451

	C189.284,314.236,220.444,295.07,256,295.07z M319.761,154.401c24.789,0,44.887,20.093,44.887,44.882

	c0,24.79-20.098,44.884-44.887,44.884c-24.785,0-44.881-20.094-44.881-44.884C274.88,174.494,294.976,154.401,319.761,154.401z

	 M194.178,154.401c24.789,0,44.886,20.093,44.886,44.882c0,24.79-20.097,44.884-44.886,44.884

	c-24.788,0-44.883-20.094-44.883-44.884C149.295,174.494,169.39,154.401,194.178,154.401z M256,323.07

	c-38.301,0-69.35,31.049-69.35,69.35s31.049,69.35,69.35,69.35s69.35-31.049,69.35-69.35S294.301,323.07,256,323.07z

	 M274.015,348.371c6.065,0,11,4.936,11,11c0,6.066-4.935,11-11,11s-11-4.934-11-11C263.015,353.307,267.949,348.371,274.015,348.371

	z M237.265,348.371c6.065,0,11,4.936,11,11c0,6.066-4.935,11-11,11s-11-4.934-11-11

	C226.265,353.307,231.199,348.371,237.265,348.371z M217.515,403.42c-6.065,0-11-4.934-11-11c0-6.064,4.935-11,11-11s11,4.936,11,11

	C228.515,398.486,223.58,403.42,217.515,403.42z M237.265,436.469c-6.065,0-11-4.934-11-11c0-6.064,4.935-11,11-11s11,4.936,11,11

	C248.265,431.535,243.33,436.469,237.265,436.469z M245,392.42c0-6.064,4.935-11,11-11s11,4.936,11,11c0,6.066-4.935,11-11,11

	S245,398.486,245,392.42z M274.015,436.469c-6.065,0-11-4.934-11-11c0-6.064,4.935-11,11-11s11,4.936,11,11

	C285.015,431.535,280.08,436.469,274.015,436.469z M294.485,403.42c-6.065,0-11-4.934-11-11c0-6.064,4.935-11,11-11s11,4.936,11,11

	C305.485,398.486,300.551,403.42,294.485,403.42z"/>

</svg>

