<svg xmlns="http://www.w3.org/2000/svg" xmlns:xlink="http://www.w3.org/1999/xlink" xmlns:a="http://ns.adobe.com/AdobeSVGViewerExtensions/3.0/" version="1.1" x="0px" y="0px" width="100px" height="100px" viewBox="-13.971 -7.608 100 100" overflow="visible" enable-background="new -13.971 -7.608 100 100" xml:space="preserve">
<defs>
</defs>
<path d="M72.705,49.007c0,0-0.523-8.209-11.552-10.674c-1.34-3.189-4.16-8.247-5.864-10.252c-0.684-0.804-2.229-1.307-4.141-1.576  v-3.014h7.425c0.597,0,1.08-0.458,1.08-1.021V1.021c0-0.564-0.483-1.021-1.08-1.021H34.272c-0.596,0-1.08,0.458-1.08,1.021V22.47  c0,0.564,0.483,1.021,1.08,1.021h7.427v3.176c-1.607,0.25-2.939,0.599-3.691,1.009c-2.24,1.222-5.095,7.359-6.363,10.302  c-1.345,0.075-2.666,0.155-3.946,0.236l-0.063-1.124c-0.016-0.279-0.207-0.507-0.459-0.584c0.243-0.105,0.407-0.354,0.391-0.633  l-0.1-1.787c-0.021-0.358-0.327-0.606-0.687-0.586l-11.856,0.639c-0.359,0.02-0.634,0.327-0.613,0.686l0.1,1.787  c0.016,0.281,0.207,0.508,0.459,0.586c-0.243,0.105-0.407,0.353-0.391,0.633l0.077,1.371c-1.566,0.135-2.469,0.221-2.469,0.221  s-7.51,1.175-8.927,2.391c-1.417,1.215-2.549,6.249-2.683,6.924c-0.135,0.675-0.811,29.837-0.271,31.32  c0.54,1.485,0.271,2.972,5.4,2.566s62.102-0.135,62.102-0.135s4.59,0.27,4.859-5.13C72.838,71.958,72.705,49.007,72.705,49.007z   M36.534,11.61c-0.652,0-1.182-0.483-1.182-1.08V4.32c0-0.596,0.529-1.08,1.182-1.08h19.778c0.651,0,1.181,0.484,1.181,1.08v6.21  c0,0.597-0.529,1.08-1.181,1.08H36.534z M12.05,45.251c-2.611,0.436-4.881-0.137-5.071-1.277c-0.19-1.14,1.773-2.416,4.384-2.85  c2.611-0.435,4.882,0.136,5.071,1.276C16.624,43.54,14.661,44.815,12.05,45.251z M46.401,80.136  c-11.557,0-20.926-9.368-20.926-20.927c0-11.56,9.37-20.927,20.926-20.927s20.926,9.368,20.926,20.927  C67.327,70.768,57.958,80.136,46.401,80.136z"/>
<circle cx="46.401" cy="59.208" r="11.426"/>
</svg>