<?xml version="1.0" encoding="utf-8"?>
<!-- Generator: Adobe Illustrator 16.0.0, SVG Export Plug-In . SVG Version: 6.00 Build 0)  -->
<!DOCTYPE svg PUBLIC "-//W3C//DTD SVG 1.1//EN" "http://www.w3.org/Graphics/SVG/1.1/DTD/svg11.dtd">
<svg version="1.1" id="Layer_1" xmlns="http://www.w3.org/2000/svg" xmlns:xlink="http://www.w3.org/1999/xlink" x="0px" y="0px"
	 width="94.461px" height="100px" viewBox="0 0 94.461 100" enable-background="new 0 0 94.461 100" xml:space="preserve">
<path fill="#333333" d="M13.132,76.352c-3.601,0-6.519-2.918-6.519-6.517c0-3.604,2.918-6.522,6.519-6.522
	c3.603,0,6.521,2.92,6.521,6.522C19.653,73.434,16.735,76.352,13.132,76.352"/>
<path fill="#333333" d="M0,100V87.223c0-4.604,3.784-8.351,8.398-8.351h9.003c4.613,0,8.731,3.745,8.731,8.351V100H0z"/>
<path fill="#333333" d="M80.738,75.799c3.602,0,6.521-2.928,6.521-6.521c0-3.605-2.919-6.522-6.521-6.522
	c-3.604,0-6.521,2.919-6.521,6.522C74.217,72.871,77.134,75.799,80.738,75.799"/>
<path fill="#333333" d="M93.863,100V87.223c0-4.604-3.784-8.351-8.401-8.351h-8.993c-4.619,0-8.732,3.745-8.732,8.351V100H93.863z"
	/>
<path fill="#333333" d="M46.925,63.234c3.642,0,6.597,2.928,6.597,6.543c0,3.611-2.955,6.539-6.597,6.539
	c-3.645,0-6.597-2.928-6.597-6.539C40.328,66.162,43.28,63.234,46.925,63.234"/>
<path fill="#333333" d="M31.039,100l5.192-14.141c2.077-7.225,8.131-7.002,8.131-7.002h2.572h2.568c0,0,6.048-0.223,8.133,7.002
	L62.825,100H31.039z"/>
<polygon fill="#888888" points="46.925,54.975 46.925,39.504 44.356,36.935 44.356,52.4 5.499,52.4 5.499,3.206 44.356,3.206 
	44.356,28.479 46.925,31.045 46.925,0.634 2.941,0.634 2.941,54.975 "/>
<path fill="#33CCCC" d="M80.738,26.508c3.602,0,6.521-2.927,6.521-6.522c0-3.607-2.919-6.523-6.521-6.523
	c-3.604,0-6.521,2.918-6.521,6.523C74.217,23.581,77.134,26.508,80.738,26.508"/>
<path fill="#33CCCC" d="M85.461,28.588h-8.993c-1.62,0-3.174,0.467-4.516,1.266c-1.595,0.634-2.942,1.739-3.868,3.131l-5.404,8.154
	l-8.199-0.003L42.899,29.555c-0.435-0.438-1.142-0.438-1.576,0c-0.438,0.435-0.44,1.142-0.003,1.579l11.019,11.02
	c-0.237,0.394-0.612,1.193-0.612,1.698c0,1.521,1.229,2.743,2.744,2.743H63.5c1.023,0,2.375-0.415,2.949-1.277
	c0.429-0.637,0.863-1.281,1.285-1.908v3.556v2.753v5.842h3.312h22.731h0.084v-5.842v-2.753V36.939
	C93.863,32.333,90.079,28.588,85.461,28.588"/>
</svg>
