<svg xmlns="http://www.w3.org/2000/svg" xmlns:xlink="http://www.w3.org/1999/xlink" version="1.1" x="0px" y="0px" width="100px" height="100px" viewBox="0 0 100 100" enable-background="new 0 0 100 100" xml:space="preserve">
<g id="Captions" display="none">
	<rect x="-192" display="inline" width="185" height="99"/>
	<rect y="-36" display="inline" width="100" height="30"/>
	<text transform="matrix(1 0 0 1 66 -19.5)" display="inline" fill="#000000" font-family="'Helvetica'" font-size="2.4">http://thenounproject.com</text>
	<text transform="matrix(1 0 0 1 7.166 -24.5)" display="inline"><tspan x="0" y="0" fill="#000000" font-family="'Helvetica-Bold'" font-size="6.1578">The Noun Project</tspan><tspan x="1.12" y="4.8" fill="#000000" font-family="'Helvetica-Bold'" font-size="4">Icon Template</tspan></text>
	
		<text transform="matrix(1 0 0 1 -178.5 10.5)" display="inline" fill="#000000" font-family="'Helvetica-Bold'" font-size="6.1578">Reminders</text>
	<line display="inline" fill="#000000" stroke="#FFFFFF" stroke-miterlimit="10" x1="8" y1="-14.5" x2="18" y2="-14.5"/>
	<line display="inline" fill="#000000" stroke="#FFFFFF" stroke-miterlimit="10" x1="-179" y1="16.5" x2="-162" y2="16.5"/>
	<g display="inline">
		<g>
			<g>
				<rect x="-170.802" y="31.318" fill="#000000" width="8.721" height="8.642"/>
				<path fill="#000000" d="M-164.455,42.312h4.747v-4.703h-4.747V42.312z M-159.266,42.749h-5.63V37.17h5.63V42.749      L-159.266,42.749z M-166.221,44.062h8.279v-8.203h-8.279V44.062L-166.221,44.062z M-157.5,44.5h-9.163v-9.079h9.163V44.5      L-157.5,44.5z"/>
				<polygon fill="#000000" points="-166.149,44.133 -166.292,43.991 -158.013,35.787 -157.871,35.929     "/>
			</g>
		</g>
	</g>
	<rect x="-179" y="58" display="inline" fill="none" width="35" height="32.5"/>
	<text transform="matrix(1 0 0 1 -179 60.1572)" display="inline"><tspan x="0" y="0" fill="#000000" font-family="'Helvetica-Bold'" font-size="3">Strokes</tspan><tspan x="0" y="5" fill="#000000" font-family="'Helvetica'" font-size="2.4">Try to keep strokes at 4px</tspan><tspan x="0" y="10" fill="#000000" font-family="'Helvetica'" font-size="2.4">Minimum stroke weight is 2px</tspan><tspan x="0" y="14.5" fill="#000000" font-family="'Helvetica'" font-size="2.4">For thicker strokes use even </tspan><tspan x="0" y="17.5" fill="#000000" font-family="'Helvetica'" font-size="2.4">numbers: 6px, 8px etc.</tspan><tspan x="0" y="22" fill="#000000" font-family="'Helvetica-Bold'" font-size="2.4">Remember to expand strokes </tspan><tspan x="0" y="25" fill="#000000" font-family="'Helvetica-Bold'" font-size="2.4">before saving as an SVG </tspan></text>
	<rect x="-136.5" y="58" display="inline" fill="none" width="35" height="32.5"/>
	<text transform="matrix(1 0 0 1 -136.5 60.1572)" display="inline"><tspan x="0" y="0" fill="#000000" font-family="'Helvetica-Bold'" font-size="3">Size</tspan><tspan x="0" y="5" fill="#000000" font-family="'Helvetica'" font-size="2.4">Cannot be wider or taller than </tspan><tspan x="0" y="8.5" fill="#000000" font-family="'Helvetica'" font-size="2.4">100px (artboard size)</tspan><tspan x="0" y="13.5" fill="#000000" font-family="'Helvetica'" font-size="2.4">Scale your icon to fill as much of </tspan><tspan x="0" y="16.5" fill="#000000" font-family="'Helvetica'" font-size="2.4">the artboard as possible</tspan></text>
	<rect x="-94" y="58" display="inline" fill="none" width="35" height="32.5"/>
	<text transform="matrix(1 0 0 1 -94 60.1572)" display="inline"><tspan x="0" y="0" fill="#000000" font-family="'Helvetica-Bold'" font-size="3">Ungroup</tspan><tspan x="0" y="5" fill="#000000" font-family="'Helvetica'" font-size="2.4">If your design has more than one </tspan><tspan x="0" y="8" fill="#000000" font-family="'Helvetica'" font-size="2.4">shape, make sure to ungroup</tspan></text>
	<rect x="-50" y="58" display="inline" fill="none" width="35" height="32.5"/>
	<text transform="matrix(1 0 0 1 -50 60.1572)" display="inline"><tspan x="0" y="0" fill="#000000" font-family="'Helvetica-Bold'" font-size="3">Save as</tspan><tspan x="0" y="5" fill="#000000" font-family="'Helvetica'" font-size="2.4">Save as .SVG and make sure </tspan><tspan x="0" y="8" fill="#000000" font-family="'Helvetica'" font-size="2.4">&#8220;Use Artboards&#8221; is checked</tspan></text>
	
		<text transform="matrix(1.0074 0 0 1 -125.542 30.5933)" display="inline" fill="#000000" font-family="'Helvetica'" font-size="2.5731">100px</text>
	
		<text transform="matrix(1.0074 0 0 1 -41 39)" display="inline" fill="#000000" font-family="'Helvetica-Bold'" font-size="5.1462">.SVG</text>
	<rect x="-126.514" y="34.815" display="inline" fill="#000000" width="10.261" height="10.185"/>
	<rect x="-126.477" y="31.766" display="inline" fill="#000000" width="0.522" height="2.337"/>
	<rect x="-116.812" y="31.766" display="inline" fill="#000000" width="0.523" height="2.337"/>
	<rect x="-127" y="32.337" display="inline" fill="#000000" width="11.233" height="0.572"/>
	<g display="inline">
		<rect x="-83.805" y="33.844" fill="#000000" width="10.305" height="10.156"/>
		<rect x="-76.809" y="28.707" fill="#000000" width="3.308" height="3.261"/>
	</g>
	<rect x="-178.5" y="22.5" display="inline" fill="#000000" stroke="#FFFFFF" stroke-miterlimit="10" width="30" height="30"/>
	<rect x="-136.5" y="22.5" display="inline" fill="#000000" stroke="#FFFFFF" stroke-miterlimit="10" width="30" height="30"/>
	<rect x="-93.5" y="22.5" display="inline" fill="#000000" stroke="#FFFFFF" stroke-miterlimit="10" width="30" height="30"/>
	<rect x="-49.5" y="22.5" display="inline" fill="#000000" stroke="#FFFFFF" stroke-miterlimit="10" width="30" height="30"/>
</g>
<g id="Your_Icon">
	<path d="M58.482,16.568c0.32,0,0.577-0.26,0.577-0.576s-0.257-0.574-0.577-0.574c-0.316,0-0.575,0.258-0.575,0.574   S58.166,16.568,58.482,16.568z M76.578,32.369c0.383,0,0.695-0.311,0.695-0.695c0-0.387-0.312-0.697-0.695-0.697   c-0.386,0-0.697,0.311-0.697,0.697C75.881,32.059,76.192,32.369,76.578,32.369z M63.942,42.754c1.151,0,2.079-0.928,2.079-2.076   c0-1.152-0.928-2.08-2.079-2.08c-1.149,0-2.08,0.928-2.08,2.08C61.862,41.826,62.793,42.754,63.942,42.754z M76.164,46.926   c0,0.645,0.523,1.17,1.166,1.17c0.648,0,1.171-0.525,1.171-1.17s-0.522-1.166-1.171-1.166   C76.688,45.76,76.164,46.281,76.164,46.926z M87.589,67.875c0,0.736,0.599,1.332,1.335,1.332c0.735,0,1.33-0.596,1.33-1.332   s-0.595-1.332-1.33-1.332C88.188,66.543,87.589,67.139,87.589,67.875z M87.583,59.746c0.829,0,1.5-0.674,1.5-1.5   s-0.671-1.496-1.5-1.496c-0.827,0-1.497,0.67-1.497,1.496S86.756,59.746,87.583,59.746z M84.362,39.885   c0.331,0,0.601-0.266,0.601-0.598c0-0.33-0.27-0.596-0.601-0.596c-0.33,0-0.597,0.266-0.597,0.596   C83.766,39.619,84.032,39.885,84.362,39.885z M81.25,57.473c0.645,0,1.168-0.527,1.168-1.168c0-0.645-0.523-1.168-1.168-1.168   c-0.646,0-1.167,0.523-1.167,1.168C80.083,56.945,80.604,57.473,81.25,57.473z M23.422,32.965c0.716,0,1.296-0.578,1.296-1.291   c0-0.715-0.58-1.295-1.296-1.295c-0.71,0-1.289,0.58-1.289,1.295C22.133,32.387,22.712,32.965,23.422,32.965z M12.417,60.35   c1.158,0,2.099-0.939,2.099-2.1s-0.94-2.104-2.099-2.104c-1.162,0-2.102,0.943-2.102,2.104S11.255,60.35,12.417,60.35z    M13.139,51.551c0.675,0,1.222-0.549,1.222-1.225c0-0.674-0.547-1.223-1.222-1.223c-0.677,0-1.228,0.549-1.228,1.223   C11.912,51.002,12.462,51.551,13.139,51.551z M50,73.344c-3.313,0-6.059,2.449-6.538,5.629c-0.048,0.326-0.082,0.652-0.082,0.992   c0,3.65,2.97,6.617,6.62,6.617c3.65,0,6.619-2.967,6.619-6.617c0-0.34-0.033-0.666-0.08-0.992   C56.059,75.793,53.312,73.344,50,73.344z M88.984,76.146L75.869,75.57l7.228-1.275c0.762-0.135,1.275-0.855,1.153-1.619   c-0.127-0.764-0.844-1.283-1.606-1.174l-16.562,2.447l18.403-6.375c0.707-0.246,1.101-1,0.896-1.723   c-0.204-0.721-0.941-1.16-1.67-0.994L69.855,67.93l6.977-5.711c0.586-0.48,0.691-1.332,0.241-1.939   c-0.448-0.605-1.292-0.756-1.923-0.334l-12.648,8.451l16.412-16.414c0.545-0.545,0.554-1.424,0.022-1.977   c-0.533-0.557-1.411-0.586-1.977-0.066l-11.899,10.9l8.371-13.797c0.396-0.658,0.197-1.514-0.45-1.924   c-0.649-0.416-1.511-0.234-1.939,0.404L58.146,64.826l5.82-14.059c0.289-0.695-0.02-1.498-0.703-1.818   c-0.682-0.324-1.498-0.055-1.852,0.611l-3.998,7.502l1.108-19.135c0.045-0.756-0.516-1.412-1.269-1.49   c-0.756-0.074-1.436,0.455-1.544,1.205l-3.396,23.354l-0.898-34.008c-0.021-0.771-0.649-1.379-1.416-1.379   c-0.768,0-1.395,0.607-1.417,1.379l-0.897,34.008L44.29,37.643c-0.107-0.75-0.782-1.277-1.543-1.205   c-0.754,0.078-1.313,0.734-1.27,1.49l1.108,19.135l-3.998-7.502c-0.353-0.662-1.17-0.936-1.853-0.611   c-0.683,0.32-0.99,1.123-0.702,1.818l5.82,14.059L28.958,45.523c-0.426-0.639-1.289-0.82-1.939-0.404   c-0.648,0.41-0.848,1.266-0.45,1.924l8.37,13.797l-11.898-10.9c-0.566-0.52-1.444-0.49-1.978,0.066   c-0.53,0.553-0.522,1.432,0.022,1.977l16.413,16.414l-12.649-8.451c-0.63-0.422-1.474-0.271-1.923,0.334   c-0.45,0.607-0.345,1.459,0.241,1.939l6.977,5.711l-13.855-3.072c-0.734-0.166-1.466,0.273-1.67,0.994   c-0.203,0.723,0.19,1.477,0.896,1.723l18.403,6.375l-16.562-2.447c-0.762-0.109-1.48,0.41-1.605,1.174   c-0.123,0.764,0.39,1.484,1.151,1.619l7.229,1.275l-13.116,0.576c-0.769,0.033-1.371,0.676-1.352,1.443   c0.018,0.771,0.646,1.383,1.412,1.383h31.432c0.488-3.701,3.658-6.574,7.493-6.574c3.833,0,7.003,2.873,7.491,6.574h31.433   c0.769,0,1.396-0.611,1.413-1.383C90.355,76.822,89.753,76.18,88.984,76.146z M50,21.631c0.534,0,0.966-0.432,0.966-0.967   S50.535,19.697,50,19.697s-0.967,0.432-0.967,0.967S49.466,21.631,50,21.631z M38.43,31.021c0.573,0,1.04-0.467,1.04-1.041   c0-0.572-0.467-1.037-1.04-1.037s-1.04,0.465-1.04,1.037C37.39,30.555,37.857,31.021,38.43,31.021z M29.998,19.021   c0.375,0,0.68-0.305,0.68-0.68s-0.305-0.678-0.68-0.678s-0.68,0.303-0.68,0.678S29.623,19.021,29.998,19.021z M22.668,47.795   c0.479,0,0.867-0.391,0.867-0.869s-0.388-0.863-0.867-0.863c-0.478,0-0.867,0.385-0.867,0.863S22.191,47.795,22.668,47.795z"/>
</g>
</svg>