<svg xmlns="http://www.w3.org/2000/svg" xmlns:xlink="http://www.w3.org/1999/xlink" version="1.1" id="Layer_2" x="0px" y="0px" width="100px" height="100px" viewBox="0 0 100 100" enable-background="new 0 0 100 100" xml:space="preserve">
<g>
	<path d="M50.03,78.581c-1.666,0-3.326-0.229-4.95-0.707c-4.832-1.424-8.933-4.848-11.25-9.396   c-1.751-3.437-3.285-9.094-0.643-16.527c4.17-11.729,13.94-15.384,21.024-12.87c8.318,2.958,9.399,11.924,6.884,19.003   c-1.916,5.39-6.729,10.21-12.766,8.066c-2.124-0.755-3.629-2.423-4.241-4.695c-0.529-1.969-0.38-4.292,0.42-6.543   c0.624-1.755,1.776-3.213,3.244-4.105c1.534-0.932,3.228-1.144,4.77-0.596c1.29,0.458,2.277,1.488,2.779,2.899   c0.476,1.339,0.454,2.872-0.06,4.319c-0.186,0.52-0.761,0.789-1.277,0.607c-0.521-0.185-0.792-0.757-0.607-1.277   c0.36-1.015,0.382-2.073,0.06-2.979c-0.297-0.833-0.852-1.432-1.564-1.685c-0.964-0.344-2.052-0.193-3.062,0.42   c-1.076,0.654-1.928,1.743-2.398,3.066c-0.656,1.845-0.792,3.796-0.374,5.354c0.308,1.146,1.075,2.653,2.979,3.33   c4.742,1.688,8.618-2.371,10.211-6.852c2.193-6.172,1.354-13.952-5.669-16.449c-6.166-2.192-14.735,1.148-18.469,11.655   c-2.404,6.763-1.033,11.862,0.541,14.949c2.069,4.06,5.726,7.116,10.033,8.386c9.633,2.833,20.773-4.17,24.843-15.617   c5.198-14.625-0.18-29.938-11.988-34.135c-7.168-2.548-15.102-1.511-22.339,2.919c-7.295,4.464-13.068,11.86-16.254,20.826   c-0.185,0.52-0.759,0.791-1.277,0.607c-0.521-0.185-0.792-0.757-0.607-1.277c3.339-9.395,9.411-17.159,17.095-21.862   c7.764-4.751,16.305-5.852,24.053-3.098c12.848,4.566,18.771,21.025,13.203,36.689C68.629,71.541,59.268,78.581,50.03,78.581z"/>
</g>
<g>
	<path d="M49.92,85.733c-2.717,0-5.535-0.433-8.372-1.44C28.316,79.59,21.776,65.146,26.658,51.411   c5.221-14.689,18.247-22.535,30.315-18.246c9.986,3.55,13.172,15.809,10.396,25.131c-1.802,6.054-5.398,10.827-9.866,13.097   c-3.344,1.699-7.056,1.903-10.735,0.597c-7.11-2.527-9.722-9.012-7.165-17.79c1.25-4.291,4.284-7.721,7.919-8.953   c2.683-0.909,5.367-0.521,7.559,1.091c0.445,0.327,0.541,0.953,0.214,1.398c-0.327,0.444-0.952,0.541-1.397,0.213   c-1.652-1.215-3.689-1.5-5.733-0.809c-3.027,1.026-5.572,3.945-6.642,7.618c-2.254,7.74-0.154,13.19,5.915,15.347   c3.196,1.138,6.279,0.97,9.159-0.495c3.981-2.021,7.21-6.354,8.856-11.884c2.515-8.448-0.268-19.519-9.149-22.676   c-10.985-3.907-22.921,3.417-27.76,17.031c-4.506,12.679,1.5,26,13.676,30.327c9.263,3.292,19.168-0.206,24.875-5.134   c0.416-0.36,1.05-0.315,1.41,0.104c0.361,0.418,0.314,1.05-0.104,1.41C64.214,82.402,57.458,85.733,49.92,85.733z"/>
</g>
<g>
	<path d="M48.546,94.086c-3.416,0-7.319-0.509-11.465-1.982c-15.106-5.37-20.375-18.161-22.172-25.308   c-0.135-0.536,0.19-1.079,0.726-1.214c0.532-0.132,1.079,0.19,1.213,0.726c1.699,6.76,6.673,18.854,20.902,23.911   c7.347,2.611,13.883,2.009,18.076,1.042c0.537-0.124,1.075,0.212,1.199,0.75s-0.212,1.075-0.75,1.199   C54.19,93.69,51.558,94.086,48.546,94.086z"/>
</g>
<g>
	<path d="M79.545,27.239c-0.361,0-0.709-0.196-0.888-0.538c-3.819-7.325-9.425-12.471-16.211-14.884   C55.662,9.407,48.066,9.86,40.48,13.13c-0.508,0.217-1.096-0.016-1.314-0.522c-0.218-0.507,0.016-1.096,0.522-1.314   c8.057-3.473,16.157-3.944,23.428-1.36c7.271,2.585,13.258,8.063,17.314,15.844c0.255,0.49,0.065,1.094-0.425,1.349   C79.858,27.203,79.7,27.239,79.545,27.239z"/>
</g>
<g>
	<path d="M79.864,40.773c-0.438,0-0.841-0.291-0.963-0.735C75.77,28.676,69.2,20.696,60.402,17.568   c-8.797-3.127-18.929-1.084-28.529,5.752c-0.449,0.321-1.074,0.215-1.395-0.234s-0.215-1.074,0.234-1.395   c10.147-7.227,20.928-9.36,30.359-6.008c9.431,3.353,16.447,11.813,19.757,23.823c0.146,0.532-0.166,1.083-0.698,1.229   C80.042,40.761,79.952,40.773,79.864,40.773z"/>
</g>
<g>
	<path d="M75.146,13.586c-0.344,0-0.679-0.178-0.865-0.496c-2.404-4.125-5.552-6.901-9.353-8.252   c-3.798-1.351-7.991-1.183-12.461,0.496c-0.513,0.193-1.093-0.067-1.288-0.584c-0.194-0.517,0.067-1.094,0.585-1.288   c4.922-1.851,9.576-2.021,13.834-0.509c4.259,1.514,7.762,4.585,10.411,9.129c0.277,0.478,0.116,1.09-0.36,1.368   C75.49,13.542,75.316,13.586,75.146,13.586z"/>
</g>
<g>
	<path d="M42.319,98.048c-2.321,0-18.335-0.578-24.747-15.273c-0.221-0.506,0.01-1.095,0.517-1.316   c0.508-0.221,1.096,0.011,1.316,0.518c6.243,14.308,22.906,14.094,23.058,14.072c0.553-0.026,1.028,0.379,1.066,0.93   c0.038,0.551-0.378,1.028-0.929,1.066C42.587,98.044,42.49,98.048,42.319,98.048z"/>
</g>
</svg>