<?xml version="1.0" encoding="utf-8"?>
<!-- Generator: Adobe Illustrator 14.0.0, SVG Export Plug-In . SVG Version: 6.00 Build 43363)  -->
<!DOCTYPE svg PUBLIC "-//W3C//DTD SVG 1.0//EN" "http://www.w3.org/TR/2001/REC-SVG-20010904/DTD/svg10.dtd">
<svg version="1.0" id="Layer_1" xmlns="http://www.w3.org/2000/svg" xmlns:xlink="http://www.w3.org/1999/xlink" x="0px" y="0px"
	 width="100px" height="87.369px" viewBox="0 0 100 87.369" enable-background="new 0 0 100 87.369" xml:space="preserve">
<path d="M67.474,24.539c2.459,0,4.453-1.994,4.453-4.453s-1.994-4.453-4.453-4.453l-0.103,0.001
	c-2.419,0.056-4.351,2.033-4.351,4.452C63.021,22.545,65.015,24.539,67.474,24.539z"/>
<path d="M99.995,50.604c-0.004-2.104-1.711-3.81-3.816-3.81V46.8H82.718V12.969h0.002c0-2.107-1.708-3.816-3.816-3.816L48.34,9.155
	v0.009c-1.669,0.059-3.065,1.188-3.521,2.723l-0.001,0L28.841,65.79H24.44L43.577,1.086L39.923,0L16.148,80.386L0.889,76.697
	L0,80.395l18.777,4.541l0.921-3.114h8.722c1.042,3.217,4.063,5.547,7.625,5.547s6.584-2.33,7.625-5.547h23.571
	c1.913,3.313,5.49,5.547,9.589,5.547c4.1,0,7.677-2.233,9.59-5.547h13.576L100,50.604H99.995z M48.438,12.974h0.04v-0.002h30.424
	V46.8l-6.086-0.003c0.666-0.579,1.081-1.222,1.143-1.647V25.884c-0.253-0.841-1.094-1.935-1.515-2.019
	c-1.616,1.999-4.88,2.861-8.581,1.094c0,0-4.136,5.591-7.729,8.65c-0.673,0.336-5.817,1.53-5.817,1.53l0.777,3.942l7.721-1.502
	l4.627-5.132v10.795L52.688,43.24v13.364H35.532L48.438,12.974z M61.7,47.422v3.186v5.996h-4.806v-9.182H61.7z M36.046,83.805
	c-2.458,0-4.452-1.994-4.452-4.451c0-2.458,1.994-4.452,4.452-4.452c2.458,0,4.452,1.994,4.452,4.452
	C40.498,81.811,38.504,83.805,36.046,83.805z M76.831,83.293c-3.862,0-6.992-3.13-6.992-6.991c0-3.862,3.13-7.001,6.992-7.001
	s7.001,3.139,7.001,7.001C83.832,80.164,80.693,83.293,76.831,83.293z M96.184,78.007h-8.417c0.087-0.556,0.132-1.125,0.132-1.705
	c0-6.11-4.958-11.067-11.067-11.067s-11.066,4.957-11.066,11.067c0,0.58,0.045,1.149,0.131,1.705H43.946
	c-0.642-3.783-3.936-6.669-7.9-6.669s-7.259,2.886-7.9,6.669h-7.32l2.485-8.401l8.373,0.009l2.719-9.194h31.113v-9.812l30.667,0.008
	V78.007z"/>
</svg>
