<?xml version="1.0" encoding="utf-8"?>


<!-- The icon can be used freely in both personal and commercial projects with no attribution required, but always appreciated. 
You may NOT sub-license, resell, rent, redistribute or otherwise transfer the icon without express written permission from iconmonstr.com -->


<!DOCTYPE svg PUBLIC "-//W3C//DTD SVG 1.1//EN" "http://www.w3.org/Graphics/SVG/1.1/DTD/svg11.dtd">

<svg version="1.1" xmlns="http://www.w3.org/2000/svg" xmlns:xlink="http://www.w3.org/1999/xlink" x="0px" y="0px"

	 width="512px" height="512px" viewBox="0 0 512 512" enable-background="new 0 0 512 512" xml:space="preserve">

<path id="github-circle-outline-icon" d="M256,90c44.34,0,86.026,17.267,117.38,48.62C404.733,169.974,422,211.66,422,256

	c0,44.34-17.267,86.026-48.62,117.38C342.026,404.732,300.34,422,256,422s-86.026-17.268-117.38-48.62

	C107.267,342.026,90,300.34,90,256c0-44.34,17.267-86.026,48.62-117.38C169.974,107.267,211.66,90,256,90 M256,50

	C142.229,50,50,142.229,50,256s92.229,206,206,206s206-92.229,206-206S369.771,50,256,50L256,50z M315.989,149.689

	c-11.131,4.954-23.081,7.689-35.861,8.175c-8.111-4.905-17.474-8.261-28.215-8.175c-26.369,0-52.566,18.28-53.661,49.706

	c-0.763,21.917,9.673,38.316,27.292,48.386c-8.044,3.797-11.206,12.527-11.206,21.096c0,8.568,5.866,17.619,11.337,21.621

	c-18.798,8.076-29.664,19.646-29.664,37.443c0,56.166,118.264,57.613,118.264-2.374c0-22.017-14.766-37.972-51.154-44.035

	c-14.417-2.082-22.018-24.522-0.791-28.61c30.456-5.142,50.891-34.675,40.212-67.108c4.544-0.714,9.03-1.821,13.448-3.428V149.689z

	 M255.209,308.56c16.614-0.271,26.59,4.585,26.764,16.48c0.172,11.729-9.088,17.032-25.05,17.008

	c-17.711-0.024-27.759-5.062-28.083-17.139C228.546,313.912,237.426,308.852,255.209,308.56z M252.704,224.576

	c-14.005,0.214-20.419-7.709-20.436-23.072c-0.016-13.987,6.236-22.712,20.171-22.809c12.47-0.086,19.99,8.287,20.173,23.6

	C272.798,217.816,264.901,224.389,252.704,224.576z"/>

</svg>

