<svg xmlns="http://www.w3.org/2000/svg" xmlns:xlink="http://www.w3.org/1999/xlink" version="1.1" id="Calque_1" x="0px" y="0px" width="100px" height="100px" viewBox="0 0 100 100" enable-background="new 0 0 100 100" xml:space="preserve">
<g>
	<path d="M81.236,89.717c-0.01-0.113-0.027-0.215-0.062-0.324c-0.029-0.09-0.066-0.178-0.113-0.26   c-0.025-0.049-0.029-0.102-0.059-0.15l-7.689-11.205c9.932-7.391,16.365-19.215,16.369-32.544c0-22.392-18.15-40.54-40.54-40.544   C26.752,4.693,8.601,22.841,8.597,45.233c0.004,13.33,6.439,25.154,16.372,32.544l-7.686,11.205   c-0.024,0.045-0.031,0.088-0.055,0.129c-0.054,0.096-0.097,0.191-0.127,0.299c-0.032,0.096-0.048,0.191-0.059,0.289   c-0.005,0.055-0.033,0.098-0.033,0.152c0,0.047,0.024,0.088,0.028,0.137c0.011,0.104,0.031,0.199,0.063,0.299   c0.027,0.094,0.059,0.182,0.104,0.27c0.043,0.082,0.1,0.156,0.158,0.23c0.069,0.084,0.134,0.16,0.217,0.229   c0.035,0.027,0.054,0.072,0.095,0.096c0.056,0.039,0.118,0.055,0.181,0.088c0.051,0.027,0.102,0.055,0.157,0.076   c0.165,0.062,0.336,0.104,0.511,0.104c0.007,0,0.013,0.004,0.019,0.004h61.195c0.055,0,0.1-0.025,0.152-0.033   c0.102-0.008,0.188-0.027,0.285-0.055c0.104-0.031,0.199-0.072,0.289-0.125c0.045-0.025,0.098-0.027,0.139-0.059   c0.041-0.029,0.064-0.07,0.1-0.102c0.078-0.062,0.143-0.129,0.199-0.211c0.066-0.082,0.129-0.164,0.178-0.254   c0.039-0.078,0.068-0.158,0.094-0.242c0.035-0.111,0.057-0.217,0.064-0.328c0.004-0.045,0.027-0.078,0.027-0.123   C81.266,89.803,81.242,89.76,81.236,89.717z M70.705,73.971l-2.031-2.953c2.906-1.201,5.908-2.941,8.834-5.578   c0.195-0.248,0.883-0.459,1.715-0.566C76.928,68.379,74.047,71.463,70.705,73.971z M48.253,49.228   c0.285,0.064,0.581,0.104,0.889,0.104c0.304,0,0.601-0.039,0.887-0.101l2.309,3.367c-0.982,0.424-2.061,0.67-3.196,0.67   c-1.141,0-2.218-0.246-3.199-0.67L48.253,49.228z M52.555,47.502c0.43-0.649,0.686-1.428,0.686-2.27   c0-2.266-1.834-4.103-4.098-4.103c-2.266,0-4.106,1.837-4.106,4.103c0,0.842,0.257,1.617,0.69,2.27l-2.307,3.364   c-1.431-1.451-2.313-3.438-2.314-5.634c0.003-4.442,3.593-8.032,8.037-8.039c4.438,0.007,8.026,3.597,8.034,8.039   c-0.004,2.196-0.891,4.183-2.318,5.634L52.555,47.502z M49.142,56.328c1.779,0,3.456-0.43,4.946-1.172l1.273,1.855   c-3.42,0.893-7.541,2.07-11.009,3.756l0,0c-1.934,0.957-5.009,2.352-5.933,5.17c-0.04,0.035-0.074,0.066-0.123,0.107   c-0.403,0.326-1.024,0.748-1.902,1.088c-0.11,0.037-0.203,0.078-0.316,0.15c-0.079,0.088-0.354,0.139-0.422,0.725   c0.235,0.969,0.699,0.738,0.777,0.83c0.16,0.025,0.306,0.029,0.472,0.029c0.396,0,0.89-0.045,1.372-0.121   c0.125,0.633,0.342,1.289,0.676,1.986c2.611,5.488,5.976,4.965,6.77,6.018c0.138,0.15,0.182,0.268,0.188,0.502   c0.016,0.445-0.336,1.209-0.741,1.795c-0.397,0.592-0.8,1.01-0.8,1.012c-0.201,0.209-0.259,0.506-0.176,0.77   c-5.122-0.713-9.895-2.498-14.091-5.129l14.087-20.543C45.683,55.898,47.359,56.328,49.142,56.328z M48.801,79.104   c1.594-1.215,3.339-2.613,3.673-4.43c3.02-0.889,7.83-0.965,13.215-2.604l2.486,3.629c-5.518,3.461-12.039,5.467-19.034,5.484   c-1.134-0.004-2.248-0.066-3.354-0.166C46.428,80.66,47.598,79.975,48.801,79.104z M13.191,45.233   c0.03-19.854,16.094-35.915,35.951-35.951c19.854,0.036,35.913,16.097,35.95,35.951c-0.014,6.226-1.602,12.083-4.389,17.185   c-0.305,0.062-0.619,0.141-0.961,0.258c-0.225-0.121-0.914-0.852-1.363-1.764c-0.539-0.998-0.936-2.238-0.93-3.086   c0-0.371,0.076-0.646,0.168-0.801c0.438-0.764,1.898-2.316,3.227-3.916c1.312-1.641,2.605-3.292,2.658-5.004   c0-0.35-0.07-0.705-0.229-1.033c-0.098-0.206-0.279-0.356-0.494-0.413c-0.043-0.011-2.396-0.657-5.465-0.657   c-2.111,0-4.566,0.299-6.846,1.366c-0.365,0.021-1.277,0.073-2.211,0.216c-0.605,0.1-1.217,0.223-1.748,0.437   c-0.475,0.208-1.137,0.5-1.205,1.396c0.012,0.359,0.145,0.638,0.336,0.875c-0.221,0.441-0.584,1.127-1.045,1.866   c-0.773,1.246-1.873,2.602-2.77,3.012c-0.598,0.299-1.783,0.635-3.311,1.027l-1.906-2.777c2.223-2.025,3.627-4.938,3.627-8.185   c0-6.131-4.969-11.099-11.094-11.102c-6.133,0.003-11.098,4.971-11.098,11.102c0,3.247,1.399,6.16,3.622,8.185L27.575,73.971   C18.854,67.418,13.209,56.988,13.191,45.233z M49.142,85.777c7.961-0.006,15.381-2.309,21.643-6.271l6.043,8.814H21.449   l6.048-8.818C33.758,83.469,41.177,85.771,49.142,85.777z"/>
</g>
</svg>