<?xml version="1.0" encoding="utf-8"?>

<!-- The icon can be used freely in both personal and commercial projects with no attribution required, but always appreciated. 
You may NOT sub-license, resell, rent, redistribute or otherwise transfer the icon without express written permission from iconmonstr.com -->

<!DOCTYPE svg PUBLIC "-//W3C//DTD SVG 1.1//EN" "http://www.w3.org/Graphics/SVG/1.1/DTD/svg11.dtd">
<svg version="1.1" xmlns="http://www.w3.org/2000/svg" xmlns:xlink="http://www.w3.org/1999/xlink" x="0px" y="0px"
	 width="512px" height="512px" viewBox="0 0 512 512" enable-background="new 0 0 512 512" xml:space="preserve">
<path id="video-hd-3-icon" d="M417,144.167c13.785,0,25,11.215,25,25v173.666c0,13.785-11.215,25-25,25H95
	c-13.785,0-25-11.215-25-25V169.167c0-13.785,11.215-25,25-25H417 M417,124.167H95c-24.853,0-45,20.147-45,45v173.666
	c0,24.853,20.147,45,45,45h322c24.853,0,45-20.147,45-45V169.167C462,144.314,441.853,124.167,417,124.167L417,124.167z
	 M238.648,320.55l27.034-128.101h-39.915l-9.073,42.641h-43.002l9.071-42.641h-40.278l-27.4,128.101h40.463l11.067-51.53h42.822
	l-10.707,51.53H238.648z M346.879,192.449h-56.064L264.141,320.55h47.538c26.777,0,57.016,0.536,78.201-28.668
	C412.171,261.566,413.985,192.449,346.879,192.449z M338.713,284.986c-4.898,1.089-27.579,0.906-27.579,0.906l12.521-60.42h14.695
	C379.198,226.342,366.436,278.828,338.713,284.986z"/>
</svg>
