<svg xmlns="http://www.w3.org/2000/svg" xmlns:xlink="http://www.w3.org/1999/xlink" version="1.1" id="Layer_1" x="0px" y="0px" width="79.898px" height="100px" viewBox="0 0 79.898 100" enable-background="new 0 0 79.898 100" xml:space="preserve">
<g>
	<path d="M51.32,83.16v0.859c0,0.711-0.58,1.29-1.29,1.29h-17.26c-0.71,0-1.29-0.579-1.29-1.29V83.16c0-0.72,0.58-1.3,1.29-1.3   h17.26C50.74,81.86,51.32,82.44,51.32,83.16z"/>
	<path d="M51.32,77.98v0.859c0,0.72-0.58,1.3-1.29,1.3h-17.26c-0.71,0-1.29-0.58-1.29-1.3V77.98c0-0.711,0.58-1.29,1.29-1.29h17.26   C50.74,76.69,51.32,77.27,51.32,77.98z"/>
	<path d="M34.929,92.22h12.94c0,2.58-3.45,4.311-6.47,4.311C38.38,96.53,34.929,94.8,34.929,92.22z"/>
	<path d="M41.4,4.65c-17.2,0-31.18,13.99-31.18,31.2c0,10.72,5.39,20.54,14.44,26.32c0.85,0.54,1.48,2.08,2.17,3.71   c0.79,1.9,1.68,4.061,3.32,5.95c2.68,3.06,6.86,3.06,11.25,3.06c5.17,0,8.76-0.22,11.26-3.09c1.7-1.91,2.63-4.09,3.47-6.02   c0.721-1.66,1.391-3.23,2.29-3.8c8.87-5.771,14.16-15.521,14.16-26.13C72.579,18.64,58.6,4.65,41.4,4.65z M41.249,70.01   c-0.58-5.72-1.61-13.21-3.18-18.97c1.34-0.79,2.6-1.66,3.649-2.63c0.79,0.74,1.631,1.46,2.49,2.13c0.36,0.26,0.73,0.5,1.09,0.729   c-0.609,3.091-1.21,7.07-1.899,12.15c-0.33,2.32-0.65,4.57-0.96,6.58c-0.33,0.01-0.681,0.01-1.04,0.01H41.249z M40.309,39.38   c0.06-0.13,0.5-0.37,1.52-0.37h0.061c0.489,0,1.079,0.07,1.159,0.42c0.181,0.65-0.189,1.97-1.27,3.5   C40.61,41.24,40.13,39.9,40.309,39.38z M55.759,57.89c-2.13,1.36-3.149,3.7-4.119,5.95c-0.71,1.67-1.471,3.38-2.641,4.73   c-0.59,0.66-1.45,1.029-2.819,1.22c0.279-1.82,0.539-3.82,0.829-5.86c0.471-3.3,1.091-7.79,1.801-11.47   c1.479,0.16,2.81-0.14,3.79-0.64c1.699-0.851,2.729-2.43,2.689-4.09c-0.02-1.19-0.57-3.38-4.04-4.97c-0.78-0.36-1.63-0.31-2.38,0.1   c-1.12,0.61-1.93,2.04-2.66,4.58c-0.72-0.56-1.38-1.12-1.939-1.69c1.989-2.52,2.91-5.19,2.31-7.31c-0.55-1.97-2.38-3.05-4.81-3.09   c-3.46,0.04-4.57,1.81-4.92,2.87c-0.73,2.17,0.42,4.9,2.43,7.47c-0.68,0.6-1.47,1.21-2.37,1.79c-0.97-2.52-2.08-4.35-3.41-4.97   c-1.04-0.49-2.14-0.42-3.11,0.24c-3.22,2.08-3.4,5.11-2.19,7.03c1.15,1.84,3.58,2.96,6.39,2.541c1.06,4.05,2.14,9.93,2.97,17.58   c-1.99-0.15-3.03-0.5-3.71-1.28c-1.14-1.29-1.83-2.99-2.51-4.62c-0.95-2.26-1.93-4.58-4.06-5.96   c-7.63-4.86-12.18-13.16-12.18-22.19c0-14.51,11.81-26.31,26.3-26.31s26.29,11.8,26.29,26.31C67.69,44.81,63.23,53.03,55.759,57.89   z M49.589,48.84c0.271-1.03,0.53-1.87,0.82-2.38c0.92,0.55,1.22,1.09,1.22,1.33c0,0.25-0.26,0.55-0.67,0.75   c-0.359,0.18-0.8,0.3-1.35,0.3C49.61,48.84,49.61,48.84,49.589,48.84z M33.499,48.77c-1.11,0.02-1.88-0.42-2.19-0.92   c-0.45-0.73,0.28-1.45,0.8-1.87C32.519,46.4,32.999,47.32,33.499,48.77z"/>
	<path d="M51.32,88.33v0.87c0,0.71-0.58,1.29-1.29,1.29h-17.26c-0.71,0-1.29-0.58-1.29-1.29v-0.87c0-0.71,0.58-1.29,1.29-1.29h17.26   C50.74,87.04,51.32,87.62,51.32,88.33z"/>
</g>
</svg>