<?xml version="1.0" encoding="utf-8"?>
<!-- Generator: Adobe Illustrator 16.0.0, SVG Export Plug-In . SVG Version: 6.00 Build 0)  -->
<!DOCTYPE svg PUBLIC "-//W3C//DTD SVG 1.1//EN" "http://www.w3.org/Graphics/SVG/1.1/DTD/svg11.dtd">
<svg version="1.1" id="Layer_1" xmlns="http://www.w3.org/2000/svg" xmlns:xlink="http://www.w3.org/1999/xlink" x="0px" y="0px"
	 width="603.383px" height="620px" viewBox="0 0 603.383 620" enable-background="new 0 0 603.383 620" xml:space="preserve">
<g>
	<path fill="#A97138" d="M560.803,240.423c-14.838,10.272-35.039,8.59-48.119-5.05c-3.701-3.86-6.481-8.315-8.347-13.07
		c-12.273,2.772-25.601-0.805-35.14-10.753c-12.509-13.044-14.525-32.88-6.062-48.122c-1.854-1.342-3.626-2.863-5.278-4.586
		c-14.922-15.561-14.922-40.79,0-56.351c0.292-0.304,0.593-0.591,0.892-0.883c-1.226-11.605,2.419-23.662,10.951-32.56
		c3.42-3.566,7.329-6.305,11.499-8.236C363.091-29.253,195.478-19.267,88.363,90.797c-117.818,121.062-117.818,317.344,0,438.406
		s308.839,121.062,426.656,0c76.717-78.829,103.461-189.547,80.271-290.628C584.699,244.901,571.835,245.532,560.803,240.423z"/>
</g>
<path fill="#703D00" d="M226.442,208.886c29.222,29.876,29.222,78.316,0,108.192c-29.221,29.877-76.598,29.877-105.819,0
	c-29.221-29.876-29.221-78.316,0-108.192S197.221,179.009,226.442,208.886"/>
<path fill="#703D00" d="M514.455,398.465c12.435,12.76,12.435,33.447,0,46.207s-32.595,12.76-45.029,0s-12.435-33.447,0-46.207
	S502.021,385.705,514.455,398.465"/>
<path fill="#703D00" d="M344.373,79.665c22.693,23.341,22.693,61.185,0,84.526c-22.693,23.341-59.486,23.341-82.18,0
	c-22.693-23.341-22.693-61.185,0-84.526C284.887,56.324,321.68,56.324,344.373,79.665"/>
<path fill="#703D00" d="M121.728,380.426c9.637,9.959,9.637,26.105,0,36.064s-25.261,9.959-34.898,0s-9.637-26.105,0-36.064
	S112.091,370.467,121.728,380.426"/>
<path fill="#703D00" d="M326.595,473.375c12.435,12.76,12.435,33.447,0,46.207s-32.595,12.76-45.03,0
	c-12.435-12.76-12.435-33.447,0-46.207C294,460.615,314.16,460.615,326.595,473.375"/>
<path fill="#703D00" d="M361.346,312.904c14.922,15.561,14.922,40.79,0,56.351c-14.921,15.561-39.113,15.561-54.035,0
	s-14.922-40.79,0-56.351S346.425,297.344,361.346,312.904"/>
<g>
</g>
<g>
</g>
<g>
</g>
<g>
</g>
<g>
</g>
<g>
</g>
<g>
</g>
<g>
</g>
<g>
</g>
<g>
</g>
<g>
</g>
<g>
</g>
<g>
</g>
<g>
</g>
<g>
</g>
</svg>
