<?xml version="1.0" encoding="utf-8"?>
<!-- Generator: Adobe Illustrator 16.0.0, SVG Export Plug-In . SVG Version: 6.00 Build 0)  -->
<!DOCTYPE svg PUBLIC "-//W3C//DTD SVG 1.1//EN" "http://www.w3.org/Graphics/SVG/1.1/DTD/svg11.dtd">
<svg version="1.1" id="Layer_1" xmlns="http://www.w3.org/2000/svg" xmlns:xlink="http://www.w3.org/1999/xlink" x="0px" y="0px"
	 width="138.33px" height="106.191px" viewBox="0 0 138.33 106.191" enable-background="new 0 0 138.33 106.191"
	 xml:space="preserve">
<g>
	<path fill="#808080" d="M44.233,21.702c27.997,0,44.232,21.04,44.232,42.245s-16.235,42.244-44.232,42.244
		C16.235,106.191,0,85.152,0,63.947S16.235,21.702,44.233,21.702z M44.233,89.957c15.075,0,26.009-11.597,26.009-26.01
		S59.308,37.938,44.233,37.938c-15.076,0-26.01,11.596-26.01,26.009S29.157,89.957,44.233,89.957z"/>
	<path fill="#808080" d="M121.928,0v71.733c0,9.277,1.988,12.591,7.124,15.572l9.277,5.302l-7.621,13.584
		C112.983,97.743,104.7,91.613,104.7,74.88V0H121.928z"/>
</g>
<g>
</g>
<g>
</g>
<g>
</g>
<g>
</g>
<g>
</g>
<g>
</g>
<g>
</g>
<g>
</g>
<g>
</g>
<g>
</g>
<g>
</g>
<g>
</g>
<g>
</g>
<g>
</g>
<g>
</g>
</svg>
