<svg xmlns="http://www.w3.org/2000/svg" xmlns:xlink="http://www.w3.org/1999/xlink" version="1.1" id="Layer_1" x="0px" y="0px" width="100px" height="100px" viewBox="0 0 100 100" enable-background="new 0 0 100 100" xml:space="preserve">
<path d="M18.256,45.459C11.533,28.33,19.962,9,37.076,2.283c13.436-5.273,29.645-0.519,37.406,9.133L18.567,46.187  C18.465,45.942,18.354,45.706,18.256,45.459z"/>
<path d="M83.321,34.248c0.174,0.558,0.335,1.117,0.465,1.68c0.654,2.779,1.373,10.037,1.373,10.037l6.96,17.524  c0.134,0.316,0.201,0.669,0.201,1.043c0,1.479-1.211,2.685-2.694,2.685h-4.465v9.311c0,7.258-5.88,13.138-13.132,13.138h-5.219  v10.196H31.273V71.59c-7.558-5.944-12.465-15.101-12.706-25.403L83.321,34.248z"/>
<path d="M89.561,18.35c-0.131-0.01-3.216-0.228-7.711,0.625c-4.501,0.855-8.788,2.514-12.581,4.825l-4.095-4.624L59.93,34.889  l16.227-3.313l-3.579-4.041c3.805-2.174,7.512-3.244,10.186-3.751c3.78-0.719,6.405-0.549,6.43-0.547l1.942,0.133l0.157-1.939  l0.225-2.934L89.561,18.35z"/>
</svg>