<svg xmlns="http://www.w3.org/2000/svg" xmlns:xlink="http://www.w3.org/1999/xlink" version="1.1" id="Layer_1" x="0px" y="0px" width="77.2727272727px" height="100px" viewBox="0 0 612 792" enable-background="new 0 0 612 792" xml:space="preserve">
<path fill="#000000" d="M179.221,269.221c-70.294,70.294-70.293,184.264,0,254.558s184.265,70.294,254.559,0  c70.293-70.293,70.293-184.265,0-254.558C363.485,198.927,249.514,198.928,179.221,269.221z M408.323,498.324  c-56.235,56.229-147.411,56.231-203.646,0c-56.236-56.235-56.235-147.413,0-203.647c56.236-56.236,147.411-56.235,203.647-0.001  C464.559,350.913,464.559,442.088,408.323,498.324z"/>
<path fill="#000000" d="M387.5,378.5h-63v-63c0-9.941-8.059-18-18-18c-9.941,0-18,8.059-18,18v63h-63c-9.941,0-18,8.059-18,18  c0,9.941,8.059,18,18,18h63v63c0,9.941,8.059,18,18,18c9.941,0,18-8.059,18-18v-63h63c9.941,0,18-8.059,18-18  C405.5,386.559,397.441,378.5,387.5,378.5z"/>
</svg>