<svg xmlns="http://www.w3.org/2000/svg" xmlns:xlink="http://www.w3.org/1999/xlink" version="1.1" id="Ebene_1" x="0px" y="0px" width="100px" height="100px" viewBox="0 0 100 100" enable-background="new 0 0 100 100" xml:space="preserve">
<path d="M49.146,59.086c-16.222,0-29.679-3.748-32.259-8.669c2.582,19.222,16.057,42.312,32.301,42.312  c16.311,0,29.834-23.284,32.335-42.55C79.261,55.215,65.631,59.086,49.146,59.086z"/>
<path d="M94.292,24.115c-3.878,2.109-12.143-3.993-16.809-4.909c0.45-0.17,0.88-0.323,1.262-0.437  c3.942-1.174,15.113,3.916,18.836,4.959c3.725,1.043-1.971-15.921-5.584-12.137c-3.613,3.784-15.112-0.522-18.836,1.566  c-1.053,0.59-2.031,1.762-2.899,3.128c-5.696-5.309-13.046-8.513-21.073-8.513c-18.09,0-32.755,16.243-32.755,36.28  c0,1.184,0.055,2.402,0.155,3.639c1.594-5.265,15.56-6.903,32.557-6.903c17.284,0,31.427,1.777,32.623,7.17  c0.114-1.33,0.175-2.636,0.175-3.906c0-6.396-1.5-12.403-4.123-17.621c0.755-0.031,1.456-0.039,2.046-0.005  c4.059,0.232,13.521,8.948,16.832,11.229C100.01,39.937,98.669,21.736,94.292,24.115z"/>
<path d="M46.989,52.163l-19.125-7.011l-1.437,3.921l7.658,1.151c-0.528,0.48-0.866,1.169-0.866,1.939  c0,1.453,1.178,2.631,2.631,2.631c1.454,0,2.632-1.178,2.632-2.631c0-0.489-0.143-0.942-0.375-1.336L46.989,52.163z"/>
<path d="M64.293,50.224l7.658-1.151l-1.438-3.922l-19.124,7.012l8.882-1.334c-0.233,0.393-0.375,0.846-0.375,1.334  c0,1.453,1.179,2.632,2.632,2.632s2.633-1.179,2.633-2.632C65.158,51.393,64.822,50.704,64.293,50.224z"/>
</svg>