<?xml version="1.0" encoding="utf-8"?>
<!-- Generator: Adobe Illustrator 16.0.0, SVG Export Plug-In . SVG Version: 6.00 Build 0)  -->
<!DOCTYPE svg PUBLIC "-//W3C//DTD SVG 1.1//EN" "http://www.w3.org/Graphics/SVG/1.1/DTD/svg11.dtd">
<svg version="1.1" id="Layer_1" xmlns="http://www.w3.org/2000/svg" xmlns:xlink="http://www.w3.org/1999/xlink" x="0px" y="0px"
	 width="614px" height="644.404px" viewBox="0 0 614 644.404" enable-background="new 0 0 614 644.404" xml:space="preserve">
<g>
	<path fill="#7B219E" d="M588.967,269.186c-22.631-38.939-57.966-66.435-99.497-77.422c-14.134-3.739-29.621-4.709-46.358-2.925
		c6.972-27.286,8.32-55.749,2.797-83.029c-17.523-86.553-97.529-128.411-178.697-93.492
		c-67.62,29.09-114.704,102.288-118.41,175.957c-26.331-5.418-64.801-6.489-96.927,20.01C13.633,239.829-6.088,295.171,1.63,349.275
		c7.267,50.933,37.81,91.493,83.799,111.279c3.008,1.295,7.815,3.212,13.768,5.079c8.667,15.378,16.397,38.949,10.875,57.388
		c-0.884,2.953-2.946,8.189-6.813,10.081c-3.711,1.812-7.323,1.966-11.04,0.466c-4.753-1.919-7.965-5.789-8.811-7.484
		c0.044-2.232,1.472-6.55,3.138-7.654c0.26-0.171,2.081-0.114,5.35,1.598l0.146-0.277c5.146,1.593,10.978,0.359,15.052-3.715
		c5.858-5.858,5.858-15.354,0-21.213c-0.436-0.436-0.896-0.828-1.369-1.199l0.09-0.172c-0.344-0.181-0.683-0.345-1.023-0.514
		c-1.464-0.976-3.063-1.652-4.716-2.058c-14.896-5.573-25.526-0.697-30.834,3.044c-12.224,8.612-17.13,25.327-15.54,36.681
		c1.5,10.709,10.673,22.243,22.827,28.701c4.444,2.361,9.054,3.917,13.717,4.701c-5.514,13.159-4.62,25.108-3.273,31.957
		c5.115,26.011,28.015,47.248,52.134,48.35c1.268,0.058,2.521,0.087,3.764,0.087c22.429,0,40.782-9.347,49.543-25.418
		c7.754-14.227,6.602-31.457-3.008-44.968c-7.889-11.092-17.273-14.554-23.756-15.505c-16.272-2.385-29.67,8.04-34.714,11.966
		c-0.284,0.221-0.521,0.408-0.708,0.547l0.091-0.065l17.206,24.576c0.439-0.308,1.062-0.779,1.836-1.382
		c6.889-5.36,10.291-6.2,11.936-5.959c1.39,0.204,3.025,2.313,3.664,3.211c2.994,4.209,3.4,9.027,1.114,13.221
		c-3.627,6.652-13.199,10.28-25.599,9.721c-9.199-0.42-21.445-10.846-24.065-24.169c-2.919-14.846,7.755-28.714,30.056-39.049
		c27.001-12.514,54.15-29.526,78.194-48.75c11.446,12.534,23.57,19.734,32.708,25.154c1.359,0.806,2.659,1.577,3.889,2.327
		c24.572,15.008,29.764,25.271,29.846,27.312c-0.621,3.021-2.799,4.549-4.049,5.193c-2.011,1.035-4.277,1.227-6.16,0.54
		c0.284-1.574,1.37-4.793,4.673-9.042l-23.686-18.412c-9.146,11.766-12.87,24.696-10.216,35.476
		c2.084,8.465,7.894,15.248,16.356,19.101c4.854,2.21,10.042,3.311,15.255,3.311c5.961-0.001,11.955-1.439,17.514-4.303
		c10.363-5.337,17.571-14.89,19.775-26.208c1.271-6.521,0.354-13.138-2.729-19.825c0.042,0.007,0.084,0.016,0.126,0.022
		c2.604,0.412,5.225,0.609,7.841,0.609c21.921-0.001,43.333-13.905,48.177-32.558c5.667-21.822-5.44-34.869-16.674-39.41
		c-14.827-5.996-32.17,0.383-40.337,14.837l0.344,0.194c-4.214,5.861-3.701,14.069,1.569,19.34c5.857,5.858,15.355,5.858,21.213,0
		c1.592-1.592,2.735-3.455,3.462-5.438c0.637-0.74,1.372-1.021,1.893-1.105c0.057,0.722,0.019,2.02-0.507,4.041
		c-1.258,4.843-12.203,11.443-22.297,9.857c-3.115-0.492-11.39-1.8-10.348-19.305c0.834-14.016,15.144-25.788,33.26-40.693
		c29.348-24.145,69.539-57.212,67.051-123.276c-0.794-21.089-6.833-38.122-17.996-50.854c2.508-2.773,4.943-5.617,7.303-8.529
		c0.276,0.283,0.554,0.559,0.828,0.848c23.938,25.177,31.146,60.543,21.422,105.117c-8.942,40.99-18.662,72.994-26.472,98.71
		c-7.667,25.244-13.723,45.184-15.363,61.958c-1.979,20.228,2.604,35.787,14.419,48.965c9.786,10.914,21.979,16.614,34.836,16.614
		c5.007,0,10.115-0.864,15.221-2.622c19.006-6.545,34.211-24.371,35.37-41.464c0.804-11.854-4.948-25.488-14.312-33.926
		c-8.814-7.941-20.298-11.167-32.331-9.077l5.127,29.559c3.01-0.521,5.138,0.02,7.123,1.807c3.209,2.892,4.59,7.719,4.462,9.608
		c-0.235,3.478-6.341,12.074-15.207,15.128c-6.714,2.311-12.419,0.517-17.952-5.654c-12.541-13.987-7.913-32.039,7.313-82.178
		c7.966-26.228,17.879-58.869,27.077-101.033c8.041-36.856,9.757-88.531-25.994-128.911c27.614,17.395,40.787,51.181,47,77.116
		c10.69,44.627,7.321,88.479,5.376,105.262c-6.585,56.825,3.414,87.486,32.423,99.416c6.399,2.632,13.091,3.873,19.616,3.873
		c17.267-0.001,33.369-8.69,39.814-23.295c5.838-13.228,0.938-30.73-11.396-40.714c-4.817-3.897-22.314-15.339-45.15,1.156
		l0.249,0.345c-0.177,0.161-0.361,0.311-0.532,0.481c-5.858,5.858-5.858,15.354,0,21.213c5.656,5.657,14.696,5.835,20.586,0.566
		c1.91-1.001,4.062-1.674,5.53-0.761c2.087,1.301,3.255,4.487,3.15,5.842c-2.081,3.981-11.802,7.107-20.458,3.547
		c-5.727-2.354-20.939-8.611-14.032-68.217c0.616-5.319,1.095-10.704,1.462-16.12c7.661,11.734,20.22,20.089,30.251,22.589
		c5.623,1.401,12.01,2.636,18.665,2.636c7.963-0.001,16.31-1.767,24.195-7.124c15.041-10.221,24.11-30.407,28.54-63.527
		C617.49,343.169,608.815,303.338,588.967,269.186z M290.872,350.076c-5.252,43.312-33.605,80.085-56.466,103.307
		c-1.068,1.085-2.175,2.16-3.271,3.238c-3.755-9.435-6.69-20.916-8.351-35.079c-3.351-28.594,4.463-62.31,13.279-89.217
		c17.093,5.468,35.746,7.13,55.068,4.538C291.455,341.183,291.414,345.607,290.872,350.076z M31.329,345.038
		c-6.178-43.303,9.75-88.959,39.635-113.61c25.618-21.131,58.983-17.22,78.926-12.021c0.532,4.308,1.221,8.596,2.083,12.854
		c2.785,13.754,7.153,26.375,12.847,37.743c-13.074,6.575-26.651,15.778-39.69,28.62c-24.399,24.031-39.225,53.745-42.873,85.931
		c-1.604,14.155-0.993,28.273,1.704,41.707C45.354,403.586,34.385,366.459,31.329,345.038z M141.155,520.398
		c1.927-15.043-0.349-32.172-6.39-48.954c11.671-0.134,23.553-2.71,33.64-9.838c14.135-9.987,19.074-28.165,11.744-43.223
		c-6.096-12.523-22.334-24.346-48.288-17.495c-0.327,0.081-0.651,0.169-0.973,0.271c-0.427,0.119-0.848,0.229-1.28,0.358
		l0.031,0.103c-1.729,0.731-3.351,1.792-4.76,3.201c-5.858,5.858-5.858,15.354,0,21.213c3.62,3.62,8.628,4.996,13.309,4.143
		l0.024,0.081c8.608-2.578,13.79-1.155,14.963,1.255c0.743,1.526,0.388,3.847-2.082,5.592c-5.522,3.902-16.767,5.668-31.478,2.882
		c-6.852-15.522-9.599-33.977-7.55-52.053c2.866-25.285,14.663-48.777,34.115-67.936c11.632-11.457,23.726-19.317,35.155-24.696
		c7.992,9.564,17.192,17.672,27.34,24.163c-10.249,30.48-19.807,70.408-15.687,105.568c2.382,20.328,7.23,37.686,14.678,52.509
		C187.248,494.094,164.281,508.946,141.155,520.398z M326.495,430.226c-21.875,17.997-42.536,34.995-44.147,62.079
		c-0.35,5.887-0.019,11.187,0.852,15.953c-2.024-1.332-4.123-2.666-6.309-4.001c-1.335-0.815-2.747-1.653-4.222-2.528
		c-7.872-4.669-16.99-10.081-25.342-19.021c2.896-2.736,5.72-5.497,8.459-8.279c37.475-38.067,59.905-79.819,64.868-120.741
		c1.005-8.282,0.843-16.33-0.084-23.991c3.362-1.188,6.73-2.493,10.101-3.943c15.158-6.521,29.284-15.261,42.122-25.723
		c6.087,7.536,9.33,17.84,9.834,31.215C384.555,382.457,355.039,406.741,326.495,430.226z M534.641,404.376
		c-0.94-2.651-0.408-4.122,0.829-5.769c1.823-2.426,3.173-3.157,3.423-3.22c0.226,0.028,1.412,0.519,2.684,2.253
		c1.4,1.911,2.13,4.357,1.815,6.088l0.81,0.147c-1.285,4.041-0.81,8.508,1.414,12.229
		C541.485,413.835,536.337,409.154,534.641,404.376z M583.034,374.489c-2.474,18.494-6.173,29.189-9.618,35.381
		c0.118-1.224,0.068-2.458-0.114-3.676c1.45-15.593-7.838-31.958-22.114-38.201c-14.034-6.137-29.246-1.314-39.697,12.589
		c-0.011,0.015-0.021,0.029-0.031,0.044c-1.022-19.738-3.648-38.961-7.806-56.317c-11.415-47.649-34.347-81.919-66.317-99.105
		c-1.979-1.063-3.909-2.041-5.815-2.971c0.185-0.417,0.369-0.834,0.551-1.252c18.785-3.838,35.608-3.948,49.728-0.214
		c43.296,11.454,68.071,40.85,81.23,63.494C579.355,312.352,586.833,346.082,583.034,374.489z"/>
</g>
<path fill="#FFFFFF" d="M255.383,174.323c17.491,17.479,17.491,45.817,0,63.295s-45.85,17.479-63.341,0s-17.491-45.817,0-63.295
	S237.892,156.845,255.383,174.323"/>
<path d="M235.617,199.29c11.377,11.37,11.377,29.803,0,41.173c-11.378,11.37-29.825,11.37-41.203,0s-11.378-29.803,0-41.173
	S224.239,187.92,235.617,199.29"/>
<path fill="#FFFFFF" d="M342.352,185.621c17.491,17.479,17.491,45.817,0,63.295s-45.85,17.479-63.341,0s-17.491-45.817,0-63.295
	S324.861,168.143,342.352,185.621"/>
<path d="M336.283,182.039c11.378,11.37,11.378,29.803,0,41.173s-29.824,11.37-41.202,0s-11.378-29.803,0-41.173
	C306.458,170.67,324.905,170.67,336.283,182.039"/>
<path fill="#7B219E" d="M149.091,572.822c5.858,5.858,5.858,15.354,0,21.213s-15.355,5.858-21.213,0s-5.858-15.354,0-21.213
	S143.233,566.964,149.091,572.822"/>
<path fill="#7B219E" d="M284.091,534.822c5.858,5.858,5.858,15.354,0,21.213c-5.857,5.858-15.355,5.858-21.213,0
	c-5.858-5.858-5.858-15.354,0-21.213C268.736,528.964,278.234,528.964,284.091,534.822"/>
<path fill="#7B219E" d="M450.091,519.822c5.858,5.858,5.858,15.354,0,21.213c-5.857,5.858-15.355,5.858-21.213,0
	c-5.858-5.858-5.858-15.354,0-21.213C434.736,513.964,444.234,513.964,450.091,519.822"/>
<g>
</g>
<g>
</g>
<g>
</g>
<g>
</g>
<g>
</g>
<g>
</g>
<g>
</g>
<g>
</g>
<g>
</g>
<g>
</g>
<g>
</g>
<g>
</g>
<g>
</g>
<g>
</g>
<g>
</g>
</svg>
