<?xml version="1.0" encoding="utf-8"?>
<!-- Generator: Adobe Illustrator 16.0.0, SVG Export Plug-In . SVG Version: 6.00 Build 0)  -->
<!DOCTYPE svg PUBLIC "-//W3C//DTD SVG 1.1//EN" "http://www.w3.org/Graphics/SVG/1.1/DTD/svg11.dtd">
<svg version="1.1" id="Layer_1" xmlns="http://www.w3.org/2000/svg" xmlns:xlink="http://www.w3.org/1999/xlink" x="0px" y="0px"
	 width="57.667px" height="93.333px" viewBox="21.333 3.333 57.667 93.333" enable-background="new 21.333 3.333 57.667 93.333"
	 xml:space="preserve">
<path fill="#333333" d="M50.855,13.143c0,0,0.562-0.004,0.604,0c0.676,0.044,0.924,0.408,0.924,1.105l-0.715,1.92
	c0,0,1.891,24.943,3.353,34.121c0,0,0.565,0,1.255,0c0.692,0,1.258,0.606,1.258,1.346v2.691c0,0,0.021,0.126,0.038,0.164
	c0.017,0.035,0.149,0.506,0.298,1.041c0,0,2.794,10.137,4.86,14.231l1.775,0.019c0.741,0,1.347,0.607,1.347,1.346l-0.019,2.643
	c0,0.74-0.01,1.354-0.021,1.361c-0.01,0.006,11.477,16.634,11.477,16.634c0.328,0.449,0.596,0.796,0.596,1.353v1.324
	c0,0.555-0.453,1.012-1.01,1.012H66.743c-0.556,0-1.009-0.457-1.009-1.012v-2.078c-1.056-6.773-7.846-13.549-15.689-13.549h-0.09
	c-7.845,0-14.634,6.775-15.689,13.549v2.078c0,0.555-0.453,1.012-1.01,1.012H23.125c-0.557,0-1.01-0.457-1.01-1.012v-1.087
	c0-0.556,0.262-0.907,0.582-1.362c0,0,11.363-16.962,11.351-16.969c-0.009-0.008-0.02-0.621-0.02-1.359v-2.537
	c0-0.738,0.606-1.345,1.348-1.345l1.775-0.02c2.065-4.097,4.86-14.231,4.86-14.231c0.147-0.535,0.281-1.005,0.298-1.042
	c0.017-0.036,0.056-0.145,0.056-0.145l-0.007-2.709c-0.007-0.739,0.554-1.346,1.243-1.346c0.692,0,1.258,0,1.258,0
	c1.461-9.179,3.314-34.122,3.314-34.122l-0.73-1.918c0-0.701,0.303-1.068,0.985-1.107c0.04-0.002,0.606,0,0.606,0l0.541-8.16
	c0.012-0.371,0.174-0.437,0.357-0.437s0.344,0.065,0.358,0.437L50.855,13.143z M54.62,69.287c0.557,0,0.89-0.439,0.742-0.975
	l-2.791-10.174c-0.147-0.537-0.723-0.975-1.279-0.975h-2.587c-0.556,0-1.131,0.438-1.278,0.975l-2.791,10.174
	c-0.147,0.535,0.186,0.975,0.741,0.975H54.62z"/>
</svg>
