<svg xmlns:dc="http://purl.org/dc/elements/1.1/" xmlns:cc="http://creativecommons.org/ns#" xmlns:rdf="http://www.w3.org/1999/02/22-rdf-syntax-ns#" xmlns:svg="http://www.w3.org/2000/svg" xmlns="http://www.w3.org/2000/svg" version="1.1" width="100px" height="56.880733945px" viewBox="0 0 109.90625 62.5" id="svg2">
  <metadata id="metadata803">
    <rdf:RDF>
      <cc:Work rdf:about="">
        <dc:format>image/svg+xml</dc:format>
        <dc:type rdf:resource="http://purl.org/dc/dcmitype/StillImage"/>
        <dc:title/>
      </cc:Work>
    </rdf:RDF>
  </metadata>
  <defs id="defs801"/>
  <path d="m 0,0 0,1.5 0,59.5 0,1.5 1.5,0 106.90625,0 1.5,0 0,-1.5 0,-59.5 0,-1.5 -1.5,0 L 1.5,0 0,0 z m 1.5,1.5 106.90625,0 0,59.5 L 1.5,61 1.5,1.5 z M 54.9375,5 c -0.542155,5e-6 -0.906756,0.3204787 -1.1875,0.71875 -0.05853,0.083032 -0.10282,0.1552024 -0.15625,0.25 C 53.59025,5.97525 53.56613,5.993501 53.5625,6 c -0.09456,0.1702023 -0.168914,0.3898983 -0.25,0.59375 -0.06487,0.1630843 -0.129342,0.3179562 -0.1875,0.5 -0.02097,0.065827 -0.04214,0.1191075 -0.0625,0.1875 -0.378853,1.2706723 -0.59375,2.980895 -0.59375,4.875 0,0.06987 -5.04e-4,0.149389 0,0.21875 -0.755705,-0.540627 -1.410297,-1.088244 -1.90625,-1.59375 0.02606,-0.08295 0.03125,-0.158474 0.03125,-0.25 0,-0.483702 -0.360047,-0.90625 -0.84375,-0.90625 -0.025,0 -0.06926,-0.00201 -0.09375,0 C 49.62434,9.5686 49.58639,9.5204263 49.5625,9.46875 49.415734,9.1514134 49.461587,9.0124062 49.46875,9 c 0.0072,-0.012401 0.120562,-0.1246776 0.46875,-0.15625 0.326577,-0.029591 0.794064,0.00351 1.34375,0.125 0.255487,0.045017 0.523957,0.1528225 0.75,0.21875 0.04653,-0.336513 0.06288,-0.6585818 0.125,-0.96875 C 52.1141,8.2065 52.073587,8.199851 52.03125,8.1875 51.908741,8.153019 51.803869,8.12147 51.6875,8.09375 51.042573,7.9401268 50.485291,7.8310114 50,7.875 49.514715,7.919008 49.021075,8.1242329 48.75,8.59375 48.478921,9.0632671 48.57671,9.5577249 48.78125,10 c 0.03549,0.07676 0.08137,0.140684 0.125,0.21875 -0.03342,0.09271 -0.0625,0.208316 -0.0625,0.3125 -5e-6,0.483708 0.422543,0.84375 0.90625,0.84375 0.02727,0 0.03587,0.0025 0.0625,0 0.67468,0.707416 1.595786,1.463504 2.6875,2.1875 0.02843,0.471316 0.06923,0.94317 0.125,1.375 -0.20733,0.07491 -0.398973,0.127597 -0.59375,0.1875 -0.160277,-0.176075 -0.399517,-0.28125 -0.65625,-0.28125 -0.389757,0 -0.698823,0.272971 -0.8125,0.625 -4.08e-4,9.87e-4 -0.03089,-9.86e-4 -0.03125,0 -0.238706,0.0241 -0.423991,0.01542 -0.59375,0 -0.348203,-0.03156 -0.461582,-0.112594 -0.46875,-0.125 -0.0072,-0.0124 -0.05302,-0.182664 0.09375,-0.5 0.139255,-0.30107 0.425229,-0.674215 0.8125,-1.09375 0.02183,-0.0237 0.03997,-0.03866 0.0625,-0.0625 0.141538,-0.149676 0.300947,-0.312925 0.46875,-0.46875 C 50.93856,13.19001 50.96719,13.15422 51,13.125 L 50.25,12.5 c -0.03811,0.03706 -0.05565,0.08825 -0.09375,0.125 -0.121384,0.116787 -0.26644,0.228944 -0.375,0.34375 -0.0949,0.100358 -0.165128,0.183337 -0.25,0.28125 -0.32512,0.372618 -0.588221,0.743954 -0.75,1.09375 -0.204526,0.44227 -0.302335,0.936734 -0.03125,1.40625 0.27108,0.469518 0.764719,0.643492 1.25,0.6875 0.09375,0.0085 0.181683,5.04e-4 0.28125,0 0.16575,-9.86e-4 0.349246,-0.0082 0.53125,-0.03125 0.15329,0.131608 0.344725,0.1875 0.5625,0.1875 0.350684,0 0.672529,-0.202224 0.8125,-0.5 0.201553,-0.05824 0.381032,-0.114309 0.59375,-0.1875 0.0723,0.374825 0.187485,0.738751 0.28125,1.0625 0.007,0.02415 -0.0071,0.03866 0,0.0625 0.03947,0.132364 0.08263,0.252541 0.125,0.375 0.162742,0.468091 0.340218,0.872161 0.5625,1.1875 0.280742,0.398277 0.645336,0.718765 1.1875,0.71875 0.542149,0 0.938008,-0.320474 1.21875,-0.71875 0.05551,-0.07875 0.104417,-0.162431 0.15625,-0.25 0.01371,-0.02314 0.0493,-0.03866 0.0625,-0.0625 0.08116,-0.146166 0.147676,-0.297595 0.21875,-0.46875 0.006,-0.01447 -0.0059,-0.04788 0,-0.0625 0.06284,-0.154297 0.131151,-0.326551 0.1875,-0.5 0.02243,-0.06897 0.04103,-0.146698 0.0625,-0.21875 0.04517,-0.151414 0.08454,-0.305242 0.125,-0.46875 -0.294147,-0.09962 -0.598351,-0.250474 -0.90625,-0.375 -0.02188,0.09509 -0.04138,0.185661 -0.0625,0.28125 -0.02203,0.08955 -0.04234,0.194911 -0.0625,0.28125 -0.0077,0.02909 -0.02302,0.06602 -0.03125,0.09375 -0.06044,0.200121 -0.121285,0.39315 -0.1875,0.5625 -0.08139,0.199617 -0.167109,0.380552 -0.25,0.53125 -0.05143,0.0931 -0.07463,0.178574 -0.125,0.25 -0.201437,0.28578 -0.391924,0.3125 -0.40625,0.3125 -0.01431,0 -0.142287,-0.02679 -0.34375,-0.3125 -0.190245,-0.269899 -0.393139,-0.707655 -0.5625,-1.25 C 54.02165,16.90675 54.00938,16.87517 54,16.84375 53.98014,16.7771 53.9561,16.695571 53.9375,16.625 c -0.08902,-0.32698 -0.150625,-0.706685 -0.21875,-1.09375 0.406256,-0.168362 0.822999,-0.318485 1.25,-0.53125 1.04597,0.522308 2.032354,0.884796 2.53125,1.03125 0.498897,0.146459 0.602765,0.191126 0.71875,0.21875 0.13436,0.03201 0.279023,0.03795 0.40625,0.0625 0.484736,0.09296 0.928314,0.128579 1.3125,0.09375 C 60.42279,16.36224 60.885175,16.219523 61.15625,15.75 61.427325,15.280485 61.329525,14.78602 61.125,14.34375 61.08411,14.25534 61.052451,14.151904 61,14.0625 60.94848,13.97468 60.87441,13.901561 60.8125,13.8125 60.79128,13.78215 60.77243,13.71799 60.75,13.6875 60.70871,13.63092 60.638841,13.588467 60.59375,13.53125 60.471151,13.378007 60.334876,13.221547 60.1875,13.0625 60.15852,13.0312 60.15488,13.00031 60.125,12.96875 60.015815,12.853263 59.87204,12.743022 59.75,12.625 c -0.234229,0.204472 -0.455303,0.390004 -0.71875,0.59375 0.159646,0.145713 0.302218,0.264912 0.4375,0.40625 0.0073,0.0077 -0.0072,0.02353 0,0.03125 0.147503,0.155981 0.289836,0.323153 0.40625,0.46875 0.213823,0.273338 0.373358,0.543734 0.46875,0.75 0.146766,0.317337 0.100909,0.456349 0.09375,0.46875 -0.0072,0.0124 -0.08931,0.09342 -0.4375,0.125 -0.332157,0.03009 -0.813911,0.0029 -1.375,-0.125 -0.124313,-0.02334 -0.247905,-0.06157 -0.375,-0.09375 -0.662667,-0.179468 -1.415266,-0.446163 -2.21875,-0.8125 0.06411,-0.03624 0.123226,-0.0879 0.1875,-0.125 1.379792,-0.796629 2.551714,-1.640575 3.4375,-2.46875 0.165741,-0.154823 0.326754,-0.318587 0.46875,-0.46875 0.003,-0.003 -0.003,-0.02817 0,-0.03125 0.09489,-0.100363 0.196382,-0.183332 0.28125,-0.28125 0.214896,-0.250789 0.418794,-0.510326 0.5625,-0.75 C 61.03643,10.199313 61.074035,10.110667 61.125,10 61.329537,9.5577249 61.427341,9.0632671 61.15625,8.59375 60.885175,8.1242329 60.42279,7.9502436 59.9375,7.90625 c -0.09453,-0.00857 -0.211879,-2.823e-4 -0.3125,0 l 0,-0.03125 c -0.0492,1.814e-4 -0.105683,0.029032 -0.15625,0.03125 -0.161713,0.00711 -0.323904,0.00519 -0.5,0.03125 C 58.8994,7.94698 58.821634,7.957062 58.75,7.96875 58.7447,7.97727 58.7553,7.991481 58.75,8 58.58265,8.030145 58.398913,8.050836 58.21875,8.09375 57.872165,8.176303 57.510709,8.2738256 57.125,8.40625 57.09657,8.2585309 57.06427,8.1087159 57.03125,7.96875 c 0.158567,-0.1585725 0.25,-0.3518987 0.25,-0.59375 0,-0.4181232 -0.295555,-0.7565543 -0.6875,-0.84375 -5.04e-4,-0.00151 -0.03054,0.00151 -0.03125,0 C 56.437075,6.2320598 56.314893,5.9438045 56.15625,5.71875 55.8755,5.3204736 55.5109,5.000005 54.96875,5 L 54.9375,5 z M 5.5,5.5 l 0,4.0625 4.0625,0 0,-4.0625 -4.0625,0 z m 94.84375,0 0,4.0625 4.0625,0 0,-4.0625 -4.0625,0 z M 54.9375,5.8125 c 0.01431,0 0.204813,0.057995 0.40625,0.34375 0.123719,0.1755056 0.222647,0.4203678 0.34375,0.71875 -0.102269,0.1433383 -0.15625,0.310586 -0.15625,0.5 -5e-6,0.3679945 0.240843,0.6827675 0.5625,0.8125 0.04159,0.1948431 0.08845,0.3868183 0.125,0.59375 C 55.812903,8.9491032 55.364173,9.1002499 54.9375,9.3125 54.72773,9.2076906 54.549124,9.1257856 54.34375,9.03125 c -0.09749,0.568025 -0.207085,1.201565 -0.25,1.875 0.02712,-0.01578 0.06649,-0.04678 0.09375,-0.0625 0.255523,-0.147528 0.497849,-0.273462 0.75,-0.40625 0.253894,0.133781 0.52364,0.257518 0.78125,0.40625 0.259244,0.149675 0.474398,0.314517 0.71875,0.46875 0.01089,0.283944 0.0625,0.54934 0.0625,0.84375 2.1e-5,0.02415 -0.03125,0.0384 -0.03125,0.0625 0.545098,-0.364087 1.068624,-0.735404 1.5,-1.09375 -0.183122,-0.130987 -0.368026,-0.245843 -0.5625,-0.375 -0.02853,-0.471756 -0.06908,-0.9428526 -0.125,-1.375 C 57.723802,9.2149051 58.151232,9.0905178 58.53125,9 58.740081,8.950245 58.940704,8.9342678 59.125,8.90625 L 59.15625,8.875 C 59.491357,8.826404 59.777814,8.82358 60,8.84375 60.348209,8.875307 60.430337,8.9875938 60.4375,9 c 0.0072,0.012401 0.05301,0.1514133 -0.09375,0.46875 -0.138288,0.298982 -0.397473,0.676171 -0.78125,1.09375 -0.02183,0.0237 -0.03997,0.06992 -0.0625,0.09375 -0.84284,0.891337 -2.188814,1.893101 -3.78125,2.8125 -0.259802,0.149998 -0.524962,0.302741 -0.78125,0.4375 -0.250666,-0.132225 -0.495748,-0.290708 -0.75,-0.4375 -0.258946,-0.149503 -0.47466,-0.28345 -0.71875,-0.4375 -0.01084,-0.283572 -0.03125,-0.580994 -0.03125,-0.875 0,-1.838778 0.212002,-3.5119077 0.5625,-4.6875 C 54.04381,7.3218022 54.10789,7.1940624 54.15625,7.0625 54.301338,6.6678179 54.442674,6.370577 54.59375,6.15625 54.795187,5.8704707 54.923172,5.8124949 54.9375,5.8125 z M 56.34375,9.75 c 0.01336,0.1160913 0.0198,0.255673 0.03125,0.375 C 56.31445,10.08946 56.248749,10.06661 56.1875,10.03125 56.12229,9.993593 56.064943,9.9431661 56,9.90625 56.113147,9.854801 56.232594,9.7979457 56.34375,9.75 z M 5.5,11.09375 l 0,4.0625 4.0625,0 0,-4.0625 -4.0625,0 z m 5.59375,0 0,4.0625 4.0625,0 0,-4.0625 -4.0625,0 z m 61.375,0 0,4.0625 4.0625,0 0,-4.0625 -4.0625,0 z m 5.5625,0 0,4.0625 4.0625,0 0,-4.0625 -4.0625,0 z m 5.59375,0 0,4.0625 4.0625,0 0,-4.0625 -4.0625,0 z m 5.5625,0 0,4.0625 4.0625,0 0,-4.0625 -4.0625,0 z m 5.59375,0 0,4.0625 4.0625,0 0,-4.0625 -4.0625,0 z m 5.5625,0 0,4.0625 4.0625,0 0,-4.0625 -4.0625,0 z m -45.40625,0.1875 c -0.483708,0 -0.84375,0.391298 -0.84375,0.875 0,0.483708 0.360042,0.875 0.84375,0.875 0.483702,0 0.90625,-0.391297 0.90625,-0.875 0,-0.483707 -0.422543,-0.875 -0.90625,-0.875 z m -1.40625,2.9375 c 0.0606,0.03569 0.12614,0.05832 0.1875,0.09375 0.05801,0.03347 0.09838,0.06097 0.15625,0.09375 -0.104592,0.04749 -0.209607,0.111749 -0.3125,0.15625 -0.0127,-0.112098 -0.02031,-0.228656 -0.03125,-0.34375 z M 5.5,16.65625 l 0,4.0625 4.0625,0 0,-4.0625 -4.0625,0 z m 5.59375,0 0,4.0625 4.0625,0 0,-4.0625 -4.0625,0 z m 61.375,0 0,4.0625 4.0625,0 0,-4.0625 -4.0625,0 z m 5.5625,0 0,4.0625 4.0625,0 0,-4.0625 -4.0625,0 z m 5.59375,0 0,4.0625 4.0625,0 0,-4.0625 -4.0625,0 z m 5.5625,0 0,4.0625 4.0625,0 0,-4.0625 -4.0625,0 z m 5.59375,0 0,4.0625 4.0625,0 0,-4.0625 -4.0625,0 z m 5.5625,0 0,4.0625 4.0625,0 0,-4.0625 -4.0625,0 z M 5.5,22.25 l 0,4.0625 4.0625,0 0,-4.0625 -4.0625,0 z m 5.59375,0 0,4.0625 4.0625,0 0,-4.0625 -4.0625,0 z m 5.5625,0 0,4.0625 4.0625,0 0,-4.0625 -4.0625,0 z m 5.59375,0 0,4.0625 4.0625,0 0,-4.0625 -4.0625,0 z m 5.5625,0 0,4.0625 4.09375,0 0,-4.0625 -4.09375,0 z m 5.59375,0 0,4.0625 4.0625,0 0,-4.0625 -4.0625,0 z m 5.5625,0 0,4.0625 4.09375,0 0,-4.0625 -4.09375,0 z m 5.59375,0 0,4.0625 4.0625,0 0,-4.0625 -4.0625,0 z m 5.5625,0 0,4.0625 4.09375,0 0,-4.0625 -4.09375,0 z m 5.59375,0 0,4.0625 4.0625,0 0,-4.0625 -4.0625,0 z m 5.59375,0 0,4.0625 4.0625,0 0,-4.0625 -4.0625,0 z m 5.5625,0 0,4.0625 4.0625,0 0,-4.0625 -4.0625,0 z m 5.59375,0 0,4.0625 4.0625,0 0,-4.0625 -4.0625,0 z m 5.5625,0 0,4.0625 4.0625,0 0,-4.0625 -4.0625,0 z m 5.59375,0 0,4.0625 4.0625,0 0,-4.0625 -4.0625,0 z m 5.5625,0 0,4.0625 4.0625,0 0,-4.0625 -4.0625,0 z m 5.59375,0 0,4.0625 4.0625,0 0,-4.0625 -4.0625,0 z m 5.5625,0 0,4.0625 4.0625,0 0,-4.0625 -4.0625,0 z M 5.5,27.8125 l 0,4.09375 4.0625,0 0,-4.09375 -4.0625,0 z m 5.59375,0 0,4.09375 4.0625,0 0,-4.09375 -4.0625,0 z m 5.5625,0 0,4.09375 4.0625,0 0,-4.09375 -4.0625,0 z m 5.59375,0 0,4.09375 4.0625,0 0,-4.09375 -4.0625,0 z m 5.5625,0 0,4.09375 4.09375,0 0,-4.09375 -4.09375,0 z m 5.59375,0 0,4.09375 4.0625,0 0,-4.09375 -4.0625,0 z m 5.5625,0 0,4.09375 4.09375,0 0,-4.09375 -4.09375,0 z m 5.59375,0 0,4.09375 4.0625,0 0,-4.09375 -4.0625,0 z m 5.5625,0 0,4.09375 4.09375,0 0,-4.09375 -4.09375,0 z m 5.59375,0 0,4.09375 4.0625,0 0,-4.09375 -4.0625,0 z m 5.59375,0 0,4.09375 4.0625,0 0,-4.09375 -4.0625,0 z m 5.5625,0 0,4.09375 4.0625,0 0,-4.09375 -4.0625,0 z m 5.59375,0 0,4.09375 4.0625,0 0,-4.09375 -4.0625,0 z m 5.5625,0 0,4.09375 4.0625,0 0,-4.09375 -4.0625,0 z m 5.59375,0 0,4.09375 4.0625,0 0,-4.09375 -4.0625,0 z m 5.5625,0 0,4.09375 4.0625,0 0,-4.09375 -4.0625,0 z m 5.59375,0 0,4.09375 4.0625,0 0,-4.09375 -4.0625,0 z m 5.5625,0 0,4.09375 4.0625,0 0,-4.09375 -4.0625,0 z M 5.5,33.40625 l 0,4.0625 4.0625,0 0,-4.0625 -4.0625,0 z m 5.59375,0 0,4.0625 4.0625,0 0,-4.0625 -4.0625,0 z m 5.5625,0 0,4.0625 4.0625,0 0,-4.0625 -4.0625,0 z m 5.59375,0 0,4.0625 4.0625,0 0,-4.0625 -4.0625,0 z m 5.5625,0 0,4.0625 4.09375,0 0,-4.0625 -4.09375,0 z m 5.59375,0 0,4.0625 4.0625,0 0,-4.0625 -4.0625,0 z m 5.5625,0 0,4.0625 4.09375,0 0,-4.0625 -4.09375,0 z m 5.59375,0 0,4.0625 4.0625,0 0,-4.0625 -4.0625,0 z m 5.5625,0 0,4.0625 4.09375,0 0,-4.0625 -4.09375,0 z m 5.59375,0 0,4.0625 4.0625,0 0,-4.0625 -4.0625,0 z m 5.59375,0 0,4.0625 4.0625,0 0,-4.0625 -4.0625,0 z m 5.5625,0 0,4.0625 4.0625,0 0,-4.0625 -4.0625,0 z m 5.59375,0 0,4.0625 4.0625,0 0,-4.0625 -4.0625,0 z m 5.5625,0 0,4.0625 4.0625,0 0,-4.0625 -4.0625,0 z m 5.59375,0 0,4.0625 4.0625,0 0,-4.0625 -4.0625,0 z m 5.5625,0 0,4.0625 4.0625,0 0,-4.0625 -4.0625,0 z m 5.59375,0 0,4.0625 4.0625,0 0,-4.0625 -4.0625,0 z m 5.5625,0 0,4.0625 4.0625,0 0,-4.0625 -4.0625,0 z M 5.5,38.96875 l 0,4.09375 4.0625,0 0,-4.09375 -4.0625,0 z m 5.59375,0 0,4.09375 4.0625,0 0,-4.09375 -4.0625,0 z m 5.5625,0 0,4.09375 4.0625,0 0,-4.09375 -4.0625,0 z m 5.59375,0 0,4.09375 4.0625,0 0,-4.09375 -4.0625,0 z m 5.5625,0 0,4.09375 4.09375,0 0,-4.09375 -4.09375,0 z m 5.59375,0 0,4.09375 4.0625,0 0,-4.09375 -4.0625,0 z m 5.5625,0 0,4.09375 4.09375,0 0,-4.09375 -4.09375,0 z m 5.59375,0 0,4.09375 4.0625,0 0,-4.09375 -4.0625,0 z m 5.5625,0 0,4.09375 4.09375,0 0,-4.09375 -4.09375,0 z m 5.59375,0 0,4.09375 4.0625,0 0,-4.09375 -4.0625,0 z m 5.59375,0 0,4.09375 4.0625,0 0,-4.09375 -4.0625,0 z m 5.5625,0 0,4.09375 4.0625,0 0,-4.09375 -4.0625,0 z m 5.59375,0 0,4.09375 4.0625,0 0,-4.09375 -4.0625,0 z m 5.5625,0 0,4.09375 4.0625,0 0,-4.09375 -4.0625,0 z m 5.59375,0 0,4.09375 4.0625,0 0,-4.09375 -4.0625,0 z m 5.5625,0 0,4.09375 4.0625,0 0,-4.09375 -4.0625,0 z m 5.59375,0 0,4.09375 4.0625,0 0,-4.09375 -4.0625,0 z m 5.5625,0 0,4.09375 4.0625,0 0,-4.09375 -4.0625,0 z m -78.09375,8.375 0,4.0625 4.0625,0 0,-4.0625 -4.0625,0 z m 5.5625,0 0,4.0625 4.09375,0 0,-4.0625 -4.09375,0 z m 5.59375,0 0,4.0625 4.0625,0 0,-4.0625 -4.0625,0 z m 5.5625,0 0,4.0625 4.09375,0 0,-4.0625 -4.09375,0 z m 5.59375,0 0,4.0625 4.0625,0 0,-4.0625 -4.0625,0 z m 5.5625,0 0,4.0625 4.09375,0 0,-4.0625 -4.09375,0 z m 5.59375,0 0,4.0625 4.0625,0 0,-4.0625 -4.0625,0 z m 5.59375,0 0,4.0625 4.0625,0 0,-4.0625 -4.0625,0 z m 5.5625,0 0,4.0625 4.0625,0 0,-4.0625 -4.0625,0 z m 5.59375,0 0,4.0625 4.0625,0 0,-4.0625 -4.0625,0 z m 5.5625,0 0,4.0625 4.0625,0 0,-4.0625 -4.0625,0 z m 5.59375,0 0,4.0625 4.0625,0 0,-4.0625 -4.0625,0 z m 5.5625,0 0,4.0625 4.0625,0 0,-4.0625 -4.0625,0 z m 5.59375,0 0,4.0625 4.0625,0 0,-4.0625 -4.0625,0 z m 5.5625,0 0,4.0625 4.0625,0 0,-4.0625 -4.0625,0 z M 22.25,52.9375 l 0,4.0625 4.0625,0 0,-4.0625 -4.0625,0 z m 5.5625,0 0,4.0625 4.09375,0 0,-4.0625 -4.09375,0 z m 5.59375,0 0,4.0625 4.0625,0 0,-4.0625 -4.0625,0 z m 5.5625,0 0,4.0625 4.09375,0 0,-4.0625 -4.09375,0 z m 5.59375,0 0,4.0625 4.0625,0 0,-4.0625 -4.0625,0 z m 5.5625,0 0,4.0625 4.09375,0 0,-4.0625 -4.09375,0 z m 5.59375,0 0,4.0625 4.0625,0 0,-4.0625 -4.0625,0 z m 5.59375,0 0,4.0625 4.0625,0 0,-4.0625 -4.0625,0 z m 5.5625,0 0,4.0625 4.0625,0 0,-4.0625 -4.0625,0 z m 5.59375,0 0,4.0625 4.0625,0 0,-4.0625 -4.0625,0 z m 5.5625,0 0,4.0625 4.0625,0 0,-4.0625 -4.0625,0 z m 5.59375,0 0,4.0625 4.0625,0 0,-4.0625 -4.0625,0 z m 5.5625,0 0,4.0625 4.0625,0 0,-4.0625 -4.0625,0 z m 5.59375,0 0,4.0625 4.0625,0 0,-4.0625 -4.0625,0 z m 5.5625,0 0,4.0625 4.0625,0 0,-4.0625 -4.0625,0 z" id="path6503" style="font-size:medium;font-style:normal;font-variant:normal;font-weight:normal;font-stretch:normal;text-indent:0;text-align:start;text-decoration:none;line-height:normal;letter-spacing:normal;word-spacing:normal;text-transform:none;direction:ltr;block-progression:tb;writing-mode:lr-tb;text-anchor:start;baseline-shift:baseline;color:#000000;fill:#000000;fill-opacity:1;stroke:none;stroke-width:3.02800012;marker:none;visibility:visible;display:inline;overflow:visible;enable-background:accumulate;font-family:Sans;-inkscape-font-specification:Sans"/>
</svg>