<svg xmlns="http://www.w3.org/2000/svg" xmlns:xlink="http://www.w3.org/1999/xlink" version="1.1" id="Layer_1" x="0px" y="0px" width="100px" height="84.436px" viewBox="0 0 100 84.436" enable-background="new 0 0 100 84.436" xml:space="preserve">
<circle fill="#000000" cx="38.262" cy="33.7" r="3.098"/>
<circle fill="#000000" cx="59.433" cy="33.7" r="3.098"/>
<path fill="#000000" d="M96.649,70.779C91.67,59.092,82.315,50.809,73.568,50.152c4.457-5.311,7.152-12.146,7.152-19.605  c0-0.514-0.021-1.048-0.056-1.599l0.064-0.01l-0.256-2.106c0-0.003,0-0.004,0-0.007l-0.276-2.254l-0.104,0.016  C77.292,10.426,64.823,0,50.174,0c-0.789,0-1.615,0.046-2.472,0.125l-0.01-0.077l-1.347,0.212l0.016-0.155l-2.13,0.484l-0.886,0.139  l0.007,0.062l-1.515,0.343L41.83,1.201c-11.486,3.252-20.002,12.874-21.82,24.652l-0.065,0.014l-0.159,1.569c0,0,0,0.001,0,0.003  l-0.308,3.045l0.156-0.036c-0.001,0.033-0.005,0.065-0.005,0.099c0,7.449,2.688,14.279,7.136,19.586  c-8.842,0.468-18.37,8.812-23.412,20.646C1.421,75.31,0.296,79.969,0,84.436h39.223c3.56-9.181,3.745-18.431,1.035-25.027  c3.115,1.074,6.442,1.686,9.916,1.686c3.317,0,6.504-0.549,9.499-1.532c-2.643,6.585-2.427,15.769,1.104,24.874H100  C99.704,79.969,98.579,75.31,96.649,70.779z M24.025,30.547c0-0.381,0.008-0.765,0.025-1.148c0.153-0.044,0.301-0.099,0.454-0.145  c0.246-0.074,0.489-0.154,0.733-0.234c0.479-0.158,0.952-0.327,1.42-0.507c0.235-0.089,0.47-0.178,0.7-0.273  c0.522-0.216,1.035-0.448,1.542-0.69c0.153-0.075,0.311-0.14,0.464-0.216c0.651-0.326,1.29-0.676,1.914-1.045  c0.143-0.084,0.279-0.178,0.419-0.265c0.478-0.293,0.948-0.597,1.406-0.915c0.202-0.14,0.399-0.286,0.597-0.431  c0.395-0.288,0.783-0.585,1.163-0.892c0.195-0.156,0.388-0.313,0.58-0.475c0.396-0.336,0.783-0.686,1.161-1.042  c0.147-0.138,0.298-0.271,0.441-0.411c0.514-0.501,1.01-1.018,1.486-1.554c0.068-0.078,0.132-0.161,0.2-0.239  c0.402-0.462,0.792-0.936,1.167-1.423c0.14-0.183,0.273-0.372,0.411-0.558c0.293-0.401,0.578-0.808,0.852-1.221  c0.138-0.208,0.272-0.415,0.404-0.625c0.271-0.433,0.528-0.874,0.777-1.32c0.104-0.188,0.213-0.373,0.315-0.563  c0.679-1.278,1.267-2.609,1.761-3.985c0.072-0.199,0.133-0.402,0.2-0.603c0.109-0.323,0.227-0.644,0.324-0.972  c0.215,0.643,0.459,1.27,0.714,1.891c0.046,0.112,0.08,0.227,0.127,0.336c0.336,0.796,0.708,1.57,1.108,2.328  c0.127,0.241,0.271,0.471,0.404,0.708c0.289,0.512,0.581,1.021,0.897,1.514c0.177,0.276,0.366,0.542,0.551,0.812  c0.3,0.438,0.608,0.87,0.93,1.291c0.208,0.271,0.421,0.536,0.637,0.799c0.333,0.404,0.672,0.796,1.024,1.181  c0.226,0.249,0.452,0.497,0.687,0.738c0.377,0.388,0.768,0.759,1.164,1.127c0.229,0.211,0.454,0.428,0.688,0.632  c0.471,0.411,0.962,0.799,1.457,1.181c0.178,0.136,0.348,0.283,0.528,0.415c0.685,0.502,1.389,0.978,2.113,1.421  c0.164,0.101,0.338,0.187,0.502,0.285c0.57,0.333,1.144,0.657,1.735,0.953c0.273,0.139,0.555,0.261,0.833,0.39  c0.501,0.233,1.003,0.461,1.518,0.667c0.313,0.125,0.63,0.239,0.946,0.355c0.499,0.182,1.003,0.351,1.513,0.507  c0.331,0.1,0.663,0.197,0.998,0.286c0.521,0.14,1.049,0.262,1.581,0.374c0.328,0.07,0.654,0.143,0.986,0.202  c0.584,0.103,1.176,0.179,1.77,0.248c0.288,0.034,0.573,0.08,0.862,0.106c0.886,0.077,1.78,0.125,2.686,0.125  c0.753,0,1.533-0.039,2.348-0.109c0.017-0.001,0.032-0.001,0.051-0.003c0.017,0.342,0.024,0.673,0.024,0.994  c0,14.418-11.73,26.149-26.149,26.149C35.756,56.696,24.025,44.965,24.025,30.547z"/>
<path d="M48.814,51.864c-3.234,0-6.284-1.103-8.546-3.364l2.121-2.121c3.977,3.976,11.301,3.123,16.325-1.901l2.121,2.121  C57.364,50.07,52.939,51.864,48.814,51.864z"/>
</svg>