<?xml version="1.0" encoding="utf-8"?>

<!-- The icon can be used freely in both personal and commercial projects with no attribution required, but always appreciated. 
You may NOT sub-license, resell, rent, redistribute or otherwise transfer the icon without express written permission from iconmonstr.com -->

<!DOCTYPE svg PUBLIC "-//W3C//DTD SVG 1.1//EN" "http://www.w3.org/Graphics/SVG/1.1/DTD/svg11.dtd">
<svg version="1.1" xmlns="http://www.w3.org/2000/svg" xmlns:xlink="http://www.w3.org/1999/xlink" x="0px" y="0px"
	 width="512px" height="512px" viewBox="0 0 512 512" enable-background="new 0 0 512 512" xml:space="preserve">
<path id="newspaper-icon" d="M404.334,211.666H109.667v20h294.667V211.666z M198.5,249.084h-88.833v20H198.5V249.084z
	 M198.5,287.084h-88.833v20H198.5V287.084z M404.334,249.084H315.5v20h88.834V249.084z M404.334,287.084H315.5v20h88.834V287.084z
	 M404.334,325.084H109.667v20h294.667V325.084z M295.666,249.084h-78.332v58h78.332V249.084z M432,124v247H80V124H432 M462,94H50
	v324h412V94z M260.939,191.499l-10.475-44.133h11.48l5.467,30.58l6.123-30.58h11.189l5.42,30.014l5.658-30.014h10.975
	l-11.393,44.133h-11.357l-5.42-29.192l-6.184,29.192H260.939z M247.756,182.5h-17.727v-9.239H245.9v-8.936h-15.871v-7.959h16.83v-9
	h-27.621v44.133h28.518V182.5z M321.814,183.14c-3.412,0-7.369-0.984-10.586-2.633l-0.562-0.288l-2.229,9.049l0.336,0.186
	c2.342,1.294,7.24,2.687,12.465,2.687c13.217,0,17.906-7.475,17.906-13.875c0-6.188-3.662-10.425-11.521-13.331
	c-5.76-2.185-7.676-3.302-7.676-5.612c0-2.223,2.266-3.659,5.771-3.659c3.088,0,6.051,0.672,8.807,1.998l0.539,0.26l2.449-8.861
	l-0.391-0.177c-3.273-1.473-7.047-2.22-11.213-2.22c-10.061,0-16.818,5.422-16.818,13.491c0,5.951,4.096,10.395,12.17,13.206
	c5.158,1.847,6.9,3.263,6.9,5.608C328.162,181.619,325.848,183.14,321.814,183.14z M185.037,161.32l15.717,30.179h11.033v-44.133
	h-9.959v27.052l-14.566-27.052h-12.184v44.133h9.959V161.32z"/>
</svg>
