<svg xmlns="http://www.w3.org/2000/svg" xmlns:xlink="http://www.w3.org/1999/xlink" version="1.1" id="Layer_1" x="0px" y="0px" width="100px" height="100px" viewBox="0 0 100 100" enable-background="new 0 0 100 100" xml:space="preserve">
<polygon points="71.159,100 86.492,100 82.95,82.61 71.159,82.61 "/>
<polygon points="81.295,26.577 81.295,49.78 77.823,49.78 77.823,67.715 79.879,67.715 79.879,75.33 78.06,81.395 72.798,81.395   72.798,69.604 72.798,67.715 72.798,49.78 72.798,48.692 72.798,26.577 "/>
<polygon points="28.84,100 13.508,100 17.05,82.61 28.84,82.61 "/>
<polygon points="18.705,26.577 18.705,49.78 22.177,49.78 22.177,67.715 20.122,67.715 20.122,75.33 21.94,81.395 27.203,81.395   27.203,69.604 27.203,67.715 27.203,49.78 27.203,48.692 27.203,26.577 "/>
<rect x="29.091" y="21.886" width="41.817" height="3.452"/>
<path d="M50,0C38.453,0,29.091,9.361,29.091,20.909h41.817C70.908,9.361,61.548,0,50,0z M49.521,13.272  c-2.282,0-4.132-1.85-4.132-4.132c0-2.282,1.85-4.132,4.132-4.132s4.132,1.85,4.132,4.132  C53.653,11.422,51.804,13.272,49.521,13.272z M60.146,18.466c-1.369,0-2.479-1.11-2.479-2.479c0-1.37,1.11-2.479,2.479-2.479  s2.479,1.11,2.479,2.479C62.626,17.356,61.516,18.466,60.146,18.466z"/>
<polygon points="61.88,74.906 35.195,74.906 29.091,74.906 35.195,81.011 61.88,81.011 70.908,74.906 "/>
<path d="M29.091,26.577v47.514h41.817V26.577H29.091z M50,71.919c-1.789,0-3.238-1.45-3.238-3.238s1.45-3.238,3.238-3.238  c1.788,0,3.238,1.45,3.238,3.238S51.788,71.919,50,71.919z M53.958,59.114c0,1.698-1.551,3.076-3.464,3.076h-0.989  c-1.913,0-3.463-1.378-3.463-3.076v-2.962c0-1.699,1.55-3.077,3.463-3.077h0.989c1.913,0,3.464,1.378,3.464,3.077V59.114z   M53.958,49.083c0,1.698-1.551,3.076-3.464,3.076h-0.989c-1.913,0-3.463-1.378-3.463-3.076v-2.962c0-1.699,1.55-3.076,3.463-3.076  h0.989c1.913,0,3.464,1.377,3.464,3.076V49.083z M62.185,39.048l-3.545,0.676l-5.877-1.146v1.146h-10.81l-1.621-0.676h-2.517v-2.296  h2.517l1.621-0.676h10.81v1.146l5.877-1.146l3.545,0.676V39.048z M62.185,33.052h-2.518l-1.62,0.675h-10.81v-1.145l-5.877,1.145  l-3.545-0.675v-2.297l3.545-0.676l5.877,1.146V30.08h10.81l1.62,0.676h2.518V33.052z"/>
</svg>