<svg xmlns="http://www.w3.org/2000/svg" xmlns:xlink="http://www.w3.org/1999/xlink" version="1.1" x="0px" y="0px" width="100px" height="100px" viewBox="0 0 100 100" enable-background="new 0 0 100 100" xml:space="preserve">
<g id="Captions">
</g>
<g id="Your_Icon">
	<path fill="#000000" d="M22.291,77.299c-0.06-0.166-0.131-0.314-0.209-0.435c-0.078-0.119-0.164-0.21-0.256-0.261   c-0.09-0.052-0.176-0.059-0.253-0.029c-0.077,0.031-0.147,0.1-0.206,0.198c-0.059,0.1-0.107,0.231-0.14,0.388   s-0.051,0.339-0.05,0.541c0,0.201,0.018,0.404,0.051,0.6c0.033,0.193,0.08,0.379,0.139,0.546c0.06,0.167,0.129,0.315,0.207,0.435   c0.078,0.12,0.164,0.211,0.253,0.264c0.091,0.053,0.177,0.063,0.255,0.033c0.079-0.029,0.149-0.096,0.209-0.195   c0.059-0.099,0.106-0.229,0.139-0.387c0.033-0.157,0.052-0.341,0.052-0.544c0-0.204-0.019-0.407-0.052-0.604   C22.397,77.653,22.35,77.467,22.291,77.299z"/>
	<path fill="#000000" d="M21.367,59.979c0.06,0.167,0.129,0.315,0.207,0.435c0.078,0.12,0.164,0.211,0.253,0.264   c0.091,0.053,0.177,0.063,0.255,0.033c0.079-0.029,0.149-0.096,0.209-0.195c0.059-0.099,0.106-0.229,0.139-0.387   c0.033-0.157,0.052-0.341,0.052-0.544c0-0.204-0.019-0.407-0.052-0.604c-0.032-0.195-0.08-0.382-0.139-0.55   c-0.06-0.166-0.131-0.314-0.209-0.435c-0.078-0.119-0.164-0.21-0.256-0.261c-0.09-0.052-0.176-0.059-0.253-0.029   c-0.077,0.031-0.147,0.1-0.206,0.198c-0.059,0.1-0.107,0.231-0.14,0.388s-0.051,0.339-0.05,0.541c0,0.201,0.018,0.404,0.051,0.6   C21.262,59.627,21.309,59.813,21.367,59.979z"/>
	<path fill="#000000" d="M24.699,69.297c-0.198-0.549-0.436-1.03-0.697-1.414c-0.262-0.382-0.549-0.666-0.85-0.819   c-0.299-0.153-0.584-0.163-0.842-0.05c-0.258,0.111-0.488,0.347-0.682,0.684c-0.191,0.335-0.348,0.771-0.454,1.289   c-0.106,0.517-0.165,1.115-0.165,1.775c0,0.659,0.06,1.319,0.166,1.949c0.107,0.631,0.262,1.232,0.453,1.772   c0.192,0.541,0.422,1.021,0.677,1.409c0.256,0.389,0.538,0.686,0.837,0.855c0.297,0.17,0.582,0.197,0.844,0.102   c0.261-0.098,0.498-0.318,0.697-0.646c0.2-0.329,0.363-0.764,0.477-1.286s0.178-1.133,0.18-1.809   c0.002-0.677-0.059-1.355-0.17-2.003C25.06,70.459,24.898,69.845,24.699,69.297z"/>
	<path d="M80.96,79.178L73,53.616V32.744C73,20.39,63.27,10,50.916,10h-1.701C36.861,10,27,20.39,27,32.744v14.3   c-3,0.005-6.551,0.01-6.547,0.01c-0.51-0.031-1.532,0.732-1.54,1.916l-0.207,29.594c-0.012,1.867,0.666,3.8,1.53,4.322l8.27,4.645   c0.191,0.115,0.37,0.139,0.538,0.104c-0.042,0.009-0.083,0.025-0.128,0.025l15.301-1.004c0.653-0.001,1.129-1.025,1.146-2.619   c0.007-0.589-0.059-1.221-0.197-1.855l-0.795-2.66C45.932,79.867,47.552,80,49.215,80h1.701c1.861,0,3.669-0.178,5.398-0.607   c0.145,0.183,0.294,0.367,0.453,0.464l7.688,4.658c0.191,0.116,0.371,0.146,0.54,0.11c-0.042,0.009-0.083,0.027-0.126,0.027   l15.301-1.001c0.653-0.001,1.051-1.023,1.068-2.618C81.244,80.444,81.098,79.813,80.96,79.178z M69.121,58.504   c-1.551,0.953-4.69,2.023-9.86,2.688C58.872,61.242,59,61.282,58,61.325c0-0.588,0-0.919,0-2.671c1-0.054,1.104-0.104,1.607-0.169   c1.902-0.245,4.617-0.87,4.617-0.87C64.762,57.5,65,56.955,65,56.405V54.24c0-0.55-0.192-0.887-0.725-0.749   c0,0-2.563,0.674-5.301,1.027C58.652,54.56,59,54.597,58,54.63c0-0.597,0-1.254,0-1.981c1-0.054,1.104-0.104,1.607-0.169   c1.902-0.245,4.617-0.87,4.617-0.87c0.537-0.115,0.775-0.66,0.775-1.21v-2.165c0-0.55-0.192-0.887-0.725-0.749   c0,0-2.563,0.674-5.301,1.027C58.652,48.554,59,48.591,58,48.624c0-1.625,0-3.483,0-5.601c1-0.05,0.859-0.096,1.319-0.155   C61.724,42.558,66,41.821,69,40.335v17.37c0,0.237,0.134,0.469,0.125,0.704C69.124,58.441,69.123,58.473,69.121,58.504z    M50.121,58.004c-2.496,0-6.764-0.327-6.764-0.327C43.082,57.656,43,57.415,43,57.14v-0.508c0-0.275,0.082-0.49,0.357-0.479   c0,0,10.602,0.466,15.646-0.185c1.803-0.233,4.433-0.779,4.433-0.779C63.705,55.132,64,55.31,64,55.585v0.538   c0,0.275-0.332,0.546-0.6,0.602c0,0-2.508,0.51-4.22,0.73C56.353,57.82,53.219,58.004,50.121,58.004z M50.121,51.998   c-2.497,0-6.764-0.328-6.764-0.328C43.082,51.649,43,51.408,43,51.133v-0.508c0-0.275,0.082-0.49,0.357-0.478   c0,0,10.598,0.464,15.646-0.184c1.802-0.233,4.432-0.779,4.432-0.779C63.705,49.126,64,49.304,64,49.579v0.538   c0,0.275-0.332,0.546-0.6,0.602c0,0-2.508,0.51-4.22,0.73C56.351,51.814,53.219,51.998,50.121,51.998z M69,32.744v1.907   c-1,0.989-4.419,2.138-9.854,2.84c-0.378,0.049-0.685,0.087-1.068,0.129c-0.006-1.013,0.022-2.018-0.002-3.004   c1.809-1.369,3.003-3.532,3.003-5.976c0-2.976-1.729-5.538-4.239-6.75c-0.623-2.857-1.521-5.481-2.809-7.4   C62.615,16.045,69,23.717,69,32.744z M54.053,23.969c2.422,0,4.385,1.963,4.385,4.384s-1.963,4.384-4.385,4.384   c-2.42,0-4.384-1.963-4.384-4.384S51.633,23.969,54.053,23.969z M31,32.744c0-9.695,7.448-17.808,16.97-18.5   c0.722,1.391,1.517,3.804,2.134,7.679c-2.381,1.256-4.006,3.796-4.006,6.676c0,3.276,2.104,6.075,5.03,7.096   c0.013,0.751,0.021,1.537,0.025,2.337c-8.064,0.101-15.862-1.039-19.593-3.073C31.316,34.826,31,34.697,31,34.563V32.744z    M31,36.871c4,2,11.422,3.169,19.326,3.169c3.119,0,6.101-0.182,9.075-0.566C61.806,39.164,66,38.427,69,36.941v1.104   c-1,0.989-4.419,2.138-9.854,2.84c-10.347,1.336-22.661,0.202-27.665-2.527C31.236,38.226,31,38.091,31,37.957V36.871z    M28.516,85.609l-7.689-4.648c-0.369-0.224-0.667-1.058-0.662-1.856l0.189-29.589c0.002-0.326,0.126-0.515,0.279-0.421   c0.096,0.058,0.186,0.227,0.236,0.453l6.934,28.842c-0.018-0.012-0.033-0.03-0.051-0.04c-0.147-0.082-0.287-0.096-0.416-0.049   c-0.127,0.047-0.242,0.152-0.338,0.309c-0.098,0.156-0.176,0.363-0.229,0.609c-0.054,0.248-0.085,0.535-0.086,0.854   c-0.001,0.317,0.028,0.637,0.081,0.942c0.052,0.307,0.129,0.6,0.223,0.863c0.096,0.265,0.209,0.5,0.336,0.691   c0.126,0.19,0.266,0.337,0.412,0.423c0.146,0.085,0.286,0.102,0.414,0.058c0.127-0.043,0.243-0.146,0.342-0.3   c0.093-0.147,0.168-0.343,0.223-0.574l0.37,1.538c0.056,0.258,0.085,0.529,0.083,0.789C29.159,85.354,28.881,85.83,28.516,85.609z    M34.043,47.13c-0.109-0.066-0.123-0.098-0.223-0.098c0,0-0.82,0.003-2.82,0.006v-6.773c4,2,11.426,3.17,19.328,3.169   c0.281,0,0.672-0.009,0.672-0.012c0,2.021,0,3.824,0,5.447c-4-0.011-8.164-0.23-8.164-0.23C42.287,48.608,42,49.033,42,49.583   v2.033c0,0.55,0.365,1.037,0.914,1.082c0,0,4.354,0.369,7.229,0.369c0.324,0,0.857-0.011,0.857-0.015c0,0.646,0,1.259,0,1.822   c-4-0.011-8.164-0.229-8.164-0.229C42.287,54.615,42,55.04,42,55.59v2.032c0,0.55,0.365,1.037,0.914,1.082   c0,0,4.354,0.369,7.229,0.369c0.324,0,0.857-0.011,0.857-0.015c0,1.276,0,2.131,0,2.687c-3.97,0.055-8.681-0.269-12.343-0.901   l-0.006-0.021l-3.615-11.844C34.83,48.084,34.451,47.378,34.043,47.13z M42.974,74.969l-3.673-12.023   c3.342,0.517,7.158,0.797,11.018,0.797c0.248,0,0.506-0.009,0.755-0.011c-0.213,2.472-0.914,8.94-2.635,12.284   C46.526,75.935,44.693,75.592,42.974,74.969z M48.443,76.016L48.443,76.016C48.699,76.025,48.955,76,49.215,76   C48.954,76,48.701,76.026,48.443,76.016z M55.096,75.547c1.911-3.361,2.93-9.195,3.054-12.21c0.485-0.051,0.973-0.099,1.449-0.16   c2.299-0.296,6.41-0.988,9.354-2.344C67.699,68.105,62.216,73.867,55.096,75.547z M64.471,82.606l-6.195-3.745   c2.02-0.704,3.906-1.69,5.617-2.91l1.145,4.76c0.055,0.258,0.085,0.53,0.083,0.789C65.113,82.351,64.835,82.826,64.471,82.606z"/>
</g>
</svg>