<?xml version="1.0" encoding="utf-8"?>
<!-- Generator: Adobe Illustrator 16.0.0, SVG Export Plug-In . SVG Version: 6.00 Build 0)  -->
<!DOCTYPE svg PUBLIC "-//W3C//DTD SVG 1.1//EN" "http://www.w3.org/Graphics/SVG/1.1/DTD/svg11.dtd">
<svg version="1.1" id="Calque_1" xmlns="http://www.w3.org/2000/svg" xmlns:xlink="http://www.w3.org/1999/xlink" x="0px" y="0px"
	 width="28.875px" height="55.25px" viewBox="14.096 0.596 28.875 55.25" enable-background="new 14.096 0.596 28.875 55.25"
	 xml:space="preserve">
<g>
	<path fill="#FF6666" d="M30.503,42.734c0.333,0.446,0.539,1.035,0.539,1.771c0,0.032-0.014,0.067-0.016,0.1
		c-0.088,1.766-2.547,4.137-2.547,4.137s-2.459-2.371-2.547-4.137c-0.002-0.032-0.017-0.067-0.017-0.1
		c0-0.736,0.206-1.324,0.539-1.771c-1.208,0.613-1.951,1.794-1.951,3.331c0,2.207,3.168,7.372,3.529,7.954l0.446,0.717l0.445-0.717
		c0.361-0.582,3.529-5.747,3.529-7.954C32.454,44.529,31.711,43.347,30.503,42.734z"/>
	<path fill="#333333" d="M28.477,39.509c-1.189,0-2.377-0.084-3.557-0.24c-0.426-0.058-0.852-0.121-1.275-0.198
		c0.234,0.765,0.514,1.519,0.855,2.252l0.116,0.249l0.267,0.067c0.808,0.201,1.633,0.311,2.463,0.375
		c0.377,0.028,0.754,0.069,1.133,0.069s0.755-0.041,1.133-0.069c0.83-0.064,1.656-0.173,2.463-0.375l0.267-0.067l0.116-0.25
		c0.341-0.734,0.62-1.488,0.855-2.252c-0.423,0.077-0.85,0.14-1.275,0.197C30.857,39.424,29.667,39.509,28.477,39.509z"/>
	<path fill="#333333" d="M38.951,26.251c-0.032,0.619-0.083,1.234-0.152,1.848c-0.338,3.021-1.125,5.966-2.335,8.806
		c-0.142,0.334-0.278,0.668-0.433,0.999l-0.032,0.067l6.271,1.878v-8.646L38.951,26.251z"/>
	<path fill="#333333" d="M20.494,36.904c-1.211-2.84-1.998-5.787-2.336-8.807c-0.068-0.613-0.119-1.229-0.151-1.849l-3.317,4.954
		v8.646l6.271-1.879l-0.031-0.067C20.773,37.573,20.636,37.237,20.494,36.904z"/>
	<path fill="#333333" d="M34.344,10.119c-2.086-3.804-4.399-6.156-5.218-6.92c-0.083-0.802-0.258-1.414-0.473-1.634
		c-0.021-0.022-0.042-0.041-0.064-0.056l-0.109-0.094l-0.11,0.094c-0.021,0.015-0.043,0.033-0.063,0.056
		c-0.216,0.221-0.39,0.832-0.474,1.634c-0.817,0.765-3.131,3.116-5.218,6.92C26.492,9.473,30.465,9.473,34.344,10.119z"/>
	<path fill="#888888" d="M28.479,18.762c-1.864,0-3.38,1.517-3.38,3.38c0,1.862,1.517,3.38,3.38,3.38c1.862,0,3.38-1.518,3.38-3.38
		C31.859,20.279,30.342,18.762,28.479,18.762z"/>
	<path fill="#333333" d="M35.195,11.779c-0.104-0.22-0.211-0.429-0.317-0.641c-4.222-0.79-8.578-0.79-12.799,0
		c-0.105,0.212-0.214,0.421-0.316,0.641c-1.91,4.04-2.879,8.352-2.879,12.819c0,4.469,0.971,8.813,2.882,12.916l0.104,0.226
		l0.243,0.061c2.078,0.522,4.22,0.786,6.364,0.786c0.001,0,0.001,0,0.001,0c2.145,0,4.288-0.265,6.368-0.787l0.242-0.061
		l0.105-0.226c1.91-4.1,2.879-8.444,2.879-12.915C38.073,20.131,37.105,15.818,35.195,11.779z M28.479,27.504
		c-2.957,0-5.362-2.405-5.362-5.361s2.405-5.362,5.362-5.362s5.361,2.405,5.361,5.362S31.435,27.504,28.479,27.504z"/>
</g>
</svg>
