<?xml version="1.0" encoding="utf-8"?>

<!-- The icon can be used freely in both personal and commercial projects with no attribution required, but always appreciated. 
You may NOT sub-license, resell, rent, redistribute or otherwise transfer the icon without express written permission from iconmonstr.com -->

<!DOCTYPE svg PUBLIC "-//W3C//DTD SVG 1.1//EN" "http://www.w3.org/Graphics/SVG/1.1/DTD/svg11.dtd">
<svg version="1.1" xmlns="http://www.w3.org/2000/svg" xmlns:xlink="http://www.w3.org/1999/xlink" x="0px" y="0px"
	 width="512px" height="512px" viewBox="0 0 512 512" enable-background="new 0 0 512 512" xml:space="preserve">
<path id="radio-tower-5-icon" d="M282.707,235.76c-2.899-8.238-0.88-17.434,5.211-23.693c7.961-8.181,12.864-19.351,12.864-31.667
	c0-25.088-20.338-45.43-45.43-45.43c-25.09,0-45.426,20.342-45.426,45.43c0,12.64,5.165,24.068,13.498,32.299
	c6.334,6.257,8.487,15.616,5.532,24.014L149.675,462h42.45c19.896-56.557,107.851-56.568,127.75,0h42.45L282.707,235.76z
	 M256,280.412l15.509,44.09h-31.018L256,280.412z M219.21,385l8.97-25.498h55.641L292.79,385H219.21z M316.784,232.475
	c13.327-13.328,21.57-31.739,21.57-52.077c0-20.337-8.243-38.749-21.57-52.076l27.227-27.227
	c20.295,20.295,32.849,48.333,32.849,79.303c0,30.97-12.554,59.008-32.849,79.305L316.784,232.475z M167.987,259.703l27.227-27.228
	c-13.327-13.328-21.57-31.739-21.57-52.077c0-20.337,8.243-38.749,21.57-52.076l-27.227-27.227
	c-20.295,20.295-32.849,48.333-32.849,79.303C135.139,211.369,147.692,239.407,167.987,259.703z M395.104,50l-26.993,26.993
	c26.464,26.464,42.832,63.023,42.832,103.405c0,40.382-16.368,76.941-42.832,103.406l26.994,26.992
	c33.371-33.371,54.013-79.475,54.013-130.398C449.118,129.474,428.477,83.372,395.104,50z M143.887,76.993L116.894,50
	c-33.372,33.372-54.012,79.474-54.012,130.398c0,50.923,20.64,97.027,54.012,130.4l26.993-26.994
	c-26.464-26.465-42.831-63.024-42.831-103.406C101.056,140.016,117.423,103.457,143.887,76.993z"/>
</svg>
