<?xml version="1.0" encoding="utf-8"?>
<!-- Generator: Adobe Illustrator 16.0.0, SVG Export Plug-In . SVG Version: 6.00 Build 0)  -->
<!DOCTYPE svg PUBLIC "-//W3C//DTD SVG 1.1//EN" "http://www.w3.org/Graphics/SVG/1.1/DTD/svg11.dtd">
<svg version="1.1" id="Layer_1" xmlns="http://www.w3.org/2000/svg" xmlns:xlink="http://www.w3.org/1999/xlink" x="0px" y="0px"
	 width="1144px" height="540px" viewBox="0 0 1144 540" enable-background="new 0 0 1144 540" xml:space="preserve">
<g>
	<defs>
		<path id="SVGID_1_" d="M984.311,371.645c213.279,19.526,213.279,51.185,0,70.711c-213.279,19.525-559.073,19.525-772.351,0
			c-213.279-19.526-213.279-51.185,0-70.711C425.238,352.119,771.031,352.119,984.311,371.645"/>
	</defs>
	<clipPath id="SVGID_2_">
		<use xlink:href="#SVGID_1_"  overflow="visible"/>
	</clipPath>
	<g clip-path="url(#SVGID_2_)">
		<defs>
			<rect id="SVGID_3_" x="51.029" y="356" width="1094.212" height="102"/>
		</defs>
		<clipPath id="SVGID_4_">
			<use xlink:href="#SVGID_3_"  overflow="visible"/>
		</clipPath>
		<g clip-path="url(#SVGID_4_)">
			
				<image overflow="visible" width="1127" height="102" xlink:href="4178250AEBF124F1.png"  transform="matrix(0.9709 0 0 -1 51.0293 458)">
			</image>
		</g>
	</g>
</g>
<path fill="#E8B86C" d="M1079.296,142c0,0-238.338,217.217-460.296,223.996S143,104,143,104s129.742,341.387,583.766,295.449
	c369.136-37.349,359.979-249.131,359.979-249.131L1137,108v-7.732L1079.296,142z"/>
<path fill="#FACD7B" d="M1062.259,130.804c0,0-206.301,177.594-428.259,184.374c-221.958,6.778-491-211.529-491-211.529
	s173.891,295.518,543.989,269.393c370.1-26.123,393.895-228.692,393.895-228.692l55.873-44.021l-11.852-20.317L1062.259,130.804z"/>
<path fill="#FCD99B" d="M1124.968,80l-11.915,1.317l-49.101,40.635c0,0-171.845,127.977-421.587,118.519
	C392.623,231.013,143,103.922,143,103.922s299.949,293.164,592.933,207.146c292.982-86.019,333.1-182.343,333.1-182.343L1124.968,80
	z"/>
<rect x="270" y="90" fill="#FDF6E8" width="90" height="90"/>
<rect x="180" y="360" fill="#FFFDF0" width="90" height="90"/>
<path fill="#FFFAD7" d="M450,180h-90v90h90V180z M180,90H90v90h90V90z"/>
<rect x="360" y="360" fill="#FBE2B7" width="90" height="90"/>
<rect x="540" y="90" fill="#FCF3E5" width="90" height="90"/>
<rect x="180" y="270" fill="#FFFBCC" width="90" height="90"/>
<rect x="450" y="270" fill="#FAE58C" width="90" height="90"/>
<rect x="630" y="90" opacity="0.52" fill="#FDF8F0" width="90" height="90"/>
<rect x="90" y="270" fill="#FFFDEF" width="90" height="90"/>
<rect x="630" y="360" fill="#EDCA89" width="90" height="90"/>
<rect x="270" y="180" fill="#FFFAC2" width="90" height="90"/>
<rect x="360" y="450" fill="#FBECD2" width="90" height="90"/>
<rect x="450" y="360" fill="#F0DEBC" width="90" height="90"/>
<rect x="540" y="360" fill="#EED2A0" width="90" height="90"/>
<rect x="270" y="360" fill="#F9D598" width="90" height="90"/>
<rect x="450" y="180" fill="#FCE3B3" width="90" height="90"/>
<path fill="#FDF8F0" d="M720,450h-90v90h90V450z M630,450h-90v90h90V450z M540,450h-90v90h90V450z M90,180H0v90h90V180z M540,90h-90
	v90h90V90z M450,90h-90v90h90V90z M90,90H0v90h90V90z M360,0h-90v90h90V0z M270,0h-90v90h90V0z M180,0H90v90h90V0z"/>
<rect x="90" y="180" fill="#FFFDD4" width="90" height="90"/>
<path fill="#FFDD97" d="M720,270h-90v90h90V270z M630,270h-90v90h90V270z"/>
<path fill="#FFFCA8" d="M450,270h-90v90h90V270z M360,270h-90v90h90V270z M270,180h-90v90h90V180z"/>
<rect x="180" y="90" fill="#FFFAC4" width="90" height="90"/>
<rect x="270" y="450" fill="#FBE0B5" width="90" height="90"/>
<path fill="#FCE7C0" d="M720,180h-90v90h90V180z M630,180h-90v90h90V180z"/>
<g>
</g>
<g>
</g>
<g>
</g>
<g>
</g>
<g>
</g>
<g>
</g>
<g>
</g>
<g>
</g>
<g>
</g>
<g>
</g>
<g>
</g>
<g>
</g>
<g>
</g>
<g>
</g>
<g>
</g>
</svg>
