<?xml version="1.0" encoding="utf-8"?>
<!-- Generator: Adobe Illustrator 16.0.0, SVG Export Plug-In . SVG Version: 6.00 Build 0)  -->
<!DOCTYPE svg PUBLIC "-//W3C//DTD SVG 1.1//EN" "http://www.w3.org/Graphics/SVG/1.1/DTD/svg11.dtd">
<svg version="1.1" id="圖層_1" xmlns="http://www.w3.org/2000/svg" xmlns:xlink="http://www.w3.org/1999/xlink" x="0px" y="0px"
	 width="100px" height="100px" viewBox="0 0 100 100" enable-background="new 0 0 100 100" xml:space="preserve">
<line fill="none" x1="73.177" y1="78.423" x2="49.94" y2="71.27"/>
<rect x="49.4" y="74.055" transform="matrix(-0.9557 -0.2943 0.2943 -0.9557 98.3624 164.4915)" fill="#999999" width="24.314" height="1.58"/>
<line fill="none" x1="64.639" y1="85.189" x2="49.94" y2="71.27"/>
<rect x="47.164" y="77.44" transform="matrix(-0.726 -0.6877 0.6877 -0.726 45.079 174.4201)" fill="#999999" width="20.247" height="1.579"/>
<line fill="none" x1="55.188" y1="87.842" x2="49.94" y2="71.27"/>
<rect x="43.87" y="78.767" transform="matrix(-0.3018 -0.9534 0.9534 -0.3018 -7.4206 153.6778)" fill="#999999" width="17.386" height="1.579"/>
<line fill="none" x1="44.902" y1="87.842" x2="49.94" y2="71.27"/>
<rect x="46.63" y="70.895" transform="matrix(-0.9567 -0.2911 0.2911 -0.9567 69.629 169.4707)" fill="#999999" width="1.58" height="17.322"/>
<line fill="none" x1="34.893" y1="85.189" x2="49.94" y2="71.27"/>
<rect x="41.628" y="67.973" transform="matrix(-0.6797 -0.7335 0.7335 -0.6797 13.8706 162.5054)" fill="#999999" width="1.579" height="20.501"/>
<line fill="none" x1="28.886" y1="78.921" x2="49.94" y2="71.27"/>
<rect x="38.626" y="63.893" transform="matrix(-0.3415 -0.9399 0.9399 -0.3415 -17.7002 137.786)" fill="#999999" width="1.578" height="22.401"/>
<line fill="none" x1="6.143" y1="53.963" x2="26.7" y2="53.74"/>
<rect x="15.633" y="43.573" transform="matrix(-0.0108 -0.9999 0.9999 -0.0108 -37.2456 70.8545)" fill="#999999" width="1.579" height="20.554"/>
<line fill="none" x1="7.105" y1="62.688" x2="26.7" y2="53.74"/>
<rect x="16.113" y="47.446" transform="matrix(-0.4146 -0.91 0.91 -0.4146 -29.0659 97.734)" fill="#999999" width="1.582" height="21.54"/>
<line fill="none" x1="14.879" y1="68.959" x2="26.7" y2="53.74"/>
<rect x="19.998" y="51.714" transform="matrix(-0.7891 -0.6142 0.6142 -0.7891 -0.4896 122.5292)" fill="#999999" width="1.58" height="19.269"/>
<rect x="41.855" y="30.694" transform="matrix(-0.3457 -0.9384 0.9384 -0.3457 13.4139 105.3392)" fill="#33CCCC" width="3.159" height="34.598"/>
<rect x="54.691" y="49.274" transform="matrix(-0.7874 -0.6164 0.6164 -0.7874 92.4131 133.5773)" fill="#33CCCC" width="29.098" height="3.159"/>
<rect x="37.107" y="27.134" transform="matrix(-0.3605 -0.9328 0.9328 -0.3605 44.4012 87.8706)" fill="#33CCCC" width="30.431" height="3.161"/>
<rect x="64.967" y="12.559" transform="matrix(-0.8407 -0.5415 0.5415 -0.8407 107.0476 88.5385)" fill="#33CCCC" width="3.157" height="31.932"/>
<rect x="53.267" y="38.987" transform="matrix(-0.9683 -0.2498 0.2498 -0.9683 94.3063 121.2764)" fill="#33CCCC" width="3.163" height="31.333"/>
<rect x="72.101" y="24.841" transform="matrix(-0.1125 -0.9937 0.9937 -0.1125 41.9419 118.0264)" fill="#33CCCC" width="3.16" height="30.882"/>
<rect x="28.342" y="34.468" transform="matrix(-0.9299 -0.3678 0.3678 -0.9299 72.7648 85.9651)" fill="#33CCCC" width="32.465" height="3.161"/>
<circle fill="#FF6666" cx="57.863" cy="42.021" r="15.715"/>
<circle fill="#33CCCC" cx="46.012" cy="12.115" r="8.476"/>
<circle fill="#33CCCC" cx="81.652" cy="61.477" r="8.476"/>
<circle fill="#33CCCC" cx="75.186" cy="15.1" r="8.476"/>
<circle fill="#33CCCC" cx="49.994" cy="72.423" r="8.476"/>
<circle fill="#33CCCC" cx="89.023" cy="38.538" r="8.476"/>
<circle fill="#33CCCC" cx="27.198" cy="30.079" r="8.476"/>
<circle fill="#999999" cx="6.143" cy="53.74" r="3.642"/>
<circle fill="#999999" cx="7.105" cy="62.688" r="3.642"/>
<circle fill="#999999" cx="14.741" cy="68.96" r="3.644"/>
<circle fill="#999999" cx="28.887" cy="78.921" r="3.644"/>
<circle fill="#999999" cx="34.893" cy="85.19" r="3.642"/>
<circle fill="#999999" cx="44.902" cy="89.837" r="3.644"/>
<circle fill="#999999" cx="55.688" cy="89.833" r="3.642"/>
<circle fill="#999999" cx="71.686" cy="78.423" r="3.642"/>
<circle fill="#999999" cx="65.137" cy="85.19" r="3.642"/>
<circle fill="#33CCCC" cx="27.198" cy="53.963" r="8.476"/>
</svg>
