<svg xmlns="http://www.w3.org/2000/svg" xmlns:xlink="http://www.w3.org/1999/xlink" version="1.1" id="Layer_1" x="0px" y="0px" width="77.2727272727px" height="100px" viewBox="0 0 612 792" enable-background="new 0 0 612 792" xml:space="preserve">
<g>
	<g>
		<polygon points="310.533,316.51 310.534,316.51 310.536,316.51   "/>
		<path d="M372.967,551.052c16.418-2.646,32.759-19.767,32.759-40.634V357.854c0-21.539-18.119-41.31-42.735-41.31l-52.455-0.034    l-52.857,0.034c-24.617,0-42.737,19.771-42.737,41.31v152.564c0,20.867,16.342,37.988,32.758,40.634L198.467,624.9h28.404    l35.215-51.626h48.205h0.042h0.043h48.206l35.215,51.626H422.2L372.967,551.052z M282.598,332.249    c0-3.745,3.258-6.891,7.003-6.891h20.689h0.042h0.043h20.69c3.744,0,7.001,3.146,7.001,6.891v12.128    c0,3.745-3.078,6.965-7.001,6.965h-20.69h-0.043h-0.042h-20.689c-3.923,0-7.003-3.22-7.003-6.965V332.249z M256.785,528.798    c-10.348,0-18.736-8.39-18.736-18.736c0-10.348,8.389-18.735,18.736-18.735c10.347,0,18.735,8.389,18.735,18.735    C275.521,520.408,267.133,528.798,256.785,528.798z M310.332,429.681h-0.042h-51.187c-11.771,0-21.401-8.079-21.293-21.276    v-27.465c0-11.414,7.382-21.375,21.293-21.375h51.187h0.085h51.188c13.911,0,21.294,9.96,21.294,21.375v27.465    c0.107,13.197-9.522,21.276-21.294,21.276h-51.188H310.332z M344.71,510.062c0-10.348,8.388-18.735,18.736-18.735    c10.347,0,18.733,8.389,18.733,18.735c0,10.348-8.388,18.736-18.733,18.736C353.098,528.798,344.71,520.408,344.71,510.062z"/>
		<circle cx="294.607" cy="300.257" r="11.837"/>
		<circle cx="326.058" cy="300.257" r="11.837"/>
	</g>
	<path d="M436.969,259.956C403.145,226.129,358.17,207.5,310.332,207.5c-47.836,0-92.811,18.628-126.636,52.456   c-33.826,33.826-52.455,78.8-52.455,126.636v192.588h34.227V386.592c0-79.878,64.985-144.865,144.864-144.865   s144.864,64.986,144.864,144.865v192.588h34.228V386.592C489.424,338.754,470.796,293.781,436.969,259.956z"/>
</g>
</svg>