<svg xmlns="http://www.w3.org/2000/svg" xmlns:xlink="http://www.w3.org/1999/xlink" version="1.1" id="Layer_1" x="0px" y="0px" width="100px" height="100px" viewBox="0 0 100 100" enable-background="new 0 0 100 100" xml:space="preserve">
<g>
	<path d="M11.322,62.459l13.837-9.939l42.02,0.009l28.007,3.997c1.648,0.235,2.983,1.762,2.983,3.409v8.043   c-0.347-0.587-0.775-1.119-1.268-1.585c-1.301-1.228-3.055-1.98-4.984-1.98H8.1c-1.752,0-3.36,0.621-4.614,1.654l-1.389-1.39   c1.602-1.375,3.685-2.21,5.966-2.218H11.322L11.322,62.459z M16.333,82.158c0.708,0.458,1.583,0.746,2.486,0.746l0.194-0.004   l62.916,0.001c1.01,0,2.007-0.37,2.756-0.925l8.711-5.426c-0.55,0.233-1.156,0.363-1.792,0.363c-0.876,0-1.696-0.245-2.394-0.671   c-1.337-0.798-2.231-2.259-2.231-3.929c0-1.707,0.935-3.195,2.32-3.98c0.579-0.335,1.237-0.548,1.94-0.604h-8.465   c0.431,0.336,0.708,0.859,0.708,1.447c0,1.014-0.821,1.835-1.835,1.835c-1.013,0-1.834-0.821-1.834-1.835   c0-0.588,0.276-1.111,0.707-1.447H58.227c0.431,0.336,0.707,0.859,0.707,1.447c0,1.014-0.821,1.835-1.834,1.835   c-1.014,0-1.834-0.821-1.834-1.835c0-0.588,0.276-1.111,0.707-1.447H33.678c0.431,0.336,0.709,0.859,0.709,1.447   c0,1.014-0.822,1.835-1.836,1.835c-1.013,0-1.834-0.821-1.834-1.835c0-0.588,0.277-1.111,0.707-1.447H9.471   c2.155,0.426,3.779,2.326,3.779,4.606c0,2.593-2.102,4.695-4.695,4.695c-0.423,0-0.833-0.056-1.222-0.16L16.333,82.158   L16.333,82.158z M18.818,84.617c-1.247,0-2.411-0.37-3.385-1.003L4.55,77.224c-1.632-1.113-2.336-2.939-2.336-4.901   c0-3.482,2.823-6.305,6.304-6.305h82.98c0.286,0,0.567,0.019,0.844,0.057c3.101,0.389,5.498,3.034,5.498,6.24   c0,2.358-1.297,4.413-3.217,5.489l-8.976,5.589c-1.037,0.767-2.332,1.222-3.719,1.222l-62.885-0.001   C18.969,84.615,18.894,84.617,18.818,84.617L18.818,84.617z M63.385,78.361c0-2.499,2.025-4.524,4.524-4.524   s4.525,2.025,4.525,4.524s-2.026,4.524-4.525,4.524S63.385,80.86,63.385,78.361L63.385,78.361z M77.414,78.361   c0-2.499,2.025-4.524,4.523-4.524c2.499,0,4.524,2.025,4.524,4.524s-2.025,4.524-4.524,4.524   C79.439,82.886,77.414,80.86,77.414,78.361L77.414,78.361z M28.317,78.361c0-2.499,2.025-4.524,4.524-4.524   s4.524,2.025,4.524,4.524s-2.025,4.524-4.524,4.524S28.317,80.86,28.317,78.361L28.317,78.361z M14.289,78.361   c0-2.499,2.025-4.524,4.524-4.524s4.524,2.025,4.524,4.524s-2.025,4.524-4.524,4.524S14.289,80.86,14.289,78.361L14.289,78.361z    M38.837,78.361c0-2.499,2.025-4.524,4.524-4.524s4.524,2.025,4.524,4.524s-2.025,4.524-4.524,4.524S38.837,80.86,38.837,78.361   L38.837,78.361z M52.865,78.361c0-2.499,2.026-4.524,4.523-4.524c2.5,0,4.525,2.025,4.525,4.524s-2.025,4.524-4.525,4.524   C54.892,82.886,52.865,80.86,52.865,78.361L52.865,78.361z M65.975,33.229V9.825c0-0.141,0.211-0.141,0.211,0v23.403   c0.259,0.041,0.491,0.237,0.491,0.589v3.603c1.396,0.249,2.454,1.469,2.454,2.937v7.608c0,1.648-1.335,2.983-2.981,2.983H36.074   c-1.648,0-2.156-1.335-1.134-2.983l4.718-7.608c1.021-1.647,3.185-2.983,4.832-2.983h0.963h1.895h7.262h2.384h8.49v-3.556   C65.483,33.466,65.715,33.27,65.975,33.229L65.975,33.229z M55.168,48.756l-1.052-3.239l2.754-2.002h-3.405l-1.053-3.24   l-1.053,3.24h-3.406l2.756,2.002l-1.053,3.239l2.756-2.001L55.168,48.756L55.168,48.756z M31.244,45.806L5.985,43.085l0.103-1.182   l0.004-0.045l0.104-1.182l26.156,1.761c0.978-0.985,2.479-1.616,4.164-1.616c0.327,0,0.646,0.023,0.957,0.069l-4.387,7.074   c-0.07,0.114-0.134,0.228-0.19,0.338C32.033,47.658,31.435,46.787,31.244,45.806L31.244,45.806z"/>
</g>
</svg>