<?xml version="1.0" encoding="utf-8"?>

<!-- The icon can be used freely in both personal and commercial projects with no attribution required, but always appreciated. You may NOT sub-license, resell, rent, redistribute or otherwise transfer the icon without express written permission from iconmonstr.com -->

<!DOCTYPE svg PUBLIC "-//W3C//DTD SVG 1.1//EN" "http://www.w3.org/Graphics/SVG/1.1/DTD/svg11.dtd">
<svg version="1.1" xmlns="http://www.w3.org/2000/svg" xmlns:xlink="http://www.w3.org/1999/xlink" x="0px" y="0px"
	 width="512px" height="512px" viewBox="0 0 512 512" enable-background="new 0 0 512 512" xml:space="preserve">
<path id="clipboard-5-icon" d="M373.529,81.667c-9.092,0-17.814-3.598-24.264-10.008L327.5,50h-143l-21.767,21.658
	c-6.448,6.411-15.171,10.009-24.263,10.009H79.5V462h353V81.667H373.529z M392,421.5H119v-300h62.333l24.917,25H307.5l25.25-25H392
	V421.5z M152.874,228.86l9.001-8.321c10.528,5.095,17.206,8.971,29.04,17.407c22.246-25.247,36.947-38.056,64.271-55.056
	l2.929,6.737c-22.534,19.664-39.037,41.567-62.801,84.184C180.657,256.55,170.875,245.546,152.874,228.86z M152.874,335.86
	l9.001-8.321c10.528,5.095,17.206,8.971,29.04,17.407c22.246-25.247,36.947-38.056,64.271-55.056l2.929,6.737
	c-22.534,19.664-39.037,41.567-62.801,84.184C180.657,363.55,170.875,352.546,152.874,335.86z M357.583,220.5h-70v-20h70V220.5z
	 M357.583,238h-70v20h70V238z M357.583,337.167h-70v-20h70V337.167z M357.583,354.667h-70v20h70V354.667z"/>
</svg>
