<svg xmlns="http://www.w3.org/2000/svg" xmlns:xlink="http://www.w3.org/1999/xlink" version="1.1" x="0px" y="0px" width="100px" height="100px" viewBox="0 0 100 100" enable-background="new 0 0 100 100" xml:space="preserve">
<g id="Captions">
	<rect x="-192" width="185" height="99"/>
	<rect y="-36" width="100" height="30"/>
	<text transform="matrix(1 0 0 1 66 -19.5)" fill="#000000" font-family="'Helvetica'" font-size="2.4">http://thenounproject.com</text>
	<text transform="matrix(1 0 0 1 7.166 -24.5)"><tspan x="0" y="0" fill="#000000" font-family="'Helvetica-Bold'" font-size="6.1578">The Noun Project</tspan><tspan x="1.12" y="4.8" fill="#000000" font-family="'Helvetica-Bold'" font-size="4">Icon Template</tspan></text>
	<text transform="matrix(1 0 0 1 -178.5 10.5)" fill="#000000" font-family="'Helvetica-Bold'" font-size="6.1578">Reminders</text>
	<line fill="#000000" stroke="#FFFFFF" stroke-miterlimit="10" x1="8" y1="-14.5" x2="18" y2="-14.5"/>
	<line fill="#000000" stroke="#FFFFFF" stroke-miterlimit="10" x1="-179" y1="16.5" x2="-162" y2="16.5"/>
	<g>
		<g>
			<g>
				<rect x="-170.802" y="31.318" fill="#000000" width="8.721" height="8.642"/>
				<path fill="#000000" d="M-164.455,42.312h4.747v-4.703h-4.747V42.312z M-159.266,42.749h-5.63V37.17h5.63V42.749      L-159.266,42.749z M-166.221,44.062h8.279v-8.203h-8.279V44.062L-166.221,44.062z M-157.5,44.5h-9.163v-9.079h9.163V44.5      L-157.5,44.5z"/>
				<polygon fill="#000000" points="-166.149,44.133 -166.292,43.991 -158.013,35.787 -157.871,35.929     "/>
			</g>
		</g>
	</g>
	<rect x="-179" y="58" fill="none" width="35" height="32.5"/>
	<text transform="matrix(1 0 0 1 -179 60.1572)"><tspan x="0" y="0" fill="#000000" font-family="'Helvetica-Bold'" font-size="3">Strokes</tspan><tspan x="0" y="5" fill="#000000" font-family="'Helvetica'" font-size="2.4">Try to keep strokes at 4px</tspan><tspan x="0" y="10" fill="#000000" font-family="'Helvetica'" font-size="2.4">Minimum stroke weight is 2px</tspan><tspan x="0" y="14.5" fill="#000000" font-family="'Helvetica'" font-size="2.4">For thicker strokes use even </tspan><tspan x="0" y="17.5" fill="#000000" font-family="'Helvetica'" font-size="2.4">numbers: 6px, 8px etc.</tspan><tspan x="0" y="22" fill="#000000" font-family="'Helvetica-Bold'" font-size="2.4">Remember to expand strokes </tspan><tspan x="0" y="25" fill="#000000" font-family="'Helvetica-Bold'" font-size="2.4">before saving as an SVG </tspan></text>
	<rect x="-136.5" y="58" fill="none" width="35" height="32.5"/>
	<text transform="matrix(1 0 0 1 -136.5 60.1572)"><tspan x="0" y="0" fill="#000000" font-family="'Helvetica-Bold'" font-size="3">Size</tspan><tspan x="0" y="5" fill="#000000" font-family="'Helvetica'" font-size="2.4">Cannot be wider or taller than </tspan><tspan x="0" y="8.5" fill="#000000" font-family="'Helvetica'" font-size="2.4">100px (artboard size)</tspan><tspan x="0" y="13.5" fill="#000000" font-family="'Helvetica'" font-size="2.4">Scale your icon to fill as much of </tspan><tspan x="0" y="16.5" fill="#000000" font-family="'Helvetica'" font-size="2.4">the artboard as possible</tspan></text>
	<rect x="-94" y="58" fill="none" width="35" height="32.5"/>
	<text transform="matrix(1 0 0 1 -94 60.1572)"><tspan x="0" y="0" fill="#000000" font-family="'Helvetica-Bold'" font-size="3">Ungroup</tspan><tspan x="0" y="5" fill="#000000" font-family="'Helvetica'" font-size="2.4">If your design has more than one </tspan><tspan x="0" y="8" fill="#000000" font-family="'Helvetica'" font-size="2.4">shape, make sure to ungroup</tspan></text>
	<rect x="-50" y="58" fill="none" width="35" height="32.5"/>
	<text transform="matrix(1 0 0 1 -50 60.1572)"><tspan x="0" y="0" fill="#000000" font-family="'Helvetica-Bold'" font-size="3">Save as</tspan><tspan x="0" y="5" fill="#000000" font-family="'Helvetica'" font-size="2.4">Save as .SVG and make sure </tspan><tspan x="0" y="8" fill="#000000" font-family="'Helvetica'" font-size="2.4">&#8220;Use Artboards&#8221; is checked</tspan></text>
	<text transform="matrix(1.0074 0 0 1 -125.542 30.5933)" fill="#000000" font-family="'Helvetica'" font-size="2.5731">100px</text>
	<text transform="matrix(1.0074 0 0 1 -41 39)" fill="#000000" font-family="'Helvetica-Bold'" font-size="5.1462">.SVG</text>
	<rect x="-126.514" y="34.815" fill="#000000" width="10.261" height="10.185"/>
	<rect x="-126.477" y="31.766" fill="#000000" width="0.522" height="2.337"/>
	<rect x="-116.812" y="31.766" fill="#000000" width="0.523" height="2.337"/>
	<rect x="-127" y="32.337" fill="#000000" width="11.233" height="0.572"/>
	<g>
		<rect x="-83.805" y="33.844" fill="#000000" width="10.305" height="10.156"/>
		<rect x="-76.809" y="28.707" fill="#000000" width="3.308" height="3.261"/>
	</g>
	<rect x="-178.5" y="22.5" fill="#000000" stroke="#FFFFFF" stroke-miterlimit="10" width="30" height="30"/>
	<rect x="-136.5" y="22.5" fill="#000000" stroke="#FFFFFF" stroke-miterlimit="10" width="30" height="30"/>
	<rect x="-93.5" y="22.5" fill="#000000" stroke="#FFFFFF" stroke-miterlimit="10" width="30" height="30"/>
	<rect x="-49.5" y="22.5" fill="#000000" stroke="#FFFFFF" stroke-miterlimit="10" width="30" height="30"/>
</g>
<g id="Your_Icon">
	<path fill-rule="evenodd" clip-rule="evenodd" fill="#000000" d="M9.797,13.076l6.024-2.977l5.155,2.479l5.991-1.34l4.373,2.517   l-4.485-0.581l-5.921,1.878l-5.27-2.642L9.797,13.076z"/>
	<path fill="#000000" d="M34.885,16.89c1.168,0,2.115-0.947,2.115-2.116s-0.947-2.116-2.115-2.116s-2.116,0.947-2.116,2.116   c0,0.662,0.306,1.252,0.781,1.641l-0.917,1.222c-1.033-0.438-1.918-0.531-2.104-0.182c-0.17,0.321,0.307,0.923,1.121,1.492   l-1.486,1.981c-1.26-0.493-2.308-0.577-2.536-0.144c-0.211,0.396,0.327,1.117,1.276,1.822l-1,1.333   c-2.26-1.326-4.889-2.089-7.697-2.089c-2.979,0-5.757,0.858-8.104,2.336l-1.009-1.345c1.061-0.745,1.676-1.53,1.454-1.951   c-0.241-0.458-1.395-0.338-2.745,0.229l-1.459-1.944c0.924-0.603,1.483-1.27,1.302-1.615c-0.196-0.372-1.188-0.241-2.309,0.273   L6.366,16.54c0.572-0.379,0.949-1.027,0.949-1.765c0-1.168-0.947-2.116-2.116-2.116c-1.168,0-2.115,0.947-2.115,2.116   s0.947,2.116,2.115,2.116c0.127,0,0.251-0.013,0.372-0.035l0.678,1.587c-0.875,0.587-1.396,1.225-1.218,1.559   c0.168,0.32,0.928,0.268,1.85-0.081l0.973,2.281c-1.021,0.73-1.605,1.492-1.388,1.905c0.208,0.393,1.091,0.359,2.193-0.019   l0.899,2.105c-2.829,2.766-4.586,6.623-4.586,10.891l0,0h30.47l0,0c0-4.478-1.933-8.504-5.009-11.292l0.816-1.909   c1.225,0.467,2.235,0.54,2.459,0.116c0.235-0.444-0.46-1.292-1.625-2.07l0.948-2.223c1.037,0.441,1.927,0.537,2.112,0.187   c0.192-0.365-0.441-1.088-1.46-1.715l0.591-1.38C34.468,16.858,34.673,16.89,34.885,16.89z"/>
	<path fill-rule="evenodd" clip-rule="evenodd" fill="#000000" d="M4.772,38.346v50.626H35.64V38.346H4.772z M30.599,88.221H9.814   V39.097h20.784V88.221z"/>
	<circle fill="#000000" cx="19.923" cy="47.632" r="3.538"/>
	<path fill="#000000" d="M24.07,51.908l-7.93-0.003c-2.506,0-4.074,2.043-4.074,4.591v0.029v10.834v0.028   c0,1.056,0.697,1.584,1.394,1.584c0.698,0,1.396-0.528,1.396-1.584v-0.028V56.816h0.887L15.74,85.504   c0,1.096,0.889,1.984,1.982,1.984c1.098,0,1.985-0.889,1.985-1.984l0.001-16.641h0.884l-0.005,16.641   c0,1.096,0.888,1.984,1.983,1.984c1.095,0,1.982-0.889,1.982-1.984l0.009-28.689h0.87v6.01v4.563c0,1.062,0.693,1.595,1.386,1.595   c0.693,0,1.386-0.532,1.382-1.595V60.9V56.59v-0.029C28.2,54.212,26.82,51.908,24.07,51.908z M22.571,86.756   c-0.691,0-1.253-0.562-1.253-1.252l0.006-16.641l0.001-0.731h-0.732h-0.884h-0.731v0.731l-0.001,16.641   c0,0.69-0.563,1.252-1.254,1.252c-0.689,0-1.251-0.562-1.251-1.252l0.002-16.455l7.354-5.11l-0.007,21.565   C23.821,86.194,23.261,86.756,22.571,86.756z M27.469,67.39c0.001,0.301-0.078,0.538-0.228,0.688   c-0.11,0.111-0.261,0.173-0.423,0.173c-0.301,0-0.654-0.226-0.654-0.863v-5.071l1.305-0.907V67.39z"/>
	<path fill-rule="evenodd" clip-rule="evenodd" fill="#000000" d="M68.91,13.104l6.025-2.977l5.154,2.479l5.991-1.34l4.373,2.516   l-4.485-0.581l-5.921,1.878l-5.27-2.642L68.91,13.104z"/>
	<path fill="#000000" d="M93.998,16.919c1.168,0,2.116-0.947,2.116-2.116s-0.948-2.116-2.116-2.116s-2.116,0.947-2.116,2.116   c0,0.662,0.306,1.252,0.781,1.64l-0.917,1.222c-1.033-0.438-1.918-0.532-2.104-0.183c-0.169,0.322,0.307,0.923,1.121,1.492   l-1.486,1.982c-1.259-0.493-2.308-0.578-2.535-0.144c-0.212,0.396,0.326,1.117,1.276,1.822l-1.001,1.333   c-2.26-1.326-4.889-2.089-7.697-2.089c-2.979,0-5.757,0.859-8.104,2.337l-1.009-1.345c1.061-0.745,1.677-1.53,1.454-1.951   c-0.241-0.457-1.394-0.338-2.746,0.229l-1.458-1.944c0.924-0.603,1.484-1.269,1.302-1.614c-0.196-0.372-1.188-0.241-2.309,0.273   l-0.971-1.295c0.572-0.379,0.949-1.027,0.949-1.765c0-1.168-0.947-2.116-2.116-2.116c-1.168,0-2.115,0.947-2.115,2.116   s0.947,2.116,2.115,2.116c0.128,0,0.251-0.014,0.372-0.035l0.678,1.587c-0.874,0.587-1.396,1.225-1.218,1.56   c0.169,0.32,0.927,0.268,1.85-0.081l0.973,2.281c-1.021,0.731-1.605,1.493-1.388,1.905c0.208,0.393,1.092,0.359,2.193-0.019   l0.899,2.106c-2.829,2.766-4.586,6.622-4.586,10.891v0h30.47v0c0-4.477-1.933-8.504-5.009-11.291l0.816-1.909   c1.225,0.467,2.235,0.539,2.459,0.115c0.235-0.443-0.461-1.292-1.625-2.07l0.948-2.222c1.038,0.441,1.928,0.537,2.112,0.187   c0.192-0.365-0.441-1.087-1.46-1.715l0.591-1.38C93.581,16.887,93.786,16.919,93.998,16.919z"/>
	<path fill-rule="evenodd" clip-rule="evenodd" fill="#000000" d="M63.886,38.374V89h30.867V38.374H63.886z M89.712,88.249H68.928   V39.125h20.784V88.249z"/>
	<path fill="#000000" d="M79.036,44.855c1.548,0,2.807,1.258,2.807,2.806c0,1.547-1.259,2.806-2.807,2.806   c-1.547,0-2.806-1.258-2.806-2.806C76.23,46.113,77.489,44.855,79.036,44.855 M79.036,44.123c-1.954,0-3.538,1.584-3.538,3.539   c0,1.954,1.584,3.538,3.538,3.538s3.538-1.584,3.538-3.538C82.574,45.707,80.99,44.123,79.036,44.123L79.036,44.123z"/>
	<path fill="#000000" d="M83.184,51.966l-7.93-0.003c-2.505,0-4.074,2.043-4.074,4.59v10.863c0,1.057,0.697,1.584,1.395,1.584   s1.396-0.527,1.396-1.584V56.844h0.887l-0.003,28.689c0,1.095,0.889,1.983,1.983,1.983c1.097,0,1.984-0.889,1.984-1.983   l0.001-16.642h0.884l-0.005,16.642c0,1.095,0.889,1.983,1.983,1.983s1.982-0.889,1.982-1.983l0.009-28.69h0.87v6.01v4.535v0.028   c0,1.062,0.693,1.596,1.386,1.596c0.693,0,1.386-0.533,1.383-1.596v-0.028V60.93v-4.312C87.314,54.269,85.934,51.966,83.184,51.966   z M85.277,62.344v-5.501v-0.731h-0.731h-0.87h-0.731l-0.001,0.731l-0.002,7.125l-7.354,5.109l0.002-12.233v-0.731h-0.732H73.97   h-0.732v0.731v10.572c0,0.629-0.342,0.852-0.663,0.852c-0.32,0-0.663-0.223-0.663-0.852V56.553c0-2.271,1.375-3.858,3.343-3.858   l7.93,0.003c2.348,0,3.398,1.97,3.398,3.921v4.819L85.277,62.344z"/>
</g>
</svg>