<?xml version="1.0" encoding="utf-8"?>
<!-- Generator: Adobe Illustrator 16.0.0, SVG Export Plug-In . SVG Version: 6.00 Build 0)  -->
<!DOCTYPE svg PUBLIC "-//W3C//DTD SVG 1.1//EN" "http://www.w3.org/Graphics/SVG/1.1/DTD/svg11.dtd">
<svg version="1.1" id="Layer_1" xmlns="http://www.w3.org/2000/svg" xmlns:xlink="http://www.w3.org/1999/xlink" x="0px" y="0px"
	 width="80.333px" height="89.333px" viewBox="9.833 5.167 80.333 89.333" enable-background="new 9.833 5.167 80.333 89.333"
	 xml:space="preserve">
<g id="Captions">
</g>
<g id="Your_Icon">
	<g>
		<polygon fill="#33CCCC" points="24.86,34.75 75.141,34.75 50,74.971 37.09,54.32 		"/>
	</g>
	<g>
		<polygon fill="#333333" points="21.94,37.63 46.02,76.16 12.3,71.34 14.71,62.91 21.93,37.62 		"/>
		<path fill="#333333" d="M21.93,37.62l-7.22,25.29l7.23-25.28L21.93,37.62z"/>
	</g>
	<g>
		<polygon fill="#333333" points="78.061,37.63 78.07,37.62 85.29,62.91 87.7,71.34 53.98,76.16 		"/>
		<path fill="#333333" d="M78.07,37.62l-0.012,0.01l7.23,25.28L78.07,37.62z"/>
	</g>
	<g>
		<polygon fill="#888888" points="80.16,76.46 52,92.55 52,80.48 		"/>
	</g>
	<g>
		<polygon fill="#888888" points="48,80.48 48,92.55 19.84,76.46 		"/>
	</g>
	<g>
		<polygon fill="#333333" points="50,6.83 73.92,30.75 26.08,30.75 		"/>
	</g>
	<g>
		<polygon fill="#888888" points="86.45,24.47 78.939,30.11 60.13,11.3 		"/>
		<path fill="#888888" d="M81.05,33.52l7.2-5.39v-0.01L81.05,33.52z"/>
	</g>
	<g>
		<polygon fill="#888888" points="88.25,28.12 88.25,58.721 81.05,33.53 81.05,33.52 		"/>
	</g>
	<g>
		<polygon fill="#888888" points="39.87,11.3 21.07,30.11 13.55,24.47 		"/>
		<path fill="#888888" d="M11.75,28.12v0.01l7.2,5.39L11.75,28.12z"/>
	</g>
	<g>
		<polygon fill="#888888" points="11.75,28.12 18.95,33.52 18.95,33.53 11.75,58.721 		"/>
	</g>
</g>
</svg>
