<?xml version="1.0" encoding="utf-8"?>
<!-- Generator: Adobe Illustrator 16.0.0, SVG Export Plug-In . SVG Version: 6.00 Build 0)  -->
<!DOCTYPE svg PUBLIC "-//W3C//DTD SVG 1.1//EN" "http://www.w3.org/Graphics/SVG/1.1/DTD/svg11.dtd">
<svg version="1.1" id="Layer_1" xmlns="http://www.w3.org/2000/svg" xmlns:xlink="http://www.w3.org/1999/xlink" x="0px" y="0px"
	 width="76.5px" height="85.719px" viewBox="11.75 6.83 76.5 85.719" enable-background="new 11.75 6.83 76.5 85.719"
	 xml:space="preserve">
<g id="Captions">
</g>
<g id="Your_Icon">
	<g>
		<polygon fill="#33CCCC" points="24.86,34.75 75.141,34.75 50,74.971 37.09,54.32 		"/>
	</g>
	<g>
		<polygon fill="#333333" points="21.94,37.63 46.02,76.161 12.3,71.34 14.71,62.911 21.93,37.62 		"/>
		<path fill="#333333" d="M21.93,37.62l-7.22,25.291l7.23-25.281L21.93,37.62z"/>
	</g>
	<g>
		<polygon fill="#333333" points="78.061,37.63 78.07,37.62 85.29,62.911 87.7,71.34 53.98,76.161 		"/>
		<path fill="#333333" d="M78.07,37.62l-0.012,0.01l7.229,25.281L78.07,37.62z"/>
	</g>
	<g>
		<polygon fill="#888888" points="80.161,76.459 52,92.549 52,80.48 		"/>
	</g>
	<g>
		<polygon fill="#888888" points="48,80.48 48,92.549 19.84,76.459 		"/>
	</g>
	<g>
		<polygon fill="#333333" points="50,6.83 73.92,30.75 26.08,30.75 		"/>
	</g>
	<g>
		<polygon fill="#888888" points="86.45,24.47 78.939,30.11 60.129,11.3 		"/>
		<path fill="#888888" d="M81.049,33.52l7.201-5.39v-0.01L81.049,33.52z"/>
	</g>
	<g>
		<polygon fill="#888888" points="88.25,28.12 88.25,58.721 81.049,33.53 81.049,33.52 		"/>
	</g>
	<g>
		<polygon fill="#888888" points="39.87,11.3 21.07,30.11 13.55,24.47 		"/>
		<path fill="#888888" d="M11.75,28.12v0.01l7.2,5.39L11.75,28.12z"/>
	</g>
	<g>
		<polygon fill="#888888" points="11.75,28.12 18.95,33.52 18.95,33.53 11.75,58.721 		"/>
	</g>
</g>
</svg>
