<?xml version="1.0" encoding="utf-8"?>

<!-- The icon can be used freely in both personal and commercial projects with no attribution required, but always appreciated. 
You may NOT sub-license, resell, rent, redistribute or otherwise transfer the icon without express written permission from iconmonstr.com -->

<!DOCTYPE svg PUBLIC "-//W3C//DTD SVG 1.1//EN" "http://www.w3.org/Graphics/SVG/1.1/DTD/svg11.dtd">
<svg version="1.1" xmlns="http://www.w3.org/2000/svg" xmlns:xlink="http://www.w3.org/1999/xlink" x="0px" y="0px"
	 width="512px" height="512px" viewBox="0 0 512 512" enable-background="new 0 0 512 512" xml:space="preserve">
<path id="time-10-icon" d="M349.657,118.254l20.986-30.542l32.918,22.725l-20.891,30.402
	C372.493,132.249,361.44,124.661,349.657,118.254z M225.722,49.12v47.701c9.873-1.532,19.982-2.331,30.277-2.331
	c10.102,0,20.027,0.768,29.723,2.243V49.12H225.722z M427.694,291.185c0,94.824-76.869,171.695-171.695,171.695
	c-94.824,0-171.693-76.871-171.693-171.695c0-94.823,76.869-171.694,171.693-171.694
	C350.825,119.49,427.694,196.361,427.694,291.185z M382.694,291.185c0-70.031-56.678-126.694-126.695-126.694
	c-70.031,0-126.693,56.678-126.693,126.694c0,70.031,56.678,126.695,126.693,126.695C326.03,417.88,382.694,361.204,382.694,291.185
	z M289.263,300.227c0,17.396-14.102,31.5-31.5,31.5c-17.396,0-31.5-14.104-31.5-31.5c0-11.301,5.955-21.207,14.895-26.766
	l11.525-86.607c0.236-1.949,1.871-3.428,3.834-3.471c1.963-0.042,3.658,1.364,3.979,3.301l13.33,86.447
	C283.067,278.621,289.263,288.698,289.263,300.227z M267,400.861h-20v-26h20V400.861z M367,280.861v20h-26v-20H367z M147,280.861v20
	h26v-20H147z M341.853,361.572l-14.142,14.142l-17.213-17.213l14.142-14.142L341.853,361.572z M186.289,206.009l-14.143,14.143
	l17.214,17.213l14.142-14.143L186.289,206.009z M327.711,206.009l14.142,14.143l-17.213,17.213l-14.142-14.143L327.711,206.009z
	 M172.146,361.573l14.143,14.142l17.213-17.214l-14.142-14.142L172.146,361.573z"/>
</svg>
