<?xml version="1.0" encoding="utf-8"?>
<!-- Generator: Adobe Illustrator 16.0.0, SVG Export Plug-In . SVG Version: 6.00 Build 0)  -->
<!DOCTYPE svg PUBLIC "-//W3C//DTD SVG 1.1//EN" "http://www.w3.org/Graphics/SVG/1.1/DTD/svg11.dtd">
<svg version="1.1" id="Layer_1" xmlns="http://www.w3.org/2000/svg" xmlns:xlink="http://www.w3.org/1999/xlink" x="0px" y="0px"
	 width="300px" height="268.555px" viewBox="0 0 300 268.555" enable-background="new 0 0 300 268.555" xml:space="preserve">
<g>
	<path fill="#FFD777" d="M252.042,125.167c-3.815-2.18-7.958-3.647-12.23-4.447c-6.173-10.45-14.426-19.938-24.689-27.83
		C171.81,59.586,109.164,67.278,75.196,110.07c-6.675,8.409-11.739,17.55-15.25,27.06c-6.194,2.635-11.76,6.688-15.965,12.02
		c-12.312,15.612-8.297,36.265,8.967,46.128c1.553,0.887,3.161,1.652,4.809,2.307c5.551,19.265,17.12,37.015,34.356,50.268
		c43.311,33.303,105.958,25.61,139.926-17.182c12.307-15.503,19.155-33.486,20.833-51.701c3.047-2.148,5.802-4.713,8.136-7.673
		C273.321,155.683,269.306,135.031,252.042,125.167z"/>
	<g>
		<path fill="#B3B3B3" d="M257.06,120.541l-15.469-12.676l-31.774,38.776c-12.466-5.653-28.988-3.116-38.721,6.473
			c-2.882,2.839-4.866,6.007-5.995,9.28l-23.729-0.726c-1.762-2.673-4.209-5.095-7.331-7.089
			c-12.701-8.115-31.701-6.117-42.438,4.459c-1.7,1.675-3.089,3.466-4.176,5.324l-9.731,10.84l7.792,5.781
			c1.519,4.57,4.761,8.762,9.672,11.898c3.752,2.396,8.055,3.904,12.53,4.575l9.458,7.019l7.56-8.422
			c4.851-1.564,9.326-4.123,12.889-7.633c2.119-2.088,3.75-4.354,4.918-6.709l26.875,0.822c1.464,1.623,3.217,3.114,5.263,4.421
			c12.7,8.114,31.7,6.117,42.438-4.46c6.299-6.206,8.348-13.985,6.405-20.995L257.06,120.541z"/>
	</g>
	<g>
		<path fill="#D38300" d="M161.805,221.522l4.693-0.249c1.013,2.333,1.58,4.639,1.701,6.916c0.199,3.754-0.754,6.808-2.86,9.159
			c-2.105,2.352-5.027,3.627-8.765,3.826c-3.771,0.2-6.871-0.725-9.298-2.774c-2.428-2.049-3.735-4.847-3.924-8.393
			c-0.066-1.234-0.007-2.35,0.175-3.344c0.182-0.994,0.557-2.229,1.123-3.707l5.058-0.27c-1.402,2.48-2.049,4.746-1.939,6.797
			c0.113,2.138,0.959,3.854,2.535,5.146c1.577,1.294,3.53,1.878,5.859,1.754c2.451-0.13,4.358-0.977,5.722-2.54
			c1.364-1.562,1.979-3.604,1.845-6.123C163.632,225.895,162.991,223.829,161.805,221.522z"/>
	</g>
</g>
<g>
	<path fill="#343434" d="M253.254,71.76c60.091,13.182,62.576,42.58,5.551,65.662c-57.026,23.084-151.968,31.11-212.059,17.928
		c-60.091-13.182-62.577-42.58-5.551-65.663S193.163,58.579,253.254,71.76"/>
	<g>
		<g>
			<path fill="#676767" d="M226.311,32.249c-2.801-4.653-5.872-8.053-9.025-10.218c-4.295-3.988-9.558-7.638-15.827-10.799
				C164.488-7.411,107.378-2.32,73.9,22.602c-9.256,6.891-15.723,14.578-19.474,22.485c-1.365,2.117-2.599,4.723-3.649,7.838
				c-6.205,18.4-3.772,47.176,5.434,64.273c0.716,1.33,1.454,2.537,2.206,3.647c2.057,6.33,10.34,11.946,24.875,15.695
				c33.742,8.701,88.309,4.057,121.878-10.374c8.575-3.688,14.937-7.657,19.114-11.668c3.052-2.668,5.782-6.763,7.943-12.282
				C240.105,82.092,237.457,50.766,226.311,32.249z"/>
		</g>
		<g>
			<path fill="#FFFFFF" d="M123.342,45.765c20.572-1.854,33.895,12.531,35.298,28.112c1.404,15.581-9.132,32.116-29.704,33.97
				c-20.572,1.854-33.895-12.531-35.299-28.112C92.233,64.154,102.77,47.619,123.342,45.765z M127.861,95.918
				c11.077-0.998,18.343-10.244,17.389-20.834c-0.955-10.59-9.756-18.386-20.833-17.388c-11.078,0.999-18.344,10.243-17.389,20.833
				C107.982,89.12,116.784,96.917,127.861,95.918z"/>
			<path fill="#FFFFFF" d="M178.994,24.674l4.75,52.709c0.614,6.816,2.294,9.12,6.265,10.971l7.168,3.281l-4.7,10.486
				c-13.584-5.034-20.076-8.99-21.185-21.284l-4.958-55.022L178.994,24.674z"/>
		</g>
	</g>
</g>
<g>
</g>
<g>
</g>
<g>
</g>
<g>
</g>
<g>
</g>
<g>
</g>
<g>
</g>
<g>
</g>
<g>
</g>
<g>
</g>
<g>
</g>
<g>
</g>
<g>
</g>
<g>
</g>
<g>
</g>
</svg>
