<?xml version="1.0" encoding="utf-8"?>

<!-- The icon can be used freely in both personal and commercial projects with no attribution required, but always appreciated. 
You may NOT sub-license, resell, rent, redistribute or otherwise transfer the icon without express written permission from iconmonstr.com -->

<!DOCTYPE svg PUBLIC "-//W3C//DTD SVG 1.1//EN" "http://www.w3.org/Graphics/SVG/1.1/DTD/svg11.dtd">
<svg version="1.1" xmlns="http://www.w3.org/2000/svg" xmlns:xlink="http://www.w3.org/1999/xlink" x="0px" y="0px"
	 width="512px" height="512px" viewBox="0 0 512 512" enable-background="new 0 0 512 512" xml:space="preserve">
<path id="youtube-5-icon" d="M256,50C142.229,50,50,142.229,50,256s92.229,206,206,206c113.77,0,206-92.229,206-206
	S369.77,50,256,50z M256,422c-91.744,0-166-74.244-166-166c0-91.743,74.244-166,166-166c91.738,0,166,74.244,166,166
	C422,347.739,347.755,422,256,422z M189.453,141.687h13.245l9.068,34.031l8.426-34.031h13.361l-15.304,50.607v34.532h-13.152
	v-34.532L189.453,141.687z M232.958,211.162c0,11.068,5.784,16.83,17.109,16.83c9.391,0,16.787-6.28,16.787-16.83v-30.786
	c0-9.83-7.321-16.873-16.787-16.873c-10.284,0-17.109,6.796-17.109,16.873V211.162z M244.975,181.413
	c0-3.438,1.583-5.989,4.863-5.989c3.581,0,5.113,2.475,5.113,5.989v29.214c0,3.419-1.743,5.946-4.884,5.946
	c-3.226,0-5.093-2.638-5.093-5.946V181.413z M298.42,164.021v47.672c-1.422,1.782-4.588,4.703-6.865,4.703
	c-2.499,0-3.11-1.705-3.11-4.231v-48.145h-11.677v52.495c0,6.204,1.896,11.218,8.156,11.218c3.533,0,8.438-1.838,13.496-7.84v6.933
	h11.677v-62.805H298.42z M281.244,292.77c0.793,1.047,1.188,2.578,1.188,4.596v30.885c0,1.905-0.321,3.279-0.963,4.121
	c-1.226,1.605-3.88,1.533-5.689,0.616c-0.851-0.429-1.728-1.13-2.634-2.104V293.61c0.756-0.821,1.52-1.43,2.294-1.823
	C277.387,290.803,279.899,290.994,281.244,292.77z M318.68,291.414c-4.121,0-4.968,2.9-4.968,7.011v6.056h9.825v-6.056
	C323.537,294.383,322.68,291.414,318.68,291.414z M352.596,335.538c0,14.788-11.988,26.775-26.775,26.775H188.18
	c-14.787,0-26.774-11.987-26.774-26.775v-67.642c0-14.789,11.987-26.776,26.774-26.776H325.82c14.787,0,26.775,11.987,26.775,26.776
	V335.538z M206.521,272.953h12.957v-11.77h-38.437v11.77h12.955v69.315h12.524V272.953z M251.068,282.455h-11.121v45.402
	c-1.356,1.698-4.37,4.479-6.538,4.479c-2.379,0-2.962-1.623-2.962-4.03v-45.851h-11.122v49.994c0,12.137,8.229,12.21,14.225,8.775
	c2.217-1.271,4.348-3.125,6.397-5.56v6.604h11.121V282.455z M293.878,296.693c0-8.113-2.696-14.994-10.842-14.994
	c-3.973,0-7.379,2.531-9.89,5.589v-26.104h-11.228v81.085h11.228v-4.598c3.101,3.866,6.492,5.354,10.564,5.354
	c7.398,0,10.167-5.749,10.167-13.148V296.693z M334.982,298.535c0-10.811-5.155-17.592-15.824-17.592
	c-10.032,0-16.892,7.208-16.892,17.592v26.848c0,10.77,5.431,18.506,16.049,18.506c11.72,0,16.667-6.98,16.667-18.506v-4.493
	h-11.445v4.158c0,5.208-0.274,8.367-4.969,8.367c-4.477,0-4.856-3.881-4.856-8.367v-11.283h21.271V298.535z"/>
</svg>
