<?xml version="1.0" encoding="utf-8"?>
<!-- Generator: Adobe Illustrator 16.0.0, SVG Export Plug-In . SVG Version: 6.00 Build 0)  -->
<!DOCTYPE svg PUBLIC "-//W3C//DTD SVG 1.1//EN" "http://www.w3.org/Graphics/SVG/1.1/DTD/svg11.dtd">
<svg version="1.1" id="Capa_1" xmlns="http://www.w3.org/2000/svg" xmlns:xlink="http://www.w3.org/1999/xlink" x="0px" y="0px"
	 width="65.656px" height="77.166px" viewBox="17.172 11.417 65.656 77.166" enable-background="new 17.172 11.417 65.656 77.166"
	 xml:space="preserve">
<g>
	<path fill="#33CCCC" d="M42.812,41.677c3.199-3.21,3.228-8.367,0.088-11.613c3.14-3.241,3.104-8.409-0.095-11.601
		c-3.199-3.206-8.36-3.224-11.595-0.095c-3.241-3.129-8.409-3.104-11.619,0.095c-3.199,3.199-3.224,8.37-0.08,11.604
		c-3.129,3.246-3.102,8.411,0.091,11.613c2.907,2.897,7.407,3.186,10.642,0.894l0.967-0.637l0.957,0.626
		C35.412,44.866,39.923,44.578,42.812,41.677z M35.184,34.038c-2.197,2.197-5.758,2.197-7.952,0c-2.19-2.191-2.19-5.749,0-7.943
		c2.194-2.193,5.755-2.193,7.952,0C37.381,28.285,37.381,31.847,35.184,34.038z"/>
	<path fill="#333333" d="M81.994,79.216h-8.532c4.957-5.354,7.671-12.198,7.671-19.469c0-9.773-4.834-18.703-12.973-24.061
		l8.642-14.944c0.112-0.193,0.142-0.422,0.077-0.644c-0.053-0.211-0.193-0.391-0.379-0.507l-0.693-0.394l1.805-3.157
		c0.234-0.396,0.096-0.906-0.311-1.135l-5.843-3.375c-0.196-0.116-0.415-0.141-0.633-0.085c-0.212,0.057-0.407,0.197-0.513,0.391
		l-1.818,3.146l-0.756-0.446c-0.193-0.113-0.43-0.141-0.641-0.088c-0.223,0.066-0.406,0.2-0.514,0.394L44.367,53.32
		c-0.236,0.396-0.085,0.914,0.309,1.143l1.213,0.699l-2.338,4.04c-0.105,0.196-0.133,0.425-0.077,0.64
		c0.05,0.211,0.19,0.397,0.387,0.51l4.887,2.819c0.19,0.108,0.422,0.146,0.633,0.081c0.218-0.057,0.394-0.2,0.507-0.391l2.33-4.039
		l1.222,0.699c0.195,0.107,0.422,0.145,0.634,0.084c0.211-0.058,0.405-0.203,0.513-0.396l8.896-15.398
		c5.209,3.649,8.285,9.544,8.285,15.936c0,10.735-8.736,19.469-19.486,19.469H35.922c-0.475,0-0.851,0.377-0.851,0.841v7.692
		c0,0.457,0.376,0.833,0.851,0.833h46.072c0.468,0,0.834-0.376,0.834-0.833v-7.692C82.828,79.593,82.462,79.216,81.994,79.216z"/>
	<path fill="#333333" d="M52.312,74.73c0.301,0,0.582-0.147,0.736-0.416l1.854-3.225c0.101-0.18,0.143-0.41,0.078-0.63
		c-0.043-0.214-0.188-0.396-0.387-0.506L35.852,59.121c-0.394-0.229-0.914-0.088-1.143,0.312l-1.863,3.213
		c-0.105,0.195-0.141,0.43-0.08,0.641c0.062,0.211,0.203,0.396,0.396,0.506L51.9,74.625C52.041,74.695,52.182,74.73,52.312,74.73z"
		/>
</g>
</svg>
