<svg xmlns:dc="http://purl.org/dc/elements/1.1/" xmlns:cc="http://creativecommons.org/ns#" xmlns:rdf="http://www.w3.org/1999/02/22-rdf-syntax-ns#" xmlns:svg="http://www.w3.org/2000/svg" xmlns="http://www.w3.org/2000/svg" xmlns:sodipodi="http://sodipodi.sourceforge.net/DTD/sodipodi-0.dtd" xmlns:inkscape="http://www.inkscape.org/namespaces/inkscape" width="100" height="100" viewBox="0 0 80 80" version="1.1" id="svg2" inkscape:version="0.48.2 r9819" sodipodi:docname="blank.svg">
  <metadata id="metadata10">
    <rdf:RDF>
      <cc:Work rdf:about="">
        <dc:format>image/svg+xml</dc:format>
        <dc:type rdf:resource="http://purl.org/dc/dcmitype/StillImage"/>
        <dc:title/>
      </cc:Work>
    </rdf:RDF>
  </metadata>
  <defs id="defs8"/>
  <sodipodi:namedview pagecolor="#ffffff" bordercolor="#666666" borderopacity="1" objecttolerance="10" gridtolerance="10" guidetolerance="10" inkscape:pageopacity="0" inkscape:pageshadow="2" inkscape:window-width="1366" inkscape:window-height="706" id="namedview6" showgrid="true" inkscape:zoom="4.2802449" inkscape:cx="46.299412" inkscape:cy="58.274907" inkscape:window-x="-8" inkscape:window-y="-8" inkscape:window-maximized="1" inkscape:current-layer="svg2" inkscape:snap-grids="false">
    <inkscape:grid type="xygrid" id="grid3807"/>
  </sodipodi:namedview>
  <g id="g7632" transform="matrix(-0.39962881,0.91667705,-0.91667705,-0.39962881,106.12774,22.121293)" style="stroke:none;fill:#000000">
    <path style="font-size:medium;font-style:normal;font-variant:normal;font-weight:normal;font-stretch:normal;text-indent:0;text-align:start;text-decoration:none;line-height:normal;letter-spacing:normal;word-spacing:normal;text-transform:none;direction:ltr;block-progression:tb;writing-mode:lr-tb;text-anchor:start;baseline-shift:baseline;color:#000000;fill:#000000;fill-opacity:1;stroke:none;stroke-width:0.23049335000000001;marker:none;visibility:visible;display:inline;overflow:visible;enable-background:accumulate;font-family:Sans;-inkscape-font-specification:Sans" d="M 12,23.84375 12,23.9375 12,56 l 0,0.125 0.125,0 19.875,0 0.125,0 0,-0.125 0,-32.0625 0,-0.09375 -0.125,0 -19.875,0 -0.125,0 z m 0.21875,0.21875 19.65625,0 0,31.8125 -19.65625,0 0,-31.8125 z" id="rect6740" inkscape:connector-curvature="0"/>
    <path transform="scale(0.8,0.8)" style="fill:#000000;stroke:none" d="m 15,30 5,0 0,5 -5,0 z" id="rect7510"/>
    <path style="fill:#000000;stroke:none" d="m 12,32 4,0 0,4 -4,0 z" id="rect7512"/>
    <path style="fill:#000000;stroke:none" d="m 12,39.999992 4,0 0,4 -4,0 z" id="rect7514"/>
    <path style="fill:#000000;stroke:none" d="m 12,47.999985 4,0 0,4 -4,0 z" id="rect7516"/>
    <path style="fill:#000000;stroke:none" d="m 16,44 4,0 0,4 -4,0 z" id="rect7518"/>
    <path style="fill:#000000;stroke:none" d="m 16,36.000008 4,0 0,4 -4,0 z" id="rect7520"/>
    <path style="fill:#000000;stroke:none" d="m 16,28.00001 4,0 0,4 -4,0 z" id="rect7522"/>
    <path style="fill:#000000;stroke:none" d="m 16,51.999992 4,0 0,4 -4,0 z" id="rect7524"/>
    <path style="fill:#000000;stroke:none" d="m 20.000002,24 4,0 0,4 -4,0 z" id="rect7528"/>
    <path style="fill:#000000;stroke:none" d="m 20.000002,32 4,0 0,4 -4,0 z" id="rect7530"/>
    <path style="fill:#000000;stroke:none" d="m 20.000002,39.999992 4,0 0,4 -4,0 z" id="rect7532"/>
    <path style="fill:#000000;stroke:none" d="m 20.000002,47.999985 4,0 0,4 -4,0 z" id="rect7534"/>
    <path style="fill:#000000;stroke:none" d="m 24.000002,44 4,0 0,4 -4,0 z" id="rect7536"/>
    <path style="fill:#000000;stroke:none" d="m 24.000002,36.000008 4,0 0,4 -4,0 z" id="rect7538"/>
    <path style="fill:#000000;stroke:none" d="m 24.000002,28.00001 4,0 0,4 -4,0 z" id="rect7540"/>
    <path style="fill:#000000;stroke:none" d="m 24.000002,51.999992 4,0 0,4 -4,0 z" id="rect7542"/>
    <path style="fill:#000000;stroke:none" d="m 28.000004,24 4,0 0,4 -4,0 z" id="rect7544"/>
    <path style="fill:#000000;stroke:none" d="m 28.000004,32 4,0 0,4 -4,0 z" id="rect7546"/>
    <path style="fill:#000000;stroke:none" d="m 28.000004,39.999992 4,0 0,4 -4,0 z" id="rect7548"/>
    <path style="fill:#000000;stroke:none" d="m 28.000004,47.999985 4,0 0,4 -4,0 z" id="rect7550"/>
  </g>
  <g transform="matrix(0.39962881,0.91667705,0.91667705,-0.39962881,-25.660474,22.121293)" id="g7655" style="stroke:none;fill:#000000">
    <path style="font-size:medium;font-style:normal;font-variant:normal;font-weight:normal;font-stretch:normal;text-indent:0;text-align:start;text-decoration:none;line-height:normal;letter-spacing:normal;word-spacing:normal;text-transform:none;direction:ltr;block-progression:tb;writing-mode:lr-tb;text-anchor:start;baseline-shift:baseline;color:#000000;fill:#000000;fill-opacity:1;stroke:none;stroke-width:0.23049335000000001;marker:none;visibility:visible;display:inline;overflow:visible;enable-background:accumulate;font-family:Sans;-inkscape-font-specification:Sans" d="M 12,23.84375 12,23.9375 12,56 l 0,0.125 0.125,0 19.875,0 0.125,0 0,-0.125 0,-32.0625 0,-0.09375 -0.125,0 -19.875,0 -0.125,0 z m 0.21875,0.21875 19.65625,0 0,31.8125 -19.65625,0 0,-31.8125 z" id="rect7657" inkscape:connector-curvature="0"/>
    <path transform="scale(0.8,0.8)" style="fill:#000000;stroke:none" d="m 15,30 5,0 0,5 -5,0 z" id="rect7659"/>
    <path style="fill:#000000;stroke:none" d="m 12,32 4,0 0,4 -4,0 z" id="rect7661"/>
    <path style="fill:#000000;stroke:none" d="m 12,39.999992 4,0 0,4 -4,0 z" id="rect7663"/>
    <path style="fill:#000000;stroke:none" d="m 12,47.999985 4,0 0,4 -4,0 z" id="rect7665"/>
    <path style="fill:#000000;stroke:none" d="m 16,44 4,0 0,4 -4,0 z" id="rect7667"/>
    <path style="fill:#000000;stroke:none" d="m 16,36.000008 4,0 0,4 -4,0 z" id="rect7669"/>
    <path style="fill:#000000;stroke:none" d="m 16,28.00001 4,0 0,4 -4,0 z" id="rect7671"/>
    <path style="fill:#000000;stroke:none" d="m 16,51.999992 4,0 0,4 -4,0 z" id="rect7673"/>
    <path style="fill:#000000;stroke:none" d="m 20.000002,24 4,0 0,4 -4,0 z" id="rect7675"/>
    <path style="fill:#000000;stroke:none" d="m 20.000002,32 4,0 0,4 -4,0 z" id="rect7677"/>
    <path style="fill:#000000;stroke:none" d="m 20.000002,39.999992 4,0 0,4 -4,0 z" id="rect7679"/>
    <path style="fill:#000000;stroke:none" d="m 20.000002,47.999985 4,0 0,4 -4,0 z" id="rect7681"/>
    <path style="fill:#000000;stroke:none" d="m 24.000002,44 4,0 0,4 -4,0 z" id="rect7683"/>
    <path style="fill:#000000;stroke:none" d="m 24.000002,36.000008 4,0 0,4 -4,0 z" id="rect7685"/>
    <path style="fill:#000000;stroke:none" d="m 24.000002,28.00001 4,0 0,4 -4,0 z" id="rect7687"/>
    <path style="fill:#000000;stroke:none" d="m 24.000002,51.999992 4,0 0,4 -4,0 z" id="rect7689"/>
    <path style="fill:#000000;stroke:none" d="m 28.000004,24 4,0 0,4 -4,0 z" id="rect7691"/>
    <path style="fill:#000000;stroke:none" d="m 28.000004,32 4,0 0,4 -4,0 z" id="rect7693"/>
    <path style="fill:#000000;stroke:none" d="m 28.000004,39.999992 4,0 0,4 -4,0 z" id="rect7695"/>
    <path style="fill:#000000;stroke:none" d="m 28.000004,47.999985 4,0 0,4 -4,0 z" id="rect7697"/>
  </g>
  <path transform="matrix(0.91712892,-0.39859069,0.39859069,0.91712892,0,0)" style="fill:#000000;fill-opacity:1;stroke:none" d="m 23.55007,21.256069 2.406189,0 0,52 -2.406189,0 z" id="rect7699"/>
  <path transform="matrix(0.9159952,0.40118923,-0.40118923,0.9159952,0,0)" style="fill:#000000;fill-opacity:1;stroke:none" d="m 47.877575,-10.953096 2.406189,0 0,52 -2.406189,0 z" id="rect7701"/>
</svg>