<?xml version="1.0" encoding="utf-8"?>
<!-- Generator: Adobe Illustrator 16.0.0, SVG Export Plug-In . SVG Version: 6.00 Build 0)  -->
<!DOCTYPE svg PUBLIC "-//W3C//DTD SVG 1.1//EN" "http://www.w3.org/Graphics/SVG/1.1/DTD/svg11.dtd">
<svg version="1.1" id="Your_Icon" xmlns="http://www.w3.org/2000/svg" xmlns:xlink="http://www.w3.org/1999/xlink" x="0px" y="0px"
	 width="100px" height="100px" viewBox="0 0 100 100" enable-background="new 0 0 100 100" xml:space="preserve">
<g>
	<path fill="#33CCCC" d="M73.113,24.794c-0.014,1.14,0.791,1.46,1.125,2.251c0.91-0.253,1.646-0.677,2.193-1.291
		c-0.221-0.425-0.451-0.843-0.691-1.254C74.956,24.372,73.997,24.625,73.113,24.794z"/>
	<path fill="#33CCCC" d="M57.355,18.417c0.787,1.046,1.922,0.546,3.002,0c0.131,0.877,1.097,0.78,1.5,1.5
		c0.748,1.333,0.199,3.072,0.75,4.502c0.069,0.169,0.599,0.487,0.75,0.75c0.16,0.27,0.162,0.813,0.375,1.125
		c0.588,0.849,1.029,1.332,2.627,1.126c1.104-0.147,0.738-1.769,1.502-2.251c1.543-0.207,2.428-1.077,4.125-1.126
		c0.355-1.083,1.009-1.867,1.589-2.725c-2.546-3.238-5.786-5.907-9.496-7.772c-1.236,0.126-2.479,0.245-3.722,0.367
		C59.6,15.659,57.646,16.203,57.355,18.417z"/>
	<path fill="#333333" d="M25.87,27.282c0.884-1.992,1.989-3.862,3.29-5.58"/>
	<path fill="#333333" d="M59.566,65.48"/>
	<path fill="#33CCCC" d="M63.357,61.562c0.604-0.633,1.537-1.455,2.252-2.25c0.717-0.799,1.888-1.627,2.252-2.252
		c0.757-1.313-0.133-3.013,1.502-4.129c-1.817-0.81-2.604-2.646-5.254-2.625c0.312-1.063-0.528-0.973-0.377-1.877
		c-0.75,0-1.5,0-2.248,0c0-0.628,0-1.25,0-1.875c-3.354-0.372-4.909-0.174-7.881,0.375c-0.078-1.675-1.939-1.563-1.5-3.753
		c-1.393,0.273-2.992,0.784-3.376-0.75c0.438-0.562,0.465-1.534,1.126-1.877c1,0,1.999,0,3,0c0.664,0.334,0.478,1.524,1.875,1.126
		c0.008-0.886-0.645-1.104-0.375-2.25c1.172-0.458,2.237-1.017,1.877-3.001c0.321-0.155,1.34-0.109,1.5-0.375
		c0.832-1.359-0.709-0.845,0.752-1.501c0.134-0.06,0.219-0.665,0.375-0.75c1.492-0.822,3.158-0.994,3.75-2.251
		c-1.157-1.342-2.373-2.629-3.375-4.126c-1.777,0.148-2.582-0.672-4.504-0.375c-0.213,1.711,1.09,3.267-0.375,4.125
		c-1.141-1.361-3.021-1.976-4.5-3c-0.004-1.97,1.97-2.8,3.75-1.876c-0.037-1.667-0.193-3.449,1.875-3.002
		c-0.43,0.442-0.424,1.325-0.375,2.251c1.09,0.412,2.664,0.337,3.754,0.75c0.172-1.201,1.43-1.325,1.5-2.626
		c-1.062-0.363-1.996-1.437-3.002-2.251c-0.9-0.729-2.972-1.865-3.002-2.626c0.008,0.243,0.856-0.804,1.125-1.125
		c1.385-1.655,2.66-2.398,3.379-4.128c-8.507-0.627-12.19,3.569-18.759,4.878c-0.271,0.854-0.334,1.917-0.75,2.626
		c0.42,0.607,2.619,1.347,1.876,1.875c-1.727-0.123-3.914-0.536-6.004-0.75c-2.357-0.241-4.378-0.516-6.059-0.465
		c-1.301,1.717-2.406,3.588-3.29,5.58c-0.008,0.17-0.004,0.327-0.03,0.515c0.563,0.563,1.581,0.67,1.876,1.5
		c-0.518,0.386-2.225,1.489-1.501,1.875c1.775-0.561,4.42-2.97,6.38-3c2.565-0.042,4.756,1.801,4.126,3.375
		c2.533,0.683,3.118,2.315,2.627,5.254c1.287,1.965,3.035,3.466,4.125,5.627c0.628,0,1.25,0,1.876,0
		c1.505,1.872,3.227,3.526,6.38,3.752c0.164,1.586,1.756,1.748,3,2.251c0.248,1.372-0.811,1.439-0.752,2.626
		c0.455,1.547,1.281,2.724,1.502,4.502c1.115,0.14,1.851,0.648,2.252,1.5c-0.215,2.312-1.684,6.062-1.771,9.246
		c1.229-0.195,2.433-0.476,3.604-0.826C60.387,64.275,62.093,62.902,63.357,61.562z"/>
	<path fill="#33CCCC" d="M56.605,43.929c1.051,0.702,2.578,0.923,3.752,1.501C60.352,44.371,56.82,43.137,56.605,43.929z"/>
	<path fill="#33CCCC" d="M53.604,42.428c-0.41,1.586,1.912,1.421,2.252,1.126C55.867,42.416,54.538,42.619,53.604,42.428z"/>
</g>
<g>
	<g>
		<path fill="#333333" stroke="#231F20" stroke-width="6.575" stroke-linecap="round" stroke-miterlimit="10" d="M83.157,71.136"/>
	</g>
	<g>
		<path fill="#333333" stroke="#231F20" stroke-width="6.575" stroke-linecap="round" stroke-miterlimit="10" d="M19.761,5.995"/>
	</g>
	<path fill="#333333" d="M87.811,56.598c-0.803-0.738-2.052-0.688-2.785,0.114l-5.504,5.976l-4.035-4.146
		c-0.008-0.008-0.018-0.014-0.024-0.021c4.511-5.416,7.228-12.373,7.228-19.956c0-17.221-14.01-31.231-31.229-31.231
		c-7.294,0-14.006,2.521-19.328,6.726c-0.092-0.127-0.182-0.255-0.294-0.371L28.1,9.847l6.188-5.085
		c0.842-0.691,0.963-1.935,0.271-2.776c-0.691-0.842-1.936-0.963-2.776-0.271l-6.444,5.296l-3.22-3.309
		c-1.266-1.3-3.347-1.33-4.648-0.063c-1.301,1.266-1.329,3.347-0.063,4.649l3.134,3.22c-6.425,7.318-10.018,16.574-10.17,26.418
		c-0.17,10.975,3.943,21.359,11.583,29.24c6.231,6.428,14.069,10.368,22.274,11.822v3.688H41.33c-1.089,0-1.973,0.884-1.973,1.972
		c0,1.09,0.883,1.974,1.973,1.974h2.899v0.438H41.33c-2.179,0-3.945,1.768-3.945,3.945s1.767,3.945,3.945,3.945h2.899v0.354h-6.908
		c-1.089,0-1.973,0.883-1.973,1.973s0.884,1.973,1.973,1.973H65.55c1.091,0,1.974-0.883,1.974-1.973s-0.883-1.973-1.974-1.973
		h-6.858v-0.354h2.898c2.18,0,3.945-1.768,3.945-3.945s-1.768-3.945-3.945-3.945h-2.898v-0.438h2.898
		c1.09,0,1.973-0.884,1.973-1.974c0-1.088-0.883-1.972-1.973-1.972h-2.898v-3.685c6.803-1.206,13.357-4.135,18.973-8.79l3.138,3.225
		c0.646,0.663,1.5,0.995,2.356,0.995c0.826,0,1.652-0.311,2.292-0.932c1.302-1.268,1.329-3.348,0.063-4.648l-3.236-3.326
		l5.647-6.134C88.663,58.583,88.611,57.335,87.811,56.598z M78.744,38.565c0,15.044-12.24,27.287-27.285,27.287
		c-15.046,0-27.287-12.24-27.287-27.287c0-15.046,12.241-27.286,27.287-27.286C66.504,11.279,78.744,23.52,78.744,38.565z
		 M24.785,64.421C17.878,57.297,14.16,47.91,14.314,37.988c0.137-8.793,3.306-17.068,8.983-23.646l3.828,3.934
		c0.111,0.114,0.236,0.206,0.359,0.3c-4.527,5.42-7.257,12.391-7.257,19.989c0,17.221,14.011,31.231,31.232,31.231
		c7.277,0,13.977-2.509,19.291-6.698c0.01,0.01,0.016,0.021,0.023,0.028l4.129,4.243C60.135,79.408,38.288,78.352,24.785,64.421z"/>
</g>
</svg>
