<?xml version="1.0" encoding="utf-8"?>
<!-- Generator: Adobe Illustrator 16.0.0, SVG Export Plug-In . SVG Version: 6.00 Build 0)  -->
<!DOCTYPE svg PUBLIC "-//W3C//DTD SVG 1.1//EN" "http://www.w3.org/Graphics/SVG/1.1/DTD/svg11.dtd">
<svg version="1.1" id="Layer_1" xmlns="http://www.w3.org/2000/svg" xmlns:xlink="http://www.w3.org/1999/xlink" x="0px" y="0px"
	 width="396.723px" height="391.66px" viewBox="0 0 396.723 391.66" enable-background="new 0 0 396.723 391.66"
	 xml:space="preserve">
<g>
	<path fill="#808080" d="M319.447,277.054c6.482-13.671,10.348-28.125,11.688-42.693c3.99-2.812,7.597-6.169,10.652-10.044
		c16.117-20.438,10.862-47.476-11.738-60.388c-4.994-2.854-10.419-4.775-16.012-5.822c-8.081-13.681-18.885-26.102-32.321-36.433
		c-56.699-43.598-138.712-33.528-183.18,22.491c-8.739,11.009-15.368,22.976-19.963,35.425c-8.108,3.449-15.396,8.754-20.9,15.734
		c-16.117,20.438-10.862,47.476,11.738,60.388c2.033,1.161,4.139,2.163,6.296,3.021c1.863,6.464,4.236,12.798,7.127,18.936
		c-42.316,9.038-74.112,47.549-74.112,93.689v20.302h388v-20.302C396.723,324.075,363.332,284.805,319.447,277.054z"/>
</g>
<path fill="#4D4D4D" d="M269.558,121.443c45.785,6.116,47.145,22.191,3.036,35.906c-44.108,13.716-116.98,19.877-162.766,13.761
	c-45.785-6.116-47.144-22.192-3.035-35.907C150.901,121.488,223.774,115.327,269.558,121.443"/>
<g>
	<path fill="#4D4D4D" d="M331.539,96.56c-6.907-1.515-14.173-2.812-21.72-3.904c-0.647-14.95-3.854-30.026-9.375-42.368
		c-4.687-14.036-16.985-26.909-36.711-36.343C215.333-9.202,140.57-2.881,96.744,28.062C79.981,39.897,70.181,53.621,67.167,67.351
		c-0.236,0.63-0.469,1.27-0.693,1.935c-4.47,13.253-5.509,30.618-3.538,47.287c-3.072,1.123-6.082,2.273-9.006,3.457
		c-74.653,30.218-71.399,68.704,7.267,85.96c78.667,17.256,202.956,6.749,277.609-23.47
		C413.458,152.302,410.206,113.816,331.539,96.56z"/>
</g>
<g>
	<path fill="#FFFFFF" d="M161.684,59.745c26.931-2.427,44.373,16.404,46.211,36.802s-11.956,42.043-38.887,44.47
		c-26.932,2.427-44.372-16.404-46.21-36.802C120.959,83.817,134.752,62.172,161.684,59.745z M167.6,125.4
		c14.502-1.307,24.014-13.41,22.765-27.273c-1.249-13.864-12.771-24.071-27.273-22.765c-14.501,1.307-24.014,13.409-22.765,27.273
		C141.577,116.5,153.099,126.707,167.6,125.4z"/>
	<path fill="#FFFFFF" d="M234.539,32.134l6.218,69.002c0.804,8.924,3.003,11.938,8.202,14.362l9.384,4.295l-6.152,13.727
		c-17.784-6.59-26.283-11.769-27.733-27.863l-6.491-72.03L234.539,32.134z"/>
</g>
<g>
</g>
<g>
</g>
<g>
</g>
<g>
</g>
<g>
</g>
<g>
</g>
<g>
</g>
<g>
</g>
<g>
</g>
<g>
</g>
<g>
</g>
<g>
</g>
<g>
</g>
<g>
</g>
<g>
</g>
</svg>
