<?xml version="1.0" encoding="utf-8"?>
<!-- Generator: Adobe Illustrator 16.0.0, SVG Export Plug-In . SVG Version: 6.00 Build 0)  -->
<!DOCTYPE svg PUBLIC "-//W3C//DTD SVG 1.1//EN" "http://www.w3.org/Graphics/SVG/1.1/DTD/svg11.dtd">
<svg version="1.1" id="Layer_1" xmlns="http://www.w3.org/2000/svg" xmlns:xlink="http://www.w3.org/1999/xlink" x="0px" y="0px"
	 width="100px" height="100px" viewBox="0 0 100 100" enable-background="new 0 0 100 100" xml:space="preserve">
<path fill="#333333" d="M59.312,71.951c-2.332,3.316-4.443,7.52-5.176,12.447c0.09,0.078,0.146,0.193,0.146,0.324
	c0,0.17-0.102,0.314-0.244,0.387c0.113,0.088,0.189,0.219,0.189,0.369c0,0.125-0.053,0.238-0.141,0.316
	c0.223,0.271,0.363,0.844,0.34,1.498c-0.021,0.695-0.225,1.285-0.486,1.516c0.113,0.076,0.188,0.209,0.188,0.354
	s-0.069,0.271-0.182,0.352c0.057,0.266,0.139,0.479,0.25,0.631c0.067,0.096,0.229,0.248,0.29,0.34
	c1.423,1.596,0.449,3.631-0.37,4.654c0.284-0.789,0.442-1.908,0.069-3.354c-0.043-0.17-0.09-0.391-0.123-0.561
	c0.015,0.174,0.033,0.348,0.06,0.521c0.146,0.982,0.024,1.801-0.213,2.463c-0.031-0.207-0.306-2.203-0.336-2.379l0.172,2.771
	c-0.61-1.037-0.515-3.582-0.515-3.582c-0.203,0.67-0.371,1.646-0.073,2.679c-1.47-2.537-0.252-2.562,0.219-3.847
	c0.037-0.101,0.063-0.209,0.088-0.33c-0.116-0.073-0.194-0.209-0.194-0.358c0-0.146,0.076-0.279,0.19-0.354
	c-0.256-0.235-0.424-0.851-0.397-1.562c0.021-0.649,0.199-1.205,0.437-1.463c-0.078-0.08-0.127-0.187-0.127-0.308
	c0-0.172,0.103-0.319,0.248-0.39c-0.119-0.082-0.197-0.215-0.197-0.366c0-0.15,0.076-0.283,0.193-0.359
	c-0.037-3.534-0.504-6.853-3.585-6.853c-3.082,0-3.548,3.316-3.586,6.853c0.116,0.076,0.194,0.209,0.194,0.359
	c0,0.149-0.078,0.282-0.196,0.358c0.146,0.075,0.247,0.228,0.247,0.396c0,0.121-0.048,0.228-0.127,0.308
	c0.237,0.258,0.413,0.812,0.436,1.463c0.024,0.711-0.142,1.323-0.398,1.562c0.115,0.075,0.19,0.209,0.19,0.354
	c0,0.151-0.078,0.284-0.196,0.36c0.023,0.119,0.053,0.229,0.088,0.328c0.473,1.282,1.688,1.31,0.219,3.846
	c0.296-1.032,0.128-2.008-0.075-2.678c0,0,0.1,2.545-0.513,3.582l0.172-2.771c-0.031,0.176-0.305,2.172-0.335,2.379
	c-0.239-0.662-0.359-1.479-0.213-2.463c0.025-0.175,0.045-0.347,0.059-0.521c-0.032,0.17-0.08,0.39-0.124,0.56
	c-0.372,1.442-0.213,2.562,0.071,3.353c-0.82-1.023-1.792-3.06-0.371-4.654c0.06-0.092,0.223-0.243,0.291-0.34
	c0.112-0.151,0.192-0.365,0.248-0.631c-0.108-0.078-0.178-0.205-0.178-0.351s0.075-0.277,0.188-0.354
	c-0.263-0.229-0.464-0.817-0.488-1.515c-0.022-0.655,0.117-1.228,0.339-1.498c-0.086-0.078-0.14-0.192-0.14-0.317
	c0-0.147,0.077-0.281,0.191-0.356c-0.144-0.082-0.242-0.229-0.242-0.397c0-0.13,0.057-0.244,0.146-0.322
	c-0.733-4.933-2.846-9.139-5.178-12.455c0.408-0.68,0.833-1.495,1.142-2.354c0.549,0.312,1.137,0.553,1.766,0.711
	c5.261,1.33,5.698-2.279,4.518-4.77c-0.941-1.982-3.129-2.854-3.129-2.854s1.315,0.385,2.546,0.385h4.875
	c1.229,0,2.547-0.385,2.547-0.385s-2.188,0.869-3.127,2.854c-1.183,2.486-0.746,6.1,4.517,4.77c0.627-0.158,1.213-0.396,1.762-0.705
	C58.477,70.453,58.902,71.271,59.312,71.951L59.312,71.951z M41.803,42.933c0.426-0.061,0.81-0.088,1.157-0.091
	c-2.17-0.677-2.822-1.181-4.735-0.562c-1.23,0.396-1.96,1.382-1.96,1.382s2.097-4.399,5.164-3.342
	c2.743,0.945,1.676,0.636,4.149,1.452c1.886,0.623,3.158-0.138,3.158-0.138s-0.95,1.934-3.433,1.759
	c0.49,0.304,0.713,0.642,0.818,0.761l-7.065-0.138C39.055,44.016,39.453,43.321,41.803,42.933L41.803,42.933z M51.486,34.088
	l0.189,0.12c2.475,0.908,5.387,1.458,8.434,1.492c0.654,0.006,1.295-0.01,1.916-0.048c-1.346,0.45-2.908,0.693-4.605,0.673
	c-0.566-0.006-1.129-0.042-1.682-0.104c2.562,1.007,5.375,1.671,8.246,1.956c-0.061-0.682-0.037-1.293,0.037-1.873
	C60.941,35.057,56.496,34.227,51.486,34.088L51.486,34.088z M64.059,38.815c-6.291,0.261-12.316-1.431-15.591-4.726
	c-1.754,0.05-3.439,0.184-5.02,0.392c4.389,2.898,11.243,6.077,21.874,8.519C64.613,41.297,64.229,39.954,64.059,38.815
	L64.059,38.815z M51.426,27.555c0-0.805-0.266-1.458-0.596-1.458s-0.594,0.729-0.594,1.533c0,0.076,0.052,0.172,0.375,0.172
	C51.416,27.802,51.426,27.599,51.426,27.555L51.426,27.555z M47.784,26.869c0,0.033,0.008,0.17,0.427,0.335
	c0.212,0.084,0.2-0.059,0.2-0.116c0-0.604-0.085-1.095-0.258-1.156C47.979,25.872,47.784,26.265,47.784,26.869L47.784,26.869z
	 M48.629,27.555c0,0.044,0.01,0.247,0.814,0.247c0.324,0,0.377-0.097,0.377-0.172c0-0.805-0.267-1.533-0.595-1.533
	C48.896,26.096,48.629,26.75,48.629,27.555L48.629,27.555z M52.271,26.869c0-0.604-0.195-0.998-0.367-0.937
	c-0.174,0.061-0.258,0.552-0.258,1.156c0,0.057-0.014,0.2,0.195,0.116C52.264,27.039,52.271,26.902,52.271,26.869L52.271,26.869z
	 M50.008,26.158c0.168-0.357,0.422-0.633,0.809-0.633c0.229,0,0.408,0.1,0.545,0.232c0.218-0.411,0.609-0.522,0.918-0.289
	c0.021-0.16-0.014-0.336-0.032-0.527c2.017,0.081,2.971,0.369,2.444-2.488c0.015-0.625,0.735-1.163,0.431-2.853
	c-0.574-3.183-1.713-3.778-5.113-3.778c-3.392,0-4.53,0.595-5.106,3.778c-0.305,1.69,0.417,2.228,0.43,2.853
	c-0.524,2.856,0.432,2.569,2.445,2.488c-0.02,0.191-0.052,0.368-0.032,0.527c0.308-0.233,0.701-0.122,0.918,0.289
	c0.136-0.132,0.314-0.232,0.543-0.232C49.594,25.525,49.847,25.801,50.008,26.158L50.008,26.158z M55.391,23.884
	c-0.027,0.797-0.312,1.279-0.988,1.502l2.59,1.262c1.18,0.634,0.588,1.788,1.508,2.232c0.795,0.384,2.158,0.146,2.141-0.736
	c-0.008-0.232-0.121-0.42-0.016-0.683l0.023-0.054c0.145-0.247,0.361-0.272,0.547-0.411c0.709-0.527,0.059-1.749-0.734-2.138
	c-0.916-0.451-1.461,0.724-2.688,0.188L55.391,23.884L55.391,23.884z M42.156,19.413l2.102,1.026
	c0.001-0.251,0.03-0.554,0.099-0.937c0.058-0.325,0.124-0.625,0.197-0.903l-1.614-0.788c-1.18-0.634-0.588-1.787-1.508-2.232
	c-0.795-0.384-2.159-0.146-2.138,0.736c0.005,0.232,0.12,0.42,0.013,0.684l-0.026,0.053c-0.141,0.246-0.36,0.272-0.546,0.411
	c-0.708,0.528-0.056,1.749,0.736,2.138C40.387,20.051,40.931,18.877,42.156,19.413L42.156,19.413z M73.5,55.398
	c-0.111-2.436-1.514-4.2-3.135-3.949c-0.17,0.027-0.334,0.072-0.494,0.139c-0.141,0.676-0.445,1.141-1.438,1.326
	c-0.551,0.896-0.863,2.111-0.807,3.396c0.107,2.432,1.514,4.197,3.135,3.945C72.382,60.005,73.607,57.83,73.5,55.398L73.5,55.398z
	 M31.771,52.938c-1.129-0.17-1.445-0.666-1.588-1.398c-0.117-0.039-0.236-0.066-0.357-0.088c-1.622-0.251-3.025,1.516-3.134,3.947
	c-0.109,2.433,1.116,4.607,2.737,4.859c1.621,0.252,3.024-1.516,3.134-3.947C32.62,55.035,32.311,53.832,31.771,52.938
	L31.771,52.938z M26.072,58.605c-0.663,0.133-1.308,0.207-1.936,0.23c-2.668-1.125-5.512-2.045-8.492-2.727
	c-2.449-1.729-3.857-3.641-3.857-3.641s10.744,2.641,13.415-3.836c-1.9,2.779-5.541,3.965-8.791,2.652
	c-0.912-0.369-1.71-0.899-2.372-1.547c0.436,0.3,0.911,0.556,1.419,0.761c3.899,1.575,9.082-1.071,10.29-5.62
	C13.657,45.65,3.063,46.8,3.063,46.8L0.5,37.887c19.546-4.42,18.526-30.528,41.337-35.77c0.637,6.495,4.047,9.271,8.165,9.295
	c4.118-0.024,7.53-2.8,8.167-9.295c22.81,5.241,21.791,31.349,41.336,35.77l-2.562,8.915c0,0-10.562-1.147-22.633-1.915
	c1.209,4.547,6.391,7.191,10.289,5.616c0.508-0.205,0.98-0.461,1.42-0.761c-0.664,0.647-1.461,1.178-2.373,1.547
	c-3.25,1.312-6.893,0.127-8.791-2.652c2.672,6.477,13.416,3.835,13.416,3.835s-1.408,1.909-3.857,3.642
	c-2.98,0.68-5.824,1.6-8.492,2.725c-0.588-0.021-1.191-0.09-1.811-0.207c-0.646,1.779-1.848,3.076-3.273,3.298
	c-1.346,0.209-2.584-0.593-3.387-1.996l-0.025,3.618c0,0-1.701,1.188-3.898,3.394c-0.066-0.551-0.076-1.174,0.008-1.866
	c0.145-1.203,0.148-2.213,0.104-3.013c1.787-4.815,2.156-9.899,2.156-9.899c-0.938,0.537-2.047,0.987-3.229,1.281
	c-0.57,0.141,6.256-2.64,3.346-9.118c-0.533-0.12-1.072-0.246-1.619-0.377c0.072,0.628,0.064,1.463-0.076,2.111
	c-0.717,3.298-3.889,4.649-7.156,3.233c-1.75-0.757-4.053-1.677-5.211-7.233c-0.117-0.559-0.317-1.459-0.332-2.109
	c-3.551-1.436-6.939-3.155-9.816-5.203c-2.164,0.378-4.083,0.9-5.653,1.528c0.242,1.877-0.051,4.07-1.843,7.961
	c-3.011,6.541,3.879,9.347,3.307,9.204c-1.185-0.293-2.292-0.742-3.232-1.279c0,0,0.37,5.074,2.153,9.887
	c-0.048,0.805-0.041,1.816,0.104,3.025c0.083,0.689,0.074,1.312,0.005,1.861c-2.195-2.199-3.894-3.389-3.894-3.389l-0.021-3.414
	c-0.805,1.275-1.986,1.99-3.266,1.791C27.923,61.707,26.715,60.398,26.072,58.605L26.072,58.605z M57.775,19.413
	c1.225-0.536,1.77,0.639,2.686,0.188c0.793-0.39,1.445-1.61,0.736-2.138c-0.186-0.139-0.406-0.165-0.545-0.411l-0.027-0.053
	c-0.107-0.264,0.008-0.452,0.014-0.684c0.021-0.882-1.344-1.121-2.139-0.736c-0.92,0.445-0.328,1.598-1.508,2.232l-1.533,0.747
	c0.078,0.29,0.148,0.604,0.209,0.944c0.066,0.358,0.094,0.65,0.098,0.892L57.775,19.413L57.775,19.413z M45.572,25.365
	c-0.634-0.218-0.923-0.681-0.94-1.526l-2.474,1.208c-1.225,0.536-1.769-0.639-2.686-0.188c-0.792,0.39-1.444,1.611-0.736,2.138
	c0.186,0.139,0.405,0.164,0.546,0.411l0.026,0.054c0.107,0.263-0.008,0.451-0.013,0.683c-0.02,0.882,1.343,1.121,2.139,0.736
	c0.92-0.444,0.328-1.598,1.508-2.232L45.572,25.365L45.572,25.365z M46.065,21.916c0.02-0.922,0.621-1.363,1.463-1.484
	c1.019-0.145,1.863,0.081,1.924,0.972c0.069,1.026-0.916,2.235-1.944,2.235C46.479,23.639,46.043,22.944,46.065,21.916
	L46.065,21.916z M53.914,21.916c0.023,1.029-0.414,1.723-1.443,1.723c-1.027,0-2.012-1.208-1.943-2.235
	c0.062-0.892,0.904-1.117,1.926-0.972C53.293,20.552,53.895,20.993,53.914,21.916L53.914,21.916z M45.34,59.777
	c-2.304,0-2.884,0.736-2.884,3.137c0,2.729-0.631,6.211-2.044,8.623c-0.152,0.26-0.317,0.502-0.492,0.73
	c0.351-1.354,0.636-3.232,0.609-5.732l-0.002-0.08c-0.009,0-0.154,6.166-4.47,8.396c0,0-1.247,0.645-2.648,0.842
	c1.341-0.982,2.164-2.168,2.666-3.496c0.402-0.996,0.99-3.07,0.984-6.682c-0.004-2.383,1.809-5.648,1.809-5.648
	s-1.363,1.51-2.07,3.363c0.058-2.479,0.547-4.805,3.125-6.447c2.615-1.518,4.866-1.619,6.567-1.352
	c0.871,0.139,2.983,0.963,3.546,0.977c0.563-0.014,2.675-0.838,3.546-0.977c1.703-0.27,3.953-0.166,6.568,1.352
	c2.578,1.645,3.064,3.969,3.125,6.447c-0.707-1.854-2.07-3.363-2.07-3.363s1.812,3.268,1.809,5.648
	C63.01,69.127,63.6,71.201,64,72.197c0.502,1.328,1.326,2.514,2.666,3.496c-1.402-0.197-2.648-0.842-2.648-0.842
	c-4.314-2.23-4.461-8.396-4.471-8.396l-0.002,0.08c-0.025,2.5,0.26,4.379,0.611,5.732c-0.176-0.229-0.34-0.473-0.494-0.73
	c-1.41-2.412-2.043-5.895-2.043-8.623c0-2.4-0.578-3.137-2.885-3.137H45.34L45.34,59.777z"/>
</svg>
