<?xml version="1.0" encoding="utf-8"?>
<!-- Generator: Adobe Illustrator 16.0.0, SVG Export Plug-In . SVG Version: 6.00 Build 0)  -->
<!DOCTYPE svg PUBLIC "-//W3C//DTD SVG 1.1//EN" "http://www.w3.org/Graphics/SVG/1.1/DTD/svg11.dtd">
<svg version="1.1" id="圖層_1" xmlns="http://www.w3.org/2000/svg" xmlns:xlink="http://www.w3.org/1999/xlink" x="0px" y="0px"
	 width="100px" height="100px" viewBox="0 0 100 100" enable-background="new 0 0 100 100" xml:space="preserve">
<line fill="none" x1="73.177" y1="78.423" x2="49.94" y2="71.27"/>
<rect x="49.403" y="74.056" transform="matrix(0.9557 0.2943 -0.2943 0.9557 24.7527 -14.8019)" fill="#999999" width="24.314" height="1.58"/>
<line fill="none" x1="64.639" y1="85.189" x2="49.94" y2="71.27"/>
<rect x="47.163" y="77.439" transform="matrix(0.726 0.6877 -0.6877 0.726 69.4929 -17.9614)" fill="#999999" width="20.247" height="1.579"/>
<line fill="none" x1="55.188" y1="87.842" x2="49.94" y2="71.27"/>
<rect x="43.872" y="78.764" transform="matrix(0.3018 0.9534 -0.9534 0.3018 112.5482 5.4331)" fill="#999999" width="17.387" height="1.579"/>
<line fill="none" x1="44.902" y1="87.842" x2="49.94" y2="71.27"/>
<rect x="46.631" y="70.894" transform="matrix(0.9567 0.2911 -0.2911 0.9567 25.2111 -10.3587)" fill="#999999" width="1.58" height="17.322"/>
<line fill="none" x1="34.893" y1="85.189" x2="49.94" y2="71.27"/>
<rect x="41.627" y="67.973" transform="matrix(0.6797 0.7335 -0.7335 0.6797 70.9632 -6.0565)" fill="#999999" width="1.579" height="20.501"/>
<line fill="none" x1="28.886" y1="78.921" x2="49.94" y2="71.27"/>
<rect x="38.631" y="63.895" transform="matrix(0.3415 0.9399 -0.9399 0.3415 96.5361 12.3978)" fill="#999999" width="1.578" height="22.401"/>
<line fill="none" x1="6.143" y1="53.963" x2="26.7" y2="53.74"/>
<rect x="15.633" y="43.575" transform="matrix(0.0108 0.9999 -0.9999 0.0108 70.0922 36.8478)" fill="#999999" width="1.578" height="20.553"/>
<line fill="none" x1="7.105" y1="62.688" x2="26.7" y2="53.74"/>
<rect x="16.111" y="47.445" transform="matrix(0.4148 0.9099 -0.9099 0.4148 62.8605 18.6864)" fill="#999999" width="1.582" height="21.541"/>
<line fill="none" x1="14.879" y1="68.959" x2="26.7" y2="53.74"/>
<rect x="19.997" y="51.717" transform="matrix(0.789 0.6144 -0.6144 0.789 42.0798 0.1738)" fill="#999999" width="1.58" height="19.268"/>
<rect x="41.856" y="30.689" transform="matrix(0.3458 0.9383 -0.9383 0.3458 73.4439 -9.3616)" fill="#33CCCC" width="3.159" height="34.6"/>
<rect x="54.691" y="49.276" transform="matrix(0.7874 0.6164 -0.6164 0.7874 46.0684 -31.8699)" fill="#33CCCC" width="29.097" height="3.159"/>
<rect x="37.108" y="27.132" transform="matrix(0.3605 0.9328 -0.9328 0.3605 60.2436 -30.4439)" fill="#33CCCC" width="30.432" height="3.161"/>
<rect x="64.97" y="12.557" transform="matrix(0.8407 0.5416 -0.5416 0.8407 26.0515 -31.4959)" fill="#33CCCC" width="3.157" height="31.932"/>
<rect x="53.267" y="38.987" transform="matrix(0.9684 0.2495 -0.2495 0.9684 15.3711 -11.9565)" fill="#33CCCC" width="3.163" height="31.333"/>
<rect x="72.102" y="24.836" transform="matrix(0.1125 0.9937 -0.9937 0.1125 105.4159 -37.4668)" fill="#33CCCC" width="3.16" height="30.884"/>
<rect x="28.341" y="34.468" transform="matrix(0.9299 0.3678 -0.3678 0.9299 16.3836 -13.8676)" fill="#33CCCC" width="32.465" height="3.161"/>
<circle fill="#FF6666" cx="57.863" cy="42.021" r="15.715"/>
<circle fill="#33CCCC" cx="46.012" cy="12.115" r="8.476"/>
<circle fill="#33CCCC" cx="81.652" cy="61.477" r="8.476"/>
<circle fill="#33CCCC" cx="75.186" cy="15.1" r="8.476"/>
<circle fill="#33CCCC" cx="49.994" cy="72.423" r="8.476"/>
<circle fill="#33CCCC" cx="89.023" cy="38.538" r="8.476"/>
<circle fill="#33CCCC" cx="27.198" cy="30.079" r="8.476"/>
<circle fill="#999999" cx="6.143" cy="53.74" r="3.642"/>
<circle fill="#999999" cx="7.105" cy="62.688" r="3.642"/>
<circle fill="#999999" cx="14.741" cy="68.96" r="3.644"/>
<circle fill="#999999" cx="28.887" cy="78.921" r="3.644"/>
<circle fill="#999999" cx="34.893" cy="85.19" r="3.642"/>
<circle fill="#999999" cx="44.902" cy="89.837" r="3.644"/>
<circle fill="#999999" cx="55.688" cy="89.833" r="3.642"/>
<circle fill="#999999" cx="71.686" cy="78.423" r="3.642"/>
<circle fill="#999999" cx="65.137" cy="85.19" r="3.642"/>
<circle fill="#33CCCC" cx="27.198" cy="53.963" r="8.476"/>
</svg>
